<svg xmlns="http://www.w3.org/2000/svg" xml:space="preserve" id="Layer_1" x="0" y="0" style="enable-background:new 0 0 550 433.5" version="1.1" viewBox="0 0 550 433.5"><style type="text/css">.st1,.st2{fill:#fff;stroke:#000;stroke-width:1.2516;stroke-miterlimit:10}.st2{stroke-width:.9387}.st3{fill:#02355a}.st11,.st4,.st6,.st8{fill:none;stroke:#000;stroke-width:1.2516;stroke-miterlimit:10}.st11,.st6,.st8{stroke-width:1.2491}.st11,.st8{stroke-width:1.4769}.st11{stroke-width:.756}.st13{fill:#fff}.st18{fill:none;stroke:#fff;stroke-width:2.214;stroke-linecap:round;stroke-miterlimit:10}.st20,.st21,.st22{fill:none;stroke:#000}.st20{stroke-width:1.2516;stroke-linecap:round;stroke-dasharray:0,3.7547}.st21,.st22{stroke-width:1.0688;stroke-miterlimit:10}.st22{fill:#fff}</style><g id="blog1" transform="translate(1403.281 -5304.733)"><path id="Rectangle_381" d="M-1020.7 5430.6c2.8-4.1 8.3-5.1 12.4-2.3l41.3 28.5-5.1 7.3c-2.8 4.1-8.3 5.1-12.4 2.3l-34-23.4c-3.9-2.8-5-8.4-2.2-12.4z" style="fill:#fff;stroke:#000;stroke-width:.9387;stroke-miterlimit:9.9998"/><path id="Path_2889" d="m-957.3 5410.3-24.4 36.4 14.7 10.1 9.7-12.9" class="st1"/><path id="Path_2890" d="m-1033.2 5429.1 9.2 8.1c.1.1.3.2.4.3.1.1.2.2.2.3 3.8 3.5 9.8 3.3 13.3-.5 2.4-2.6 3.2-6.4 1.9-9.7-.8-2.4-1.3-4.9-1.3-7.5l-.1-2c0-1.1-.8-2-1.9-2.2-1.1-.2-2.1.5-2.4 1.5 0 .2-.1.4 0 .7l.1 3.4c0 .4-.3.8-.7.8-.2 0-.4-.1-.6-.2l-6.3-6.3c-.8-.8-2-.8-2.9-.2-.9.7-1.1 2.1-.4 3 .1.1.2.2.2.3l2.6 2.2c.5.4.5 1.2 0 1.6-.1.1-.2.1-.2.2-.4.3-1 .2-1.4-.1l-4.6-4.3c-.7-.7-1.8-.8-2.7-.3-1 .6-1.3 2-.6 3 .1.1.2.3.3.4l5 4.6c.4.3.5.9.3 1.4-.2.6-.9.9-1.6.6-.1-.1-.3-.1-.4-.2l-2.7-2.1c-.9-.8-2.2-.7-3 .1-.1.1-.2.2-.2.3-.5.9-.3 2.1.5 2.8z" class="st2"/><path id="Path_2891" d="M-1085.7 5642.1s-10.8-.2-4.4 20.5c3.4 10.8-7.5 20.8-7.5 20.8s17.1-4.9 22.4-20.4-6.3-21.5-10.5-20.9z" class="st3"/><path id="Path_2892" d="M-1143.7 5678.4s-.2 10.8 20.5 4.4c10.8-3.4 20.8 7.5 20.8 7.5s-4.9-17.1-20.4-22.4c-15.5-5.4-21.5 6.3-20.9 10.5z" class="st3"/><path id="Path_2893" d="M-1106.5 5596.5s16.4 4-1.6 32.7c-9.4 15 2.9 34.3 2.9 34.3s-23.8-14.3-25.6-39.8 18.1-29.8 24.3-27.2z" class="st3"/><path id="Path_2894" d="M-1103.6 5699.5c-5.2-20.3 26.7-17.4 21.5-47.7" class="st4"/><path id="Path_2895" d="M-1086.3 5696.3c-20.3 5.2-17.4-26.7-47.7-21.5" class="st4"/><path id="Path_2896" d="M-1102.6 5690.2c16-28.5-33.3-37-13.3-80.5" class="st4"/><path id="Path_2897" d="M-882.9 5717.6h-29.9l-6.6-122.2c-.4-7.8 5.5-14.4 13.3-14.8h.8c7.4 0 13.6 5.7 14.1 13.1l8.3 123.9z" class="st3"/><path id="Path_2898" d="M-964.4 5717.6h29.9l6.6-122.2c.4-7.8-5.5-14.4-13.3-14.8h-.8c-7.4 0-13.6 5.7-14.1 13.1l-8.3 123.9z" class="st3"/><path id="Path_2899" d="M-948.1 5478.5c0-43.8 48.8-41.5 48.8 0l7.9 115.6c.5 7.8-5.3 14.5-13.1 15h-1c-7.5 0-13.7-5.9-14.1-13.3l-4.1-75.4h-.5l-4 75.4c-.4 7.4-6.5 13.3-14 13.3-7.7 0-14-6.3-14-14v-1l8.1-115.6z" class="st3"/><path id="Rectangle_382" d="M-935.3 5738.2h-61.1c0-8.5 6.9-15.3 15.3-15.3h45.8v15.3z"/><path id="Rectangle_383" d="M-913.5 5722.9h45.8c8.5 0 15.3 6.8 15.3 15.3h-61.1v-15.3z"/><path id="Rectangle_384" d="M-1242.4 5313.4h85.5v114.7h-85.5z" style="opacity:.1;fill:#020100;enable-background:new"/><path id="Line_272" d="M-1334.5 5568.1h309" class="st4"/><path id="Path_2900" d="M-1289.4 5738.2h-68.1l54.9-170.1h68.1l-54.9 170.1z" class="st6"/><path id="Path_2901" d="M-1285.4 5568.1h68.1l-54.9 170.1h-68.1" class="st6"/><path id="Line_273" d="m-1066 5568.1 28.6 170.1" class="st6"/><path id="Line_274" d="m-1053.8 5568.1 28.5 170.1" class="st6"/><path id="Line_275" d="M-1052.9 5738.2h43.1" class="st6"/><path id="Rectangle_385" d="M-1236.3 5484.4h110.6v67.4h-110.6z" style="fill:none;stroke:#000;stroke-width:1.413;stroke-miterlimit:10"/><path id="Path_2902" d="M-1122.4 5465.6h-31l16.8-26h14.2v26z" class="st8"/><path id="Rectangle_386" d="M-1203.6 5561.7h45.2v6.4h-45.2z" style="fill:none;stroke:#000;stroke-width:.8849;stroke-miterlimit:10"/><path id="Rectangle_387" d="M-1191 5551.8h20v10h-20z" class="st4"/><circle id="Ellipse_525" cx="-1181" cy="5518.1" r="8" class="st3"/><path id="Rectangle_388" d="M-1069.4 5553h12.5c8.3 0 15.1 6.7 15.1 15.1h-42.6c-.1-8.3 6.7-15.1 15-15.1z" style="fill:none;stroke:#000;stroke-width:1.0401;stroke-miterlimit:10"/><path id="Path_2903" d="M-1075.1 5548.9" class="st4"/><path id="Path_2904" d="m-1063.2 5553-16-78.2c-4.2-20.5-22.2-35.2-43.2-35.2" class="st8"/><path id="Path_2905" d="M-1136.7 5439.6v-8.6c0-4 3.2-7.2 7.2-7.2s7.2 3.2 7.2 7.2v8.6" class="st8"/><g id="Group_2158" transform="translate(-1187.286 5400.653)"><path id="Line_276" d="M53.5 24.6v14.3" class="st8"/><path id="Line_277" d="M56.3 23.4v15.5" class="st8"/><path id="Line_278" d="M59.1 23.4v15.5" class="st8"/><path id="Line_279" d="M61.9 24.6v14.3" class="st8"/></g><path id="Line_280" d="m-1195 5561.7-8.6 6.4" class="st11"/><path id="Line_281" d="m-1186.4 5561.7-8.5 6.4" class="st11"/><path id="Line_282" d="m-1177.8 5561.7-8.5 6.4" class="st11"/><path id="Line_283" d="m-1169.2 5561.7-8.5 6.4" class="st11"/><path id="Line_284" d="m-1160.5 5561.7-8.6 6.4" class="st11"/><path id="Line_285" d="M-1350.6 5715.4h68.1" class="st6"/><path id="Line_286" d="M-1342.5 5689.7h68.1" class="st6"/><path id="Line_287" d="M-1333.9 5664.1h68.2" class="st6"/><path id="Line_288" d="M-1325.8 5638.4h68.2" class="st6"/><path id="Line_289" d="M-1317.7 5612.8h68.2" class="st6"/><path id="Line_290" d="M-1309.6 5587.1h68.2" class="st6"/><path id="Rectangle_389" d="M-870.6 5442.6c4.6 1.9 6.7 7.1 4.9 11.6l-15.7 38.2c-1.9 4.6-7.1 6.7-11.6 4.9-4.6-1.9-6.7-7.1-4.9-11.6l15.7-38.2c1.9-4.6 7.1-6.8 11.6-4.9z" class="st2"/><path id="Path_2906" d="m-885 5506.9 3.5-11.7c0-.2.1-.3.1-.5 0-.1.1-.2.1-.3 1.6-4.9-1.1-10.3-6-11.9-3.4-1.1-7.1-.2-9.6 2.3-1.8 1.8-3.9 3.2-6.2 4.3l-1.8.9c-1 .5-1.5 1.6-1.2 2.6.3 1.1 1.3 1.7 2.4 1.5.2 0 .4-.1.6-.2l3.1-1.5c.4-.2.8 0 1 .3.1.2.1.4 0 .6-.9 2.5-2.5 6.7-3.1 8.4-.4 1 .1 2.1 1 2.7 1 .6 2.3.2 2.9-.9.1-.1.1-.2.1-.3l.9-3.2c.2-.6.9-.9 1.5-.7.1 0 .2.1.3.1.4.3.6.8.4 1.3l-2 6c-.3 1 0 2 .8 2.6 1 .6 2.3.3 3-.7.1-.1.2-.3.2-.5l2.1-6.5c.2-.5.6-.8 1.1-.8.7 0 1.2.5 1.2 1.1 0 .1 0 .3-.1.4l-.8 3.3c-.4 1.1.3 2.3 1.4 2.7.1 0 .2.1.3.1 1.5.2 2.5-.5 2.8-1.5z" class="st2"/><path id="Path_2907" d="M-948.1 5478.5h48.8l11.6-44.3c5.4-20.8-3.3-28.4-20.8-36.8-4.7-2.3-9.9-3.5-15.1-3.5-5.2 0-10.4 1.2-15.1 3.5-17.6 8.4-26.3 16.1-20.8 36.8l11.4 44.3z" class="st1"/><path id="Rectangle_390" d="M-923.4 5402.7c-4.2 0-7.7-3.4-7.7-7.7v-22.4c0-4.2 3.4-7.7 7.7-7.7 4.2 0 7.7 3.4 7.7 7.7v22.4c0 4.3-3.5 7.7-7.7 7.7z" class="st1"/><g id="Group_2162" transform="translate(-1034.248 5343.957)"><g id="Group_2161"><g id="Group_2160"><g id="Group_2159"><path id="Path_2908" d="m95.6 16.9 3.7-2.5c.4-.3.8-.6 1.2-1l3.1-3.2c.7-.7 1.6-1.1 2.6-1l4.3.4c.5.1 1 0 1.5 0l4.4-.5c1-.1 1.9.2 2.6.9l2.9 3.2c.3.4.7.7 1.1 1l3.6 2.4c.8.5 1.3 1.4 1.3 2.4l.2 4.4c0 .5.1 1 .2 1.5l1.1 4.2c.2.9 0 1.9-.6 2.7l-2.7 3.6c-.3.4-.6.9-.8 1.3l-1.9 4c-.4.9-1.2 1.5-2.2 1.8l-4.3 1.1c-.5.1-1 .3-1.4.5l-4 2c-.9.4-1.9.4-2.8 0l-3.9-1.9c-.5-.2-.9-.4-1.4-.5l-4.2-1c-.9-.2-1.7-.9-2.1-1.8l-1.7-4c-.2-.5-.4-.9-.7-1.3l-2.5-3.5c-.5-.8-.7-1.8-.4-2.7l1.3-4.2c.2-.5.3-1 .3-1.5l.4-4.4c.5-1 1-1.9 1.8-2.4z" style="fill:#020100"/></g></g></g></g><g id="Group_2167" transform="translate(-1008.14 5361.843)"><g id="Group_2166"><g id="Group_2165"><g id="Group_2164"><g id="Group_2163"><path id="Path_2909" d="M99 13.6c.9.1 1.6.9 1.7 1.8.1 1.1-.8 2-1.9 2.1H98.5l.5-3.9z" class="st13"/></g></g></g></g></g><g id="Group_2172" transform="translate(-1032.408 5361.843)"><g id="Group_2171"><g id="Group_2170"><g id="Group_2169"><g id="Group_2168"><path id="Path_2910" d="M94.1 13.6c-.9.1-1.6.9-1.7 1.8-.1 1.1.8 2 1.9 2.1H94.6l-.5-3.9z" class="st13"/></g></g></g></g></g><g id="Group_2173" transform="translate(-1031.238 5352.804)"><path id="Path_2911" d="m92.9 23.8 1.6 6.8c.2 1 .8 1.9 1.7 2.5l5.6 4.2c.8.6 1.9.9 2.9.9l7-.4c1-.1 2-.5 2.8-1.2l5.1-4.8c.8-.7 1.2-1.7 1.4-2.7l.8-6.9c.1-1-.1-2.1-.7-3l-3.9-5.8c-.5-.9-1.4-1.6-2.5-1.8-1.8-.2-5 1.9-7.8 2-3.3.1-6.2-1.6-8.4-1-1 .4-1.8 1.1-2.2 2.1L93.2 21c-.5.7-.6 1.7-.3 2.8z" style="fill:#fff;stroke:#707070;stroke-width:.9387"/><path id="Path_2912" d="m92.9 23.8 1.6 6.8c.2 1 .8 1.9 1.7 2.5l5.6 4.2c.8.6 1.9.9 2.9.9l7-.4c1-.1 2-.5 2.8-1.2l5.1-4.8c.8-.7 1.2-1.7 1.4-2.7l.8-6.9c.1-1-.1-2.1-.7-3l-3.9-5.8c-.5-.9-1.4-1.6-2.5-1.8-1.8-.2-5 1.9-7.8 2-3.3.1-6.2-1.6-8.4-1-1 .4-1.8 1.1-2.2 2.1L93.2 21c-.5.7-.6 1.7-.3 2.8z" style="fill:none;stroke:#000;stroke-width:.9387;stroke-miterlimit:10"/></g><g id="Group_2178" transform="translate(-1014.335 5361.467)"><g id="Group_2177"><g id="Group_2176"><g id="Group_2175"><g id="Group_2174"><path id="Path_2913" d="M97 13.7c0 .1.1.1.1.1.1 0 .1-.1.1-.1 0-.1-.1-.1-.1-.1-.1-.1-.1 0-.1.1z" style="fill:#fcfdff"/></g></g></g></g></g><circle id="Ellipse_526" cx="-919" cy="5375.3" r="1.4"/><circle id="Ellipse_527" cx="-928.4" cy="5375.3" r="1.4"/><path id="Path_2914" d="M-920.5 5383.4c-1 .8-2.2 1.2-3.4 1.2-1.2 0-2.5-.4-3.5-1.2" class="st1"/><path id="Line_291" d="M-923.4 5399.7v78.8" style="fill:none"/><path id="Path_2915" d="m-890.3 5410.1 24.5 36.7-18.3 4.5-12.9-19.4" class="st1"/><path id="Rectangle_391" d="M-1287 5464.2h-93.3c-13.2 0-23.9-10.7-23.9-23.9s10.7-23.9 23.9-23.9h69.4c13.2 0 23.9 10.7 23.9 23.9v23.9z" class="st3"/><path id="Line_292" d="M-1305.6 5432.2h-51.5" class="st18"/><path id="Line_293" d="M-1305.6 5440.3h-51.5" class="st18"/><path id="Line_294" d="M-1305.6 5448.4h-22.1" class="st18"/><path id="Path_2916" d="M-1083.9 5737.1h-34.8l-6.5-48.4h47.8l-6.5 48.4z" class="st1"/><path id="Rectangle_392" d="M-1126.7 5688.6h51.2v7.2h-51.2z" class="st1"/><path id="Line_295" d="m-1117.1 5688.6-9.6 7.3" class="st4"/><path id="Line_296" d="m-1107.3 5688.6-9.7 7.3" class="st4"/><path id="Line_297" d="m-1097.5 5688.6-9.7 7.3" class="st4"/><path id="Line_298" d="m-1087.8 5688.6-9.6 7.3" class="st4"/><path id="Line_299" d="m-1078 5688.6-9.7 7.3" class="st4"/><circle id="Ellipse_528" cx="-1378.5" cy="5440.3" r="11.7" class="st18"/><path id="Path_2917" d="M-1259.8 5557.7c0 3.7-3 6.8-6.8 6.8-3.7 0-6.8-3-6.8-6.8 0-3.7 3-6.8 6.8-6.8s6.8 3 6.8 6.8zm-3.6 0c0-1.8-1.4-3.2-3.2-3.2-1.8 0-3.2 1.4-3.2 3.2 0 1.8 1.4 3.2 3.2 3.2 1.8-.1 3.2-1.5 3.2-3.2z" class="st3"/><path id="Rectangle_393" d="M-1281.5 5547.2h12.2c1.5 0 2.8 1.2 2.8 2.8v15.4c0 1.5-1.2 2.8-2.8 2.8h-12.2c-1.5 0-2.8-1.2-2.8-2.8V5550c0-1.6 1.2-2.8 2.8-2.8z" class="st1"/><path id="Path_2918" d="M-1277.4 5544.2s4.7-3 2.1-9.6 1.7-9.2 1.7-9.2" class="st2"/><path id="Path_2919" d="M-1272.8 5522.5c3.1 5.9-.7 8.9-.7 8.9" class="st2"/><path id="Path_2920" d="M-1278.6 5543.1s3.9-4 0-9.9c-.1-.2-.2-.3-.3-.5" class="st2"/><path id="Rectangle_394" d="M-1251.1 5304.7h85.5v114.7h-85.5z" style="fill:#fff;stroke:#000;stroke-width:1.4769;stroke-miterlimit:10"/><path id="Rectangle_395" d="M-1243.4 5313.4h70.2v97.4h-70.2z" class="st8"/><path id="Line_300" d="M-1184.1 5340.2h-48.5" class="st20"/><path id="Path_2921" d="m-1223.3 5368.2 14.9-23 14.9 23-15.1 10.8-14.7-10.8z" class="st21"/><path id="Line_301" d="M-1208.3 5345.2v15.2" class="st21"/><circle id="Ellipse_529" cx="-1208.3" cy="5363.8" r="3.5" class="st3"/><path id="Path_2922" d="M-1184.4 5364.3c0-13.2-10.7-24-24-24-13.2 0-24 10.7-24 24" class="st20"/><circle id="Ellipse_530" cx="-1180.6" cy="5340.2" r="3.5" class="st21"/><circle id="Ellipse_531" cx="-1236.1" cy="5340.2" r="3.5" class="st21"/><path id="Rectangle_396" d="M-1211.7 5336.9h6.7v6.7h-6.7z" class="st22"/><path id="Rectangle_397" d="M-1187.7 5358.1h6.7v6.7h-6.7z" class="st22"/><path id="Rectangle_398" d="M-1235.6 5358.1h6.7v6.7h-6.7z" class="st22"/><path id="Rectangle_399" d="M-1220.5 5375.6h24v6.5h-24z" class="st22"/><path id="Rectangle_400" d="M-1220.5 5383.6h24v6.5h-24z" class="st22"/></g></svg>