<?xml version="1.0" encoding="utf-8"?>
<!-- Generator: Adobe Illustrator 19.0.0, SVG Export Plug-In . SVG Version: 6.00 Build 0)  -->
<svg version="1.1" id="Capa_1" xmlns="http://www.w3.org/2000/svg" xmlns:xlink="http://www.w3.org/1999/xlink" x="0px" y="0px"
	 viewBox="0 0 512 512" style="enable-background:new 0 0 512 512;" xml:space="preserve">
<style type="text/css">
	.st0{fill:#fff;}
</style>
<g>
	<path class="st0" d="M64,192c-17.7,0-32,14.3-32,32v128c0,17.7,14.3,32,32,32s32-14.3,32-32V224C96,206.3,81.7,192,64,192z"/>
	<path class="st0" d="M448,192c-17.7,0-32,14.3-32,32v128c0,17.7,14.3,32,32,32s32-14.3,32-32V224C480,206.3,465.7,192,448,192z"/>
	<path class="st0" d="M128,385.9c0,17.7,14.3,32,32,32V480c0,17.7,14.3,32,32,32s32-14.3,32-32v-62.1h64V480c0,17.7,14.3,32,32,32
		s32-14.3,32-32v-62.1c17.7,0,32-14.3,32-32v-192H128V385.9z"/>
	<path class="st0" d="M335.9,60.7l28.5-34.5c5.6-6.8,4.7-16.9-2.1-22.5c-6.8-5.6-16.9-4.7-22.5,2.1l-31.1,37.7
		C292.6,36.2,274.9,32,256.2,32c-19,0-37,4.4-53.2,11.9L172.5,6C167-0.9,156.9-2,150,3.5s-8,15.6-2.5,22.5l28.1,35.1
		C146.8,84.6,128,119.9,128,160h256C384,119.7,365,84.2,335.9,60.7z M224,112c-8.8,0-16-7.2-16-16s7.2-16,16-16s16,7.2,16,16
		S232.8,112,224,112z M288,112c-8.8,0-16-7.2-16-16s7.2-16,16-16s16,7.2,16,16S296.8,112,288,112z"/>
</g>
</svg>
