<?xml version="1.0" encoding="utf-8"?>
<!-- Generator: Adobe Illustrator 21.1.0, SVG Export Plug-In . SVG Version: 6.00 Build 0)  -->
<svg version="1.1" id="Layer_1" xmlns="http://www.w3.org/2000/svg" xmlns:xlink="http://www.w3.org/1999/xlink" x="0px" y="0px"
	 width="183px" height="47px" viewBox="0 0 183 47" style="enable-background:new 0 0 183 47;" xml:space="preserve">
<style type="text/css">
	.st0{fill:#1974BB;}
</style>
<g>
	<path class="st0" d="M41.35,23.32c0-3.43,0.85-6.12,2.69-8.2c1.84-2.08,4.16-3.06,7.09-3.06c0.98,0,1.84,0.13,2.56,0.37
		c0.85,0.24,1.47,0.49,1.95,0.85c0.49,0.37,0.85,0.74,1.22,0.98c0.37,0.37,0.61,0.61,0.74,0.85l0.13,0.37h0.13
		c0-0.37-0.13-0.85-0.13-1.47V3.99h4.16v30.09h-3.92V32v-1.47h-0.13c0,0.13-0.13,0.24-0.24,0.37c-0.13,0.13-0.37,0.49-0.74,0.98
		c-0.37,0.49-0.85,0.85-1.35,1.22s-1.22,0.74-2.08,0.98c-0.85,0.24-1.84,0.37-2.82,0.37c-2.93,0-5.26-0.98-6.98-3.06
		C42.2,29.43,41.35,26.62,41.35,23.32z M45.51,23.32c0,2.32,0.61,4.16,1.71,5.63c1.1,1.47,2.56,2.08,4.4,2.08
		c1.71,0,3.3-0.61,4.4-1.95c1.22-1.35,1.84-3.18,1.84-5.87c0-2.08-0.49-3.92-1.59-5.38c-1.1-1.47-2.56-2.32-4.53-2.32
		c-1.71,0-3.3,0.74-4.4,2.08C46.12,19.04,45.51,20.87,45.51,23.32z"/>
	<path class="st0" d="M65.33,8.14V3.87h4.16v4.28H65.33z M65.45,34.08V12.43h4.16v21.65H65.45z"/>
	<path class="st0" d="M75.85,37.99c1.84,0.98,3.79,1.47,5.87,1.47c2.08,0,3.67-0.49,4.9-1.47c1.22-0.98,1.84-2.56,1.84-4.65v-1.59
		v-1.35h-0.13c-1.35,2.21-3.43,3.43-6.36,3.43c-2.93,0-5.26-1.1-6.98-3.18c-1.71-2.08-2.56-4.77-2.56-7.95s0.85-5.75,2.56-7.83
		c1.71-1.95,4.04-3.06,6.98-3.06c0.98,0,1.84,0.13,2.69,0.37c0.85,0.24,1.47,0.49,1.95,0.85c0.49,0.37,0.85,0.61,1.22,0.98
		c0.37,0.37,0.61,0.61,0.74,0.85l0.24,0.24h0.13c0-0.24,0-0.37,0-0.74v-1.95h3.92v20.67c0,1.71-0.37,3.18-0.85,4.53
		c-0.61,1.35-1.47,2.32-2.45,3.06c-1.22,0.85-2.45,1.47-3.67,1.84c-1.22,0.37-2.56,0.61-4.04,0.61c-2.56,0-5.01-0.61-7.34-1.84
		L75.85,37.99z M82.94,30.17c1.71,0,3.06-0.61,4.16-1.71c1.1-1.22,1.59-3.06,1.59-5.63c0-4.9-2.08-7.22-6.12-7.22
		c-1.84,0-3.3,0.61-4.28,1.95c-0.98,1.22-1.59,3.06-1.59,5.26c0,2.32,0.61,4.16,1.71,5.51C79.51,29.56,81.1,30.17,82.94,30.17z"/>
	<path class="st0" d="M96.15,8.14V3.87h4.16v4.28H96.15z M96.27,34.08V12.43h4.16v21.65H96.27z"/>
	<path class="st0" d="M103.37,23.32c0-3.18,1.1-5.87,3.3-8.07c2.21-2.21,4.9-3.3,8.32-3.3c1.59,0,3.06,0.24,4.4,0.74
		c1.35,0.49,2.32,1.1,2.93,1.59l0.85,0.74l-1.95,2.93c-0.13-0.13-0.37-0.37-0.74-0.74c-0.37-0.24-0.98-0.61-2.08-1.1
		c-0.98-0.49-2.08-0.74-3.18-0.74c-2.21,0-3.92,0.74-5.38,2.21c-1.47,1.47-2.08,3.3-2.08,5.51s0.74,4.04,2.21,5.51
		c1.47,1.47,3.3,2.21,5.51,2.21c1.22,0,2.32-0.24,3.43-0.74c1.1-0.49,1.95-0.98,2.45-1.47l0.74-0.74l1.71,3.06
		c-0.13,0.13-0.24,0.24-0.37,0.37c-0.13,0.13-0.49,0.49-1.1,0.85c-0.49,0.37-1.1,0.74-1.71,1.1c-0.61,0.24-1.47,0.61-2.45,0.85
		s-1.95,0.37-3.06,0.37c-3.43,0-6.12-1.1-8.32-3.18C104.47,29.19,103.37,26.5,103.37,23.32z"/>
	<path class="st0" d="M124.04,23.32c0-3.43,0.98-6.12,3.06-8.2c2.08-2.08,4.65-3.06,7.7-3.06c2.93,0,5.26,0.98,6.85,2.82
		c1.59,1.95,2.45,4.28,2.45,7.22l-0.13,1.84H128.2c0.13,2.32,0.85,4.04,2.32,5.26c1.47,1.22,3.18,1.84,5.14,1.84
		c1.1,0,2.21-0.24,3.3-0.61c1.1-0.37,1.84-0.85,2.32-1.22l0.74-0.61l1.71,3.06c-0.24,0.24-0.61,0.49-0.98,0.85
		c-0.49,0.37-1.47,0.85-2.82,1.35c-1.47,0.61-2.93,0.85-4.53,0.85c-3.3,0-6.12-1.1-8.2-3.18C125.14,29.19,124.04,26.5,124.04,23.32z
		 M128.45,20.75h11.5c0-1.84-0.61-3.18-1.59-4.04c-0.98-0.98-2.21-1.47-3.67-1.47c-1.59,0-3.06,0.49-4.16,1.47
		C129.42,17.69,128.81,19.04,128.45,20.75z"/>
	<path class="st0" d="M147.16,34.08V12.43h4.04v3.79l-0.13,1.59h0.13c0.49-1.59,1.35-3.06,2.56-4.04c1.22-1.1,2.56-1.59,4.28-1.59
		l1.1,0.13v4.04c-0.37-0.13-0.74-0.13-1.22-0.13c-1.35,0-2.56,0.49-3.67,1.35c-1.1,0.85-1.95,2.21-2.45,3.67
		c-0.37,1.1-0.49,2.45-0.49,3.92v8.81L147.16,34.08L147.16,34.08z"/>
	<path class="st0" d="M164.4,26.13V16.1h-2.82v-3.3h2.93V6.56h4.04v6.24h5.26v3.3h-5.26v9.54c0,0.85,0.13,1.59,0.37,2.21
		c0.24,0.61,0.49,1.1,0.85,1.47c0.37,0.37,0.74,0.61,1.1,0.85c0.49,0.24,0.85,0.37,1.22,0.37c0.37,0,0.74,0.13,1.1,0.13l0.98-0.13
		v3.67c-0.37,0-0.85,0.13-1.47,0.13c-0.74,0-1.35,0-1.95-0.13s-1.35-0.24-2.08-0.61c-0.85-0.37-1.47-0.74-2.08-1.35
		c-0.61-0.61-1.1-1.35-1.47-2.32C164.66,28.7,164.4,27.59,164.4,26.13z"/>
	<path class="st0" d="M178.72,3.87c-2.32,0-4.28,1.84-4.28,4.28c0,2.32,1.84,4.28,4.28,4.28c2.32,0,4.28-1.95,4.28-4.28
		S181.05,3.87,178.72,3.87 M178.72,11.57c-1.84,0-3.43-1.47-3.43-3.43c0-1.84,1.47-3.43,3.43-3.43c1.84,0,3.43,1.47,3.43,3.43
		C182.14,9.98,180.68,11.57,178.72,11.57"/>
	<g>
		<path class="st0" d="M38.17,26.37c-0.61-7.09-5.51-11.86-9.3-17c1.59-2.32,5.14-1.59,7.7-1.1c-3.3-2.32-7.22-3.67-11.38-4.04
			c-7.95-0.13-14.3,4.53-20.18,9.67c-3.55-1.1-1.1-4.9-1.1-7.59C0.86,10.47-0.12,15.12,0,19.89c0.13,4.28,1.95,8.44,4.4,12.23
			c1.71,1.95,3.43,3.92,5.14,5.87c-1.71,2.82-5.14,1.59-7.7,1.1c4.16,3.06,8.81,4.04,13.58,3.92c4.28-0.13,8.44-1.95,12.11-4.4
			c1.95-1.71,3.92-3.43,5.87-5.14c1.71,1.95,2.08,5.26,1.1,7.7C37.43,37.02,38.54,31.88,38.17,26.37z M32.55,26.62
			c-1.47,1.84-3.31,4.04-3.31,4.04c-1.84,2.08-3.43,3.06-4.16,3.67c-2.45,1.84-5.51,2.93-8.56,3.06c0,0-0.37,0-0.74,0l-0.13-0.13
			c-1.47-1.47-3.43-3.43-3.43-3.43c-1.1-1.35-2.08-1.95-3.55-4.04c-1.84-2.56-2.93-5.51-3.06-8.56c0,0,0-0.49,0-0.98v-0.13
			l3.43-3.06c4.04-3.55,8.44-6.73,13.94-6.73h0.24l2.69,3.55c2.56,3.55,5.99,6.98,6.48,11.86C32.42,25.76,32.55,26.5,32.55,26.62z"
			/>
	</g>
	<g>
		<path class="st0" d="M177.25,10.47V5.82h1.47c0.37,0,0.74,0,0.85,0.13c0.24,0.13,0.49,0.24,0.61,0.49
			c0.12,0.25,0.24,0.49,0.24,0.85c0,0.24-0.13,0.61-0.24,0.74c-0.13,0.24-0.37,0.37-0.61,0.49l0,0c0,0,0.13,0.13,0.13,0.24
			l0.98,1.84h-0.74l-0.98-1.84h-0.98v1.84h-0.74V10.47L177.25,10.47z M177.99,8.03h0.98c0.24,0,0.49-0.13,0.61-0.24
			c0.13-0.13,0.24-0.37,0.24-0.61c0-0.37-0.13-0.61-0.37-0.74c-0.13-0.13-0.37-0.13-0.61-0.13h-0.74L177.99,8.03L177.99,8.03z"/>
	</g>
</g>
</svg>
