<?xml version="1.0" encoding="utf-8"?>
<!-- Generator: Adobe Illustrator 19.0.0, SVG Export Plug-In . SVG Version: 6.00 Build 0)  -->
<svg version="1.1" id="Capa_1" xmlns="http://www.w3.org/2000/svg" xmlns:xlink="http://www.w3.org/1999/xlink" x="0px" y="0px"
	 viewBox="-27 421 120 120" style="enable-background:new -27 421 120 120;" xml:space="preserve">
<style type="text/css">
	.st0{fill:url(#SVGID_1_);}
	.st1{opacity:0.1;fill:#2626BC;enable-background:new    ;}
	.st2{fill:#9FB0FE;}
	.st3{fill:#8399FE;}
	.st4{fill:#FFFFFF;}
	.st5{fill:#DCFDEE;}
	.st6{fill:#B7C5FF;}
	.st7{fill:#FF7EB8;}
	.st8{fill:#FF5BA8;}
	.st9{fill:#97FFD2;}
	.st10{fill:#02FFB3;}
	.st11{fill:#6583FE;}
	.st12{fill:#FFA8CF;}
	.st13{fill:#2626BC;}
</style>
<g>
	
		<linearGradient id="SVGID_1_" gradientUnits="userSpaceOnUse" x1="-31.68" y1="482.2309" x2="97.1325" y2="483.381" gradientTransform="matrix(1 0 0 -1 0 964)">
		<stop  offset="0" style="stop-color:#FFDBED"/>
		<stop  offset="1" style="stop-color:#DCFDEE"/>
	</linearGradient>
	<path class="st0" d="M86.2,454.7c-8.2-8.4-21-9.6-30.4-3.5c-2.7,1.7-5.9,2.3-9.1,1.6c-7.4-1.6-15.1-0.5-21.7,3.1
		c-4.4,2.4-9.8,2-14-0.9c-2.7-1.9-5.9-3.3-9.4-3.9c-13-2.4-25.6,6.2-28.1,19.2c-2.6,13.3,6.2,26,19.5,28.4c3.2,0.6,6.4,0.5,9.5-0.2
		c4.9-1.1,10,0.7,13.2,4.6c2,2.5,4.4,4.7,7.2,6.5c14.5,9.4,33.9,5.4,43.3-9.1c0,0,0,0,0,0c1.7-2.7,4.4-4.6,7.5-5.2
		c4.5-0.9,8.9-3.1,12.4-6.7C95.3,479.2,95.3,464.1,86.2,454.7z"/>
	<path class="st1" d="M79.9,444.1v59.6c0,1.9-1.6,3.5-3.5,3.5h-86.7c-1.9,0-3.5-1.6-3.5-3.5v-59.6c0-1.9,1.6-3.5,3.5-3.5h86.7
		C78.3,440.6,79.9,442.2,79.9,444.1z"/>
	<path class="st2" d="M46.3,529.2H19.7l5.3-21.1h16L46.3,529.2z"/>
	<path class="st3" d="M42.8,515.4H23.2l1.9-7.3h16L42.8,515.4z"/>
	<path class="st4" d="M79.9,449v59.6c0,1.9-1.6,3.5-3.5,3.5h-86.7c-1.9,0-3.5-1.6-3.5-3.5V449c0-1.9,1.6-3.5,3.5-3.5h86.7
		C78.3,445.5,79.9,447.1,79.9,449L79.9,449z"/>
	<path class="st5" d="M65.7,456.8c0,18-14.6,32.7-32.7,32.7S0.3,474.8,0.3,456.8H65.7z"/>
	<path class="st6" d="M25.7,500.3c0-4,3.3-7.3,7.3-7.3s7.3,3.3,7.3,7.3H25.7z"/>
	<path class="st7" d="M79.9,456.8V449c0-1.9-1.6-3.5-3.5-3.5h-86.7c-1.9,0-3.5,1.6-3.5,3.5v7.8H79.9z"/>
	<path class="st6" d="M-13.9,500.3v8.3c0,1.9,1.6,3.5,3.5,3.5h86.7c1.9,0,3.5-1.6,3.5-3.5v-8.3H-13.9z"/>
	<path class="st8" d="M52.8,500.3c0-10.9-8.9-19.8-19.8-19.8s-19.8,8.9-19.8,19.8H5.7c0-15.1,12.2-27.3,27.3-27.3
		s27.3,12.2,27.3,27.3H52.8z"/>
	<path class="st9" d="M33,480.5c-10.9,0-19.8,8.9-19.8,19.8H5.7c0-15.1,12.2-27.3,27.3-27.3V480.5z"/>
	<path class="st7" d="M53.4,482.2l-5.3,5.3c-3.6-4.3-9-7-15.1-7v-7.5C41.1,473.1,48.4,476.6,53.4,482.2z"/>
	<path class="st10" d="M33,473.1v7.5c-6,0-11.4,2.7-15.1,7l-5.3-5.3C17.6,476.6,24.9,473.1,33,473.1z"/>
	<path class="st2" d="M39.9,488.7L39.9,488.7l0.3-0.6c0.4-0.5,0.2-1.3-0.3-1.6c-0.5-0.4-1.3-0.2-1.6,0.3l-0.4,0.6l0,0
		c-0.5-0.4-1.3-0.2-1.6,0.3c-0.4,0.5-0.2,1.3,0.3,1.6l0,0L32,496c-0.4,0.5-0.2,1.3,0.3,1.6c0.2,0.1,0.4,0.2,0.7,0.2
		c0.4,0,0.7-0.2,1-0.5l4.6-6.7l0,0c0.2,0.1,0.4,0.2,0.7,0.2c0.4,0,0.7-0.2,1-0.5C40.6,489.8,40.4,489.1,39.9,488.7z"/>
	<path class="st6" d="M10.7,463.8H-4.9c-0.7,0-1.2-0.5-1.2-1.2c0-0.7,0.5-1.2,1.2-1.2h15.6c0.7,0,1.2,0.5,1.2,1.2
		C11.9,463.3,11.4,463.8,10.7,463.8z"/>
	<path class="st11" d="M6.5,468.3h-7.2c-0.7,0-1.2-0.5-1.2-1.2c0-0.7,0.5-1.2,1.2-1.2h7.2c0.7,0,1.2,0.5,1.2,1.2
		C7.7,467.8,7.2,468.3,6.5,468.3z"/>
	<path class="st6" d="M70.9,463.8H55.3c-0.7,0-1.2-0.5-1.2-1.2c0-0.7,0.5-1.2,1.2-1.2h15.6c0.7,0,1.2,0.5,1.2,1.2
		C72.1,463.3,71.5,463.8,70.9,463.8z"/>
	<path class="st11" d="M66.7,468.3h-7.2c-0.7,0-1.2-0.5-1.2-1.2c0-0.7,0.5-1.2,1.2-1.2h7.2c0.7,0,1.2,0.5,1.2,1.2
		C67.9,467.8,67.3,468.3,66.7,468.3z"/>
	<path class="st12" d="M4.5,480H1.3c-0.4,0-0.7-0.3-0.7-0.7v-5.7c0-0.4,0.3-0.7,0.7-0.7h3.2c0.4,0,0.7,0.3,0.7,0.7v5.7
		C5.2,479.7,4.9,480,4.5,480z"/>
	<path class="st12" d="M64.7,480h-3.2c-0.4,0-0.7-0.3-0.7-0.7v-5.7c0-0.4,0.3-0.7,0.7-0.7h3.2c0.4,0,0.7,0.3,0.7,0.7v5.7
		C65.4,479.7,65.1,480,64.7,480z"/>
	<g>
		<circle class="st11" cx="37" cy="467.1" r="1.3"/>
		<circle class="st11" cx="33" cy="467.1" r="1.3"/>
		<circle class="st11" cx="29" cy="467.1" r="1.3"/>
		<path class="st11" d="M2.2,527.5c-0.3,0-0.6-0.1-0.8-0.3l-2.6-2.6c-0.2-0.2-0.3-0.5-0.3-0.8c0-0.3,0.1-0.6,0.3-0.8l2.6-2.6
			c0.5-0.5,1.2-0.5,1.7,0l2.6,2.6c0.2,0.2,0.3,0.5,0.3,0.8c0,0.3-0.1,0.6-0.3,0.8L3,527.1C2.8,527.4,2.5,527.5,2.2,527.5z
			 M1.2,523.7l0.9,0.9l0.9-0.9l-0.9-0.9L1.2,523.7z"/>
	</g>
	<path class="st7" d="M53.9,442c-0.6,0-1.2-0.5-1.2-1.2c0-0.8-0.6-1.4-1.4-1.4c-0.6,0-1.2-0.5-1.2-1.2c0-0.6,0.5-1.2,1.2-1.2
		c0.8,0,1.4-0.6,1.4-1.4c0-0.6,0.5-1.2,1.2-1.2s1.2,0.5,1.2,1.2c0,0.8,0.6,1.4,1.4,1.4c0.6,0,1.2,0.5,1.2,1.2c0,0.6-0.5,1.2-1.2,1.2
		c-0.8,0-1.4,0.6-1.4,1.4C55.1,441.5,54.5,442,53.9,442z"/>
	<path class="st7" d="M57.8,523.8c-0.6,0-1.2-0.5-1.2-1.2c0-0.8-0.6-1.4-1.4-1.4c-0.6,0-1.2-0.5-1.2-1.2s0.5-1.2,1.2-1.2
		c0.8,0,1.4-0.6,1.4-1.4c0-0.6,0.5-1.2,1.2-1.2s1.2,0.5,1.2,1.2c0,0.8,0.6,1.4,1.4,1.4c0.6,0,1.2,0.5,1.2,1.2s-0.5,1.2-1.2,1.2
		c-0.8,0-1.4,0.6-1.4,1.4C59,523.2,58.5,523.8,57.8,523.8z"/>
	<path class="st9" d="M67.3,439.2c-0.3,0-0.6-0.1-0.8-0.3l-2.6-2.6c-0.5-0.5-0.5-1.2,0-1.7l2.6-2.6c0.5-0.5,1.2-0.5,1.7,0l2.6,2.6
		c0.5,0.5,0.5,1.2,0,1.7l-2.6,2.6C67.9,439.1,67.6,439.2,67.3,439.2z M66.4,435.4l0.9,0.9l0.9-0.9l-0.9-0.9L66.4,435.4z"/>
	<g>
		<path class="st13" d="M-4.9,450c-0.6,0-1.2,0.5-1.2,1.2v0c0,0.6,0.5,1.2,1.2,1.2s1.2-0.5,1.2-1.2v0C-3.8,450.5-4.3,450-4.9,450z"
			/>
		<path class="st13" d="M-0.4,450c-0.6,0-1.2,0.5-1.2,1.2v0c0,0.6,0.5,1.2,1.2,1.2s1.2-0.5,1.2-1.2v0C0.8,450.5,0.2,450-0.4,450z"/>
		<path class="st13" d="M4.1,450c-0.6,0-1.2,0.5-1.2,1.2v0c0,0.6,0.5,1.2,1.2,1.2s1.2-0.5,1.2-1.2v0C5.3,450.5,4.8,450,4.1,450z"/>
		<path class="st13" d="M76.4,444.3h-86.7c-2.6,0-4.7,2.1-4.7,4.7v59.6c0,2.6,2.1,4.7,4.7,4.7h32.9L18.8,528h-3.6
			c-0.6,0-1.2,0.5-1.2,1.2s0.5,1.2,1.2,1.2h35.6c0.6,0,1.2-0.5,1.2-1.2s-0.5-1.2-1.2-1.2h-3.6l-3.7-14.7h32.9c2.6,0,4.7-2.1,4.7-4.7
			v-8.3c0-0.6-0.5-1.2-1.2-1.2c0,0,0,0-0.1,0c0,0,0,0-0.1,0h-92.4V458h91.4v35.9c0,0.6,0.5,1.2,1.2,1.2c0.6,0,1.2-0.5,1.2-1.2V449
			C81,446.4,78.9,444.3,76.4,444.3L76.4,444.3z M44.8,528H21.2l3.7-14.7h16.2L44.8,528z M78.7,501.5v7.1c0,1.3-1.1,2.3-2.3,2.3
			h-86.7c-1.3,0-2.3-1.1-2.3-2.3v-7.1H78.7z M-12.7,455.6V449c0-1.3,1.1-2.3,2.3-2.3h86.7c1.3,0,2.3,1.1,2.3,2.3v6.6L-12.7,455.6
			L-12.7,455.6z"/>
	</g>
</g>
</svg>
