<?xml version="1.0" encoding="utf-8"?>
<!-- Generator: Adobe Illustrator 19.0.0, SVG Export Plug-In . SVG Version: 6.00 Build 0)  -->
<svg version="1.1" id="Capa_1" xmlns="http://www.w3.org/2000/svg" xmlns:xlink="http://www.w3.org/1999/xlink" x="0px" y="0px"
	 viewBox="-389 421 120 120" style="enable-background:new -389 421 120 120;" xml:space="preserve">
<style type="text/css">
	.st0{fill:url(#SVGID_1_);}
	.st1{opacity:0.1;fill:#590BB2;enable-background:new    ;}
	.st2{fill:#FFA052;}
	.st3{fill:#6583FE;}
	.st4{fill:#FFE783;}
	.st5{fill:#AFABC6;}
	.st6{fill:#8E8CA8;}
	.st7{fill:#2626BC;}
	.st8{fill:#F5F4F9;}
	.st9{fill:#CECAE0;}
	.st10{fill:#DDD9E4;}
	.st11{fill:#FFBE92;}
	.st12{fill:#2D58E0;}
	.st13{fill:#97FFD2;}
	.st14{fill:#01ECA5;}
	.st15{fill:#00CC88;}
	.st16{fill:#F6F9F9;}
</style>
<g>
	<g>
		
			<linearGradient id="SVGID_1_" gradientUnits="userSpaceOnUse" x1="-329" y1="402.913" x2="-329" y2="526.2852" gradientTransform="matrix(1 0 0 -1 0 964)">
			<stop  offset="0" style="stop-color:#DCFDEE;stop-opacity:0"/>
			<stop  offset="0.6288" style="stop-color:#D2F3E4"/>
		</linearGradient>
		<path class="st0" d="M-316.3,441.9c-5-12.3-17.2-21-31.3-20.9c-18.1,0.1-32.9,14.7-33.4,32.8c-0.2,8.9,3,17.1,8.5,23.2
			c4.4,4.9,6.6,11.3,6.3,17.9c0,0.9,0,1.7,0,2.6c0.6,23.8,20.9,43.5,44.7,43.5c24.6,0,44.6-20,44.6-44.6c0-18.1-10.7-33.6-26.2-40.6
			C-309.1,453-313.8,448.1-316.3,441.9z"/>
		<path class="st1" d="M-282.1,441.7v59.6c0,1.9-1.6,3.5-3.5,3.5h-86.7c-1.9,0-3.5-1.6-3.5-3.5v-59.6c0-1.9,1.6-3.5,3.5-3.5h86.7
			C-283.7,438.2-282.1,439.8-282.1,441.7L-282.1,441.7z"/>
		<path class="st2" d="M-314.2,436.7c-0.3,0-0.6-0.1-0.8-0.3l-2.6-2.6c-0.5-0.5-0.5-1.2,0-1.7l2.6-2.6c0.2-0.2,0.5-0.3,0.8-0.3
			c0.3,0,0.6,0.1,0.8,0.3l2.6,2.6c0.2,0.2,0.3,0.5,0.3,0.8c0,0.3-0.1,0.6-0.3,0.8l-2.6,2.6C-313.5,436.5-313.8,436.7-314.2,436.7z
			 M-315.1,432.9l0.9,0.9l0.9-0.9l-0.9-0.9L-315.1,432.9z"/>
		<path class="st3" d="M-299.5,523.3c-0.3,0-0.6-0.1-0.8-0.3l-2.6-2.6c-0.5-0.5-0.5-1.2,0-1.7l2.6-2.6c0.5-0.5,1.2-0.5,1.7,0
			l2.6,2.6c0.2,0.2,0.3,0.5,0.3,0.8c0,0.3-0.1,0.6-0.3,0.8l-2.6,2.6C-298.8,523.2-299.1,523.3-299.5,523.3L-299.5,523.3z
			 M-300.4,519.5l0.9,0.9l0.9-0.9l-0.9-0.9L-300.4,519.5z"/>
		<path class="st4" d="M-364,532.9c-0.6,0-1.2-0.5-1.2-1.2c0-0.8-0.6-1.4-1.4-1.4c-0.6,0-1.2-0.5-1.2-1.2s0.5-1.2,1.2-1.2
			c0.8,0,1.4-0.6,1.4-1.4c0-0.6,0.5-1.2,1.2-1.2s1.2,0.5,1.2,1.2c0,0.8,0.6,1.4,1.4,1.4c0.6,0,1.2,0.5,1.2,1.2s-0.5,1.2-1.2,1.2
			c-0.8,0-1.4,0.6-1.4,1.4C-362.8,532.3-363.3,532.9-364,532.9z"/>
		<path class="st3" d="M-353.8,522c-0.6,0-1.2-0.5-1.2-1.2c0-0.8-0.6-1.4-1.4-1.4c-0.6,0-1.2-0.5-1.2-1.2s0.5-1.2,1.2-1.2
			c0.8,0,1.4-0.6,1.4-1.4c0-0.6,0.5-1.2,1.2-1.2s1.2,0.5,1.2,1.2c0,0.8,0.6,1.4,1.4,1.4c0.6,0,1.2,0.5,1.2,1.2s-0.5,1.2-1.2,1.2
			c-0.8,0-1.4,0.6-1.4,1.4C-352.7,521.5-353.2,522-353.8,522z"/>
		<path class="st5" d="M-315.7,526.8h-26.6l3.5-13.7l1.9-7.3h16l1.9,7.3L-315.7,526.8z"/>
		<path class="st6" d="M-319.2,513h-19.7l1.9-7.3h16L-319.2,513z"/>
		<path class="st7" d="M-315.7,527.9h-26.6c-0.4,0-0.7-0.2-0.9-0.5c-0.2-0.3-0.3-0.7-0.2-1l4.2-16.6c0.2-0.6,0.8-1,1.4-0.8
			c0.6,0.2,1,0.8,0.8,1.4l-3.8,15.1h23.6l-3.8-15.3c-0.2-0.6,0.2-1.3,0.8-1.4c0.6-0.2,1.3,0.2,1.4,0.8l4.2,16.7c0.1,0.4,0,0.7-0.2,1
			C-315,527.8-315.3,527.9-315.7,527.9L-315.7,527.9z"/>
		<path class="st8" d="M-282.1,446.6v59.6c0,1.9-1.6,3.5-3.5,3.5h-86.7c-1.9,0-3.5-1.6-3.5-3.5v-59.6c0-1.9,1.6-3.5,3.5-3.5h86.7
			C-283.7,443.1-282.1,444.7-282.1,446.6L-282.1,446.6z"/>
		<path class="st3" d="M-282.1,454.4v-7.8c0-1.9-1.6-3.5-3.5-3.5h-86.7c-1.9,0-3.5,1.6-3.5,3.5v7.8H-282.1z"/>
		<path class="st7" d="M-282.1,455.6h-93.8c-0.6,0-1.2-0.5-1.2-1.2c0-0.6,0.5-1.2,1.2-1.2h93.8c0.6,0,1.2,0.5,1.2,1.2
			C-281,455-281.5,455.6-282.1,455.6z"/>
		<path class="st9" d="M-375.9,497.9v8.3c0,1.9,1.6,3.5,3.5,3.5h86.7c1.9,0,3.5-1.6,3.5-3.5v-8.3H-375.9z"/>
		<g>
			<path class="st7" d="M-282.3,499.1h-86.1c-0.6,0-1.2-0.5-1.2-1.2c0-0.6,0.5-1.2,1.2-1.2h86.1c0.6,0,1.2,0.5,1.2,1.2
				C-281.1,498.6-281.6,499.1-282.3,499.1z"/>
			<path class="st7" d="M-311.2,527.9h-35.6c-0.6,0-1.2-0.5-1.2-1.2s0.5-1.2,1.2-1.2h35.6c0.6,0,1.2,0.5,1.2,1.2
				S-310.6,527.9-311.2,527.9z"/>
			<path class="st7" d="M-366.9,449.9c-0.6,0-1.2-0.5-1.2-1.2v0c0-0.6,0.5-1.2,1.2-1.2c0.6,0,1.2,0.5,1.2,1.2v0
				C-365.8,449.4-366.3,449.9-366.9,449.9z"/>
			<path class="st7" d="M-362.4,449.9c-0.6,0-1.2-0.5-1.2-1.2v0c0-0.6,0.5-1.2,1.2-1.2c0.6,0,1.2,0.5,1.2,1.2v0
				C-361.2,449.4-361.8,449.9-362.4,449.9z"/>
			<path class="st7" d="M-357.9,449.9c-0.6,0-1.2-0.5-1.2-1.2v0c0-0.6,0.5-1.2,1.2-1.2s1.2,0.5,1.2,1.2v0
				C-356.7,449.4-357.2,449.9-357.9,449.9z"/>
			<path class="st7" d="M-285.6,510.9h-86.7c-2.6,0-4.7-2.1-4.7-4.7v-59.6c0-2.6,2.1-4.7,4.7-4.7h86.7c2.6,0,4.7,2.1,4.7,4.7v7.8
				c0,0.6-0.5,1.2-1.2,1.2c-0.6,0-1.2-0.5-1.2-1.2v-7.8c0-1.3-1.1-2.3-2.3-2.3h-86.7c-1.3,0-2.3,1.1-2.3,2.3v59.6
				c0,1.3,1.1,2.3,2.3,2.3h86.7c1.3,0,2.3-1.1,2.3-2.3v-45.4c0-0.6,0.5-1.2,1.2-1.2c0.6,0,1.2,0.5,1.2,1.2v45.4
				C-281,508.8-283.1,510.9-285.6,510.9z"/>
		</g>
		<path class="st10" d="M-328.1,485.3h-39.1c-0.6,0-1.2-0.5-1.2-1.2s0.5-1.2,1.2-1.2h39.1c0.6,0,1.2,0.5,1.2,1.2
			S-327.5,485.3-328.1,485.3z"/>
		<path class="st11" d="M-342.2,475.4h-25c-0.6,0-1.2-0.5-1.2-1.2c0-0.6,0.5-1.2,1.2-1.2h25c0.6,0,1.2,0.5,1.2,1.2
			C-341,474.9-341.5,475.4-342.2,475.4z"/>
		<path class="st10" d="M-328.1,489.9h-39.1c-0.6,0-1.2-0.5-1.2-1.2s0.5-1.2,1.2-1.2h39.1c0.6,0,1.2,0.5,1.2,1.2
			C-327,489.4-327.5,489.9-328.1,489.9z"/>
		<path class="st12" d="M-364.1,468.5c-0.3,0-0.6-0.1-0.8-0.3l-2.8-2.8c-0.5-0.5-0.5-1.2,0-1.7l2.8-2.8c0.5-0.5,1.2-0.5,1.7,0
			c0.5,0.5,0.5,1.2,0,1.7l-2,2l2,2c0.5,0.5,0.5,1.2,0,1.7C-363.5,468.3-363.8,468.5-364.1,468.5L-364.1,468.5z"/>
		<path class="st12" d="M-353.2,468.5c-0.3,0-0.6-0.1-0.8-0.3c-0.5-0.5-0.5-1.2,0-1.7l2-2l-2-2c-0.5-0.5-0.5-1.2,0-1.7
			c0.5-0.5,1.2-0.5,1.7,0l2.8,2.8c0.5,0.5,0.5,1.2,0,1.7l-2.8,2.8C-352.6,468.3-352.9,468.5-353.2,468.5z"/>
		<path class="st12" d="M-360.2,468.5c-0.2,0-0.4,0-0.6-0.2c-0.6-0.3-0.8-1-0.4-1.6l3.2-5.6c0.3-0.6,1-0.8,1.6-0.4
			c0.6,0.3,0.8,1,0.4,1.6l-3.2,5.6C-359.4,468.2-359.8,468.5-360.2,468.5L-360.2,468.5z"/>
		<circle class="st7" cx="-316.6" cy="461.8" r="1.3"/>
		<circle class="st7" cx="-320.6" cy="461.8" r="1.3"/>
		<circle class="st7" cx="-324.6" cy="461.8" r="1.3"/>
	</g>
	<path class="st13" d="M-384.3,456.3c-0.6,0-1.2-0.5-1.2-1.2c0-0.8-0.6-1.4-1.4-1.4c-0.6,0-1.2-0.5-1.2-1.2s0.5-1.2,1.2-1.2
		c0.8,0,1.4-0.6,1.4-1.4c0-0.6,0.5-1.2,1.2-1.2c0.6,0,1.2,0.5,1.2,1.2c0,0.8,0.6,1.4,1.4,1.4c0.6,0,1.2,0.5,1.2,1.2
		s-0.5,1.2-1.2,1.2c-0.8,0-1.4,0.6-1.4,1.4C-383.1,455.8-383.6,456.3-384.3,456.3z"/>
	<g>
		<path class="st14" d="M-287.4,478.1c0,8.4-6.8,15.2-15.2,15.2c-8.4,0-15.2-6.8-15.2-15.2c0-8.4,6.8-15.2,15.2-15.2
			C-294.2,462.9-287.4,469.7-287.4,478.1L-287.4,478.1z"/>
		<path class="st15" d="M-294.2,465.4c1.6,2.4,2.5,5.3,2.5,8.4c0,8.4-6.8,15.2-15.2,15.2c-3.1,0-6-0.9-8.4-2.5
			c2.7,4.1,7.4,6.8,12.7,6.8c8.4,0,15.2-6.8,15.2-15.2C-287.4,472.8-290,468.2-294.2,465.4L-294.2,465.4z"/>
		<path class="st16" d="M-294.7,472.4c-0.2-0.3-0.5-0.4-0.8-0.4h-13.1l-0.2-1c-0.2-1-1.1-1.7-2.1-1.7h-0.9c-0.5,0-0.9,0.4-0.9,0.9
			s0.4,0.9,0.9,0.9h0.9c0.2,0,0.3,0.1,0.4,0.3l2.6,13.8c0.1,0.4,0.5,0.7,0.9,0.7h0.6c-0.3,0.3-0.4,0.7-0.4,1.1
			c0,0.9,0.7,1.6,1.6,1.6s1.6-0.7,1.6-1.6c0-0.4-0.2-0.8-0.4-1.1h3.6c-0.3,0.3-0.4,0.7-0.4,1.1c0,0.9,0.7,1.6,1.6,1.6
			c0.9,0,1.6-0.7,1.6-1.6c0-0.4-0.2-0.8-0.4-1.1h0.8c0.5,0,0.9-0.4,0.9-0.9s-0.4-0.9-0.9-0.9h-9.2l-0.4-1.9h9.8
			c0.4,0,0.8-0.3,0.9-0.7l1.5-8.2l0,0C-294.5,473-294.5,472.7-294.7,472.4L-294.7,472.4z M-296.8,476.3h-2.5l0.2-2.5h2.8
			L-296.8,476.3z M-303.2,480.5l-0.2-2.5h2.1l-0.2,2.5H-303.2z M-303.5,476.3l-0.2-2.5h2.7l-0.2,2.5H-303.5z M-305.5,473.8l0.2,2.5
			h-2.6l-0.5-2.5H-305.5z M-307.6,478h2.4l0.2,2.5h-2.1L-307.6,478z M-299.7,480.5l0.2-2.5h2.3l-0.5,2.5H-299.7z"/>
	</g>
</g>
</svg>
