<?xml version="1.0" encoding="utf-8"?>
<!-- Generator: Adobe Illustrator 19.0.0, SVG Export Plug-In . SVG Version: 6.00 Build 0)  -->
<svg version="1.1" id="Capa_1" xmlns="http://www.w3.org/2000/svg" xmlns:xlink="http://www.w3.org/1999/xlink" x="0px" y="0px"
	 viewBox="-27 421 120 120" style="enable-background:new -27 421 120 120;" xml:space="preserve">
<style type="text/css">
	.st0{fill:url(#SVGID_1_);}
	.st1{fill:#FFC4DF;}
	.st2{fill:#FFA8CF;}
	.st3{fill:#9FB0FE;}
	.st4{fill:#02FFB3;}
	.st5{fill:#FFFFFF;}
	.st6{fill:#B7C5FF;}
	.st7{fill:#FF7EB8;}
	.st8{fill:#6583FE;}
	.st9{fill:#2626BC;}
	.st10{fill:#97FFD2;}
</style>
<g>
	
		<linearGradient id="SVGID_1_" gradientUnits="userSpaceOnUse" x1="-13.1201" y1="511.1671" x2="90.9379" y2="443.6563" gradientTransform="matrix(1 0 0 -1 0 964)">
		<stop  offset="4.850001e-002" style="stop-color:#D2DEFF"/>
		<stop  offset="0.9993" style="stop-color:#DCFDEE"/>
	</linearGradient>
	<path class="st0" d="M68.7,456.6c-5.6-2.2-10.2-6.1-13.1-11.3c-4.8-8.8-14.2-14.7-24.9-14.7c-11.1,0-20.8,6.4-25.4,15.8
		c-2.8,5.7-7.7,10.2-13.6,12.6c-8.8,3.5-16.1,11.6-18.4,24.2c-0.3,1.4-0.3,2.8,0,4.2c3.6,19.6,19.3,28.2,33.6,25.9
		c8-1.3,16.1,1.4,22,6.9c12.1,11.2,31.4,14.7,50.1,2.7c2.2-1.4,5.1-4.4,6.6-6.6C101.7,491,89.7,464.8,68.7,456.6L68.7,456.6z"/>
	<path class="st1" d="M74,458.9v47.3l-20.3,11.7L33,529.8l-41-23.7v-47.3l41-23.7l13.7,7.9l17.8,10.3L74,458.9z"/>
	<path class="st2" d="M74,489.9v16.2l-20.3,11.7H43.4c-1.3,0-2.3-1-2.3-2.3v-23.3c0-1.3,1.1-2.3,2.3-2.3H74z"/>
	<path class="st2" d="M-1.1,477.1v11.2c0,1.3-1.1,2.3-2.3,2.3h-4.5v-15.9h4.5C-2.1,474.8-1.1,475.8-1.1,477.1z"/>
	<path class="st2" d="M64.5,453.4v0.9c0,1.3-1.1,2.3-2.3,2.3H49c-1.3,0-2.3-1-2.3-2.3v-11.2L64.5,453.4z"/>
	<path class="st3" d="M33.1,507.7l-29.3-8.3l0.5-33.6L33,448.1l28.7,17.9L52.9,494L33.1,507.7z"/>
	<g>
		<ellipse class="st4" cx="33" cy="435.2" rx="5.1" ry="5.1"/>
		<ellipse class="st4" cx="33" cy="529.8" rx="5.1" ry="5.1"/>
		<ellipse class="st4" cx="74" cy="458.9" rx="5.1" ry="5.1"/>
		<ellipse class="st4" cx="-7.9" cy="458.9" rx="5.1" ry="5.1"/>
		<ellipse class="st4" cx="-7.9" cy="506.2" rx="5.1" ry="5.1"/>
	</g>
	<path class="st5" d="M84.2,514.4H43.4c-1.3,0-2.3-1-2.3-2.3v-23.3c0-1.3,1-2.3,2.3-2.3h40.8c1.3,0,2.3,1,2.3,2.3v23.3
		C86.6,513.3,85.5,514.4,84.2,514.4z"/>
	<path class="st3" d="M59.7,495.2h-11c-0.6,0-1.2-0.5-1.2-1.2s0.5-1.2,1.2-1.2h11c0.6,0,1.2,0.5,1.2,1.2
		C60.9,494.7,60.3,495.2,59.7,495.2z"/>
	<path class="st6" d="M73.8,503.6h-25c-0.6,0-1.2-0.5-1.2-1.2s0.5-1.2,1.2-1.2h25c0.6,0,1.2,0.5,1.2,1.2S74.4,503.6,73.8,503.6z"/>
	<path class="st6" d="M73.8,508.3h-25c-0.6,0-1.2-0.5-1.2-1.2s0.5-1.2,1.2-1.2h25c0.6,0,1.2,0.5,1.2,1.2
		C74.9,507.8,74.4,508.3,73.8,508.3z"/>
	<path class="st7" d="M69.8,497c-0.3,0-0.6-0.1-0.8-0.3c-0.5-0.5-1.4-0.5-2,0c-0.5,0.5-1.2,0.5-1.7,0c-0.2-0.2-0.3-0.5-0.3-0.8
		c0-0.3,0.1-0.6,0.3-0.8c0.3-0.3,0.4-0.6,0.4-1c0-0.4-0.1-0.7-0.4-1c-0.2-0.2-0.3-0.5-0.3-0.8c0-0.3,0.1-0.6,0.3-0.8
		c0.5-0.5,1.2-0.5,1.7,0c0.5,0.5,1.4,0.5,2,0c0.5-0.5,1.2-0.5,1.7,0c0.2,0.2,0.3,0.5,0.3,0.8c0,0.3-0.1,0.6-0.3,0.8
		c-0.3,0.3-0.4,0.6-0.4,1s0.1,0.7,0.4,1c0.2,0.2,0.3,0.5,0.3,0.8c0,0.3-0.1,0.6-0.3,0.8C70.4,496.9,70.1,497,69.8,497z"/>
	<path class="st7" d="M79.3,497c-0.3,0-0.6-0.1-0.8-0.3c-0.5-0.5-1.4-0.5-2,0c-0.5,0.5-1.2,0.5-1.7,0c-0.2-0.2-0.3-0.5-0.3-0.8
		c0-0.3,0.1-0.6,0.3-0.8c0.3-0.3,0.4-0.6,0.4-1c0-0.4-0.1-0.7-0.4-1c-0.2-0.2-0.3-0.5-0.3-0.8c0-0.3,0.1-0.6,0.3-0.8
		c0.5-0.5,1.2-0.5,1.7,0c0.5,0.5,1.4,0.5,2,0c0.5-0.5,1.2-0.5,1.7,0c0.2,0.2,0.3,0.5,0.3,0.8c0,0.3-0.1,0.6-0.3,0.8
		c-0.3,0.3-0.4,0.6-0.4,1s0.1,0.7,0.4,1c0.2,0.2,0.3,0.5,0.3,0.8c0,0.3-0.1,0.6-0.3,0.8C79.9,496.9,79.6,497,79.3,497z"/>
	<path class="st7" d="M-3.4,487.8h-13.1c-1.3,0-2.3-1-2.3-2.3v-11.2c0-1.3,1-2.3,2.3-2.3h13.1c1.3,0,2.3,1,2.3,2.3v11.2
		C-1.1,486.8-2.1,487.8-3.4,487.8z"/>
	<path class="st5" d="M-11.6,483.9c-0.2,0-0.4,0-0.6-0.2c-0.6-0.3-0.8-1-0.4-1.6l3.2-5.6c0.3-0.6,1-0.8,1.6-0.4
		c0.6,0.3,0.8,1,0.4,1.6l-3.2,5.6C-10.8,483.7-11.2,483.9-11.6,483.9z"/>
	<path class="st8" d="M62.2,453.8H49c-1.3,0-2.3-1-2.3-2.3v-11.2c0-1.3,1-2.3,2.3-2.3h13.1c1.3,0,2.3,1,2.3,2.3v11.2
		C64.5,452.8,63.5,453.8,62.2,453.8z"/>
	<path class="st5" d="M54,449.9c-0.2,0-0.4,0-0.6-0.2c-0.6-0.3-0.8-1-0.4-1.6l3.2-5.6c0.3-0.6,1-0.8,1.6-0.4c0.6,0.3,0.8,1,0.4,1.6
		l-3.2,5.6C54.8,449.6,54.4,449.9,54,449.9z"/>
	<ellipse class="st5" cx="33" cy="482.6" rx="2.6" ry="2.6"/>
	<g>
		<path class="st9" d="M31.9,467c0,0.6,0.5,1.2,1.2,1.2c0.6,0,1.2-0.5,1.2-1.2v-2.8c0-0.6-0.5-1.2-1.2-1.2s-1.2,0.5-1.2,1.2
			L31.9,467z"/>
		<path class="st9" d="M33,451.3c0.6,0,1.2-0.5,1.2-1.2v-2.8c0-0.6-0.5-1.2-1.2-1.2c-0.6,0-1.2,0.5-1.2,1.2v2.8
			C31.9,450.8,32.4,451.3,33,451.3z"/>
		<path class="st9" d="M31.9,458.6c0,0.6,0.5,1.2,1.2,1.2c0.6,0,1.2-0.5,1.2-1.2v-2.8c0-0.6-0.5-1.2-1.2-1.2s-1.2,0.5-1.2,1.2
			L31.9,458.6z"/>
		<path class="st9" d="M33,513.7c-0.6,0-1.2,0.5-1.2,1.2v2.8c0,0.6,0.5,1.2,1.2,1.2c0.6,0,1.2-0.5,1.2-1.2v-2.8
			C34.2,514.3,33.7,513.7,33,513.7z"/>
		<path class="st9" d="M34.2,498c0-0.6-0.5-1.2-1.2-1.2c-0.6,0-1.2,0.5-1.2,1.2v2.8c0,0.6,0.5,1.2,1.2,1.2c0.6,0,1.2-0.5,1.2-1.2
			V498z"/>
		<path class="st9" d="M34.2,489.6c0-0.6-0.5-1.2-1.2-1.2c-0.6,0-1.2,0.5-1.2,1.2v2.8c0,0.6,0.5,1.2,1.2,1.2c0.6,0,1.2-0.5,1.2-1.2
			V489.6z"/>
		<path class="st9" d="M34.2,506.5c0-0.6-0.5-1.2-1.2-1.2c-0.6,0-1.2,0.5-1.2,1.2v2.8c0,0.6,0.5,1.2,1.2,1.2c0.6,0,1.2-0.5,1.2-1.2
			V506.5z"/>
		<path class="st9" d="M31.9,475.5c0,0.6,0.5,1.2,1.2,1.2c0.6,0,1.2-0.5,1.2-1.2v-2.8c0-0.6-0.5-1.2-1.2-1.2s-1.2,0.5-1.2,1.2
			L31.9,475.5z"/>
		<path class="st9" d="M1.7,500.6c0.2,0.4,0.6,0.6,1,0.6c0.2,0,0.4-0.1,0.6-0.2l2.4-1.4c0.6-0.3,0.8-1,0.4-1.6
			c-0.3-0.6-1-0.8-1.6-0.4L2.1,499C1.5,499.4,1.3,500.1,1.7,500.6L1.7,500.6z"/>
		<path class="st9" d="M53.3,472c0.2,0,0.4-0.1,0.6-0.2l2.4-1.4c0.6-0.3,0.8-1,0.4-1.6c-0.3-0.6-1-0.8-1.6-0.4l-2.4,1.4
			c-0.6,0.3-0.8,1-0.4,1.6C52.5,471.8,52.9,472,53.3,472z"/>
		<path class="st9" d="M46,476.2c0.2,0,0.4-0.1,0.6-0.2l2.4-1.4c0.6-0.3,0.8-1,0.4-1.6c-0.3-0.6-1-0.8-1.6-0.4l-2.4,1.4
			c-0.6,0.3-0.8,1-0.4,1.6C45.2,476,45.6,476.2,46,476.2z"/>
		<path class="st9" d="M38.8,480.4c0.2,0,0.4-0.1,0.6-0.2l2.4-1.4c0.6-0.3,0.8-1,0.4-1.6c-0.3-0.6-1-0.8-1.6-0.4l-2.4,1.4
			c-0.6,0.3-0.8,1-0.4,1.6C38,480.1,38.4,480.4,38.8,480.4z"/>
		<path class="st9" d="M60.5,467.8c0.2,0,0.4-0.1,0.6-0.2l2.4-1.4c0.6-0.3,0.8-1,0.4-1.6c-0.3-0.6-1-0.8-1.6-0.4l-2.4,1.4
			c-0.6,0.3-0.8,1-0.4,1.6C59.7,467.6,60.1,467.8,60.5,467.8z"/>
		<path class="st9" d="M23.3,488.1c0.2,0.4,0.6,0.6,1,0.6c0.2,0,0.4-0.1,0.6-0.2l2.4-1.4c0.6-0.3,0.8-1,0.4-1.6
			c-0.3-0.6-1-0.8-1.6-0.4l-2.4,1.4C23.2,486.8,23,487.6,23.3,488.1L23.3,488.1z"/>
		<path class="st9" d="M8.9,496.5c0.2,0.4,0.6,0.6,1,0.6c0.2,0,0.4-0.1,0.6-0.2l2.4-1.4c0.6-0.3,0.8-1,0.4-1.6
			c-0.3-0.6-1-0.8-1.6-0.4l-2.4,1.4C8.8,495.2,8.6,495.9,8.9,496.5L8.9,496.5z"/>
		<path class="st9" d="M16.1,492.3c0.2,0.4,0.6,0.6,1,0.6c0.2,0,0.4-0.1,0.6-0.2l2.4-1.4c0.6-0.3,0.8-1,0.4-1.6
			c-0.3-0.6-1-0.8-1.6-0.4l-2.4,1.4C16,491,15.8,491.7,16.1,492.3L16.1,492.3z"/>
		<path class="st9" d="M24,478.7l2.4,1.4c0.2,0.1,0.4,0.2,0.6,0.2c0.4,0,0.8-0.2,1-0.6c0.3-0.6,0.1-1.3-0.4-1.6l-2.4-1.4
			c-0.6-0.3-1.3-0.1-1.6,0.4C23.2,477.6,23.4,478.3,24,478.7L24,478.7z"/>
		<path class="st9" d="M2.2,466.1l2.4,1.4c0.2,0.1,0.4,0.2,0.6,0.2c0.4,0,0.8-0.2,1-0.6c0.3-0.6,0.1-1.3-0.4-1.6l-2.4-1.4
			c-0.6-0.3-1.3-0.1-1.6,0.4C1.5,465,1.7,465.8,2.2,466.1L2.2,466.1z"/>
		<path class="st9" d="M16.7,474.5l2.4,1.4c0.2,0.1,0.4,0.2,0.6,0.2c0.4,0,0.8-0.2,1-0.6c0.3-0.6,0.1-1.3-0.4-1.6l-2.4-1.4
			c-0.6-0.3-1.3-0.1-1.6,0.4C16,473.4,16.2,474.1,16.7,474.5L16.7,474.5z"/>
		<path class="st9" d="M9.5,470.3l2.4,1.4c0.2,0.1,0.4,0.2,0.6,0.2c0.4,0,0.8-0.2,1-0.6c0.3-0.6,0.1-1.3-0.4-1.6l-2.4-1.4
			c-0.6-0.3-1.3-0.1-1.6,0.4C8.7,469.2,8.9,470,9.5,470.3L9.5,470.3z"/>
		<path class="st9" d="M84.2,485.3h-9V465c2.9-0.6,5.1-3.1,5.1-6.1c0-3.4-2.8-6.2-6.2-6.2c-1.9,0-3.6,0.8-4.7,2.2l-3.8-2.2
			c0.1-0.4,0.2-0.7,0.2-1.1v-11.2c0-1.9-1.6-3.5-3.5-3.5H49c-1.9,0-3.5,1.6-3.5,3.5v0.8l-6.6-3.8c0.2-0.6,0.3-1.3,0.3-2
			c0-3.4-2.8-6.2-6.2-6.2c-3.4,0-6.2,2.8-6.2,6.2c0,0.7,0.1,1.4,0.3,2l-30.4,17.5c-1.1-1.3-2.8-2.2-4.7-2.2c-3.4,0-6.2,2.8-6.2,6.2
			c0,3,2.2,5.6,5.1,6.1v5.8h-7.5c-1.9,0-3.5,1.6-3.5,3.5v11.2c0,1.9,1.6,3.5,3.5,3.5h13.1c1.9,0,3.5-1.6,3.5-3.5v-11.2
			c0-1.9-1.6-3.5-3.5-3.5h-3.3V465c1.4-0.3,2.6-1,3.5-2l0.6,0.4c0.2,0.1,0.4,0.2,0.6,0.2c0.4,0,0.8-0.2,1-0.6
			c0.3-0.6,0.1-1.3-0.4-1.6l-0.6-0.4c0.2-0.6,0.3-1.3,0.3-2c0-0.7-0.1-1.4-0.3-2l30.4-17.5c0.9,1,2.1,1.8,3.5,2v0.3
			c0,0.6,0.5,1.2,1.2,1.2c0.6,0,1.2-0.5,1.2-1.2v-0.3c1.4-0.3,2.6-1,3.5-2l7.8,4.5v7.7c0,1.9,1.6,3.5,3.5,3.5h13.1
			c0.7,0,1.3-0.2,1.8-0.5l4.1,2.4c-0.2,0.6-0.3,1.3-0.3,2c0,0.7,0.1,1.4,0.3,2l-1,0.6c-0.6,0.3-0.8,1-0.4,1.6c0.2,0.4,0.6,0.6,1,0.6
			c0.2,0,0.4-0.1,0.6-0.2l1-0.6c0.9,1,2.1,1.8,3.5,2v21.4c0,0.6,0.5,1.2,1.2,1.2h10.2c0.6,0,1.2,0.5,1.2,1.2v23.3
			c0,0.6-0.5,1.2-1.2,1.2H43.4c-0.6,0-1.2-0.5-1.2-1.2v-23.3c0-0.6,0.5-1.2,1.2-1.2h24.1c0.6,0,1.2-0.5,1.2-1.2
			c0-0.6-0.5-1.2-1.2-1.2H43.4c-0.8,0-1.5,0.3-2.1,0.7l-1.6-1c-0.6-0.3-1.3-0.1-1.6,0.4c-0.3,0.6-0.1,1.3,0.4,1.6l1.5,0.9
			c-0.1,0.3-0.1,0.6-0.1,0.9v23.3c0,1.9,1.6,3.5,3.5,3.5h12l-17.6,10.2c-0.9-1-2.1-1.8-3.5-2v-0.3c0-0.6-0.5-1.2-1.2-1.2
			c-0.6,0-1.2,0.5-1.2,1.2v0.3c-1.4,0.3-2.6,1-3.5,2L-2,508.2c0.2-0.6,0.3-1.3,0.3-2c0-0.7-0.1-1.4-0.3-2l0.5-0.3
			c0.6-0.3,0.8-1,0.4-1.6c-0.3-0.6-1-0.8-1.6-0.4l-0.5,0.3c-0.9-1-2.1-1.8-3.5-2v-5.8c0-0.6-0.5-1.2-1.2-1.2c-0.6,0-1.2,0.5-1.2,1.2
			v5.8c-2.9,0.6-5.1,3.1-5.1,6.1c0,3.4,2.8,6.2,6.2,6.2c1.9,0,3.6-0.8,4.7-2.2l30.4,17.5c-0.2,0.6-0.3,1.3-0.3,2
			c0,3.4,2.8,6.2,6.2,6.2c3.4,0,6.2-2.8,6.2-6.2c0-0.7-0.1-1.4-0.3-2l21-12.1c0,0,0.1-0.1,0.1-0.1h24.2c1.9,0,3.5-1.6,3.5-3.5v-23.3
			C87.7,486.8,86.1,485.3,84.2,485.3L84.2,485.3z M-2.2,474.3v11.2c0,0.6-0.5,1.2-1.2,1.2h-13.1c-0.6,0-1.2-0.5-1.2-1.2v-11.2
			c0-0.6,0.5-1.2,1.2-1.2h13.1C-2.8,473.1-2.2,473.6-2.2,474.3L-2.2,474.3z M-7.9,462.8c-2.1,0-3.9-1.7-3.9-3.9s1.7-3.9,3.9-3.9
			s3.9,1.7,3.9,3.9C-4,461-5.8,462.8-7.9,462.8z M33,439.1c-2.1,0-3.9-1.7-3.9-3.9s1.7-3.9,3.9-3.9s3.9,1.7,3.9,3.9
			S35.2,439.1,33,439.1z M62.2,452.6H49c-0.6,0-1.2-0.5-1.2-1.2v-11.2c0-0.6,0.5-1.2,1.2-1.2h13.1c0.6,0,1.2,0.5,1.2,1.2v11.2
			C63.4,452.1,62.8,452.6,62.2,452.6z M70.1,458.9c0-2.1,1.7-3.9,3.9-3.9s3.9,1.7,3.9,3.9c0,2.1-1.7,3.9-3.9,3.9
			S70.1,461,70.1,458.9z M-7.9,510.1c-2.1,0-3.9-1.7-3.9-3.9s1.7-3.9,3.9-3.9S-4,504-4,506.2C-4,508.3-5.8,510.1-7.9,510.1z
			 M33,533.7c-2.1,0-3.9-1.7-3.9-3.9s1.7-3.9,3.9-3.9c2.1,0,3.9,1.7,3.9,3.9S35.2,533.7,33,533.7z"/>
		<path class="st9" d="M29.2,482.5c0,2.1,1.7,3.8,3.8,3.8c2.1,0,3.8-1.7,3.8-3.8c0-2.1-1.7-3.8-3.8-3.8
			C30.9,478.7,29.2,480.4,29.2,482.5L29.2,482.5z M33,481.1c0.8,0,1.5,0.7,1.5,1.5c0,0.8-0.7,1.5-1.5,1.5s-1.5-0.7-1.5-1.5
			S32.2,481.1,33,481.1z"/>
	</g>
	<path class="st8" d="M-18,498.9c-0.3,0-0.6-0.1-0.8-0.3l-2.6-2.6c-0.5-0.5-0.5-1.2,0-1.7l2.6-2.6c0.2-0.2,0.5-0.3,0.8-0.3
		s0.6,0.1,0.8,0.3l2.6,2.6c0.2,0.2,0.3,0.5,0.3,0.8c0,0.3-0.1,0.6-0.3,0.8l-2.6,2.6C-17.4,498.8-17.7,498.9-18,498.9z M-18.9,495.2
		l0.9,0.9l0.9-0.9l-0.9-0.9L-18.9,495.2z"/>
	<path class="st7" d="M67.1,526c-0.3,0-0.6-0.1-0.8-0.3l-2.6-2.6c-0.2-0.2-0.3-0.5-0.3-0.8c0-0.3,0.1-0.6,0.3-0.8l2.6-2.6
		c0.2-0.2,0.5-0.3,0.8-0.3s0.6,0.1,0.8,0.3l2.6,2.6c0.5,0.5,0.5,1.2,0,1.7l-2.6,2.6C67.7,525.8,67.4,526,67.1,526z M66.2,522.2
		l0.9,0.9l0.9-0.9l-0.9-0.9L66.2,522.2z"/>
	<path class="st7" d="M75.4,445.4c-0.2,0-0.4-0.1-0.6-0.2l-3.2-1.8c-0.6-0.3-0.8-1-0.4-1.6l1.8-3.2c0.3-0.6,1-0.8,1.6-0.4l3.2,1.8
		c0.6,0.3,0.8,1,0.4,1.6l-1.8,3.2C76.2,445.2,75.8,445.4,75.4,445.4z M73.8,441.9l1.1,0.7l0.7-1.1l-1.1-0.7L73.8,441.9z"/>
	<path class="st10" d="M68.5,434.9c-0.6,0-1.2-0.5-1.2-1.2c0-0.8-0.6-1.4-1.4-1.4c-0.6,0-1.2-0.5-1.2-1.2c0-0.6,0.5-1.2,1.2-1.2
		c0.8,0,1.4-0.6,1.4-1.4c0-0.6,0.5-1.2,1.2-1.2s1.2,0.5,1.2,1.2c0,0.8,0.6,1.4,1.4,1.4c0.6,0,1.2,0.5,1.2,1.2c0,0.6-0.5,1.2-1.2,1.2
		c-0.8,0-1.4,0.6-1.4,1.4C69.7,434.3,69.2,434.9,68.5,434.9z"/>
</g>
<path class="st8" d="M15,434.4c-0.6,0-1.2-0.5-1.2-1.2c0-0.8-0.6-1.4-1.4-1.4c-0.6,0-1.2-0.5-1.2-1.2c0-0.6,0.5-1.2,1.2-1.2
	c0.8,0,1.4-0.6,1.4-1.4c0-0.6,0.5-1.2,1.2-1.2c0.6,0,1.2,0.5,1.2,1.2c0,0.8,0.6,1.4,1.4,1.4c0.6,0,1.2,0.5,1.2,1.2
	c0,0.6-0.5,1.2-1.2,1.2c-0.8,0-1.4,0.6-1.4,1.4C16.2,433.9,15.6,434.4,15,434.4z"/>
<g>
	<path class="st7" d="M46.1,480.6l-2.7-0.8c-0.3-1.1-0.7-2.1-1.2-3l1.3-2.4c0.1-0.2,0.1-0.5-0.1-0.6l-1.8-1.8
		c-0.2-0.2-0.4-0.2-0.6-0.1l-2.4,1.3c-0.9-0.6-1.9-1-3-1.2l-0.8-2.7c-0.1-0.2-0.3-0.4-0.5-0.4h-2.6c-0.2,0-0.4,0.2-0.5,0.4l-0.8,2.7
		c-1.1,0.3-2.1,0.7-3,1.2l-2.4-1.3c-0.2-0.1-0.5-0.1-0.6,0.1l-1.8,1.8c-0.2,0.2-0.2,0.4-0.1,0.6l1.3,2.4c-0.6,0.9-1,1.9-1.2,3
		l-2.7,0.8c-0.2,0.1-0.4,0.3-0.4,0.5v2.6c0,0.2,0.2,0.4,0.4,0.5l2.7,0.8c0.3,1.1,0.7,2.1,1.2,3l-1.3,2.4c-0.1,0.2-0.1,0.5,0.1,0.6
		l1.8,1.8c0.2,0.2,0.4,0.2,0.6,0.1l2.4-1.3c0.9,0.6,1.9,1,3,1.2l0.8,2.7c0.1,0.2,0.3,0.4,0.5,0.4h2.6c0.2,0,0.4-0.2,0.5-0.4l0.8-2.7
		c1.1-0.3,2.1-0.7,3-1.2l2.4,1.3c0.2,0.1,0.5,0.1,0.6-0.1l1.8-1.8c0.2-0.2,0.2-0.4,0.1-0.6l-1.3-2.4c0.6-0.9,1-1.9,1.2-3l2.7-0.8
		c0.2-0.1,0.4-0.3,0.4-0.5v-2.6C46.5,480.9,46.4,480.7,46.1,480.6L46.1,480.6z M33.1,486.6c-2.3,0-4.2-1.9-4.2-4.2s1.9-4.2,4.2-4.2
		s4.2,1.9,4.2,4.2C37.3,484.7,35.4,486.6,33.1,486.6z"/>
	<path class="st9" d="M34.4,496.7h-2.6c-0.6,0-1.1-0.4-1.3-1l-0.6-2.2c-0.8-0.2-1.6-0.6-2.3-1l-2,1.1c-0.5,0.3-1.2,0.2-1.6-0.2
		l-1.8-1.8c-0.4-0.4-0.5-1.1-0.2-1.6l1.1-2c-0.4-0.7-0.7-1.5-1-2.3l-2.2-0.6c-0.6-0.2-1-0.7-1-1.3v-2.6c0-0.6,0.4-1.1,1-1.3l2.2-0.6
		c0.2-0.8,0.6-1.6,1-2.3l-1.1-2c-0.3-0.5-0.2-1.2,0.2-1.6l1.8-1.8c0.4-0.4,1.1-0.5,1.6-0.2l2,1.1c0.7-0.4,1.5-0.7,2.3-1l0.6-2.2
		c0.2-0.6,0.7-1,1.3-1h2.6c0.6,0,1.1,0.4,1.3,1l0.6,2.2c0.8,0.2,1.6,0.6,2.3,1l2-1.1c0.5-0.3,1.2-0.2,1.6,0.2l1.8,1.8
		c0.4,0.4,0.5,1.1,0.2,1.6l-1.1,2c0.4,0.7,0.7,1.5,1,2.3l2.2,0.6c0.6,0.2,1,0.7,1,1.3v2.6c0,0.6-0.4,1.1-1,1.3l-2.2,0.6
		c-0.2,0.8-0.6,1.6-1,2.3l1.1,2c0.3,0.5,0.2,1.2-0.2,1.6l-1.8,1.8c-0.4,0.4-1.1,0.5-1.6,0.2l-2-1.1c-0.7,0.4-1.5,0.7-2.3,1l-0.6,2.2
		C35.5,496.3,35,496.7,34.4,496.7L34.4,496.7z M32,495h2.1l0.7-2.5c0.1-0.3,0.3-0.5,0.6-0.6c1-0.2,1.9-0.6,2.8-1.1
		c0.3-0.2,0.6-0.2,0.8,0l2.2,1.2l1.5-1.5l-1.2-2.2c-0.1-0.3-0.1-0.6,0-0.8c0.5-0.9,0.9-1.8,1.1-2.8c0.1-0.3,0.3-0.5,0.6-0.6l2.5-0.7
		v-2.1l-2.5-0.7c-0.3-0.1-0.5-0.3-0.6-0.6c-0.2-1-0.6-1.9-1.1-2.8c-0.2-0.3-0.2-0.6,0-0.8l1.2-2.2l-1.5-1.5L39,474
		c-0.3,0.1-0.6,0.1-0.8,0c-0.9-0.5-1.8-0.9-2.8-1.1c-0.3-0.1-0.5-0.3-0.6-0.6l-0.7-2.5H32l-0.7,2.5c-0.1,0.3-0.3,0.5-0.6,0.6
		c-1,0.2-1.9,0.6-2.8,1.1c-0.3,0.2-0.6,0.2-0.8,0l-2.2-1.2l-1.5,1.5l1.2,2.2c0.1,0.3,0.1,0.6,0,0.8c-0.5,0.9-0.9,1.8-1.1,2.8
		c-0.1,0.3-0.3,0.5-0.6,0.6l-2.5,0.7v2.1l2.5,0.7c0.3,0.1,0.5,0.3,0.6,0.6c0.2,1,0.6,1.9,1.1,2.8c0.2,0.3,0.2,0.6,0,0.8l-1.2,2.2
		l1.5,1.5l2.2-1.2c0.3-0.1,0.6-0.1,0.8,0c0.9,0.5,1.8,0.9,2.8,1.1c0.3,0.1,0.5,0.3,0.6,0.6L32,495z M45.9,481.4L45.9,481.4
		L45.9,481.4z M45.9,481.4C45.9,481.4,45.9,481.4,45.9,481.4L45.9,481.4z"/>
	<path class="st9" d="M33.1,475.3c-3.9,0-7.1,3.2-7.1,7.1c0,3.9,3.2,7.1,7.1,7.1c3.9,0,7.1-3.2,7.1-7.1
		C40.2,478.5,37,475.3,33.1,475.3z M33.1,487.2c-2.6,0-4.8-2.2-4.8-4.8s2.2-4.8,4.8-4.8c2.6,0,4.8,2.1,4.8,4.8
		S35.7,487.2,33.1,487.2z"/>
	<path class="st9" d="M37.9,482.4c0,2.6-2.2,4.8-4.8,4.8c-2.6,0-4.8-2.2-4.8-4.8s2.2-4.8,4.8-4.8C35.7,477.6,37.9,479.7,37.9,482.4z
		"/>
</g>
<g>
	<path class="st3" d="M30.3,484.4c-0.1,0-0.3-0.1-0.4-0.2l-1.3-1.3c-0.2-0.2-0.2-0.6,0-0.8l1.3-1.3c0.2-0.2,0.6-0.2,0.8,0
		c0.2,0.2,0.2,0.6,0,0.8l-0.9,0.9l0.9,0.9c0.2,0.2,0.2,0.6,0,0.8C30.6,484.3,30.4,484.4,30.3,484.4z"/>
	<path class="st3" d="M35.5,484.4c-0.1,0-0.3-0.1-0.4-0.2c-0.2-0.2-0.2-0.6,0-0.8l0.9-0.9l-0.9-0.9c-0.2-0.2-0.2-0.6,0-0.8
		c0.2-0.2,0.6-0.2,0.8,0l1.3,1.3c0.2,0.2,0.2,0.6,0,0.8l-1.3,1.3C35.7,484.3,35.6,484.4,35.5,484.4z"/>
	<path class="st3" d="M32.1,484.4c-0.1,0-0.2,0-0.3-0.1c-0.3-0.1-0.4-0.5-0.2-0.8l1.5-2.7c0.1-0.3,0.5-0.4,0.8-0.2
		c0.3,0.1,0.4,0.5,0.2,0.8l-1.5,2.7C32.5,484.3,32.3,484.4,32.1,484.4z"/>
</g>
</svg>
