<?xml version="1.0" encoding="utf-8"?>
<!-- Generator: Adobe Illustrator 19.0.0, SVG Export Plug-In . SVG Version: 6.00 Build 0)  -->
<svg version="1.1" id="Layer_1" xmlns="http://www.w3.org/2000/svg" xmlns:xlink="http://www.w3.org/1999/xlink" x="0px" y="0px"
	 viewBox="0 0 512 512" style="enable-background:new 0 0 512 512;" xml:space="preserve">
<style type="text/css">
	.st0{fill:#fff;}
</style>
<g>
	<path class="st0" d="M461.8,355.7c-1.7-2.6-4.4-4.4-7.5-4.8c-40.6-5.3-69.2-42.5-63.9-83.2c3.8-28.7,23.8-52.6,51.5-61.2
		c5.6-1.8,8.7-7.8,6.9-13.4c-0.3-0.9-0.7-1.7-1.2-2.5c-18.6-33.6-51.8-56.8-89.8-62.7c-19.2,0.9-38,5-55.9,12
		c-12.8,5.2-26.3,8.3-40.1,9.4c-13.8-1-27.3-4.2-40.1-9.4c-17.8-7-36.7-11.1-55.9-12C126,128,48.5,184.5,48.5,288
		c0,98.4,71.8,224,128,224c21.5,0.2,42.7-4.7,61.9-14.3c7.2-4,15.2-6.4,23.5-7.1c8.2,0.7,16.2,3.1,23.5,7.1
		c19.2,9.6,40.4,14.4,61.9,14.3c44.6,0,94.9-76.5,116-147.5C464,361.5,463.5,358.3,461.8,355.7L461.8,355.7z"/>
	<path class="st0" d="M251.1,128c64.8-0.1,117.3-52.6,117.3-117.3c0-5.9-4.8-10.7-10.7-10.7C293,0.1,240.5,52.6,240.4,117.3
		C240.4,123.2,245.2,128,251.1,128L251.1,128z"/>
</g>
</svg>
