<?xml version="1.0" encoding="UTF-8"?>
<svg width="41px" height="54px" viewBox="0 0 41 54" version="1.1" xmlns="http://www.w3.org/2000/svg" xmlns:xlink="http://www.w3.org/1999/xlink">
    <!-- Generator: Sketch 61.2 (89653) - https://sketch.com -->
    <title>ic-technology-java</title>
    <desc>Created with Sketch.</desc>
    <g id="Page-1" stroke="none" stroke-width="1" fill="none" fill-rule="evenodd">
        <g id="ic-technology-java" fill="#fff" fill-rule="nonzero">
            <path d="M40.0913773,48.815136 C39.735587,53.409888 24.7009419,54.376272 14.9130064,53.755488 C8.48003862,53.345088 7.2280225,52.316928 7.2280225,52.316496 C13.3391677,53.31744 23.6461999,53.499312 32.0013935,51.938928 C39.4072322,50.55696 40.0913773,48.815136 40.0913773,48.815136 Z M8.70997411,45.91944 C8.70997411,45.91944 8.02887733,45.872784 6.83608701,46.12896 C5.69207088,46.373904 2.05578056,47.534688 3.99411927,48.371904 C9.38889346,50.699952 28.813216,50.143536 34.9544096,48.298032 C38.1843935,47.326464 36.6475709,46.069344 36.6475709,46.069344 C42.274458,48.588336 24.4213612,53.648352 2.72511927,50.15952 C-5.23117105,48.87864 6.5530225,44.413056 8.70997411,45.91944 Z M14.3904257,43.304976 C18.6982322,43.793136 20.8996031,43.723152 25.6455064,42.833232 C25.6455064,42.833232 26.8957806,43.608672 28.638587,44.280864 C18.1022246,48.7586736 4.82142409,44.1134144 12.6668555,41.7724764 L12.911087,41.702256 C12.911087,41.702256 10.8351354,42.900624 14.3904257,43.304976 Z M11.6098612,35.798976 C11.6098612,35.798976 9.28089346,37.509264 12.8392322,37.874736 C17.4409902,38.346048 21.0742322,38.384496 27.3643612,37.183536 L27.3876594,37.2062414 C27.5342058,37.3465636 28.3624695,38.10384 29.5992644,38.536128 C16.7341999,42.268608 2.40503862,38.829888 11.6098612,35.798976 Z M31.4296031,39.774672 C31.4296031,39.773808 31.5859419,39.633408 31.6334096,39.508128 C41.8328773,34.251984 37.116587,29.200608 33.8247644,29.881008 C33.0199902,30.047328 32.6589741,30.192048 32.6589741,30.192048 C32.6589741,30.192048 32.958587,29.72592 33.5299419,29.525472 C40.0417322,27.255312 45.0489257,36.222768 31.4296031,39.774672 Z M13.9105225,29.681424 L13.8944543,29.685241 C13.4546125,29.7901588 4.18127999,32.0293847 10.4122806,32.85576 C13.1070548,33.213456 18.4765709,33.131376 23.481587,32.714928 C27.5707806,32.37408 31.6743451,31.64616 31.6743451,31.64616 C31.6743451,31.64616 30.2337644,32.259168 29.1903451,32.965056 C19.1559257,35.583408 -0.223977504,34.363872 5.35587733,31.6872 C10.0730386,29.423952 13.9105225,29.681424 13.9105225,29.681424 Z M32.2940386,11.014704 C20.4392967,17.83512 22.6289096,19.812384 25.4852483,23.793264 C28.5423451,28.064016 21.8842322,31.472928 21.8842322,31.472928 C21.8842322,31.472928 25.196087,28.779408 22.5722967,25.783488 C13.6853773,15.624144 32.2940386,11.015136 32.2940386,11.014704 Z M25.4852483,9.05941988e-14 L25.504221,0.0198988502 C25.9064051,0.448688524 30.6968007,5.94686932 20.1274902,14.222736 C11.3019741,21.137328 18.1151193,25.078896 20.1244419,29.584224 C14.9722322,24.973488 11.1931031,20.913984 13.7280548,17.136144 C17.4505709,11.591856 27.7632644,8.902656 25.4852483,9.05941988e-14 Z" id="Combined-Shape"></path>
        </g>
    </g>
</svg>