<svg width="274" height="186" viewBox="0 0 274 186" fill="none" xmlns="http://www.w3.org/2000/svg">
<path d="M21.8 86V71.48H43.28C48.72 71.48 53.48 70.36 57.56 68.12C61.64 65.8 64.8 62.56 67.04 58.4C69.36 54.24 70.52 49.32 70.52 43.64C70.52 38.12 69.36 33.32 67.04 29.24C64.72 25.08 61.52 21.88 57.44 19.64C53.36 17.32 48.64 16.16 43.28 16.16H21.44V1.64H43.52C49.76 1.64 55.52 2.68 60.8 4.75999C66.16 6.84 70.8 9.8 74.72 13.64C78.72 17.4 81.8 21.84 83.96 26.96C86.2 32.08 87.32 37.68 87.32 43.76C87.32 49.84 86.2 55.48 83.96 60.68C81.8 65.8 78.76 70.28 74.84 74.12C70.92 77.88 66.28 80.8 60.92 82.88C55.64 84.96 49.92 86 43.76 86H21.8ZM10.64 86V1.64H26.96V86H10.64ZM164.649 111.68C160.489 111.68 157.049 111 154.329 109.64C151.529 108.28 149.009 106.36 146.769 103.88L156.729 93.92C157.689 95.12 158.729 95.96 159.849 96.44C160.889 97 162.129 97.28 163.569 97.28C165.569 97.28 167.249 96.68 168.609 95.48C169.969 94.28 170.649 92.52 170.649 90.2V28.04H186.369V89.96C186.369 94.52 185.369 98.4 183.369 101.6C181.449 104.88 178.849 107.36 175.569 109.04C172.369 110.8 168.729 111.68 164.649 111.68ZM178.689 18.68C176.129 18.68 174.009 17.84 172.329 16.16C170.649 14.4 169.809 12.24 169.809 9.68C169.809 7.19999 170.649 5.08 172.329 3.32C174.009 1.56 176.129 0.679997 178.689 0.679997C181.329 0.679997 183.449 1.56 185.049 3.32C186.729 5.08 187.569 7.19999 187.569 9.68C187.569 12.24 186.729 14.4 185.049 16.16C183.449 17.84 181.329 18.68 178.689 18.68Z" fill="#02355A"/>
<path d="M127.048 87.2C121.208 87.2 115.928 85.88 111.208 83.24C106.568 80.52 102.848 76.88 100.048 72.32C97.3284 67.68 95.9684 62.52 95.9684 56.84C95.9684 51.16 97.3284 46.08 100.048 41.6C102.768 37.04 106.488 33.44 111.208 30.8C115.928 28.08 121.168 26.72 126.928 26.72C132.848 26.72 138.128 28.08 142.768 30.8C147.488 33.44 151.208 37.04 153.928 41.6C156.648 46.08 158.008 51.16 158.008 56.84C158.008 62.52 156.648 67.68 153.928 72.32C151.208 76.88 147.488 80.52 142.768 83.24C138.128 85.88 132.888 87.2 127.048 87.2ZM126.928 72.56C129.888 72.56 132.488 71.92 134.728 70.64C137.048 69.28 138.808 67.44 140.008 65.12C141.288 62.72 141.928 60 141.928 56.96C141.928 53.92 141.288 51.24 140.008 48.92C138.728 46.6 136.968 44.8 134.728 43.52C132.488 42.16 129.888 41.48 126.928 41.48C124.048 41.48 121.488 42.16 119.248 43.52C117.008 44.8 115.248 46.6 113.968 48.92C112.688 51.24 112.048 53.92 112.048 56.96C112.048 60 112.688 62.72 113.968 65.12C115.248 67.44 117.008 69.28 119.248 70.64C121.488 71.92 124.048 72.56 126.928 72.56Z" fill="white"/>
<path d="M119.578 170V162H135.658C138.485 162 140.671 161.12 142.218 159.36C143.765 157.6 144.538 155.573 144.538 153.28C144.538 151.733 144.191 150.293 143.498 148.96C142.805 147.627 141.791 146.56 140.458 145.76C139.125 144.96 137.525 144.56 135.658 144.56H119.578V136.56H134.298C136.698 136.56 138.618 135.947 140.058 134.72C141.498 133.493 142.218 131.68 142.218 129.28C142.218 126.88 141.498 125.067 140.058 123.84C138.618 122.613 136.698 122 134.298 122H119.578V114H134.538C138.325 114 141.471 114.693 143.978 116.08C146.485 117.467 148.351 119.253 149.578 121.44C150.805 123.627 151.418 125.973 151.418 128.48C151.418 131.413 150.591 134 148.938 136.24C147.338 138.48 144.965 140.293 141.818 141.68L142.538 138.8C146.058 140.24 148.805 142.267 150.778 144.88C152.751 147.493 153.738 150.56 153.738 154.08C153.738 156.96 153.018 159.6 151.578 162C150.191 164.4 148.111 166.347 145.338 167.84C142.618 169.28 139.258 170 135.258 170H119.578ZM113.258 170V114H122.458V170H113.258ZM175.024 170.4L158.624 131.6H168.304L179.504 160.08H176.704L188.544 131.6H198.304L180.464 170.4H175.024ZM163.584 186L175.504 161.44L180.464 170.4L173.344 186H163.584ZM210.045 170V115.6H218.845V170H210.045ZM200.845 139.6V131.6H228.045V139.6H200.845ZM251.986 170.8C248.146 170.8 244.679 169.947 241.586 168.24C238.546 166.48 236.119 164.08 234.306 161.04C232.546 158 231.666 154.587 231.666 150.8C231.666 147.013 232.546 143.627 234.306 140.64C236.066 137.6 238.439 135.2 241.426 133.44C244.466 131.68 247.826 130.8 251.506 130.8C255.079 130.8 258.226 131.627 260.946 133.28C263.719 134.933 265.879 137.2 267.426 140.08C269.026 142.96 269.826 146.24 269.826 149.92C269.826 150.56 269.772 151.227 269.666 151.92C269.612 152.56 269.506 153.28 269.346 154.08H237.826V146.88H264.786L261.506 149.76C261.399 147.413 260.946 145.44 260.146 143.84C259.346 142.24 258.199 141.013 256.706 140.16C255.266 139.307 253.479 138.88 251.346 138.88C249.106 138.88 247.159 139.36 245.506 140.32C243.852 141.28 242.572 142.64 241.666 144.4C240.759 146.107 240.306 148.16 240.306 150.56C240.306 152.96 240.786 155.067 241.746 156.88C242.706 158.693 244.066 160.107 245.826 161.12C247.586 162.08 249.612 162.56 251.906 162.56C253.879 162.56 255.692 162.213 257.346 161.52C259.052 160.827 260.492 159.813 261.666 158.48L267.266 164.16C265.399 166.347 263.132 168 260.466 169.12C257.799 170.24 254.972 170.8 251.986 170.8Z" fill="#02355A"/>
<g clip-path="url(#clip0_64_206)">
<path d="M234 92C236.609 92 240.312 89.75 243.672 83.0469C245.219 79.9531 246.516 76.2188 247.438 72H220.562C221.484 76.2188 222.781 79.9531 224.328 83.0469C227.688 89.75 231.391 92 234 92ZM219.672 67H248.328C248.766 63.8437 249 60.4844 249 57C249 53.5156 248.766 50.1563 248.328 47H219.672C219.234 50.1563 219 53.5156 219 57C219 60.4844 219.234 63.8437 219.672 67ZM220.562 42H247.438C246.516 37.7812 245.219 34.0469 243.672 30.9531C240.312 24.25 236.609 22 234 22C231.391 22 227.688 24.25 224.328 30.9531C222.781 34.0469 221.484 37.7812 220.562 42ZM253.375 47C253.781 50.2031 254 53.5469 254 57C254 60.4531 253.781 63.7969 253.375 67H267.562C268.5 63.8281 269.016 60.4688 269.016 57C269.016 53.5312 268.516 50.1719 267.562 47H253.375ZM265.641 42C261.594 33.4844 254.219 26.8594 245.188 23.8281C248.469 28.25 251.062 34.5781 252.562 42H265.656H265.641ZM215.469 42C216.969 34.5625 219.563 28.25 222.844 23.8281C213.797 26.8594 206.406 33.4844 202.375 42H215.453H215.469ZM200.469 47C199.531 50.1719 199.016 53.5312 199.016 57C199.016 60.4688 199.516 63.8281 200.469 67H214.625C214.219 63.7969 214 60.4531 214 57C214 53.5469 214.219 50.2031 214.625 47H200.453H200.469ZM245.172 90.1719C254.203 87.125 261.578 80.5156 265.625 72H252.547C251.047 79.4375 248.453 85.75 245.172 90.1719ZM222.828 90.1719C219.547 85.75 216.969 79.4219 215.453 72H202.375C206.422 80.5156 213.797 87.1406 222.828 90.1719ZM234 97C223.391 97 213.217 92.7857 205.716 85.2843C198.214 77.7828 194 67.6087 194 57C194 46.3913 198.214 36.2172 205.716 28.7157C213.217 21.2143 223.391 17 234 17C244.609 17 254.783 21.2143 262.284 28.7157C269.786 36.2172 274 46.3913 274 57C274 67.6087 269.786 77.7828 262.284 85.2843C254.783 92.7857 244.609 97 234 97Z" fill="#FFD413"/>
</g>
<g clip-path="url(#clip1_64_206)">
<path d="M95 56C95 49.993 96.6075 44.3469 99.4176 39.384L113.575 64.0309C116.398 69.084 121.8 72.5 128 72.5C129.843 72.5 131.493 72.2035 133.259 71.6492L123.424 88.6906C107.362 86.4605 95 72.6676 95 56ZM142.064 64.4563C143.649 61.9813 144.5 58.9777 144.5 56C144.5 51.0758 142.334 46.6543 138.918 43.625H158.602C160.149 47.4406 161 51.6301 161 56C161 74.2273 146.227 88.884 128 89L142.064 64.4563ZM156.591 39.5H128C119.892 39.5 113.343 45.1848 111.822 52.7387L101.985 35.6934C108.02 27.9668 117.43 23 128 23C140.22 23 150.881 29.6361 156.591 39.5ZM116.656 56C116.656 49.7352 121.735 44.6562 128 44.6562C134.265 44.6562 139.344 49.7352 139.344 56C139.344 62.2648 134.265 67.3438 128 67.3438C121.735 67.3438 116.656 62.2648 116.656 56Z" fill="#02355A"/>
</g>
<circle cx="128" cy="56" r="12" fill="#FFD413"/>
<defs>
<clipPath id="clip0_64_206">
<rect width="80" height="80" fill="white" transform="translate(194 17)"/>
</clipPath>
<clipPath id="clip1_64_206">
<rect width="66" height="66" fill="white" transform="translate(95 23)"/>
</clipPath>
</defs>
</svg>
