<svg width="380" height="380" viewBox="0 0 380 380" fill="none" xmlns="http://www.w3.org/2000/svg">
<circle cx="190" cy="190" r="189.5" fill="white" stroke="#02355A"/>
<path d="M74.8 191V176.48H96.28C101.72 176.48 106.48 175.36 110.56 173.12C114.64 170.8 117.8 167.56 120.04 163.4C122.36 159.24 123.52 154.32 123.52 148.64C123.52 143.12 122.36 138.32 120.04 134.24C117.72 130.08 114.52 126.88 110.44 124.64C106.36 122.32 101.64 121.16 96.28 121.16H74.44V106.64H96.52C102.76 106.64 108.52 107.68 113.8 109.76C119.16 111.84 123.8 114.8 127.72 118.64C131.72 122.4 134.8 126.84 136.96 131.96C139.2 137.08 140.32 142.68 140.32 148.76C140.32 154.84 139.2 160.48 136.96 165.68C134.8 170.8 131.76 175.28 127.84 179.12C123.92 182.88 119.28 185.8 113.92 187.88C108.64 189.96 102.92 191 96.76 191H74.8ZM63.64 191V106.64H79.96V191H63.64ZM217.649 216.68C213.489 216.68 210.049 216 207.329 214.64C204.529 213.28 202.009 211.36 199.769 208.88L209.729 198.92C210.689 200.12 211.729 200.96 212.849 201.44C213.889 202 215.129 202.28 216.569 202.28C218.569 202.28 220.249 201.68 221.609 200.48C222.969 199.28 223.649 197.52 223.649 195.2V133.04H239.369V194.96C239.369 199.52 238.369 203.4 236.369 206.6C234.449 209.88 231.849 212.36 228.569 214.04C225.369 215.8 221.729 216.68 217.649 216.68ZM231.689 123.68C229.129 123.68 227.009 122.84 225.329 121.16C223.649 119.4 222.809 117.24 222.809 114.68C222.809 112.2 223.649 110.08 225.329 108.32C227.009 106.56 229.129 105.68 231.689 105.68C234.329 105.68 236.449 106.56 238.049 108.32C239.729 110.08 240.569 112.2 240.569 114.68C240.569 117.24 239.729 119.4 238.049 121.16C236.449 122.84 234.329 123.68 231.689 123.68Z" fill="#02355A"/>
<path d="M180.048 192.2C174.208 192.2 168.928 190.88 164.208 188.24C159.568 185.52 155.848 181.88 153.048 177.32C150.328 172.68 148.968 167.52 148.968 161.84C148.968 156.16 150.328 151.08 153.048 146.6C155.768 142.04 159.488 138.44 164.208 135.8C168.928 133.08 174.168 131.72 179.928 131.72C185.848 131.72 191.128 133.08 195.768 135.8C200.488 138.44 204.208 142.04 206.928 146.6C209.648 151.08 211.008 156.16 211.008 161.84C211.008 167.52 209.648 172.68 206.928 177.32C204.208 181.88 200.488 185.52 195.768 188.24C191.128 190.88 185.888 192.2 180.048 192.2ZM179.928 177.56C182.888 177.56 185.488 176.92 187.728 175.64C190.048 174.28 191.808 172.44 193.008 170.12C194.288 167.72 194.928 165 194.928 161.96C194.928 158.92 194.288 156.24 193.008 153.92C191.728 151.6 189.968 149.8 187.728 148.52C185.488 147.16 182.888 146.48 179.928 146.48C177.048 146.48 174.488 147.16 172.248 148.52C170.008 149.8 168.248 151.6 166.968 153.92C165.688 156.24 165.048 158.92 165.048 161.96C165.048 165 165.688 167.72 166.968 170.12C168.248 172.44 170.008 174.28 172.248 175.64C174.488 176.92 177.048 177.56 179.928 177.56Z" fill="white"/>
<path d="M172.578 275V267H188.658C191.485 267 193.671 266.12 195.218 264.36C196.765 262.6 197.538 260.573 197.538 258.28C197.538 256.733 197.191 255.293 196.498 253.96C195.805 252.627 194.791 251.56 193.458 250.76C192.125 249.96 190.525 249.56 188.658 249.56H172.578V241.56H187.298C189.698 241.56 191.618 240.947 193.058 239.72C194.498 238.493 195.218 236.68 195.218 234.28C195.218 231.88 194.498 230.067 193.058 228.84C191.618 227.613 189.698 227 187.298 227H172.578V219H187.538C191.325 219 194.471 219.693 196.978 221.08C199.485 222.467 201.351 224.253 202.578 226.44C203.805 228.627 204.418 230.973 204.418 233.48C204.418 236.413 203.591 239 201.938 241.24C200.338 243.48 197.965 245.293 194.818 246.68L195.538 243.8C199.058 245.24 201.805 247.267 203.778 249.88C205.751 252.493 206.738 255.56 206.738 259.08C206.738 261.96 206.018 264.6 204.578 267C203.191 269.4 201.111 271.347 198.338 272.84C195.618 274.28 192.258 275 188.258 275H172.578ZM166.258 275V219H175.458V275H166.258ZM228.024 275.4L211.624 236.6H221.304L232.504 265.08H229.704L241.544 236.6H251.304L233.464 275.4H228.024ZM216.584 291L228.504 266.44L233.464 275.4L226.344 291H216.584ZM263.045 275V220.6H271.845V275H263.045ZM253.845 244.6V236.6H281.045V244.6H253.845ZM304.986 275.8C301.146 275.8 297.679 274.947 294.586 273.24C291.546 271.48 289.119 269.08 287.306 266.04C285.546 263 284.666 259.587 284.666 255.8C284.666 252.013 285.546 248.627 287.306 245.64C289.066 242.6 291.439 240.2 294.426 238.44C297.466 236.68 300.826 235.8 304.506 235.8C308.079 235.8 311.226 236.627 313.946 238.28C316.719 239.933 318.879 242.2 320.426 245.08C322.026 247.96 322.826 251.24 322.826 254.92C322.826 255.56 322.772 256.227 322.666 256.92C322.612 257.56 322.506 258.28 322.346 259.08H290.826V251.88H317.786L314.506 254.76C314.399 252.413 313.946 250.44 313.146 248.84C312.346 247.24 311.199 246.013 309.706 245.16C308.266 244.307 306.479 243.88 304.346 243.88C302.106 243.88 300.159 244.36 298.506 245.32C296.852 246.28 295.572 247.64 294.666 249.4C293.759 251.107 293.306 253.16 293.306 255.56C293.306 257.96 293.786 260.067 294.746 261.88C295.706 263.693 297.066 265.107 298.826 266.12C300.586 267.08 302.612 267.56 304.906 267.56C306.879 267.56 308.692 267.213 310.346 266.52C312.052 265.827 313.492 264.813 314.666 263.48L320.266 269.16C318.399 271.347 316.132 273 313.466 274.12C310.799 275.24 307.972 275.8 304.986 275.8Z" fill="#02355A"/>
<g clip-path="url(#clip0_64_218)">
<path d="M287 197C289.609 197 293.312 194.75 296.672 188.047C298.219 184.953 299.516 181.219 300.438 177H273.562C274.484 181.219 275.781 184.953 277.328 188.047C280.688 194.75 284.391 197 287 197ZM272.672 172H301.328C301.766 168.844 302 165.484 302 162C302 158.516 301.766 155.156 301.328 152H272.672C272.234 155.156 272 158.516 272 162C272 165.484 272.234 168.844 272.672 172ZM273.562 147H300.438C299.516 142.781 298.219 139.047 296.672 135.953C293.312 129.25 289.609 127 287 127C284.391 127 280.688 129.25 277.328 135.953C275.781 139.047 274.484 142.781 273.562 147ZM306.375 152C306.781 155.203 307 158.547 307 162C307 165.453 306.781 168.797 306.375 172H320.562C321.5 168.828 322.016 165.469 322.016 162C322.016 158.531 321.516 155.172 320.562 152H306.375ZM318.641 147C314.594 138.484 307.219 131.859 298.188 128.828C301.469 133.25 304.062 139.578 305.562 147H318.656H318.641ZM268.469 147C269.969 139.563 272.563 133.25 275.844 128.828C266.797 131.859 259.406 138.484 255.375 147H268.453H268.469ZM253.469 152C252.531 155.172 252.016 158.531 252.016 162C252.016 165.469 252.516 168.828 253.469 172H267.625C267.219 168.797 267 165.453 267 162C267 158.547 267.219 155.203 267.625 152H253.453H253.469ZM298.172 195.172C307.203 192.125 314.578 185.516 318.625 177H305.547C304.047 184.437 301.453 190.75 298.172 195.172ZM275.828 195.172C272.547 190.75 269.969 184.422 268.453 177H255.375C259.422 185.516 266.797 192.141 275.828 195.172ZM287 202C276.391 202 266.217 197.786 258.716 190.284C251.214 182.783 247 172.609 247 162C247 151.391 251.214 141.217 258.716 133.716C266.217 126.214 276.391 122 287 122C297.609 122 307.783 126.214 315.284 133.716C322.786 141.217 327 151.391 327 162C327 172.609 322.786 182.783 315.284 190.284C307.783 197.786 297.609 202 287 202Z" fill="#FFD413"/>
</g>
<g clip-path="url(#clip1_64_218)">
<path d="M148 161C148 154.993 149.607 149.347 152.418 144.384L166.575 169.031C169.398 174.084 174.8 177.5 181 177.5C182.843 177.5 184.493 177.204 186.259 176.649L176.424 193.691C160.362 191.461 148 177.668 148 161ZM195.064 169.456C196.649 166.981 197.5 163.978 197.5 161C197.5 156.076 195.334 151.654 191.918 148.625H211.602C213.149 152.441 214 156.63 214 161C214 179.227 199.227 193.884 181 194L195.064 169.456ZM209.591 144.5H181C172.892 144.5 166.343 150.185 164.822 157.739L154.985 140.693C161.02 132.967 170.43 128 181 128C193.22 128 203.881 134.636 209.591 144.5ZM169.656 161C169.656 154.735 174.735 149.656 181 149.656C187.265 149.656 192.344 154.735 192.344 161C192.344 167.265 187.265 172.344 181 172.344C174.735 172.344 169.656 167.265 169.656 161Z" fill="#02355A"/>
</g>
<circle cx="181" cy="161" r="12" fill="#FFD413"/>
<defs>
<clipPath id="clip0_64_218">
<rect width="80" height="80" fill="white" transform="translate(247 122)"/>
</clipPath>
<clipPath id="clip1_64_218">
<rect width="66" height="66" fill="white" transform="translate(148 128)"/>
</clipPath>
</defs>
</svg>
