<?xml version="1.0" encoding="utf-8"?>
<!-- Generator: Adobe Illustrator 19.0.0, SVG Export Plug-In . SVG Version: 6.00 Build 0)  -->
<svg version="1.1" id="Capa_1" xmlns="http://www.w3.org/2000/svg" xmlns:xlink="http://www.w3.org/1999/xlink" x="0px" y="0px"
	 viewBox="-202 326 150 150" style="enable-background:new -202 326 150 150;" xml:space="preserve">
<style type="text/css">
	.st0{fill:url(#SVGID_1_);}
	.st1{opacity:0.1;fill:#2626BC;enable-background:new    ;}
	.st2{fill:#6583FE;}
	.st3{fill:#2D58E0;}
	.st4{fill:#1F50C9;}
	.st5{fill:#FFFFFF;}
	.st6{fill:#FF7EB8;}
	.st7{fill:#02FFB3;}
	.st8{fill:#9FB0FE;}
	.st9{fill:#2626BC;}
	.st10{fill:#B7C5FF;}
	.st11{fill:#00D890;}
	.st12{fill:#FF5BA8;}
	.st13{fill:#01ECA5;}
</style>
<g>
	<g>
		
			<linearGradient id="SVGID_1_" gradientUnits="userSpaceOnUse" x1="-185.6495" y1="382.7081" x2="-75.5872" y2="446.2525" gradientTransform="matrix(1 0 0 -1 0 804)">
			<stop  offset="0" style="stop-color:#DCFDEE;stop-opacity:0"/>
			<stop  offset="0.6288" style="stop-color:#D2F3E4"/>
		</linearGradient>
		<path class="st0" d="M-187.6,411.1c4.7,16.2,18.4,49.1,41.4,46.2c23.1-3,14.1-32.8,35.2-36.9c9.3-1.8,15.6,14.3,25,13.8
			c12-0.6,18.1-12.5,21.5-22.5c7.1-21.2-3.5-57.2-28.5-63.4c-21.8-5.4-24.3,21.2-43.3,13.5c-10.6-4.3-9.6-17.3-22.6-19.9
			C-198.1,333.9-193.9,389.6-187.6,411.1L-187.6,411.1z"/>
	</g>
	<g>
		<g>
			<g>
				<g>
					<path class="st1" d="M-103.2,461h-47.6c-4.2,0-7.6-3.4-7.6-7.6v-96.2c0-4.2,3.4-7.6,7.6-7.6h47.6c4.2,0,7.6,3.4,7.6,7.6v96.2
						C-95.6,457.6-99,461-103.2,461L-103.2,461z"/>
					<path class="st2" d="M-103.2,454.9h-47.6c-4.2,0-7.6-3.4-7.6-7.6v-96.2c0-4.2,3.4-7.6,7.6-7.6h47.6c4.2,0,7.6,3.4,7.6,7.6v96.2
						C-95.6,451.5-99,454.9-103.2,454.9L-103.2,454.9z"/>
					<path class="st3" d="M-158.4,354.4h62.8v89.6h-62.8V354.4z"/>
					<path class="st4" d="M-131.2,387.3h-12.9c-1.4,0-2.5-1.1-2.5-2.5v-11.9c0-1.4,1.1-2.5,2.5-2.5h12.9c1.4,0,2.5,1.1,2.5,2.5v11.9
						C-128.7,386.2-129.8,387.3-131.2,387.3z"/>
					<path class="st4" d="M-109.8,387.3h-12.9c-1.4,0-2.5-1.1-2.5-2.5v-11.9c0-1.4,1.1-2.5,2.5-2.5h12.9c1.4,0,2.5,1.1,2.5,2.5v11.9
						C-107.3,386.1-108.4,387.3-109.8,387.3z"/>
					<g>
						<path class="st4" d="M-95.7,370.3v16.9h-5.4c-1.4,0-2.5-1.1-2.5-2.5v-11.9c0-1.4,1.1-2.5,2.5-2.5H-95.7z"/>
					</g>
					<g>
						<path class="st5" d="M-113.4,359.8h-27.2c-0.7,0-1.3,0.6-1.3,1.3s0.6,1.3,1.3,1.3h27.2c0.7,0,1.3-0.6,1.3-1.3
							S-112.7,359.8-113.4,359.8z"/>
					</g>
					<g>
						<g>
							<path class="st6" d="M-131.2,384.7h-12.9c-1.4,0-2.5-1.1-2.5-2.5v-11.9c0-1.4,1.1-2.5,2.5-2.5h12.9c1.4,0,2.5,1.1,2.5,2.5
								v11.9C-128.7,383.6-129.8,384.7-131.2,384.7z"/>
							<g>
								<path class="st5" d="M-133.9,379.4h-5.2c-0.7,0-1.3,0.6-1.3,1.3c0,0.7,0.6,1.3,1.3,1.3h5.2c0.7,0,1.3-0.6,1.3-1.3
									C-132.7,380-133.2,379.4-133.9,379.4z"/>
								<path class="st5" d="M-133.9,375.3h-1.4c-0.7,0-1.3,0.6-1.3,1.3c0,0.7,0.6,1.3,1.3,1.3h1.4c0.7,0,1.3-0.6,1.3-1.3
									C-132.7,375.8-133.2,375.3-133.9,375.3z"/>
							</g>
						</g>
						<g>
							<path class="st7" d="M-109.8,384.6h-12.9c-1.4,0-2.5-1.1-2.5-2.5v-11.9c0-1.4,1.1-2.5,2.5-2.5h12.9c1.4,0,2.5,1.1,2.5,2.5
								v11.9C-107.3,383.5-108.4,384.6-109.8,384.6z"/>
							<g>
								<path class="st5" d="M-112.5,379.3h-5.2c-0.7,0-1.3,0.6-1.3,1.3c0,0.7,0.6,1.3,1.3,1.3h5.2c0.7,0,1.3-0.6,1.3-1.3
									C-111.2,379.9-111.8,379.3-112.5,379.3z"/>
								<path class="st5" d="M-112.5,375.2h-1.4c-0.7,0-1.3,0.6-1.3,1.3c0,0.7,0.6,1.3,1.3,1.3h1.4c0.7,0,1.3-0.6,1.3-1.3
									C-111.2,375.8-111.8,375.2-112.5,375.2z"/>
							</g>
						</g>
						<g>
							<path class="st8" d="M-95.7,367.7v16.9h-5.4c-1.4,0-2.5-1.1-2.5-2.5v-11.9c0-1.4,1.1-2.5,2.5-2.5H-95.7z"/>
						</g>
					</g>
					<path class="st5" d="M-158.4,444.1v-46.7c0-3.5,2.8-6.3,6.3-6.3h50.1c3.5,0,6.3,2.8,6.3,6.3v46.7H-158.4z"/>
					<path class="st9" d="M-103.2,456.2h-47.6c-4.9,0-8.8-4-8.8-8.8v-96.2c0-4.9,4-8.8,8.8-8.8h47.6c4.9,0,8.8,4,8.8,8.8v96.2
						C-94.4,452.2-98.3,456.2-103.2,456.2z M-150.8,344.9c-3.5,0-6.3,2.8-6.3,6.3v96.2c0,3.5,2.8,6.3,6.3,6.3h47.6
						c3.5,0,6.3-2.8,6.3-6.3v-96.2c0-3.5-2.8-6.3-6.3-6.3H-150.8z"/>
					<g>
						<path class="st10" d="M-122.6,350.5h-8.8c-0.7,0-1.3-0.6-1.3-1.3c0-0.7,0.6-1.3,1.3-1.3h8.8c0.7,0,1.3,0.6,1.3,1.3
							C-121.3,349.9-121.9,350.5-122.6,350.5z"/>
					</g>
					<circle class="st10" cx="-116.7" cy="349.2" r="1.3"/>
				</g>
			</g>
			<g>
				<g>
					<path class="st11" d="M-132.4,399.2h-5.2c-0.7,0-1.3,0.6-1.3,1.3c0,0.7,0.6,1.3,1.3,1.3h5.2c0.7,0,1.3-0.6,1.3-1.3
						C-131.1,399.8-131.7,399.2-132.4,399.2L-132.4,399.2z"/>
					<path class="st8" d="M-106.6,404.4h-31c-0.7,0-1.3,0.6-1.3,1.3c0,0.7,0.6,1.3,1.3,1.3h31c0.7,0,1.3-0.6,1.3-1.3
						C-105.4,404.9-105.9,404.4-106.6,404.4z"/>
				</g>
				<path class="st7" d="M-145,406.9h-5.1c-0.7,0-1.3-0.6-1.3-1.3v-5.1c0-0.7,0.6-1.3,1.3-1.3h5.1c0.7,0,1.3,0.6,1.3,1.3v5.1
					C-143.7,406.3-144.3,406.9-145,406.9z"/>
			</g>
			<g>
				<g>
					<path class="st12" d="M-132.4,414.9h-5.2c-0.7,0-1.3,0.6-1.3,1.3c0,0.7,0.6,1.3,1.3,1.3h5.2c0.7,0,1.3-0.6,1.3-1.3
						C-131.1,415.5-131.7,414.9-132.4,414.9z"/>
					<path class="st8" d="M-106.6,420h-31c-0.7,0-1.3,0.6-1.3,1.3c0,0.7,0.6,1.3,1.3,1.3h31c0.7,0,1.3-0.6,1.3-1.3
						C-105.4,420.6-105.9,420-106.6,420z"/>
				</g>
				<path class="st6" d="M-145,422.5h-5.1c-0.7,0-1.3-0.6-1.3-1.3v-5.1c0-0.7,0.6-1.3,1.3-1.3h5.1c0.7,0,1.3,0.6,1.3,1.3v5.1
					C-143.7,422-144.3,422.5-145,422.5z"/>
			</g>
			<g>
				<g>
					<path class="st2" d="M-132.4,430.5h-5.2c-0.7,0-1.3,0.6-1.3,1.3c0,0.7,0.6,1.3,1.3,1.3h5.2c0.7,0,1.3-0.6,1.3-1.3
						C-131.1,431.1-131.7,430.5-132.4,430.5z"/>
					<path class="st8" d="M-106.6,435.7h-31c-0.7,0-1.3,0.6-1.3,1.3c0,0.7,0.6,1.3,1.3,1.3h31c0.7,0,1.3-0.6,1.3-1.3
						C-105.4,436.2-105.9,435.7-106.6,435.7z"/>
				</g>
				<path class="st8" d="M-145,438.2h-5.1c-0.7,0-1.3-0.6-1.3-1.3v-5.1c0-0.7,0.6-1.3,1.3-1.3h5.1c0.7,0,1.3,0.6,1.3,1.3v5.1
					C-143.7,437.6-144.3,438.2-145,438.2z"/>
			</g>
		</g>
		<path class="st2" d="M-86,436.7c-2,0-3.6-1.6-3.6-3.6c0-2,1.6-3.6,3.6-3.6c2,0,3.6,1.6,3.6,3.6C-82.4,435.1-84,436.7-86,436.7z
			 M-86,432c-0.6,0-1.1,0.5-1.1,1.1c0,0.6,0.5,1.1,1.1,1.1c0.6,0,1.1-0.5,1.1-1.1C-84.9,432.5-85.4,432-86,432z"/>
		<path class="st13" d="M-170.7,382.9c-0.7,0-1.3-0.6-1.3-1.3c0-0.8-0.7-1.5-1.5-1.5c-0.7,0-1.3-0.6-1.3-1.3s0.6-1.3,1.3-1.3
			c0.8,0,1.5-0.7,1.5-1.5c0-0.7,0.6-1.3,1.3-1.3c0.7,0,1.3,0.6,1.3,1.3c0,0.8,0.7,1.5,1.5,1.5c0.7,0,1.3,0.6,1.3,1.3
			s-0.6,1.3-1.3,1.3c-0.8,0-1.5,0.7-1.5,1.5C-169.5,382.4-170,382.9-170.7,382.9z"/>
		<path class="st13" d="M-82.4,448.1c-0.7,0-1.3-0.6-1.3-1.3c0-0.8-0.7-1.5-1.5-1.5c-0.7,0-1.3-0.6-1.3-1.3c0-0.7,0.6-1.3,1.3-1.3
			c0.8,0,1.5-0.7,1.5-1.5c0-0.7,0.6-1.3,1.3-1.3c0.7,0,1.3,0.6,1.3,1.3c0,0.8,0.7,1.5,1.5,1.5c0.7,0,1.3,0.6,1.3,1.3
			c0,0.7-0.6,1.3-1.3,1.3c-0.8,0-1.5,0.7-1.5,1.5C-81.1,447.5-81.7,448.1-82.4,448.1z"/>
		<g>
			<path class="st12" d="M-79.6,374.4c-0.7,0-1.3-0.6-1.3-1.3c0-0.8-0.7-1.5-1.5-1.5c-0.7,0-1.3-0.6-1.3-1.3c0-0.7,0.6-1.3,1.3-1.3
				c0.8,0,1.5-0.7,1.5-1.5c0-0.7,0.6-1.3,1.3-1.3s1.3,0.6,1.3,1.3c0,0.8,0.7,1.5,1.5,1.5c0.7,0,1.3,0.6,1.3,1.3
				c0,0.7-0.6,1.3-1.3,1.3c-0.8,0-1.5,0.7-1.5,1.5C-78.3,373.8-78.9,374.4-79.6,374.4z"/>
			<path class="st12" d="M-173.3,395.4c-0.7,0-1.3-0.6-1.3-1.3c0-0.8-0.7-1.5-1.5-1.5c-0.7,0-1.3-0.6-1.3-1.3s0.6-1.3,1.3-1.3
				c0.8,0,1.5-0.7,1.5-1.5c0-0.7,0.6-1.3,1.3-1.3s1.3,0.6,1.3,1.3c0,0.8,0.7,1.5,1.5,1.5c0.7,0,1.3,0.6,1.3,1.3s-0.6,1.3-1.3,1.3
				c-0.8,0-1.5,0.7-1.5,1.5C-172.1,394.8-172.6,395.4-173.3,395.4z"/>
		</g>
	</g>
</g>
</svg>
