<?xml version="1.0" encoding="UTF-8"?>
<svg width="60px" height="36px" viewBox="0 0 60 36" version="1.1" xmlns="http://www.w3.org/2000/svg" xmlns:xlink="http://www.w3.org/1999/xlink">
    <!-- Generator: Sketch 61.2 (89653) - https://sketch.com -->
    <title>ic-technology-node-js</title>
    <desc>Created with Sketch.</desc>
    <g id="Page-1" stroke="none" stroke-width="1" fill="none" fill-rule="evenodd">
        <g id="ic-technology-node-js" fill="#fff" fill-rule="nonzero">
            <path d="M30.244139,21.6744734 L35.6554477,24.7442455 C36.0080734,24.9435082 36.2251641,25.3157029 36.2251641,25.7143432 L36.2251641,31.8405496 C36.2251641,32.23919 36.0080734,32.6113846 35.6554477,32.8106473 L30.244139,35.8804194 C30.0677675,35.9602165 29.8644063,36 29.67454,36 C29.4710614,36 29.2811951,35.9468786 29.1048235,35.8538587 L27.3010931,34.804079 C27.0297884,34.6578227 27.1654407,34.6047013 27.2468791,34.5781406 C27.6129996,34.45856 27.6808258,34.4318843 28.0605585,34.2193988 C28.1012777,34.1927231 28.1556091,34.206061 28.1962109,34.2326216 L29.5796068,35.0432402 C29.6338208,35.0698009 29.701647,35.0698009 29.7422488,35.0432402 L35.1536748,31.9734681 C35.2078888,31.9469074 35.2351132,31.893671 35.2351132,31.8273268 L35.2351132,25.7011203 C35.2351132,25.6345461 35.2078888,25.5815397 35.1536748,25.5548641 L29.7422488,22.4984298 C29.6880348,22.4717541 29.6202086,22.4717541 29.5796068,22.4984298 L24.1681808,25.5548641 C24.1139668,25.5814248 24.0867424,25.647884 24.0867424,25.7010054 L24.0867424,31.8272118 C24.0867424,31.8804481 24.1139668,31.9467924 24.1681808,31.9734681 L25.6465098,32.8106473 C26.4466945,33.2092876 26.9484674,32.7441881 26.9484674,32.2790885 L26.9484674,26.2325642 C26.9484674,26.1528821 27.0162935,26.073085 27.1112267,26.073085 L27.802866,26.073085 C27.8843043,26.073085 27.9656253,26.1395442 27.9656253,26.2325642 L27.9656253,32.2790885 C27.9656253,33.3288682 27.3824141,33.9402241 26.3652561,33.9402241 C26.0533496,33.9402241 25.8092692,33.9402241 25.1175126,33.607928 L23.6935149,32.8106473 C23.3408891,32.6113846 23.1239158,32.23919 23.1239158,31.8405496 L23.1239158,25.7143432 C23.1239158,25.3157029 23.3408891,24.9435082 23.6935149,24.7442455 L29.1048235,21.6744734 C29.4439544,21.4884336 29.9051255,21.4884336 30.244139,21.6744734 Z M31.1392568,25.8870452 C32.8751611,25.8870452 33.7296771,26.4718403 33.8382224,27.7474435 C33.8382224,27.787457 33.8246103,27.8272405 33.7975033,27.867139 C33.7702789,27.8936997 33.7296771,27.9202604 33.6889579,27.9202604 L32.9837065,27.9202604 C32.9158803,27.9202604 32.8480541,27.867139 32.8345593,27.8006798 C32.6717999,27.0698584 32.251348,26.8305822 31.1392568,26.8305822 C29.8915133,26.8305822 29.7422488,27.2558982 29.7422488,27.5747415 C29.7422488,27.960159 29.9186203,28.0797396 31.6003106,28.2923401 C33.268506,28.5050556 34.0551958,28.810676 34.0551958,29.9534757 C34.0415836,31.122951 33.0651448,31.7874282 31.342618,31.7874282 C28.9692885,31.7874282 28.4810104,30.7243107 28.4810104,29.8206722 C28.4810104,29.7408752 28.5488366,29.6611931 28.6437698,29.6611931 L29.3490212,29.6611931 C29.4303422,29.6611931 29.4981684,29.7143145 29.4981684,29.7941115 C29.6067138,30.4983723 29.9186203,30.8438913 31.3562302,30.8438913 C32.4954284,30.8438913 32.9838238,30.5913922 32.9838238,29.9933742 C32.9838238,29.6478552 32.8480541,29.3954712 31.0714307,29.2226542 C29.5931016,29.0763979 28.6708768,28.7575546 28.6708768,27.6014171 C28.6708768,26.5249617 29.5932189,25.8870452 31.1392568,25.8870452 Z M40.4566005,0.0143738187 L40.524499,0.0399272743 L43.9557057,1.91366338 C44.1416828,2.0162596 44.267914,2.19682725 44.3001845,2.40533235 L44.3083314,2.51168139 L44.3083314,18.7109441 C44.3083314,18.9160379 44.2086684,19.1113326 44.043557,19.2382499 L43.9557057,19.2957392 L38.2052661,22.5515512 C38.0214734,22.6540899 37.8020611,22.6687383 37.6080914,22.5954963 L37.5135095,22.5515512 L31.7630699,19.2957392 C31.5770928,19.1932416 31.4508616,19.012519 31.4185911,18.812367 L31.4104442,18.7109441 L31.4104442,12.212658 C31.4104442,12.0076627 31.5101072,11.8123821 31.6752186,11.6854668 L31.7630699,11.6279778 L37.5135095,8.37216589 C37.6973022,8.26962715 37.9167145,8.25497876 38.1106842,8.32822072 L38.2052661,8.37216589 L39.642876,9.18278442 C39.724197,9.22256796 39.8056354,9.22256796 39.8869564,9.18278442 C39.9480351,9.14285714 39.9861434,9.08805416 40.00138,9.02953224 L40.0089966,8.9701839 L40.0089966,0.33220987 C40.0089966,0.212629264 40.0768227,0.106386495 40.1852507,0.0399272743 C40.2612912,-0.00266181829 40.3633168,-0.0111796368 40.4566005,0.0143738187 Z M21.8083461,8.3190445 C22.0227408,8.19945962 22.2855906,8.19945962 22.4999853,8.3190445 L22.4999853,8.3190445 L28.2098231,11.5481808 C28.4131843,11.6677614 28.548954,11.8936997 28.548954,12.132861 L28.548954,12.132861 L28.548954,18.6045863 C28.548954,18.8437475 28.4267964,19.0696859 28.2098231,19.1892665 L28.2098231,19.1892665 L22.4999853,22.4185177 C22.2855906,22.5381026 22.0227408,22.5381026 21.8083461,22.4185177 L21.8083461,22.4185177 L16.0986257,19.1892665 C15.8951471,19.0696859 15.7594948,18.8437475 15.7594948,18.6045863 L15.7594948,18.6045863 L15.7594948,12.132746 C15.7594948,11.8935848 15.881535,11.6676464 16.0986257,11.5480658 L16.0986257,11.5480658 Z M53.2595095,8.29248381 C53.4739042,8.17289893 53.736754,8.17289893 53.9511487,8.29248381 L53.9511487,8.29248381 L59.6608691,11.5349579 C59.8643476,11.6545385 60,11.8804769 60,12.1196381 L60,12.1196381 L60,13.7009766 C60,13.9402528 59.8779598,14.1661912 59.6608691,14.2857718 L59.6608691,14.2857718 L56.2431572,16.2393049 C56.1346119,16.3057642 55.9990769,16.3057642 55.8905315,16.2393049 C55.7821035,16.1861836 55.7142773,16.0666029 55.7142773,15.9470223 L55.7142773,15.9470223 L55.7142773,14.352346 C55.7142773,14.2326504 55.6464512,14.1264076 55.5379058,14.0599484 L55.5379058,14.0599484 L53.7341754,13.0499522 C53.6264144,12.9835051 53.4893105,12.9835051 53.3815496,13.0499522 L53.3815496,13.0499522 L51.5777019,14.0599484 C51.4692738,14.1131848 51.4014477,14.2327654 51.4014477,14.352346 L51.4014477,14.352346 L51.4014477,16.3855612 C51.4014477,16.5051418 51.4692738,16.6114996 51.5777019,16.6778438 L51.5777019,16.6778438 L57.3552484,19.9336558 C57.4637938,19.9868921 57.5316199,20.1064727 57.5316199,20.2260533 C57.5316199,20.3456339 57.4637938,20.4652145 57.3552484,20.5184509 L57.3552484,20.5184509 L53.8969347,22.4052949 C53.6934562,22.5248755 53.435881,22.5248755 53.2187903,22.4052949 L53.2187903,22.4052949 L47.5090699,19.2159422 C47.2919792,19.0963616 47.1564442,18.8704232 47.1564442,18.631262 L47.1564442,18.631262 L47.1564442,12.1329759 C47.1564442,11.8936997 47.2919792,11.6677614 47.5090699,11.5481808 L47.5090699,11.5481808 Z M6.46930318,8.11955186 C6.57773119,8.1328897 6.6861592,8.15945039 6.78120972,8.21268675 L6.78120972,8.21268675 L12.5316493,11.4551609 C12.7486226,11.5747415 12.884275,11.8007948 12.884275,12.039956 L12.884275,12.039956 L12.8978872,20.7574971 C12.8978872,20.8770777 12.830061,20.9966584 12.7215156,21.0498947 C12.6129703,21.1163539 12.4774353,21.1163539 12.3688899,21.0498947 L12.3688899,21.0498947 L8.95117806,19.1362601 C8.7342047,19.0166795 8.59855234,18.7907411 8.59855234,18.5515799 L8.59855234,18.5515799 L8.59855234,14.4718116 C8.59855234,14.2325354 8.46301733,14.006712 8.24592662,13.8871314 L8.24592662,13.8871314 L6.7948219,13.0631751 C6.69977137,12.9967158 6.57773119,12.9700402 6.455691,12.9700402 C6.33365082,12.9700402 6.21161064,12.9967158 6.10306528,13.0631751 L6.10306528,13.0631751 L4.65196056,13.8871314 C4.43486985,14.006712 4.29933484,14.2326504 4.29933484,14.4718116 L4.29933484,14.4718116 L4.29933484,18.5515799 C4.29933484,18.7907411 4.16368248,19.0166795 3.94670912,19.1362601 L3.94670912,19.1362601 L0.528997256,21.0498947 C0.433946729,21.1163539 0.298411717,21.1163539 0.189866362,21.0498947 C0.0814383531,20.9966584 0.0136121743,20.8770777 0.0136121743,20.7574971 L0.0136121743,20.7574971 L-6.21724894e-14,12.039956 C-6.21724894e-14,11.8006798 0.135535011,11.5747415 0.352625722,11.4551609 L0.352625722,11.4551609 L6.10306528,8.21268675 C6.19799846,8.15945039 6.30654382,8.11955186 6.41497183,8.11955186 L6.41497183,8.11955186 Z M37.8292959,13.058662 L37.771202,13.0763979 L35.8047122,14.1927519 C35.7639637,14.2126724 35.7385289,14.2475333 35.7283583,14.2917562 L35.7232739,14.3388932 L35.7232739,16.5714861 C35.7232739,16.6113271 35.7385216,16.6586707 35.7690665,16.6910577 L35.8047122,16.7176274 L37.771202,17.8338663 C37.8083059,17.8516022 37.8495894,17.8575142 37.8894797,17.8516022 L37.9475736,17.8338663 L39.9140634,16.7176274 C39.9548119,16.6977068 39.9802467,16.6628459 39.9904173,16.618623 L39.9955017,16.5714861 L39.9955017,14.3388932 C39.9955017,14.2990521 39.980254,14.2516439 39.9497092,14.219273 L39.9140634,14.1927519 L37.9475736,13.0763979 C37.9104697,13.058662 37.8691862,13.0527501 37.8292959,13.058662 Z M53.652737,13.9801513 L54.7513333,14.60473 C54.7920525,14.6311758 54.8191595,14.6710743 54.8191595,14.7243107 L54.8191595,15.9734681 C54.8191595,16.0265894 54.7920525,16.066488 54.7513333,16.0930487 L53.652737,16.7176274 C53.6116166,16.7441615 53.5583224,16.7441615 53.517202,16.7176274 L52.4186057,16.0930487 C52.3778865,16.066488 52.3507795,16.0265894 52.3507795,15.9734681 L52.3507795,14.7243107 C52.3507795,14.6710743 52.3778865,14.6311758 52.4186057,14.60473 L53.517202,13.9801513 C53.5583224,13.9536172 53.6116166,13.9536172 53.652737,13.9801513 Z" id="Combined-Shape-Copy-8"></path>
        </g>
    </g>
</svg>