<?xml version="1.0" encoding="UTF-8"?>
<svg width="48px" height="48px" viewBox="0 0 48 48" version="1.1" xmlns="http://www.w3.org/2000/svg" xmlns:xlink="http://www.w3.org/1999/xlink">
    <!-- Generator: Sketch 61.2 (89653) - https://sketch.com -->
    <title>ic-technology-objectivec</title>
    <desc>Created with Sketch.</desc>
    <g id="Page-1" stroke="none" stroke-width="1" fill="none" fill-rule="evenodd">
        <g id="ic-technology-objectivec" fill="#fff" fill-rule="nonzero">
            <path d="M23.9975251,9.38903939e-06 C30.3167857,-0.00560972977 36.3769345,2.51116104 40.8330587,6.99179077 C45.3636022,11.408177 47.9437477,17.4503759 48.0009714,23.777069 C48.0601511,37.0426241 37.3944503,47.8655036 24.1294454,48.0001352 L23.934706,48.0001352 C11.0379334,48.0001352 0.101118549,37.1072937 0.000607901191,24.1288563 C-0.0446957907,17.8049189 2.44384238,11.7260988 6.91071496,7.2493493 C11.3024853,2.7512912 17.276071,0.155635569 23.5489692,0.0064942571 L23.9975251,9.38903939e-06 Z M24.010089,1.25637235 C17.9111646,1.29213398 12.0807273,3.76956078 7.82159271,8.13509939 C3.58513649,12.3705 1.22099111,18.1258932 1.25658581,24.1162924 C1.35121974,36.416283 11.7163803,46.7311883 23.9284241,46.7311883 L24.0917539,46.7311883 C36.6702525,46.6172115 46.7932517,36.3622708 46.7445177,23.7833509 C46.6873841,17.7896175 44.2407427,12.0664665 39.9473086,7.88382277 C35.7341994,3.63340579 29.994756,1.24668415 24.010089,1.25637235 Z M8.79528961,16.9988822 L8.79528961,18.2552653 L6.98609794,18.2552653 L6.98609794,29.7888621 L8.79528961,29.7888621 L8.79528961,31.0452452 L5.38420949,31.0201176 L5.38420949,16.9988822 L8.79528961,16.9988822 Z M42.6171227,16.9611907 L42.6171227,31.0201176 L39.2060426,31.0201176 L39.2060426,29.7637345 L41.0152342,29.7637345 L41.0152342,18.2175738 L39.2060426,18.2175738 L39.2060426,16.9611907 L42.6171227,16.9611907 Z M27.5593712,20.1712495 L27.5593712,25.1276808 C27.5593712,27.2321225 26.5417009,27.9356971 25.046605,27.9356971 C24.646762,27.9323871 24.2500794,27.8645056 23.8718868,27.7346758 L24.0414985,26.6164948 C24.3202661,26.7035726 24.6101057,26.7501161 24.902121,26.754697 C25.6936423,26.754697 26.1585041,26.3903459 26.1585041,25.0711436 L26.1710679,20.1712495 L27.5593712,20.1712495 Z M36.4734093,20.0456112 C37.1188925,20.0188764 37.7623379,20.1346966 38.357984,20.3848346 L38.0501701,21.4904518 C37.5776914,21.2893565 37.0685278,21.1888073 36.5550742,21.1952017 C35.0034411,21.1952017 33.8852601,22.1688986 33.8852601,24.003218 C33.8852601,25.6742075 34.8715209,26.754697 36.5425104,26.754697 C37.0609431,26.7621779 37.5756515,26.6660706 38.056452,26.4720108 L38.2574733,27.5650641 C37.6329089,27.8140937 36.9631367,27.9296455 36.2912338,27.9042875 C33.8726963,27.9042875 32.4027281,26.3903459 32.4027281,24.072319 C32.3449125,22.9798947 32.7567538,21.9148432 33.5344848,21.1455136 C34.3122158,20.3761841 35.3816774,19.9759344 36.4734093,20.0456112 Z M13.4187794,20.0079197 C15.5671945,20.0079197 16.9617798,21.7291645 16.9617798,23.8712977 C16.9617798,26.4280373 15.4101466,27.8854417 13.3057049,27.8854417 C11.2012632,27.8854417 9.80039609,26.2458618 9.80039609,24.003218 C9.80039609,21.6600635 11.2703643,20.0079197 13.4187794,20.0079197 Z M22.3516633,20.5858559 C22.8548428,20.8822198 23.1578224,21.428064 23.1431846,22.0118507 C23.1258822,22.7249936 22.6835146,23.3527329 22.0299953,23.6137727 L21.8868015,23.6639945 C22.7827131,23.8462492 23.4262942,24.6343076 23.4258708,25.5485692 C23.435488,26.1572482 23.1644084,26.7364781 22.6908867,27.119048 C22.150642,27.5964736 21.2523281,27.8289045 19.8640247,27.8289045 C19.2929081,27.8317137 18.7221923,27.7981422 18.1553437,27.7283939 L18.1427799,20.2717601 C18.8108094,20.1563975 19.4876439,20.0996443 20.1655567,20.1021484 C20.9270982,20.0277688 21.6925873,20.1971442 22.3516633,20.5858559 Z M20.215812,24.3047499 L19.5248013,24.3047499 L19.5248013,26.7861065 C19.7689454,26.8112933 20.0143827,26.8217821 20.2597854,26.8175161 C21.1518174,26.8175161 21.9433388,26.4782927 21.9433388,25.561133 C21.9433388,24.6439733 21.1769451,24.3047499 20.215812,24.3047499 Z M13.3873698,21.1323826 C11.9927846,21.1323826 11.2578005,22.4453029 11.2578005,24.0157818 L11.2703643,23.9843722 C11.2703643,25.5360053 12.0493218,26.7672608 13.3873698,26.7672608 C14.7254178,26.7672608 15.4918115,25.5108777 15.4918115,23.927835 C15.4918115,22.4892763 14.7819551,21.1323826 13.3873698,21.1323826 Z M31.5106961,24.298468 L31.5106961,25.2596011 L28.6210149,25.2596011 L28.6210149,24.298468 L31.5106961,24.298468 Z M20.3100407,21.1386645 C20.0449459,21.1296065 19.7796355,21.1485573 19.5185194,21.1952017 L19.5248013,23.2807977 L20.2346577,23.2807977 C21.1957908,23.2807977 21.7360356,22.8284998 21.7360356,22.1814625 C21.7360356,21.5344252 21.1957908,21.1386645 20.3100407,21.1386645 Z" id="Combined-Shape-Copy-26"></path>
        </g>
    </g>
</svg>