<?xml version="1.0" encoding="UTF-8"?>
<svg width="45px" height="48px" viewBox="0 0 45 48" version="1.1" xmlns="http://www.w3.org/2000/svg" xmlns:xlink="http://www.w3.org/1999/xlink">
    <!-- Generator: Sketch 61.2 (89653) - https://sketch.com -->
    <title>ic-technology-angular-js</title>
    <desc>Created with Sketch.</desc>
    <g id="Page-1" stroke="none" stroke-width="1" fill="none" fill-rule="evenodd">
        <g id="ic-technology-angular-js" fill="#fff" fill-rule="nonzero">
            <path d="M18.2851532,24 L27.0963631,24 L22.4125692,14.1380252 L18.2851532,24 Z M22.4280872,0 L0,7.94766094 L3.5437869,37.5358719 L22.451932,48 L41.4573486,37.3944803 L45,7.80703147 L22.4280872,0 Z M16.4608391,28.1922063 L13.7111208,35.1192556 L8.57086985,35.1405977 L22.4265733,4.24060723 L22.4000791,4.18229746 L22.3758558,4.18229746 L22.3762343,4.13160987 L22.4000791,4.18229746 L22.4534459,4.18229746 L22.5,4.07787341 L22.5,4.18229746 L22.4530674,4.18229746 L22.4269517,4.24060723 L36.8810453,35.2694128 L31.9326879,35.1600343 L28.8888842,28.0790167 L22.3891029,28.1102677 L16.4608391,28.1922063 Z" id="Shape-Copy-11"></path>
        </g>
    </g>
</svg>