<?xml version="1.0" encoding="utf-8"?>
<!-- Generator: Adobe Illustrator 19.0.0, SVG Export Plug-In . SVG Version: 6.00 Build 0)  -->
<svg version="1.1" id="Capa_1" xmlns="http://www.w3.org/2000/svg" xmlns:xlink="http://www.w3.org/1999/xlink" x="0px" y="0px"
	 viewBox="-187 341 120 120" style="enable-background:new -187 341 120 120;" xml:space="preserve">
<style type="text/css">
	.st0{fill:url(#SVGID_1_);}
	.st1{opacity:0.1;fill:#2626BC;enable-background:new    ;}
	.st2{fill:#FFFFFF;}
	.st3{fill:#97FFD2;}
	.st4{fill:#B7C5FF;}
	.st5{fill:#6583FE;}
	.st6{fill:#FFC4DF;}
	.st7{fill:#FF7EB8;}
	.st8{fill:#4369FD;}
	.st9{fill:#2D58E0;}
	.st10{fill:#8399FE;}
	.st11{fill:#2626BC;}
	.st12{fill:#01ECA5;}
</style>
<g>
	
		<linearGradient id="SVGID_1_" gradientUnits="userSpaceOnUse" x1="-190.9737" y1="423.6027" x2="-58.9975" y2="389.0856" gradientTransform="matrix(1 0 0 -1 0 804)">
		<stop  offset="0" style="stop-color:#DCFDEE;stop-opacity:0"/>
		<stop  offset="0.6288" style="stop-color:#D2F3E4"/>
	</linearGradient>
	<path class="st0" d="M-68.5,409.4c-2.8-8.1-8.9-14.1-16.4-16.9c-3.9-1.5-6.4-5.1-6.5-9.2c0-0.1,0-0.2,0-0.3
		c-0.4-15.1-13-27.3-28.1-27c-8.9,0.2-16.8,4.5-21.8,11.2c-4.3,5.8-10.9,9.4-18.1,9.4c-0.2,0-0.4,0-0.6,0
		c-14.5,0.3-26.9,12.8-27,27.3c-0.2,15.5,12.3,28,27.7,28c11.9,0,22.1-7.6,26-18.2c1-2.8,4-4.3,6.9-3.5c0,0,0.1,0,0.1,0
		c2.6,0.7,4.3,3.2,4.1,5.9c-0.3,3.6,0.1,7.3,1.4,11c4.8,14.3,20.4,22.2,34.8,17.5C-71.4,439.9-63.5,424-68.5,409.4L-68.5,409.4z"/>
	<path class="st1" d="M-79.5,359.6h-86.7c-1.9,0-3.5,1.6-3.5,3.5v40.6l-7.7,13.7c-1.1,1.9-0.7,4.2,0.9,5.7l6.8,6.3v0.3
		c0,1.9,1.6,3.5,3.5,3.5h86.7c1.9,0,3.5-1.6,3.5-3.5v-66.6C-76,361.1-77.6,359.6-79.5,359.6L-79.5,359.6z"/>
	<path class="st2" d="M-76,368v66.6c0,1.9-1.6,3.5-3.5,3.5h-86.7c-1.9,0-3.5-1.6-3.5-3.5V368c0-1.9,1.6-3.5,3.5-3.5h86.7
		C-77.6,364.5-76,366.1-76,368L-76,368z"/>
	<path class="st3" d="M-107.2,428.9h-38c-0.4,0-0.7-0.3-0.7-0.7v-36.5c0-0.4,0.3-0.7,0.7-0.7h38c0.4,0,0.7,0.3,0.7,0.7v36.5
		C-106.5,428.6-106.8,428.9-107.2,428.9z"/>
	<path class="st4" d="M-76,386.8V368c0-1.9-1.6-3.5-3.5-3.5h-86.7c-1.9,0-3.5,1.6-3.5,3.5v18.8H-76z"/>
	<path class="st5" d="M-76,375.8V368c0-1.9-1.6-3.5-3.5-3.5h-86.7c-1.9,0-3.5,1.6-3.5,3.5v7.8H-76z"/>
	<path class="st5" d="M-134.3,357.9c-0.3,0-0.6-0.1-0.8-0.3l-2.6-2.6c-0.5-0.5-0.5-1.2,0-1.7l2.6-2.6c0.2-0.2,0.5-0.3,0.8-0.3
		c0.3,0,0.6,0.1,0.8,0.3l2.6,2.6c0.5,0.5,0.5,1.2,0,1.7l-2.6,2.6C-133.7,357.8-134,357.9-134.3,357.9z M-135.2,354.1l0.9,0.9
		l0.9-0.9l-0.9-0.9L-135.2,354.1z"/>
	<path class="st3" d="M-98.8,455.6c-0.6,0-1.2-0.5-1.2-1.2c0-0.8-0.6-1.4-1.4-1.4c-0.6,0-1.2-0.5-1.2-1.2s0.5-1.2,1.2-1.2
		c0.8,0,1.4-0.6,1.4-1.4c0-0.6,0.5-1.2,1.2-1.2c0.6,0,1.2,0.5,1.2,1.2c0,0.8,0.6,1.4,1.4,1.4c0.6,0,1.2,0.5,1.2,1.2
		s-0.5,1.2-1.2,1.2c-0.8,0-1.4,0.6-1.4,1.4C-97.6,455.1-98.1,455.6-98.8,455.6z"/>
	<path class="st4" d="M-82.7,430.2h-17.8c-0.4,0-0.7-0.3-0.7-0.7v-44.1c0-0.4,0.3-0.7,0.7-0.7h17.8c0.4,0,0.7,0.3,0.7,0.7v44.1
		C-82,429.8-82.3,430.2-82.7,430.2L-82.7,430.2z"/>
	<path class="st6" d="M-82.7,430.2h-17.8c-0.4,0-0.7-0.3-0.7-0.7v-44.1c0-0.4,0.3-0.7,0.7-0.7h17.8c0.4,0,0.7,0.3,0.7,0.7v44.1
		C-82,429.8-82.3,430.2-82.7,430.2L-82.7,430.2z"/>
	<path class="st7" d="M-82,390h-19.2v-4.6c0-0.4,0.3-0.7,0.7-0.7h17.8c0.4,0,0.7,0.3,0.7,0.7L-82,390L-82,390z"/>
	<path class="st7" d="M-101.2,403.7H-82v5.3h-19.2V403.7z"/>
	<g>
		<path class="st5" d="M-93.5,413.8h-4.8c-0.4,0-0.7-0.3-0.7-0.7v-0.6c0-0.4,0.3-0.7,0.7-0.7h4.8c0.4,0,0.7,0.3,0.7,0.7v0.6
			C-92.8,413.5-93.1,413.8-93.5,413.8z"/>
		<path class="st5" d="M-85,413.8h-4.8c-0.4,0-0.7-0.3-0.7-0.7v-0.6c0-0.4,0.3-0.7,0.7-0.7h4.8c0.4,0,0.7,0.3,0.7,0.7v0.6
			C-84.3,413.5-84.6,413.8-85,413.8z"/>
		<path class="st5" d="M-93.5,417.2h-4.8c-0.4,0-0.7-0.3-0.7-0.7v-0.6c0-0.4,0.3-0.7,0.7-0.7h4.8c0.4,0,0.7,0.3,0.7,0.7v0.6
			C-92.8,416.8-93.1,417.2-93.5,417.2z"/>
		<path class="st5" d="M-85,417.2h-4.8c-0.4,0-0.7-0.3-0.7-0.7v-0.6c0-0.4,0.3-0.7,0.7-0.7h4.8c0.4,0,0.7,0.3,0.7,0.7v0.6
			C-84.3,416.8-84.6,417.2-85,417.2z"/>
		<path class="st5" d="M-93.5,420.5h-4.8c-0.4,0-0.7-0.3-0.7-0.7v-0.6c0-0.4,0.3-0.7,0.7-0.7h4.8c0.4,0,0.7,0.3,0.7,0.7v0.6
			C-92.8,420.2-93.1,420.5-93.5,420.5z"/>
		<path class="st5" d="M-85,420.5h-4.8c-0.4,0-0.7-0.3-0.7-0.7v-0.6c0-0.4,0.3-0.7,0.7-0.7h4.8c0.4,0,0.7,0.3,0.7,0.7v0.6
			C-84.3,420.2-84.6,420.5-85,420.5z"/>
	</g>
	<path class="st4" d="M-150,403.8v-18.4c0-0.4-0.3-0.7-0.7-0.7h-9.4c-0.4,0-0.7,0.3-0.7,0.7v18.4c0,0.4,0.3,0.7,0.7,0.7h9.4
		C-150.3,404.5-150,404.2-150,403.8z"/>
	<path class="st6" d="M-150,403.8v-18.4c0-0.4-0.3-0.7-0.7-0.7h-9.4c-0.4,0-0.7,0.3-0.7,0.7v18.4c0,0.4,0.3,0.7,0.7,0.7h9.4
		C-150.3,404.5-150,404.2-150,403.8z"/>
	<path class="st7" d="M-150,390h-10.8v-4.6c0-0.4,0.3-0.7,0.7-0.7h9.4c0.4,0,0.7,0.3,0.7,0.7L-150,390L-150,390z"/>
	<path class="st8" d="M-154.6,446.2h-12.5c-1.3,0-2.3-1-2.3-2.3v-5.2h17.2v5.2C-152.2,445.2-153.3,446.2-154.6,446.2z"/>
	<path class="st9" d="M-169.4,438.7h17.2v4.7h-17.2V438.7z"/>
	<path class="st4" d="M-167.1,436.8h12.6l9.4-8.8c1.6-1.5,1.9-3.8,0.9-5.7l-15.1-27c-0.6-1.2-2.3-1.2-3,0l-15.1,27
		c-1.1,1.9-0.7,4.2,0.9,5.7L-167.1,436.8z"/>
	<circle class="st10" cx="-160.8" cy="423" r="4.7"/>
	<path class="st7" d="M-151.3,440.7h-19.1c-1.3,0-2.3-1-2.3-2.3V437c0-1.3,1-2.3,2.3-2.3h19.1c1.3,0,2.3,1,2.3,2.3v1.4
		C-148.9,439.6-150,440.7-151.3,440.7z"/>
	<path class="st11" d="M-159.6,370.1L-159.6,370.1c0-0.7-0.5-1.2-1.2-1.2s-1.2,0.5-1.2,1.2v0c0,0.6,0.5,1.2,1.2,1.2
		S-159.6,370.8-159.6,370.1z"/>
	<path class="st11" d="M-155.1,370.1L-155.1,370.1c0-0.7-0.5-1.2-1.2-1.2s-1.2,0.5-1.2,1.2v0c0,0.6,0.5,1.2,1.2,1.2
		S-155.1,370.8-155.1,370.1z"/>
	<path class="st11" d="M-150.6,370.1L-150.6,370.1c0-0.7-0.5-1.2-1.2-1.2s-1.2,0.5-1.2,1.2v0c0,0.6,0.5,1.2,1.2,1.2
		S-150.6,370.8-150.6,370.1z"/>
	<path class="st11" d="M-79.5,363.3h-86.7c-2.6,0-4.7,2.1-4.7,4.7v1.3c0,0.6,0.5,1.2,1.2,1.2s1.2-0.5,1.2-1.2V368
		c0-1.3,1.1-2.3,2.3-2.3h86.7c1.3,0,2.3,1.1,2.3,2.3v6.6h-92.6c-0.6,0-1.2,0.5-1.2,1.2v32.5l-7.5,13.5c-1.3,2.4-0.9,5.3,1.1,7.1
		l5.3,5c-1.1,0.6-1.9,1.8-1.9,3.1v1.4c0,1.9,1.5,3.4,3.3,3.5v2.1c0,1.9,1.6,3.5,3.5,3.5h12.5c1.9,0,3.5-1.6,3.5-3.5v-2.1
		c1.8-0.1,3.3-1.6,3.3-3.5V437c0-1.4-0.8-2.5-1.9-3.1l5.3-5c2-1.8,2.4-4.8,1.1-7.1l-15.1-27c-0.5-0.9-1.5-1.5-2.5-1.5
		c-1.1,0-2,0.5-2.5,1.5l-5.2,9.4v-27.1h91.4v57.7c0,1.3-1.1,2.3-2.3,2.3h-62.6c-0.6,0-1.2,0.5-1.2,1.2c0,0.6,0.5,1.2,1.2,1.2h62.6
		c2.6,0,4.7-2.1,4.7-4.7V368C-74.8,365.4-76.9,363.3-79.5,363.3L-79.5,363.3z M-154.6,445.1h-12.5c-0.6,0-1.2-0.5-1.2-1.2v-2.1h14.8
		v2.1C-153.4,444.5-153.9,445.1-154.6,445.1z M-150.1,438.3c0,0.6-0.5,1.2-1.2,1.2h-19.1c-0.6,0-1.2-0.5-1.2-1.2V437
		c0-0.6,0.5-1.2,1.2-1.2h19.1c0.6,0,1.2,0.5,1.2,1.2L-150.1,438.3z M-160.8,419.5c1.9,0,3.5,1.6,3.5,3.5c0,1.9-1.6,3.5-3.5,3.5
		s-3.5-1.6-3.5-3.5S-162.7,419.5-160.8,419.5z M-162,397.1v20.1c-2.7,0.5-4.7,2.9-4.7,5.7c0,3.2,2.6,5.9,5.9,5.9s5.9-2.6,5.9-5.9
		c0-2.8-2-5.2-4.7-5.7v-20.1l14.4,25.7c0.8,1.4,0.5,3.2-0.7,4.3l-6.7,6.2c0,0,0,0-0.1,0.1H-169c0,0,0,0-0.1-0.1l-6.7-6.2
		c-1.2-1.1-1.5-2.9-0.7-4.3L-162,397.1z"/>
	<path class="st7" d="M-106.7,445.3l-2.6-2.6c-0.2-0.2-0.5-0.3-0.8-0.3c-0.3,0-0.6,0.1-0.8,0.3l-2.6,2.6c-0.5,0.5-0.5,1.2,0,1.7
		l2.6,2.6c0.2,0.2,0.5,0.3,0.8,0.3c0.3,0,0.6-0.1,0.8-0.3l2.6-2.6C-106.2,446.5-106.2,445.8-106.7,445.3z M-110.1,447.1l-0.9-0.9
		l0.9-0.9l0.9,0.9L-110.1,447.1z"/>
	<path class="st7" d="M-126.2,351.3c0.8,0,1.4,0.6,1.4,1.4c0,0.6,0.5,1.2,1.2,1.2c0.6,0,1.2-0.5,1.2-1.2c0-0.8,0.6-1.4,1.4-1.4
		c0.6,0,1.2-0.5,1.2-1.2s-0.5-1.2-1.2-1.2c-0.8,0-1.4-0.6-1.4-1.4c0-0.6-0.5-1.2-1.2-1.2c-0.6,0-1.2,0.5-1.2,1.2
		c0,0.8-0.6,1.4-1.4,1.4c-0.6,0-1.2,0.5-1.2,1.2S-126.8,351.3-126.2,351.3z"/>
	<path class="st12" d="M-110.2,419.3v-21c0-1.3-1.1-2.3-2.3-2.3h-26.1c-1.3,0-2.3,1.1-2.3,2.3v21c0,1.3,1.1,2.3,2.3,2.3h26.1
		C-111.3,421.7-110.2,420.6-110.2,419.3z M-118.3,419.3v-12.6h5.7l0,12.6L-118.3,419.3z M-112.6,398.3l0,6h-26.1v-6L-112.6,398.3z
		 M-138.7,406.7h18v12.6l-18,0V406.7z"/>
	<g>
		<path class="st4" d="M-159.9,382.7h4.5c0.5,0,0.9-0.4,0.9-0.9c0-0.5-0.4-0.9-0.9-0.9h-4.5c-0.5,0-0.9,0.4-0.9,0.9
			C-160.8,382.3-160.4,382.7-159.9,382.7z"/>
		<path class="st4" d="M-149.1,382.7h4.5c0.5,0,0.9-0.4,0.9-0.9c0-0.5-0.4-0.9-0.9-0.9h-4.5c-0.5,0-0.9,0.4-0.9,0.9
			C-150,382.3-149.6,382.7-149.1,382.7z"/>
		<path class="st4" d="M-138.3,382.7h4.5c0.5,0,0.9-0.4,0.9-0.9c0-0.5-0.4-0.9-0.9-0.9h-4.5c-0.5,0-0.9,0.4-0.9,0.9
			C-139.2,382.3-138.8,382.7-138.3,382.7z"/>
		<path class="st4" d="M-127.5,382.7h4.5c0.5,0,0.9-0.4,0.9-0.9c0-0.5-0.4-0.9-0.9-0.9h-4.5c-0.5,0-0.9,0.4-0.9,0.9
			C-128.5,382.3-128,382.7-127.5,382.7z"/>
		<path class="st4" d="M-116.7,382.7h4.5c0.5,0,0.9-0.4,0.9-0.9c0-0.5-0.4-0.9-0.9-0.9h-4.5c-0.5,0-0.9,0.4-0.9,0.9
			C-117.7,382.3-117.3,382.7-116.7,382.7z"/>
	</g>
</g>
</svg>
