<?xml version="1.0" encoding="utf-8"?>
<!-- Generator: Adobe Illustrator 19.0.0, SVG Export Plug-In . SVG Version: 6.00 Build 0)  -->
<svg version="1.1" id="Capa_1" xmlns="http://www.w3.org/2000/svg" xmlns:xlink="http://www.w3.org/1999/xlink" x="0px" y="0px"
	 viewBox="-202 326 150 150" style="enable-background:new -202 326 150 150;" xml:space="preserve">
<style type="text/css">
	.st0{fill:url(#SVGID_1_);}
	.st1{opacity:0.1;fill:#2626BC;enable-background:new    ;}
	.st2{fill:#FFFFFF;}
	.st3{fill:#8399FE;}
	.st4{fill:#6583FE;}
	.st5{fill:#D2DEFF;}
	.st6{fill:#01ECA5;}
	.st7{fill:#2626BC;}
	.st8{fill:#FF5BA8;}
	.st9{fill:#97FFD2;}
	.st10{fill:#DCFDEE;}
	.st11{fill:#FF7EB8;}
	.st12{fill:#02FFB3;}
</style>
<g>
	<g>
		
			<linearGradient id="SVGID_1_" gradientUnits="userSpaceOnUse" x1="-181.417" y1="382.1408" x2="-79.2974" y2="441.0998" gradientTransform="matrix(1 0 0 -1 0 804)">
			<stop  offset="0" style="stop-color:#DCFDEE;stop-opacity:0"/>
			<stop  offset="0.6288" style="stop-color:#D2F3E4"/>
		</linearGradient>
		<path class="st0" d="M-183.2,412.4c4.4,15,17,45.6,38.4,42.9c21.4-2.8,13.1-30.4,32.7-34.2c8.6-1.7,14.5,13.3,23.2,12.8
			c11.2-0.6,16.8-11.6,19.9-20.9c6.6-19.7-3.3-53.1-26.5-58.8c-20.2-5-22.6,19.7-40.2,12.5c-9.9-4-8.9-16.1-20.9-18.5
			C-192.9,340.8-189.1,392.4-183.2,412.4z"/>
	</g>
	<g>
		<g>
			<g>
				<g>
					<g>
						<path class="st1" d="M-80.2,447.4h-93.5c-1.9,0-3.5-1.6-3.5-3.5v-73.7c0-1.9,1.6-3.5,3.5-3.5h93.5c1.9,0,3.5,1.6,3.5,3.5v73.7
							C-76.7,445.8-78.3,447.4-80.2,447.4z"/>
						<path class="st2" d="M-76.7,364.6v73.7c0,1.9-1.6,3.5-3.5,3.5h-93.5c-1.9,0-3.5-1.6-3.5-3.5v-73.7c0-1.9,1.6-3.5,3.5-3.5h93.5
							C-78.3,361.1-76.7,362.6-76.7,364.6z"/>
						<path class="st3" d="M-76.7,388.9v49.3c0,1.9-1.6,3.5-3.5,3.5h-88.2c3.8-6.3,11.9-15,27-14.8c23.6,0.4,13.1-31.4,34.2-29.2
							C-86.9,400-90.6,385.1-76.7,388.9L-76.7,388.9z"/>
						<path class="st4" d="M-91.5,403.1c0,6.1-4.9,11-11,11c-6.1,0-11-4.9-11-11c0-1.8,0.4-3.5,1.2-5.1c1.5-0.3,3.1-0.4,5.1-0.2
							c6.3,0.7,10.3-0.3,13.2-1.8C-92.4,397.9-91.5,400.4-91.5,403.1L-91.5,403.1z"/>
						<g>
							<path class="st5" d="M-145.9,441.7h-22.6v-20.3c0-0.6,0.5-1.2,1.2-1.2h20.3c0.6,0,1.2,0.5,1.2,1.2V441.7z"/>
							<path class="st5" d="M-115.7,441.7h-22.6v-20.3c0-0.6,0.5-1.2,1.2-1.2h20.3c0.6,0,1.2,0.5,1.2,1.2V441.7z"/>
							<path class="st5" d="M-85.5,441.7h-22.6v-20.3c0-0.6,0.5-1.2,1.2-1.2h20.3c0.6,0,1.2,0.5,1.2,1.2V441.7z"/>
						</g>
						<path class="st6" d="M-76.7,377.3v-12.7c0-1.9-1.6-3.5-3.5-3.5h-93.5c-1.9,0-3.5,1.6-3.5,3.5v12.7H-76.7z"/>
						<path class="st7" d="M-80.2,442.9h-93.5c-2.6,0-4.7-2.1-4.7-4.7v-73.7c0-2.6,2.1-4.7,4.7-4.7h93.5c2.6,0,4.7,2.1,4.7,4.7v73.7
							C-75.6,440.8-77.7,442.9-80.2,442.9z M-173.8,362.2c-1.3,0-2.3,1.1-2.3,2.3v73.7c0,1.3,1.1,2.3,2.3,2.3h93.5
							c1.3,0,2.3-1.1,2.3-2.3v-73.7c0-1.3-1.1-2.3-2.3-2.3H-173.8z"/>
					</g>
					<g>
						<g>
							<circle class="st8" cx="-166.9" cy="369.7" r="2.6"/>
							<circle class="st2" cx="-158.8" cy="369.7" r="2.6"/>
							<circle class="st9" cx="-150.6" cy="369.7" r="2.6"/>
						</g>
						<path class="st10" d="M-85.7,372.6h-31.9v-5.7h31.9c0.6,0,1.2,0.5,1.2,1.2v3.4C-84.5,372.1-85,372.6-85.7,372.6L-85.7,372.6z"
							/>
						<path class="st2" d="M-117.4,366.9c-1.2-1.2-3.3-1.2-4.5,0c-1.2,1.2-1.2,3.3,0,4.5c0.9,0.9,2.3,1.2,3.5,0.7l1,1
							c0.5,0.5,1.2,0.5,1.7,0c0.5-0.5,0.5-1.2,0-1.7l-1-1C-116.3,369.3-116.5,367.9-117.4,366.9z M-120.3,368.6
							c0.3-0.3,0.9-0.3,1.2,0c0.3,0.3,0.3,0.9,0,1.2c-0.3,0.3-0.9,0.3-1.2,0C-120.6,369.4-120.6,368.9-120.3,368.6z"/>
					</g>
				</g>
			</g>
			<g>
				<g>
					<circle class="st2" cx="-157.2" cy="427.7" r="2.6"/>
					<g>
						<path class="st3" d="M-152.7,433.6h-9.1c-0.6,0-1.2,0.5-1.2,1.2c0,0.6,0.5,1.2,1.2,1.2h9.1c0.6,0,1.2-0.5,1.2-1.2
							C-151.5,434.1-152,433.6-152.7,433.6z"/>
					</g>
				</g>
				<g>
					<circle class="st2" cx="-127" cy="427.7" r="2.6"/>
					<g>
						<path class="st3" d="M-122.5,433.6h-9.1c-0.6,0-1.2,0.5-1.2,1.2c0,0.6,0.5,1.2,1.2,1.2h9.1c0.6,0,1.2-0.5,1.2-1.2
							C-121.3,434.1-121.8,433.6-122.5,433.6z"/>
					</g>
				</g>
				<g>
					<circle class="st2" cx="-96.8" cy="427.7" r="2.6"/>
					<g>
						<path class="st3" d="M-92.3,433.6h-9.1c-0.6,0-1.2,0.5-1.2,1.2c0,0.6,0.5,1.2,1.2,1.2h9.1c0.6,0,1.2-0.5,1.2-1.2
							C-91.1,434.1-91.6,433.6-92.3,433.6z"/>
					</g>
				</g>
			</g>
			<g>
				<path class="st11" d="M-131.5,414.8h-32.1c-1.3,0-2.3-1-2.3-2.3v-1.4c0-1.3,1-2.3,2.3-2.3h32.1c1.3,0,2.3,1,2.3,2.3v1.4
					C-129.1,413.7-130.2,414.8-131.5,414.8L-131.5,414.8z"/>
				<g>
					<g>
						<path class="st3" d="M-140.3,400.7h-24.5c-0.6,0-1.2,0.5-1.2,1.2c0,0.6,0.5,1.2,1.2,1.2h24.5c0.6,0,1.2-0.5,1.2-1.2
							C-139.1,401.3-139.6,400.7-140.3,400.7z"/>
					</g>
					<g>
						<path class="st3" d="M-145.9,396.2h-18.9c-0.6,0-1.2,0.5-1.2,1.2c0,0.6,0.5,1.2,1.2,1.2h18.9c0.6,0,1.2-0.5,1.2-1.2
							C-144.7,396.7-145.2,396.2-145.9,396.2z"/>
					</g>
					<g>
						<path class="st11" d="M-162.1,390.7h-2.7c-0.6,0-1.2,0.5-1.2,1.2c0,0.6,0.5,1.2,1.2,1.2h2.7c0.6,0,1.2-0.5,1.2-1.2
							C-160.9,391.2-161.4,390.7-162.1,390.7z"/>
					</g>
					<g>
						<path class="st12" d="M-148,382.7h-16.8c-0.6,0-1.2,0.5-1.2,1.2c0,0.6,0.5,1.2,1.2,1.2h16.8c0.6,0,1.2-0.5,1.2-1.2
							C-146.8,383.2-147.3,382.7-148,382.7z"/>
					</g>
				</g>
			</g>
			<circle class="st12" cx="-102.5" cy="398.8" r="11"/>
			<g>
				<circle class="st2" cx="-99.4" cy="405.8" r="1.2"/>
				<circle class="st2" cx="-94" cy="405.8" r="1.2"/>
				<circle class="st2" cx="-88.6" cy="405.8" r="1.2"/>
				<circle class="st2" cx="-96.7" cy="401.5" r="1.2"/>
				<circle class="st2" cx="-91.3" cy="401.5" r="1.2"/>
				<circle class="st2" cx="-96.7" cy="410.2" r="1.2"/>
				<circle class="st2" cx="-91.3" cy="410.2" r="1.2"/>
			</g>
		</g>
		<path class="st8" d="M-81.9,355c-1.8,0-3.3-1.5-3.3-3.3c0-1.8,1.5-3.3,3.3-3.3s3.3,1.5,3.3,3.3C-78.5,353.5-80,355-81.9,355z
			 M-81.9,350.7c-0.6,0-1,0.5-1,1s0.5,1,1,1c0.6,0,1-0.5,1-1S-81.3,350.7-81.9,350.7z"/>
		<path class="st4" d="M-163.4,456.3c-1.8,0-3.3-1.5-3.3-3.3c0-1.8,1.5-3.3,3.3-3.3s3.3,1.5,3.3,3.3
			C-160.1,454.7-161.6,456.3-163.4,456.3z M-163.4,451.9c-0.6,0-1,0.5-1,1s0.5,1,1,1s1-0.5,1-1S-162.9,451.9-163.4,451.9z"/>
		<path class="st6" d="M-151.9,456.3c-1.8,0-3.3-1.5-3.3-3.3c0-1.8,1.5-3.3,3.3-3.3s3.3,1.5,3.3,3.3
			C-148.5,454.7-150,456.3-151.9,456.3z M-151.9,451.9c-0.6,0-1,0.5-1,1s0.5,1,1,1s1-0.5,1-1S-151.3,451.9-151.9,451.9z"/>
		<path class="st6" d="M-130.2,353.2c-0.6,0-1.2-0.5-1.2-1.2c0-0.8-0.6-1.4-1.4-1.4c-0.6,0-1.2-0.5-1.2-1.2s0.5-1.2,1.2-1.2
			c0.8,0,1.4-0.6,1.4-1.4c0-0.6,0.5-1.2,1.2-1.2s1.2,0.5,1.2,1.2c0,0.8,0.6,1.4,1.4,1.4c0.6,0,1.2,0.5,1.2,1.2s-0.5,1.2-1.2,1.2
			c-0.8,0-1.4,0.6-1.4,1.4C-129,352.7-129.5,353.2-130.2,353.2z"/>
		<path class="st8" d="M-119.4,356.1c-0.6,0-1.2-0.5-1.2-1.2c0-0.8-0.6-1.4-1.4-1.4c-0.6,0-1.2-0.5-1.2-1.2s0.5-1.2,1.2-1.2
			c0.8,0,1.4-0.6,1.4-1.4c0-0.6,0.5-1.2,1.2-1.2c0.6,0,1.2,0.5,1.2,1.2c0,0.8,0.6,1.4,1.4,1.4c0.6,0,1.2,0.5,1.2,1.2
			s-0.5,1.2-1.2,1.2c-0.8,0-1.4,0.6-1.4,1.4C-118.2,355.6-118.8,356.1-119.4,356.1z"/>
	</g>
</g>
</svg>
