<?xml version="1.0" encoding="utf-8"?>
<!-- Generator: Adobe Illustrator 27.7.0, SVG Export Plug-In . SVG Version: 6.00 Build 0)  -->
<svg version="1.1" xmlns="http://www.w3.org/2000/svg" xmlns:xlink="http://www.w3.org/1999/xlink" x="0px" y="0px"
	 viewBox="0 0 314.25 366.35" style="enable-background:new 0 0 314.25 366.35;" xml:space="preserve">
<style type="text/css">
	.st0{display:none;}
	.st1{display:inline;fill:#F9F8F7;}
	.st2{fill:#DBCDBD;}
	.st3{fill:#CEBBAA;}
	.st4{fill:#BAA695;}
	.st5{fill:#A58E7E;}
	.st6{fill:#BCBEC0;}
	.st7{fill:#A7A9AC;}
	.st8{fill:#808285;}
	.st9{fill:#2A323D;stroke:#3A4D57;stroke-miterlimit:10;}
	.st10{fill:#D1D3D4;}
	.st11{fill:#3A4D57;}
	.st12{fill:#3E748C;}
	.st13{fill:#34687A;}
	.st14{fill:#4E8B9B;}
	.st15{fill:#C64D4A;}
	.st16{fill:#FF7D6C;}
	.st17{fill:#FFFFFF;}
	.st18{font-family:'OpenSans-Extrabold';}
	.st19{font-size:9.5892px;}
	.st20{fill:#F37164;}
	.st21{fill:#FEC772;}
	.st22{fill:#E3AF5B;}
	.st23{fill:#FECA7A;}
	.st24{fill:#E2AD66;}
	.st25{fill:#F9F8F7;}
	.st26{fill:#D4685A;}
	.st27{fill:#3EBFB4;}
	.st28{fill:#349F96;}
	.st29{fill:#F79663;}
	.st30{fill:#CE7D52;}
	.st31{fill:#F24C88;}
	.st32{fill:#CA3F71;}
	.st33{fill:#EED7BA;}
	.st34{fill:#E8C8A1;}
	.st35{fill:#46616D;}
	.st36{fill:#BFC1BF;}
	.st37{fill:#231F20;}
	.st38{fill:#ABB2AB;}
	.st39{fill:#FC7EB2;}
	.st40{fill:#3F2B3C;}
	.st41{fill:#B38262;}
	.st42{fill:#A87A5C;}
	.st43{fill:none;stroke:#3A4D57;stroke-width:2;stroke-linecap:round;stroke-miterlimit:10;}
	.st44{fill:#F46699;}
	.st45{fill:#D8CDA7;}
	.st46{fill:#C9BC97;}
	.st47{fill:#50D6C6;}
	.st48{fill:#31A395;}
	.st49{fill:#F9A885;}
	.st50{fill:#E28156;}
	.st51{display:inline;}
	.st52{fill:#BCB7AD;}
</style>
<g id="BACKGROUND" class="st0">
	<rect id="XMLID_1_" x="-93.49" y="-79.94" class="st1" width="500" height="500"/>
</g>
<g id="OBJECTS">
	<g>
		<g id="XMLID_72_">
			<g>
				<polygon class="st2" points="94.18,205.39 94.18,221.61 90.18,223.92 47.39,248.62 47.39,232.4 				"/>
				<polygon class="st3" points="94.18,205.39 47.39,232.4 0.62,205.39 47.4,178.39 				"/>
				<polygon class="st2" points="90.18,226.23 90.18,254.79 47.39,279.49 47.39,250.93 				"/>
				<polygon class="st4" points="47.39,248.62 90.18,223.92 90.18,226.23 47.39,250.93 				"/>
				<polygon class="st4" points="47.39,250.93 47.39,279.49 4.62,254.79 4.62,226.23 				"/>
				<polygon class="st4" points="47.39,232.4 47.39,248.62 4.62,223.92 0.62,221.61 0.62,205.39 				"/>
				<polygon class="st5" points="47.39,248.62 47.39,250.93 4.62,226.23 4.62,223.93 4.62,223.92 				"/>
			</g>
		</g>
		<g id="XMLID_77_">
			<g>
				<polygon class="st2" points="125.23,163.53 125.23,172.75 122.96,174.06 98.63,188.11 98.63,178.88 				"/>
				<polygon class="st3" points="125.23,163.53 98.63,178.88 72.04,163.53 98.64,148.18 				"/>
				<polygon class="st2" points="122.96,175.38 122.96,191.61 98.63,205.65 98.63,189.42 				"/>
				<polygon class="st4" points="98.63,188.11 122.96,174.06 122.96,175.38 98.63,189.42 				"/>
				<polygon class="st4" points="98.63,189.42 98.63,205.65 74.32,191.61 74.32,175.38 				"/>
				<polygon class="st4" points="98.63,178.88 98.63,188.11 74.32,174.06 72.04,172.75 72.04,163.53 				"/>
				<polygon class="st5" points="98.63,188.11 98.63,189.42 74.32,175.38 74.32,174.07 74.32,174.06 				"/>
			</g>
		</g>
		<g id="XMLID_79_">
			<g>
				<polygon class="st2" points="69.48,141.3 69.48,148.83 67.63,149.91 47.74,161.39 47.74,153.85 				"/>
				<polygon class="st3" points="69.48,141.3 47.74,153.85 26.01,141.3 47.75,128.75 				"/>
				<polygon class="st2" points="67.63,150.98 67.63,164.25 47.74,175.73 47.74,162.46 				"/>
				<polygon class="st4" points="47.74,161.39 67.63,149.91 67.63,150.98 47.74,162.46 				"/>
				<polygon class="st4" points="47.74,162.46 47.74,175.73 27.87,164.25 27.87,150.98 				"/>
				<polygon class="st4" points="47.74,153.85 47.74,161.39 27.87,149.91 26.01,148.83 26.01,141.3 				"/>
				<polygon class="st5" points="47.74,161.39 47.74,162.46 27.87,150.98 27.87,149.91 27.87,149.91 				"/>
			</g>
		</g>
	</g>
	<g>
		<g>
			<g>
				<polygon points="236.65,335.57 236.65,338.47 236.64,338.47 236.64,335.58 				"/>
				<polygon points="236.65,91.88 236.65,94.77 236.64,94.78 236.64,91.89 				"/>
				<g>
					<path class="st6" d="M222.25,362.79c0.56-1.17,0.86-2.6,0.86-4.24v-11.66l13.03-7.54v11.07c0,3.01-1.09,5.22-3,6.07
						L222.25,362.79z"/>
					<path class="st7" d="M235.64,340.21v10.21c0,2.81-0.99,4.85-2.7,5.61l-0.04,0.02l-0.02,0.01l-0.03,0.01l-0.03,0.02l-9.62,5.57
						c0.27-0.93,0.4-1.98,0.4-3.11v-11.37L235.64,340.21 M236.64,338.47l-14.03,8.12v11.95c0,2.84-0.92,4.92-2.44,6.02l13.15-7.61
						l0.02-0.01c2.02-0.89,3.3-3.18,3.3-6.52V338.47L236.64,338.47z"/>
				</g>
				<polygon class="st8" points="236.64,335.58 236.64,338.47 222.61,346.6 222.61,343.53 				"/>
				<polygon class="st8" points="236.64,91.89 236.64,94.78 222.61,102.9 222.61,99.85 				"/>
				<g>
					<path class="st6" d="M223.11,88.06c0-6.38-4.49-14.17-10.02-17.36L111.97,12.32c-1.45-0.83-2.85-1.3-4.18-1.38l11.4-6.6
						c0.65-0.35,1.4-0.53,2.22-0.53c1.27,0,2.65,0.42,4.09,1.26l101.12,58.38c5.25,3.03,9.52,10.43,9.52,16.49v11.66l-13.03,7.39
						V88.06z"/>
					<path class="st7" d="M121.41,4.31L121.41,4.31c1.16,0,2.49,0.41,3.84,1.19l101.13,58.38c5.02,2.9,9.27,10.25,9.27,16.06V91.3
						l-12.03,6.83V88.06c0-6.54-4.61-14.52-10.27-17.79L112.22,11.88c-1-0.58-1.99-0.99-2.95-1.22l9.89-5.73l0.27-0.15
						C120.01,4.47,120.67,4.31,121.41,4.31 M121.41,3.31c-0.91,0-1.74,0.21-2.47,0.6l-0.28,0.16L104.97,12
						c0.71-0.38,1.52-0.57,2.41-0.57c1.31,0,2.78,0.43,4.34,1.32l101.12,58.38c5.38,3.1,9.77,10.72,9.77,16.92v11.79l14.03-7.96
						V79.94c0-6.21-4.39-13.82-9.77-16.92L125.75,4.63C124.19,3.73,122.72,3.31,121.41,3.31L121.41,3.31z"/>
				</g>
				<g>
					<polygon class="st6" points="223.11,103.19 236.15,95.65 236.15,335.29 223.11,342.67 					"/>
					<path class="st7" d="M235.64,96.52V335l-12.03,6.82V103.48L235.64,96.52 M236.64,94.78l-14.03,8.12v240.63l14.03-7.95V94.78
						L236.64,94.78z"/>
				</g>
			</g>
			<path class="st9" d="M212.84,71.13L111.72,12.75c-2.61-1.5-4.99-1.68-6.75-0.75l-0.05,0.03c-1.83,0.99-2.98,3.2-2.98,6.36v270.49
				c0,6.21,4.4,13.82,9.78,16.92l101.12,58.38c2.46,1.42,4.72,1.65,6.44,0.89l0.89-0.52c1.51-1.1,2.44-3.18,2.44-6.02V346.6v-3.07
				V102.9v-3.06V88.06C222.61,81.85,218.22,74.24,212.84,71.13z M212.55,329.18L112,271.13V163.84l-0.01-116.08l45.25,26.13
				l55.3,31.93v34.81l0.01,130.49V329.18z"/>
			<g>
				<path class="st10" d="M204.47,57.46l-15.23-8.79c-0.63-0.36-0.96-0.84-1-1.32c-0.06-0.55,0.28-1.1,1-1.51l0.14-0.08
					c1.34-0.78,3.54-0.78,4.89,0l15.22,8.79c0.68,0.39,1.01,0.88,1.01,1.4v0.01c0,0.51-0.33,1.02-1.01,1.41l-0.14,0.08
					C208.01,58.23,205.82,58.23,204.47,57.46z"/>
				<path class="st7" d="M210.5,55.96v2.91c0,0.51-0.34,1.02-1.01,1.41l-0.13,0.08c-1.34,0.78-3.54,0.78-4.89,0l-15.22-8.79
					c-0.68-0.39-1.01-0.89-1.01-1.41v-2.8c0.04,0.48,0.37,0.96,1,1.32l15.23,8.79c1.34,0.77,3.53,0.77,4.88-0.01l0.14-0.08
					C210.17,56.99,210.5,56.47,210.5,55.96z"/>
			</g>
			<path class="st9" d="M158.99,313.98c3.73,2.15,6.77,7.43,6.77,11.74c0,4.3-3.05,6.06-6.77,3.91c-3.73-2.15-6.78-7.43-6.78-11.73
				C152.21,313.59,155.26,311.83,158.99,313.98z"/>
			<g>
				<path class="st11" d="M172.69,60.87c0.82,0.47,1.47,1.61,1.47,2.55c0,0.94-0.67,1.32-1.48,0.84l-23.06-13.31
					c-0.82-0.47-1.48-1.61-1.48-2.55c0-0.94,0.67-1.31,1.49-0.84L172.69,60.87z"/>
			</g>
			<polygon class="st12" points="105.82,32.79 218.71,97.97 218.72,344.14 105.83,278.96 			"/>
		</g>
		<g>
			<polygon class="st13" points="190.02,88.15 190.07,107.81 184.48,111.04 184.4,110.99 184.36,91.43 			"/>
			<polygon class="st14" points="190.02,88.15 184.36,91.43 127.91,58.83 133.57,55.56 			"/>
			<polygon class="st15" points="184.36,91.43 184.4,110.99 127.92,78.38 127.91,58.83 			"/>
			<polygon class="st16" points="130.03,77.16 130.02,62.49 182.25,92.65 182.28,107.33 			"/>
			<text transform="matrix(0.866 0.5 0 1 132.9972 75.1694)" class="st17 st18 st19">SHOP NOW</text>
		</g>
		<g>
			<g>
				<polygon class="st16" points="113.83,77.24 89.65,105.15 101.84,112.1 125.91,84.21 				"/>
				<path class="st20" d="M101.84,112.1c0,0-0.02,3.14-0.05,6.99c-0.03,3.84-2.77,5.42-6.09,3.5c-3.33-1.92-6.05-6.63-6.05-10.47
					s0-6.98,0-6.98L101.84,112.1z"/>
			</g>
			<g>
				<polygon class="st21" points="125.91,84.21 101.74,112.12 113.92,119.08 137.99,91.19 				"/>
				<path class="st22" d="M113.92,119.08c0,0-0.02,3.14-0.05,6.99c-0.03,3.84-2.77,5.42-6.09,3.5c-3.33-1.92-6.05-6.63-6.05-10.47
					c0-3.84,0-6.98,0-6.98L113.92,119.08z"/>
			</g>
			<g>
				<polygon class="st16" points="138,91.19 113.82,119.1 126.01,126.06 150.08,98.17 				"/>
				<path class="st20" d="M126.01,126.06c0,0-0.02,3.14-0.05,6.99c-0.03,3.84-2.77,5.42-6.09,3.5c-3.33-1.92-6.05-6.63-6.05-10.47
					c0-3.84,0-6.98,0-6.98L126.01,126.06z"/>
			</g>
			<g>
				<polygon class="st21" points="150.08,98.17 125.91,126.08 138.09,133.04 162.16,105.15 				"/>
				<path class="st22" d="M138.09,133.04c0,0-0.02,3.14-0.05,6.99c-0.03,3.84-2.77,5.42-6.09,3.5c-3.33-1.92-6.05-6.63-6.05-10.47
					c0-3.84,0-6.98,0-6.98L138.09,133.04z"/>
			</g>
			<g>
				<polygon class="st16" points="162.17,105.15 137.99,133.06 150.18,140.01 174.25,112.13 				"/>
				<path class="st20" d="M150.18,140.01c0,0-0.02,3.14-0.05,6.99c-0.03,3.84-2.77,5.42-6.09,3.5c-3.33-1.92-6.05-6.63-6.05-10.47
					c0-3.84,0-6.98,0-6.98L150.18,140.01z"/>
			</g>
			<g>
				<polygon class="st21" points="174.25,112.13 150.08,140.04 162.26,146.99 186.33,119.11 				"/>
				<path class="st22" d="M162.26,146.99c0,0-0.02,3.14-0.05,6.99c-0.03,3.84-2.77,5.42-6.09,3.5c-3.33-1.92-6.05-6.63-6.05-10.47
					c0-3.84,0-6.98,0-6.98L162.26,146.99z"/>
			</g>
			<g>
				<polygon class="st16" points="186.34,119.11 162.16,147.02 174.35,153.97 198.42,126.08 				"/>
				<path class="st20" d="M174.35,153.97c0,0-0.02,3.14-0.05,6.99c-0.03,3.84-2.77,5.42-6.09,3.5c-3.33-1.92-6.05-6.63-6.05-10.47
					c0-3.84,0-6.98,0-6.98L174.35,153.97z"/>
			</g>
			<g>
				<polygon class="st21" points="198.42,126.08 174.25,153.99 186.43,160.95 210.5,133.06 				"/>
				<path class="st22" d="M186.43,160.95c0,0-0.02,3.14-0.05,6.99c-0.03,3.84-2.77,5.42-6.09,3.5c-3.33-1.92-6.05-6.63-6.05-10.47
					c0-3.84,0-6.98,0-6.98L186.43,160.95z"/>
			</g>
		</g>
		<g>
			<g>
				<path class="st23" d="M166.99,214.63c-0.59,0.47-1.49,0.48-2.48-0.09l-13.6-7.85c-1.79-1.03-3.25-3.57-3.25-5.64v-15.7
					c0.01-1.05,0.39-1.79,1-2.12c0.58-0.33,1.38-0.27,2.27,0.24l6.8,3.92l6.8,3.93c1.79,1.03,3.25,3.57,3.25,5.64v15.7
					c0,0.9-0.28,1.57-0.74,1.96L166.99,214.63z"/>
				<path class="st24" d="M170.27,195.5v15.7c0,1.01-0.35,1.72-0.91,2.07l-0.17,0.09l-2.17,1.25c0.46-0.39,0.74-1.05,0.74-1.96
					v-15.7c0-2.07-1.47-4.61-3.25-5.64l-6.8-3.93l-6.8-3.92c-0.88-0.51-1.68-0.56-2.27-0.24v-0.01l2.4-1.38l0.14-0.08
					c0.58-0.31,1.37-0.24,2.24,0.25l13.59,7.85C168.8,190.89,170.27,193.43,170.27,195.5z"/>
				<path class="st25" d="M163.69,199.45l-1.77-1.02l-2.56-4.43c-0.15-0.25-0.38-0.39-0.53-0.3c-0.15,0.08-0.15,0.36,0,0.61
					l2.03,3.52l-6.14-3.54l2.03-1.17c0.15-0.08,0.15-0.36,0-0.61c-0.15-0.25-0.38-0.39-0.53-0.3l-2.56,1.48l-1.77-1.02
					c-0.29-0.17-0.53-0.03-0.53,0.3c0,0.34,0.24,0.75,0.53,0.91l11.79,6.8c0.29,0.17,0.53,0.03,0.53-0.3
					C164.21,200.02,163.98,199.61,163.69,199.45z M153.12,200.76c0.06,0.3,0.27,0.61,0.51,0.75l8.34,4.81
					c0.24,0.14,0.45,0.07,0.51-0.17l1.23-5.04l-11.81-6.82L153.12,200.76z M160.84,200.49c0-0.17,0.12-0.24,0.27-0.16
					c0.15,0.09,0.27,0.3,0.27,0.47v4.03c0,0.17-0.12,0.24-0.27,0.16c-0.15-0.09-0.27-0.3-0.27-0.47V200.49z M159.18,199.53
					c0-0.17,0.12-0.24,0.27-0.16c0.15,0.09,0.27,0.3,0.27,0.47v4.03c0,0.17-0.12,0.24-0.27,0.16c-0.15-0.09-0.27-0.3-0.27-0.47
					V199.53z M157.52,198.58c0-0.17,0.12-0.24,0.27-0.16c0.15,0.09,0.27,0.3,0.27,0.47v4.03c0,0.17-0.12,0.24-0.27,0.16
					c-0.15-0.09-0.27-0.3-0.27-0.47V198.58z M155.86,197.62c0-0.17,0.12-0.24,0.27-0.16c0.15,0.09,0.27,0.3,0.27,0.47v4.03
					c0,0.17-0.12,0.24-0.27,0.16c-0.15-0.09-0.27-0.3-0.27-0.47V197.62z M154.2,196.66c0-0.17,0.12-0.24,0.27-0.16
					c0.15,0.09,0.27,0.3,0.27,0.47v4.03c0,0.17-0.12,0.24-0.27,0.16c-0.15-0.09-0.27-0.3-0.27-0.47V196.66z"/>
			</g>
			<g>
				<path class="st16" d="M197.93,214.39v15.7c0,0.9-0.28,1.57-0.74,1.96l-0.03,0.02l-0.42,0.24c-0.56,0.22-1.28,0.12-2.07-0.33
					l-13.59-7.85c-1.8-1.03-3.25-3.57-3.25-5.64v-15.7c0-1.05,0.39-1.79,0.99-2.12c0.59-0.33,1.39-0.27,2.27,0.24l6.81,3.92
					l6.79,3.93C196.46,209.78,197.93,212.32,197.93,214.39z"/>
				<path class="st26" d="M197.19,232.05c0.46-0.39,0.74-1.05,0.74-1.96v-15.7c0-2.07-1.47-4.61-3.26-5.64l-6.79-3.93l-6.81-3.92
					c-0.87-0.51-1.67-0.56-2.27-0.24v-0.01l2.41-1.38l0.14-0.08c0.58-0.31,1.37-0.24,2.24,0.25l13.59,7.85
					c1.79,1.03,3.25,3.57,3.25,5.64v15.7c0,1.01-0.35,1.72-0.91,2.07l-0.17,0.09L197.19,232.05z"/>
				<path class="st25" d="M191.96,222.18v-7.84l0-0.02l0,0v0l-0.01,0l-6.6-2.79l0,0v6.19c-0.26-0.25-0.56-0.46-0.86-0.6
					c-0.97-0.45-1.7-0.07-1.62,0.84c0.07,0.92,0.92,2.03,1.89,2.48c0.97,0.45,1.7,0.07,1.62-0.84c0-0.02,0-0.04,0-0.04v-5.37
					l4.55,1.86v4.3c-0.26-0.25-0.56-0.46-0.86-0.6c-0.97-0.45-1.7-0.07-1.62,0.84c0.07,0.92,0.92,2.03,1.89,2.48
					c0.97,0.45,1.7,0.07,1.62-0.84C191.96,222.21,191.96,222.18,191.96,222.18z"/>
			</g>
			<g>
				<path class="st27" d="M197.93,249.23v15.7c0,0.92-0.29,1.6-0.77,1.97l-0.02,0.01l-0.36,0.21l-0.05,0.03
					c-0.56,0.21-1.28,0.11-2.07-0.34l-13.59-7.85c-1.8-1.03-3.25-3.57-3.25-5.64v-15.7c0-1.05,0.39-1.79,0.99-2.12l0.08-0.05
					c0.58-0.27,1.34-0.2,2.18,0.28l6.81,3.93l6.79,3.92C196.46,244.63,197.93,247.16,197.93,249.23z"/>
				<path class="st28" d="M197.16,266.91c0.48-0.38,0.77-1.05,0.77-1.97v-15.7c0-2.07-1.47-4.61-3.26-5.64l-6.79-3.92l-6.81-3.93
					c-0.84-0.48-1.6-0.55-2.18-0.28l2.46-1.43v0.01c0.58-0.31,1.37-0.24,2.24,0.25l13.59,7.85c1.79,1.03,3.25,3.57,3.25,5.64v15.7
					c0,1.01-0.35,1.72-0.91,2.07l-0.17,0.09L197.16,266.91z"/>
				<path class="st25" d="M183.44,250.17c-1.07-1.86-1.07-3.88,0-4.5c0.52-0.3,1.21-0.23,1.95,0.19c0.74,0.43,1.43,1.16,1.95,2.06
					l0.35,0.61l0.35-0.2c0.52-0.3,1.21-0.23,1.95,0.19c0.74,0.43,1.43,1.16,1.95,2.06c1.07,1.86,1.07,3.88,0,4.5l-4.25,2.45
					L183.44,250.17z"/>
			</g>
			<g>
				<path class="st29" d="M167.76,231.8v15.7c0,0.92-0.29,1.6-0.77,1.97l-0.02,0.01l-0.39,0.23l-0.02,0.01
					c-0.56,0.21-1.28,0.11-2.06-0.34l-13.6-7.85c-1.79-1.03-3.25-3.57-3.25-5.64v-15.7c0.01-1.05,0.39-1.79,1-2.12l0.08-0.05
					c0.57-0.27,1.34-0.2,2.18,0.28l6.8,3.93l6.8,3.92C166.29,227.2,167.76,229.73,167.76,231.8z"/>
				<path class="st30" d="M170.27,230.35v15.7c0,1.01-0.35,1.72-0.91,2.07l-0.17,0.09l-2.2,1.26c0.48-0.38,0.77-1.05,0.77-1.97
					v-15.7c0-2.07-1.47-4.61-3.25-5.64l-6.8-3.92l-6.8-3.93c-0.84-0.48-1.61-0.55-2.18-0.28l2.45-1.43v0.01
					c0.58-0.31,1.37-0.24,2.24,0.25l13.59,7.85C168.8,225.75,170.27,228.29,170.27,230.35z"/>
				<g>
					<g>
						<polygon class="st25" points="163.42,233.69 152.03,227.11 157.73,234.26 						"/>
					</g>
					<g>
						<polygon class="st25" points="157.73,234.87 151.84,227.5 151.84,235.33 163.61,242.13 163.61,234.29 						"/>
					</g>
				</g>
			</g>
			<g>
				<path class="st31" d="M137.6,214.37v15.7c0,0.92-0.29,1.6-0.77,1.97l-0.02,0.01l-0.36,0.21l-0.05,0.03
					c-0.56,0.21-1.28,0.11-2.07-0.34l-13.59-7.85c-1.8-1.03-3.25-3.57-3.25-5.64v-15.7c0-1.05,0.39-1.79,0.99-2.12l0.08-0.05
					c0.58-0.27,1.34-0.2,2.18,0.28l6.81,3.93l6.79,3.92C136.13,209.76,137.6,212.3,137.6,214.37z"/>
				<path class="st32" d="M137.6,214.37c0-2.07-1.47-4.61-3.26-5.64l-6.79-3.92l-6.81-3.93c-0.84-0.48-1.6-0.55-2.18-0.28l2.46-1.43
					v0.01c0.58-0.31,1.37-0.24,2.24,0.25l13.59,7.85c1.79,1.03,3.25,3.57,3.25,5.64v15.7c0,1.01-0.35,1.72-0.91,2.07l-0.17,0.09
					l-2.2,1.26c0.48-0.38,0.77-1.05,0.77-1.97V214.37z"/>
				<g>
					<polygon class="st25" points="125.94,220.52 122.52,214.57 123.48,214.02 125.94,218.31 132.5,214.52 133.46,216.18 					"/>
				</g>
			</g>
			<g>
				<path class="st27" d="M137.6,179.53v15.7c0,0.9-0.28,1.57-0.74,1.96l-0.03,0.02l-0.42,0.24c-0.56,0.22-1.28,0.12-2.07-0.33
					l-13.59-7.85c-1.8-1.03-3.25-3.57-3.25-5.64v-15.7c0-1.05,0.39-1.79,0.99-2.12c0.59-0.33,1.39-0.27,2.27,0.24l6.81,3.92
					l6.79,3.93C136.13,174.92,137.6,177.46,137.6,179.53z"/>
				<path class="st28" d="M137.6,179.53c0-2.07-1.47-4.61-3.26-5.64l-6.79-3.93l-6.81-3.92c-0.87-0.51-1.67-0.56-2.27-0.24v-0.01
					l2.41-1.38l0.14-0.08c0.58-0.31,1.37-0.24,2.24,0.25l13.59,7.85c1.79,1.03,3.25,3.57,3.25,5.64v15.7c0,1.01-0.35,1.72-0.91,2.07
					l-0.17,0.09l-2.17,1.25c0.46-0.39,0.74-1.05,0.74-1.96V179.53z"/>
				<path class="st25" d="M126.66,184.93c-0.48-0.28-0.88-0.05-0.88,0.51c0,0.56,0.39,1.24,0.88,1.52c0.48,0.28,0.88,0.05,0.88-0.51
					C127.54,185.89,127.15,185.21,126.66,184.93z M124.62,182.29l0.77,1.38c0.33-0.18,0.78-0.14,1.28,0.14
					c0.5,0.29,0.94,0.77,1.28,1.33l0.77-0.49c-0.53-0.9-1.25-1.68-2.05-2.14C125.87,182.06,125.15,182.01,124.62,182.29z
					 M126.66,177.1c-2.05-1.19-3.92-1.33-5.29-0.6l0.77,1.38c1.18-0.62,2.77-0.5,4.52,0.51c1.76,1.01,3.35,2.73,4.52,4.71l0.77-0.49
					C130.58,180.3,128.72,178.29,126.66,177.1z M123.01,179.44l0.77,1.38c0.75-0.4,1.76-0.32,2.88,0.32c1.12,0.65,2.13,1.74,2.88,3
					l0.77-0.49c-0.95-1.6-2.23-2.99-3.65-3.8C125.25,179.03,123.96,178.93,123.01,179.44z"/>
			</g>
		</g>
		<g>
			<path class="st33" d="M118.61,204.62c-0.81,0.14-8.04,1.74-8.04,1.74l-21.05,5.49c-1.49,0.39-2.66,0.95-3.57,1.64
				c-0.41,0.31-2.47-0.83-3-0.88c-1.18-0.12-2.68,0.26-3.43,1.23c-1.11,1.44-0.72,3.55-0.03,5.09c1.84,4.11,5,4.47,8.99,4.96
				c0.18,0.02,0.36,0.02,0.55-0.01c0.03-0.01,0.06-0.02,0.09-0.03c0.14-0.03,0.27-0.07,0.4-0.13c0.03-0.01,0.05-0.02,0.09-0.02
				c6.12-2.14,22.65-11.57,23.4-11.61c0,0,2.75,1.1,3.83,0.33c1.08-0.77,1.75-1.24,2.51-1.3c0.74-0.09,3.56,0.36,4.32,0.28
				c0.74-0.07,4.03-2.77,3.36-4.02c0,0-2.54-1.3-3.25-1.62C123.09,205.41,119.42,204.46,118.61,204.62z"/>
			<g>
				<path class="st11" d="M86.93,338.44c0,0,10.16-2.91,12.34-1.82c2.18,1.09,0.51,5.3-4.21,7.99c-4.72,2.69-7.27,4.36-9.78,5.01
					c-2.5,0.65-6.42,0.73-7-1.74c-0.58-2.47-0.29-5.45,0.36-6.54C79.29,340.25,86.93,338.44,86.93,338.44z"/>
				<path class="st34" d="M87.83,337.77v2.25c0,0-0.87,3.2-4.54,3.18c-4.17-0.02-4.26-2.2-4.26-2.2l0.12-3.13"/>
				<path class="st11" d="M101.39,347.27c0,0,11.4-3.26,13.84-2.04c2.44,1.22,0.57,5.95-4.73,8.96c-5.3,3.01-8.16,4.89-10.96,5.62
					c-2.81,0.73-7.2,0.81-7.86-1.96c-0.65-2.77-0.33-6.11,0.41-7.33S101.39,347.27,101.39,347.27z"/>
				<path class="st34" d="M101.39,345.97v4.07c0,0-0.5,2.69-4.49,2.93c-3.99,0.24-4.81-2.44-4.81-2.44v-3.16l6.03-0.92
					L101.39,345.97z"/>
				<path class="st11" d="M78.31,263.92c-1.09,5.2,1.98,11.22,2.14,13.51c0.16,2.28-1.51,19.23-2.49,31.29
					c-0.98,12.05-0.13,31.37-0.13,31.37s1.74,2.53,5.6,1.79c3.87-0.73,6.06-2.61,6.06-2.61s2.69-40.66,3.5-45.38
					c0.81-4.73,2.22-23.63,2.33-26.56C95.44,264.39,80.54,253.24,78.31,263.92z"/>
				<path class="st35" d="M110.14,269c0.29,17.71-2.48,36.45-2.81,38.57c-0.33,2.12-3.52,40.57-3.52,40.57s-3.32,7.5-13.75,1.87
					c0,0,1.08-35.22,1.27-41.2c0.19-5.98,1.16-18.36,0.76-24.55c-0.4-6.19-3.89-7.82-4.26-15.97c0,0,1.36-7.5,11.17-6.84
					C108.8,262.1,110.14,269,110.14,269z"/>
			</g>
			<path class="st36" d="M113.62,223.78c1.17-7.08-2.67-10.98-11.24-16.01c-3.54-2.08-16.74-11.12-23.22-3.06
				c-6.48,8.07,0.37,26.15,0,36.42c-0.37,10.27-1.96,23.71-1.96,23.71s3.3,6.72,15.28,7.82c11.98,1.1,19.55-2.2,19.55-2.2
				S110.2,244.55,113.62,223.78z"/>
			<path class="st33" d="M105.43,183.33c0,0,1.3,4.81,1.55,5.78c0.24,0.98,0.08,2.36,0,3.01c-0.08,0.65,1.06,2.44,0.9,3.26
				c-0.16,0.81-0.9,5.7-2.44,7.09c-1.55,1.39-4.4,0.9-4.4,0.9s0.24,4.32,0,4.89c-0.24,0.57-6.93,0.08-9.7-1.55
				c-2.77-1.63-1.79-6.03-1.79-6.03l7.09-17.35H105.43z"/>
			<path class="st37" d="M105.43,183.33c0,0,0-1.38-0.73-3.83c-0.73-2.44-6.4-3.01-8.72-2.28c-2.32,0.73-10.51,3.26-11,5.21
				c-0.49,1.96-0.2,2.61-0.2,2.61s-1.59,2.69-1.34,4.28c0.24,1.59,6.11,11.37,6.11,11.37s3.72,0.49,5.04-0.61
				c1.32-1.1,2.54-5.38,4.25-5.87c1.71-0.49,2.32,2.69,2.32,2.69l1.1-0.86c0,0-0.61-3.54,0.12-4.77c0.73-1.22,1.83-2.2,1.83-2.2
				l-0.98-3.79L105.43,183.33z"/>
			<path class="st33" d="M126.49,272.46c-0.23-0.78-2.72-7.76-2.72-7.76l-8.04-20.22c-0.57-1.43-1.27-2.52-2.07-3.34
				c0.46-7.67-1.52-21.21-1.52-21.21s-7.3-5.04-9.64,3.62c0,0,0.83,13.47,1.08,19.17c0,0.01-0.01,0.01-0.01,0.02l0.04,0.62
				c0.03,0.71,0.05,1.26,0.05,1.57c0,0.18,0.03,0.36,0.07,0.52l0,0.02c0.01,0.02,0.03,0.06,0.04,0.08c0.05,0.13,0.11,0.26,0.18,0.38
				c0.01,0.03,0.02,0.04,0.03,0.07v0.02c2.87,5.81,13.61,21.67,13.75,22.41c0,0-0.53,2.7,0.37,3.68c0.9,0.98,1.88,1.13,2.03,1.88
				c0.18,0.72,0.08,3.58,0.25,4.32c0.16,0.72,3.25,3.66,4.4,2.84c0,0,0.98-2.68,1.21-3.42C126.25,277,126.74,273.24,126.49,272.46z"
				/>
			<path class="st38" d="M113.09,217.54c2.13,2.45,1.55,16.38,1.71,20.21c0.16,3.83-3.91,5.7-7.74,5.3
				c-3.83-0.41-3.83-0.41-3.83-0.41s-0.9-8.15-1.3-15.15C101.52,220.48,106.25,209.64,113.09,217.54z"/>
			<path class="st28" d="M105.6,184.25c0,0,5.16-2.52,5.71-4.75c0.55-2.23-8.62-5.73-14.21,0
				C90.68,186.09,105.6,184.25,105.6,184.25z"/>
			<path class="st27" d="M85.23,193.61c0,0,2.61,1.66,9.47-0.59c6.87-2.25,10.89-8.76,10.89-8.76s-0.2-5.8-5.29-8.17
				c-5.09-2.37-11.92,0.04-14.05,3s-3.75,7.07-3.45,9.79C83.1,191.6,85.23,193.61,85.23,193.61z"/>
		</g>
		<g>
			<g>
				<path class="st33" d="M48.31,209.23c-1.84-4.61-5.03-7.05-7.86-5.32c-2.83,1.73,1.57,14.22,2.97,18.54
					c1.41,4.31,1.88,6.85,3.15,7.85c1.27,1,13.14,15.08,13.14,15.08s-0.8,3.5-0.25,5.22c0.55,1.72,1.28,3.79,1.86,3.55
					c0.58-0.23,0.35-3.09,0.83-3.18c0.48-0.09,0.98,2.57,0.87,3.34c-0.11,0.77-1.83,3.59-1.37,4.21c0.46,0.61,2.58-1.06,3.62-2.33
					c1.04-1.27,1.51-3.01,1.41-3.96c-0.1-0.96-0.44-3.04-0.44-3.04l-2.62-4.91l-9.37-16.83L48.31,209.23z"/>
				<path class="st39" d="M50.29,215.31c0,0,3.08,9.25,4.21,11.29c1.13,2.04,2.48,4.23,2.48,4.23s-1.08,2.68-3.35,3.78
					c-2.27,1.1-2.27,1.1-2.27,1.1s-3.73-2.83-4.26-4.12c-0.53-1.29,0.86-10.47,0.86-10.47L50.29,215.31z"/>
				<path class="st31" d="M56.98,230.83c0,0,1.3,0.41,1.25,2c0,0-0.41,1.24-2.04,2.84c-1.63,1.6-3.71,2.14-3.71,2.14
					s-1.05-0.91-1.75-2.65c0,0,3.15-1.51,4.23-2.48C56.03,231.7,56.98,230.83,56.98,230.83z"/>
			</g>
			<path class="st34" d="M55.75,338.42c0.3,2.48-7.16,1.87-9.18,0.62c-2.01-1.25-3.58-3.73-4.98-4.81c-1.4-1.1-2.63-1.1-2.8-2.18
				c-0.04-0.32-0.13-1.21-0.21-2.44c-0.22-3-0.47-8.02-0.26-11.55c0.32-4.98-0.41-16.47,0.47-22.39c0.13-0.84,0.22-1.72,0.32-2.63
				c0.43-4.53,0.45-9.78,0.58-12.87c0.17-3.73-0.73-18.54-0.73-18.54s-0.93-17.11-0.93-21.14c0-1.36,1.1-2.11,2.57-2.48
				c2.89-0.78,7.22-0.17,7.22-0.17c5.13,24.25,3.06,37.93,2.95,45.56c-0.09,6.85-2.01,11.19-2.8,18.8
				c-0.78,7.61-2.33,18.34-2.01,22.24c0.21,2.61,4.44,6.94,7.28,10.22C54.59,336.26,55.64,337.6,55.75,338.42z"/>
			<path class="st33" d="M45.02,256.81c-1.57,4.81-6.23,5.28-5.6,13.06c0.62,7.76,1.08,16.94-0.17,22.54
				c-0.06,0.21-0.09,0.43-0.15,0.63v0.02c-1.21,5.37-2.69,10.63-3.58,20.8c-0.93,10.58-0.93,21.3-0.62,23.93
				c0.15,1.23,0.8,3.81,1.32,6.38c0.63,2.97,1.12,5.93,0.54,6.85c-1.08,1.7-7.61,0-8.54-1.57c-0.93-1.55-0.63-4.96-0.63-6.83
				c0-0.34-0.06-1.57-0.17-3.4c-0.49-8.32-1.79-29.08-1.53-33.91c0.3-5.91,2.01-15.24,1.55-21.92c-0.47-6.7-2.8-11.98-2.01-23.64
				c0.76-11.66,5.13-12.59,5.43-18.65c0.2-3.79,5.65-3.69,9.74-3.1h0.02c2.44,0.37,4.4,0.91,4.4,0.91S46.57,251.98,45.02,256.81z"/>
			<path class="st40" d="M49.14,237.49c0,0-3.77,5.6-18.27,3.61c0,0-6.33,7.35-6.68,15.62c-0.35,8.28,0.7,21.22,0.7,21.22
				s5.13,2.22,14.81,2.22c9.68,0,12.48-3.03,12.48-3.03s-0.58-24.02-1.17-30.2C50.42,240.75,49.14,237.49,49.14,237.49z"/>
			<path class="st33" d="M19.58,218.77c1.05-6.82,3.73-8.74,9.79-13.41c6.06-4.66,12.88-7.05,16.38-1.63
				c3.5,5.42,5.19,12.65,5.19,13.93c0,1.28-2.1,4.26-2.04,5.95s0.23,13.87,0.23,13.87s-1.81,4.66-10.03,5.19
				c-8.22,0.52-8.98-0.7-8.98-0.7s-1.05-6.41-1.81-10.2C27.57,227.99,18.87,223.4,19.58,218.77z"/>
			<path class="st25" d="M30.13,241.98c0,0,0.76,1.22,8.98,0.7c8.22-0.52,10.03-5.19,10.03-5.19s-0.17-12.18-0.23-13.87
				s2.04-4.66,2.04-5.95c0-1.28-1.69-8.51-5.19-13.93c-1.26-1.95-2.95-2.88-4.88-3.06c0.29,0.34,3.52,4.24,3.44,6.62
				c-0.08,2.49-7.31,7.38-10.18,7.38c-2.84,0-4.47-4.84-8.48-6.39c-3.5,2.91-5.27,5.26-6.08,10.49c-0.71,4.63,7.99,9.21,8.74,13
				C29.08,235.56,30.13,241.98,30.13,241.98z"/>
			<path class="st34" d="M40.97,200.12c0,0-0.06,4.96-0.23,6.41s-4.2,1.46-5.95,1.46c-1.75,0-2.97-1.11-3.03-2.8
				c-0.06-1.69,0.04-9.48,0.04-9.48s2.29,0.39,5.67,2.02C40.86,199.36,40.97,200.12,40.97,200.12z"/>
			<path class="st31" d="M37.41,205.74c0,0,0.93,2.57,1.55,4.2c0.62,1.63,2.95,26.97,2.02,35.52c-0.93,8.55-2.95,11.66-4.66,12.13
				c-1.71,0.47-12.13-4.66-12.13-4.66s4.35-10.88,4.04-14.92s-5.29-11.5-7-17.41c-1.71-5.91-1.01-6.45-0.16-8.16
				c0.85-1.71,6.06-6.76,6.06-6.76l6.84,0.93L37.41,205.74z"/>
			<path class="st39" d="M37.41,205.74c0,0-1.4,3.34-1.4,4.43c0,1.09-8.86-4.51-8.86-4.51l0.47-2.41L37.41,205.74z"/>
			<path class="st33" d="M45.02,183.58c0.54,1.71,0,4.12,0.16,4.9c0.16,0.78,0.62,1.55,0.62,2.8s0.08,7.85-1.24,8.71
				c-1.32,0.85-8.63-0.31-10.1-1.48c-1.48-1.17-2.64-2.8-2.64-2.8s-1.63,0.16-2.64-1.17c-1.01-1.32-3.58-6.61-1.87-12.36
				c1.71-5.75,10.96-5.99,14.22-3.65C44.78,180.86,45.02,183.58,45.02,183.58z"/>
			<path class="st31" d="M55.75,338.42c0.3,2.48-7.16,1.87-9.18,0.62c-2.01-1.25-3.58-3.73-4.98-4.81c-1.4-1.1-2.63-1.1-2.8-2.18
				c-0.04-0.32-0.13-1.21-0.21-2.44c2.74,2.03,9.44,6.75,11.96,6.42c1.57-0.22,2.37-0.73,2.69-1.36
				C54.59,336.26,55.64,337.6,55.75,338.42z"/>
			<path class="st31" d="M36.78,351.02c-1.08,1.7-7.61,0-8.54-1.57c-0.93-1.55-0.63-4.96-0.63-6.83c0-0.34-0.06-1.57-0.17-3.4
				c0.19,0.75,0.35,1.55,0.49,2.37c0.54,3.51,0.86,4.91,5.28,5.45c1.94,0.24,2.74-1.19,3.04-2.87
				C36.87,347.14,37.36,350.1,36.78,351.02z"/>
			<path class="st33" d="M18.9,223.46c0.62-5.83,1.09-10.1,4.12-10.65s4.9,3.26,4.12,9.64c-0.78,6.37-2.1,14.69-2.1,14.69
				s1.79,20.99,2.02,21.76c0.23,0.78,1.71,1.32,2.41,2.33c0.7,1.01,1.71,5.13,1.01,5.52c-0.7,0.39-1.48-2.1-2.02-1.79
				c-0.54,0.31-0.08,2.8,0.31,3.89c0.39,1.09,1.4,2.25,0.78,2.64c-0.62,0.39-4.2-0.85-5.21-2.64c-1.01-1.79-1.55-6.53-1.48-7.85
				c0.08-1.32-4.2-21.06-4.43-22.54C18.2,236.98,18.9,223.46,18.9,223.46z"/>
			<path class="st39" d="M19.06,216.7c0.74-3.59,2.33-5.6,5.99-4.97c3.65,0.62,4.35,6.76,3.34,11.5
				c-1.01,4.74-2.64,13.68-2.64,14.38c0,0.7,0.7,8.71,0.7,8.71s-2.64,2.41-6.76,1.63c0,0-1.87-7.77-1.87-9.64
				C17.82,236.44,17.66,223.46,19.06,216.7z"/>
			<path class="st31" d="M26.29,244.48c-1.32,0.89-3.89,2.8-7.03,1.59c0,0-0.23,0.66-0.12,1.59c0.12,0.93,0.54,1.44,0.54,1.44
				s1.48,0.66,3.85,0.08c2.37-0.58,3.34-1.79,3.34-1.79s0.12-0.82-0.16-1.75C26.45,244.72,26.29,244.48,26.29,244.48z"/>
			<path class="st31" d="M40.83,203.64c0,0,2.1,2.6,3.96,5.99c1.87,3.38,2.56,7.58,2.56,9.09c0,1.52,1.32,17.53,2.02,23.01
				c0.7,5.48,1.94,12.79,1.94,12.79s2.45,0.58,1.52-8.16c-0.93-8.74-3.03-17.96-2.91-21.34c0.12-3.38,2.22-4.43,1.98-7.81
				c-0.23-3.38-5.09-14.19-7.11-15.35c-2.02-1.17-3.92-1.18-3.92-1.18L40.83,203.64z"/>
			<path class="st39" d="M40.83,203.64c0,0,2.18,0.62,2.41,2.72c0,0,0.47-1.48-0.08-2.88c-0.54-1.4-2.28-2.81-2.28-2.81
				L40.83,203.64z"/>
			<path class="st41" d="M43.97,181.29c0,0-2.33,7.35-11.19,11.19c0,0-1.11-3.85-2.86-2.62c-1.75,1.22-1.69,2.86-1.05,3.85
				c0.64,0.99,1.43,2.31,2.93,2c0,0,0.13,6.92,0.05,8.2c-0.08,1.28-6.82,3.96-6.82,3.96s-1.22-17.22,0.8-23.98
				c2.02-6.76,6.84-7.7,10.49-6.68C39.97,178.22,43.97,181.29,43.97,181.29z"/>
			<path class="st42" d="M33.01,177.03c2.8-1.57,5.95-0.99,8.22,0.06c2.27,1.05,3.96,3.09,4.26,4.49c0.29,1.4-0.2,4.61-0.2,4.61
				s-0.38-2.97-0.67-3.91c-0.29-0.93-0.64-0.99-0.64-0.99s-3.26-2.33-5.28-3.21C35,176.48,33.01,177.03,33.01,177.03z"/>
		</g>
	</g>
	<g>
		<g>
			<path class="st43" d="M188.11,289.96c0,0,0-5.07,0-11.26c0-6.2,7.02-15.32,15.61-20.28s15.61-3.94,15.61,2.25s0,11.26,0,11.26"/>
			<g id="XMLID_74_">
				<g>
					<polygon class="st44" points="227.14,276.44 242.74,267.43 242.74,321.5 195.9,348.53 195.91,294.46 					"/>
					<polygon class="st45" points="227.14,258.42 227.14,276.44 195.91,294.46 192.01,287.71 180.3,285.45 					"/>
					<polygon class="st32" points="192.01,287.71 195.91,294.46 195.9,348.53 192,341.78 					"/>
					<polygon class="st31" points="192.01,287.71 192,341.78 180.29,339.52 180.3,285.45 					"/>
					<g>
						<polygon class="st46" points="227.14,258.42 227.14,276.44 231.03,274.19 231.03,265.17 						"/>
						<polygon class="st46" points="231.03,265.17 231.03,274.19 242.74,267.43 						"/>
					</g>
				</g>
			</g>
			<path class="st32" d="M234.93,283.18c-1.06,0.61-1.93,0.11-1.93-1.12c0-1.23,0.87-2.73,1.94-3.34c1.07-0.61,1.93-0.11,1.93,1.12
				C236.86,281.06,235.99,282.57,234.93,283.18z"/>
			<path class="st32" d="M203.72,301.67c-1.06,0.61-1.93,0.11-1.93-1.12c0-1.23,0.87-2.73,1.94-3.34c1.07-0.61,1.93-0.11,1.93,1.12
				C205.65,299.55,204.78,301.06,203.72,301.67z"/>
			<polygon class="st31" points="203.71,307.98 234.93,289.96 234.93,303.48 203.71,321.5 			"/>
			<path class="st43" d="M203.71,298.97c0,0,0-5.07,0-11.26s7.02-15.32,15.61-20.28c8.58-4.96,15.61-3.94,15.61,2.25
				s0,11.26,0,11.26"/>
		</g>
		<g>
			<path class="st43" d="M274,278.91c0,0,0-3.73,0-8.3s5.17-11.28,11.5-14.94c6.32-3.65,11.5-2.9,11.5,1.66c0,4.56,0,8.3,0,8.3"/>
			<g id="XMLID_80_">
				<g>
					<polygon class="st47" points="302.75,268.95 314.25,262.31 314.24,302.14 279.74,322.05 279.75,282.23 					"/>
					<polygon class="st45" points="302.75,255.67 302.75,268.95 279.75,282.23 276.87,277.25 268.25,275.59 					"/>
					<polygon class="st48" points="276.87,277.25 279.75,282.23 279.74,322.05 276.87,317.08 					"/>
					<polygon class="st27" points="276.87,277.25 276.87,317.08 268.24,315.42 268.25,275.59 					"/>
					<g>
						<polygon class="st46" points="302.75,255.67 302.75,268.95 305.62,267.29 305.62,260.65 						"/>
						<polygon class="st46" points="305.62,260.65 305.62,267.29 314.25,262.31 						"/>
					</g>
				</g>
			</g>
			<path class="st48" d="M308.49,273.91c-0.78,0.45-1.42,0.08-1.42-0.82c0-0.9,0.64-2.01,1.43-2.46c0.78-0.45,1.42-0.08,1.42,0.82
				C309.91,272.35,309.27,273.46,308.49,273.91z"/>
			<path class="st48" d="M285.5,287.53c-0.78,0.45-1.42,0.08-1.42-0.82c0-0.9,0.64-2.01,1.43-2.46c0.78-0.45,1.42-0.08,1.42,0.82
				C286.92,285.97,286.28,287.08,285.5,287.53z"/>
			<polygon class="st27" points="285.5,292.18 308.49,278.91 308.49,288.86 285.5,302.14 			"/>
			<path class="st43" d="M285.5,285.55c0,0,0-3.73,0-8.3c0-4.56,5.17-11.28,11.5-14.94c6.32-3.65,11.5-2.9,11.5,1.66s0,8.3,0,8.3"/>
		</g>
		<g>
			<path class="st43" d="M216.37,240.54c0,0,0-6.95,0-15.44s9.63-20.99,21.39-27.79c11.76-6.79,21.39-5.4,21.39,3.09
				s0,15.44,0,15.44"/>
			<g id="XMLID_73_">
				<g>
					<polygon class="st49" points="269.85,222.01 291.24,209.66 291.23,283.76 227.04,320.81 227.06,246.71 					"/>
					<polygon class="st45" points="269.85,197.31 269.85,222.01 227.06,246.71 221.71,237.45 205.67,234.36 					"/>
					<polygon class="st50" points="221.71,237.45 227.06,246.71 227.04,320.81 221.7,311.55 					"/>
					<polygon class="st29" points="221.71,237.45 221.7,311.55 205.65,308.46 205.67,234.36 					"/>
					<g>
						<polygon class="st46" points="269.85,197.31 269.85,222.01 275.19,218.93 275.19,206.57 						"/>
						<polygon class="st46" points="275.19,206.57 275.19,218.93 291.24,209.66 						"/>
					</g>
				</g>
			</g>
			<path class="st50" d="M280.53,231.24c-1.46,0.84-2.65,0.15-2.65-1.53c0-1.68,1.19-3.74,2.65-4.58c1.46-0.84,2.65-0.15,2.65,1.53
				C283.18,228.34,281.99,230.41,280.53,231.24z"/>
			<path class="st50" d="M237.76,256.58c-1.46,0.84-2.65,0.15-2.65-1.53c0-1.68,1.19-3.74,2.65-4.58c1.46-0.84,2.65-0.15,2.65,1.53
				C240.41,253.68,239.21,255.74,237.76,256.58z"/>
			<polygon class="st29" points="237.76,265.23 280.54,240.54 280.54,259.06 237.76,283.76 			"/>
			<path class="st43" d="M237.76,252.88c0,0,0-6.95,0-15.44s9.63-20.99,21.39-27.79c11.76-6.79,21.39-5.4,21.39,3.09
				s0,15.44,0,15.44"/>
		</g>
	</g>
</g>
<g id="Designed_By_Freepik" class="st0">
	<g id="Freepik_Sign_3_" class="st51">
		<g>
			<g id="XMLID_521_">
				<path class="st52" d="M86.82,401.34v-0.16c-0.22,0.25-0.43,0.45-0.64,0.61c-0.21,0.16-0.44,0.28-0.69,0.36
					c-0.25,0.08-0.52,0.12-0.81,0.12c-0.39,0-0.75-0.08-1.08-0.25c-0.33-0.16-0.62-0.4-0.86-0.7c-0.24-0.3-0.42-0.66-0.55-1.07
					c-0.12-0.41-0.19-0.86-0.19-1.34c0-1.01,0.25-1.8,0.74-2.37c0.49-0.57,1.15-0.85,1.95-0.85c0.47,0,0.86,0.08,1.18,0.24
					c0.32,0.16,0.63,0.41,0.94,0.74v-2.39c0-0.33,0.07-0.58,0.2-0.75c0.13-0.17,0.32-0.26,0.57-0.26c0.25,0,0.43,0.08,0.57,0.23
					c0.13,0.16,0.2,0.39,0.2,0.69v7.15c0,0.31-0.07,0.54-0.21,0.69c-0.14,0.15-0.33,0.23-0.55,0.23c-0.22,0-0.4-0.08-0.55-0.24
					C86.89,401.86,86.82,401.63,86.82,401.34z M83.63,398.96c0,0.44,0.07,0.81,0.2,1.12c0.14,0.31,0.32,0.54,0.56,0.7
					c0.24,0.16,0.5,0.24,0.78,0.24c0.29,0,0.55-0.07,0.78-0.22c0.24-0.15,0.42-0.38,0.56-0.68c0.14-0.31,0.21-0.69,0.21-1.15
					c0-0.43-0.07-0.8-0.21-1.11c-0.14-0.31-0.33-0.55-0.57-0.71c-0.24-0.16-0.5-0.25-0.79-0.25c-0.3,0-0.56,0.08-0.8,0.25
					c-0.23,0.17-0.41,0.41-0.54,0.72C83.69,398.17,83.63,398.54,83.63,398.96z"/>
				<path class="st52" d="M93.96,399.37h-3.17c0,0.37,0.08,0.69,0.22,0.97c0.14,0.28,0.34,0.49,0.58,0.63
					c0.24,0.14,0.5,0.21,0.79,0.21c0.19,0,0.37-0.02,0.53-0.07c0.16-0.05,0.32-0.12,0.47-0.21c0.15-0.1,0.29-0.2,0.42-0.31
					c0.13-0.11,0.29-0.26,0.49-0.45c0.08-0.07,0.2-0.11,0.36-0.11c0.17,0,0.3,0.05,0.4,0.14c0.1,0.09,0.16,0.22,0.16,0.39
					c0,0.15-0.06,0.32-0.17,0.51c-0.12,0.2-0.29,0.38-0.52,0.56c-0.23,0.18-0.52,0.33-0.87,0.45c-0.35,0.12-0.75,0.18-1.21,0.18
					c-1.04,0-1.85-0.3-2.43-0.89c-0.58-0.59-0.87-1.4-0.87-2.42c0-0.48,0.07-0.92,0.21-1.33c0.14-0.41,0.35-0.76,0.62-1.05
					c0.27-0.29,0.61-0.52,1.01-0.67c0.4-0.16,0.84-0.23,1.33-0.23c0.63,0,1.18,0.13,1.63,0.4c0.45,0.27,0.79,0.61,1.02,1.04
					c0.22,0.42,0.34,0.86,0.34,1.29c0,0.41-0.12,0.67-0.35,0.79C94.71,399.3,94.39,399.37,93.96,399.37z M90.79,398.45h2.94
					c-0.04-0.55-0.19-0.97-0.45-1.24c-0.26-0.28-0.6-0.41-1.02-0.41c-0.4,0-0.74,0.14-0.99,0.42C91,397.49,90.85,397.9,90.79,398.45
					z"/>
				<path class="st52" d="M101.35,400.14c0,0.45-0.11,0.83-0.33,1.15c-0.22,0.32-0.54,0.56-0.96,0.73
					c-0.43,0.16-0.94,0.25-1.55,0.25c-0.58,0-1.08-0.09-1.5-0.27c-0.42-0.18-0.72-0.4-0.92-0.67c-0.2-0.27-0.3-0.54-0.3-0.81
					c0-0.18,0.06-0.33,0.19-0.46c0.13-0.13,0.29-0.19,0.48-0.19c0.17,0,0.3,0.04,0.39,0.12c0.09,0.08,0.18,0.2,0.26,0.35
					c0.17,0.29,0.37,0.5,0.6,0.65c0.23,0.14,0.55,0.21,0.95,0.21c0.32,0,0.59-0.07,0.8-0.22c0.21-0.15,0.31-0.31,0.31-0.5
					c0-0.29-0.11-0.49-0.32-0.62c-0.22-0.13-0.57-0.26-1.07-0.37c-0.56-0.14-1.01-0.28-1.36-0.44c-0.35-0.15-0.63-0.35-0.84-0.6
					c-0.21-0.25-0.31-0.56-0.31-0.92c0-0.32,0.1-0.63,0.29-0.92c0.19-0.29,0.48-0.52,0.86-0.69c0.38-0.17,0.83-0.26,1.37-0.26
					c0.42,0,0.8,0.04,1.13,0.13c0.33,0.09,0.61,0.2,0.84,0.35c0.22,0.15,0.39,0.31,0.51,0.49c0.12,0.18,0.17,0.35,0.17,0.52
					c0,0.19-0.06,0.34-0.19,0.46c-0.12,0.12-0.3,0.18-0.53,0.18c-0.17,0-0.31-0.05-0.42-0.14c-0.12-0.09-0.25-0.24-0.4-0.43
					c-0.12-0.16-0.27-0.29-0.43-0.38c-0.17-0.1-0.39-0.14-0.68-0.14c-0.29,0-0.54,0.06-0.73,0.19c-0.19,0.12-0.29,0.28-0.29,0.47
					c0,0.17,0.07,0.31,0.21,0.42c0.14,0.11,0.33,0.2,0.58,0.27c0.24,0.07,0.57,0.16,1,0.26c0.5,0.12,0.91,0.27,1.23,0.44
					c0.32,0.17,0.56,0.37,0.72,0.6C101.26,399.58,101.35,399.85,101.35,400.14z"/>
				<path class="st52" d="M103,394.92c-0.23,0-0.42-0.07-0.58-0.21c-0.16-0.14-0.24-0.33-0.24-0.59c0-0.23,0.08-0.42,0.25-0.57
					c0.16-0.15,0.36-0.22,0.57-0.22c0.21,0,0.4,0.07,0.56,0.2c0.16,0.13,0.24,0.33,0.24,0.59c0,0.25-0.08,0.44-0.24,0.58
					C103.41,394.85,103.22,394.92,103,394.92z M103.8,396.59v4.68c0,0.32-0.08,0.57-0.23,0.74c-0.15,0.17-0.35,0.25-0.59,0.25
					c-0.24,0-0.43-0.08-0.58-0.26c-0.15-0.17-0.22-0.41-0.22-0.73v-4.64c0-0.32,0.07-0.56,0.22-0.72c0.15-0.16,0.34-0.24,0.58-0.24
					c0.24,0,0.43,0.08,0.59,0.24C103.73,396.08,103.8,396.3,103.8,396.59z"/>
				<path class="st52" d="M110.9,396.86v4.71c0,0.54-0.06,1-0.17,1.39c-0.11,0.39-0.3,0.71-0.55,0.96
					c-0.25,0.25-0.58,0.44-0.99,0.56c-0.41,0.12-0.92,0.18-1.53,0.18c-0.56,0-1.06-0.08-1.5-0.23c-0.44-0.16-0.78-0.36-1.01-0.61
					c-0.24-0.25-0.36-0.5-0.36-0.76c0-0.2,0.07-0.36,0.2-0.48c0.13-0.13,0.3-0.19,0.49-0.19c0.24,0,0.45,0.11,0.62,0.32
					c0.09,0.11,0.18,0.21,0.27,0.32c0.09,0.11,0.2,0.2,0.31,0.28c0.11,0.08,0.25,0.13,0.41,0.17c0.16,0.04,0.34,0.06,0.55,0.06
					c0.42,0,0.75-0.06,0.98-0.18c0.23-0.12,0.39-0.28,0.49-0.49c0.09-0.21,0.15-0.43,0.16-0.67c0.02-0.24,0.03-0.62,0.04-1.15
					c-0.25,0.35-0.54,0.61-0.86,0.8c-0.33,0.18-0.72,0.27-1.17,0.27c-0.54,0-1.02-0.14-1.42-0.42c-0.41-0.28-0.72-0.66-0.93-1.16
					c-0.22-0.5-0.33-1.07-0.33-1.73c0-0.49,0.07-0.93,0.2-1.32c0.13-0.39,0.32-0.72,0.57-0.99c0.25-0.27,0.53-0.47,0.85-0.61
					c0.32-0.14,0.67-0.21,1.06-0.21c0.46,0,0.86,0.09,1.19,0.26c0.34,0.18,0.65,0.45,0.94,0.83v-0.22c0-0.28,0.07-0.5,0.21-0.65
					c0.14-0.15,0.32-0.23,0.53-0.23c0.31,0,0.52,0.1,0.62,0.31C110.85,396.18,110.9,396.48,110.9,396.86z M106.21,398.91
					c0,0.66,0.14,1.15,0.43,1.49c0.29,0.34,0.66,0.51,1.11,0.51c0.27,0,0.52-0.07,0.76-0.22c0.24-0.14,0.43-0.36,0.59-0.65
					c0.15-0.29,0.23-0.64,0.23-1.06c0-0.66-0.15-1.18-0.44-1.54c-0.29-0.37-0.67-0.55-1.15-0.55c-0.46,0-0.83,0.18-1.11,0.53
					C106.35,397.76,106.21,398.26,106.21,398.91z"/>
				<path class="st52" d="M113.48,396.57v0.2c0.28-0.38,0.6-0.65,0.93-0.83c0.34-0.18,0.73-0.26,1.17-0.26
					c0.43,0,0.81,0.09,1.15,0.28c0.34,0.19,0.59,0.45,0.75,0.79c0.11,0.2,0.18,0.41,0.21,0.64c0.03,0.23,0.05,0.52,0.05,0.88v3.02
					c0,0.32-0.07,0.57-0.22,0.74c-0.15,0.17-0.34,0.25-0.58,0.25c-0.24,0-0.44-0.08-0.59-0.26c-0.15-0.17-0.23-0.41-0.23-0.73v-2.7
					c0-0.53-0.07-0.94-0.22-1.23c-0.15-0.28-0.44-0.42-0.89-0.42c-0.29,0-0.55,0.09-0.79,0.26c-0.24,0.17-0.41,0.41-0.52,0.71
					c-0.08,0.24-0.12,0.69-0.12,1.35v2.03c0,0.33-0.08,0.57-0.23,0.74c-0.15,0.16-0.35,0.25-0.59,0.25c-0.23,0-0.43-0.08-0.58-0.26
					c-0.15-0.17-0.23-0.41-0.23-0.73v-4.68c0-0.31,0.07-0.54,0.2-0.69c0.13-0.15,0.32-0.23,0.55-0.23c0.14,0,0.27,0.03,0.39,0.1
					c0.11,0.07,0.21,0.17,0.28,0.3C113.44,396.21,113.48,396.38,113.48,396.57z"/>
				<path class="st52" d="M123.34,399.37h-3.17c0,0.37,0.08,0.69,0.22,0.97c0.14,0.28,0.34,0.49,0.58,0.63
					c0.24,0.14,0.5,0.21,0.79,0.21c0.19,0,0.37-0.02,0.53-0.07c0.16-0.05,0.31-0.12,0.47-0.21c0.15-0.1,0.29-0.2,0.42-0.31
					c0.13-0.11,0.29-0.26,0.49-0.45c0.08-0.07,0.2-0.11,0.36-0.11c0.17,0,0.3,0.05,0.4,0.14c0.1,0.09,0.15,0.22,0.15,0.39
					c0,0.15-0.06,0.32-0.17,0.51c-0.12,0.2-0.29,0.38-0.52,0.56c-0.23,0.18-0.52,0.33-0.87,0.45c-0.35,0.12-0.75,0.18-1.21,0.18
					c-1.04,0-1.85-0.3-2.43-0.89c-0.58-0.59-0.87-1.4-0.87-2.42c0-0.48,0.07-0.92,0.21-1.33c0.14-0.41,0.35-0.76,0.62-1.05
					c0.27-0.29,0.61-0.52,1.01-0.67c0.4-0.16,0.84-0.23,1.33-0.23c0.63,0,1.18,0.13,1.63,0.4c0.45,0.27,0.79,0.61,1.02,1.04
					c0.23,0.42,0.34,0.86,0.34,1.29c0,0.41-0.12,0.67-0.35,0.79C124.09,399.3,123.76,399.37,123.34,399.37z M120.17,398.45h2.94
					c-0.04-0.55-0.19-0.97-0.45-1.24c-0.26-0.28-0.6-0.41-1.02-0.41c-0.4,0-0.74,0.14-0.99,0.42
					C120.38,397.49,120.22,397.9,120.17,398.45z"/>
				<path class="st52" d="M129.94,401.34v-0.16c-0.22,0.25-0.43,0.45-0.64,0.61c-0.21,0.16-0.44,0.28-0.69,0.36
					c-0.25,0.08-0.52,0.12-0.81,0.12c-0.39,0-0.75-0.08-1.08-0.25c-0.33-0.16-0.62-0.4-0.86-0.7c-0.24-0.3-0.42-0.66-0.55-1.07
					c-0.12-0.41-0.19-0.86-0.19-1.34c0-1.01,0.25-1.8,0.74-2.37c0.49-0.57,1.15-0.85,1.95-0.85c0.47,0,0.86,0.08,1.18,0.24
					c0.32,0.16,0.63,0.41,0.94,0.74v-2.39c0-0.33,0.07-0.58,0.2-0.75c0.13-0.17,0.32-0.26,0.57-0.26c0.25,0,0.43,0.08,0.57,0.23
					c0.13,0.16,0.2,0.39,0.2,0.69v7.15c0,0.31-0.07,0.54-0.21,0.69c-0.14,0.15-0.33,0.23-0.55,0.23c-0.22,0-0.4-0.08-0.55-0.24
					C130.01,401.86,129.94,401.63,129.94,401.34z M126.76,398.96c0,0.44,0.07,0.81,0.2,1.12c0.14,0.31,0.32,0.54,0.56,0.7
					c0.24,0.16,0.5,0.24,0.78,0.24c0.29,0,0.55-0.07,0.78-0.22c0.24-0.15,0.42-0.38,0.56-0.68c0.14-0.31,0.21-0.69,0.21-1.15
					c0-0.43-0.07-0.8-0.21-1.11c-0.14-0.31-0.33-0.55-0.57-0.71c-0.24-0.16-0.5-0.25-0.79-0.25c-0.3,0-0.56,0.08-0.8,0.25
					c-0.23,0.17-0.41,0.41-0.54,0.72C126.82,398.17,126.76,398.54,126.76,398.96z"/>
				<path class="st52" d="M136.57,394.19v2.47c0.3-0.32,0.62-0.56,0.93-0.73c0.32-0.17,0.71-0.25,1.18-0.25
					c0.54,0,1.01,0.13,1.42,0.38c0.4,0.26,0.72,0.63,0.94,1.11c0.22,0.48,0.34,1.06,0.34,1.72c0,0.49-0.06,0.94-0.19,1.35
					c-0.12,0.41-0.31,0.77-0.54,1.07c-0.24,0.3-0.53,0.53-0.86,0.7c-0.34,0.16-0.71,0.25-1.12,0.25c-0.25,0-0.48-0.03-0.7-0.09
					c-0.22-0.06-0.41-0.14-0.56-0.23c-0.15-0.1-0.29-0.2-0.39-0.3c-0.11-0.1-0.25-0.26-0.43-0.46v0.16c0,0.3-0.07,0.53-0.22,0.69
					c-0.15,0.16-0.33,0.23-0.56,0.23c-0.23,0-0.41-0.08-0.55-0.23c-0.14-0.16-0.2-0.39-0.2-0.69v-7.08c0-0.33,0.07-0.58,0.2-0.74
					c0.13-0.17,0.32-0.25,0.56-0.25c0.25,0,0.44,0.08,0.58,0.24C136.5,393.66,136.57,393.89,136.57,394.19z M136.64,399
					c0,0.64,0.15,1.14,0.44,1.49c0.29,0.35,0.68,0.52,1.16,0.52c0.41,0,0.76-0.18,1.05-0.53c0.29-0.35,0.44-0.86,0.44-1.52
					c0-0.43-0.06-0.8-0.18-1.1s-0.3-0.55-0.52-0.72c-0.23-0.17-0.49-0.25-0.79-0.25c-0.31,0-0.58,0.08-0.83,0.25
					c-0.24,0.17-0.43,0.41-0.57,0.73C136.71,398.18,136.64,398.56,136.64,399z"/>
				<path class="st52" d="M143.47,402.46l0.15-0.36l-1.99-5.02c-0.12-0.29-0.18-0.5-0.18-0.63c0-0.14,0.04-0.27,0.11-0.38
					c0.07-0.12,0.17-0.21,0.29-0.29c0.12-0.07,0.25-0.11,0.39-0.11c0.23,0,0.41,0.07,0.53,0.22c0.12,0.15,0.22,0.36,0.31,0.64
					l1.37,3.99l1.3-3.71c0.1-0.3,0.2-0.54,0.28-0.71c0.08-0.17,0.17-0.28,0.26-0.34c0.09-0.06,0.22-0.09,0.39-0.09
					c0.12,0,0.24,0.03,0.35,0.1c0.11,0.06,0.2,0.15,0.26,0.26c0.06,0.11,0.09,0.23,0.09,0.35c-0.02,0.07-0.04,0.18-0.08,0.32
					c-0.04,0.14-0.08,0.28-0.13,0.42l-2.11,5.53c-0.18,0.49-0.36,0.87-0.53,1.15c-0.17,0.28-0.4,0.49-0.69,0.64
					c-0.29,0.15-0.67,0.22-1.16,0.22c-0.47,0-0.83-0.05-1.07-0.15c-0.24-0.1-0.36-0.29-0.36-0.57c0-0.19,0.06-0.33,0.17-0.43
					c0.11-0.1,0.28-0.15,0.5-0.15c0.09,0,0.17,0.01,0.26,0.04c0.1,0.02,0.19,0.04,0.27,0.04c0.19,0,0.33-0.03,0.44-0.08
					c0.11-0.05,0.2-0.15,0.29-0.29C143.26,402.93,143.36,402.73,143.47,402.46z"/>
			</g>
			<g id="XMLID_510_">
				<path class="st52" d="M166.95,395.81h0.39v-0.49c0-0.51,0.06-0.91,0.19-1.21c0.13-0.3,0.35-0.52,0.65-0.65
					c0.31-0.14,0.73-0.2,1.26-0.2c0.95,0,1.42,0.23,1.42,0.7c0,0.15-0.05,0.28-0.15,0.38c-0.1,0.11-0.21,0.16-0.35,0.16
					c-0.06,0-0.17-0.01-0.33-0.04c-0.15-0.02-0.28-0.04-0.39-0.04c-0.29,0-0.48,0.09-0.57,0.26c-0.08,0.17-0.12,0.42-0.12,0.74v0.39
					h0.4c0.62,0,0.93,0.19,0.93,0.56c0,0.26-0.08,0.43-0.25,0.5c-0.16,0.07-0.39,0.11-0.68,0.11h-0.4v4.29
					c0,0.32-0.08,0.56-0.23,0.73c-0.15,0.17-0.35,0.25-0.59,0.25c-0.23,0-0.42-0.08-0.57-0.25c-0.15-0.17-0.23-0.41-0.23-0.73v-4.29
					h-0.45c-0.24,0-0.43-0.05-0.56-0.16c-0.13-0.11-0.2-0.25-0.2-0.42C166.13,396.01,166.4,395.81,166.95,395.81"/>
				<path class="st52" d="M172.25,399.92v1.36c0,0.33-0.08,0.57-0.23,0.74c-0.15,0.17-0.35,0.25-0.59,0.25
					c-0.24,0-0.43-0.08-0.58-0.25c-0.15-0.16-0.23-0.41-0.23-0.73v-4.51c0-0.73,0.26-1.09,0.79-1.09c0.27,0,0.46,0.08,0.58,0.26
					c0.12,0.17,0.18,0.42,0.2,0.75c0.19-0.33,0.39-0.58,0.59-0.75c0.21-0.17,0.48-0.26,0.82-0.26c0.34,0,0.67,0.08,0.99,0.26
					c0.32,0.17,0.48,0.4,0.48,0.68c0,0.2-0.07,0.36-0.2,0.49c-0.14,0.13-0.28,0.2-0.44,0.2c-0.06,0-0.21-0.04-0.43-0.11
					c-0.23-0.07-0.43-0.11-0.6-0.11c-0.24,0-0.43,0.06-0.58,0.19c-0.15,0.13-0.27,0.31-0.35,0.55c-0.08,0.25-0.14,0.54-0.17,0.88
					C172.27,399.02,172.25,399.44,172.25,399.92"/>
				<path class="st52" d="M179.7,399.36h-3.17c0.01,0.37,0.08,0.69,0.22,0.97c0.15,0.28,0.34,0.49,0.58,0.64
					c0.24,0.14,0.5,0.21,0.79,0.21c0.19,0,0.37-0.02,0.53-0.07c0.16-0.04,0.31-0.12,0.47-0.21c0.15-0.1,0.29-0.2,0.42-0.31
					c0.13-0.11,0.29-0.26,0.49-0.45c0.08-0.07,0.2-0.11,0.36-0.11c0.17,0,0.3,0.05,0.41,0.14c0.1,0.09,0.15,0.22,0.15,0.39
					c0,0.15-0.06,0.32-0.17,0.51c-0.12,0.2-0.29,0.39-0.52,0.57c-0.23,0.18-0.52,0.33-0.87,0.45c-0.35,0.12-0.75,0.18-1.21,0.18
					c-1.04,0-1.85-0.3-2.43-0.89c-0.58-0.59-0.87-1.4-0.87-2.42c0-0.48,0.07-0.92,0.22-1.33c0.14-0.41,0.35-0.76,0.62-1.05
					c0.27-0.29,0.61-0.52,1.01-0.67c0.4-0.16,0.84-0.23,1.33-0.23c0.63,0,1.18,0.13,1.63,0.4c0.45,0.26,0.8,0.61,1.02,1.03
					c0.23,0.42,0.34,0.85,0.34,1.3c0,0.41-0.12,0.67-0.35,0.79C180.46,399.3,180.13,399.36,179.7,399.36 M176.53,398.44h2.94
					c-0.04-0.55-0.19-0.97-0.45-1.24c-0.26-0.28-0.6-0.41-1.03-0.41c-0.4,0-0.74,0.14-0.99,0.42
					C176.75,397.48,176.59,397.9,176.53,398.44"/>
				<path class="st52" d="M186.45,399.36h-3.17c0,0.37,0.08,0.69,0.22,0.97c0.15,0.28,0.34,0.49,0.58,0.64
					c0.24,0.14,0.5,0.21,0.79,0.21c0.19,0,0.37-0.02,0.53-0.07c0.16-0.04,0.32-0.12,0.47-0.21c0.15-0.1,0.29-0.2,0.42-0.31
					c0.12-0.11,0.29-0.26,0.49-0.45c0.08-0.07,0.2-0.11,0.36-0.11c0.17,0,0.3,0.05,0.41,0.14c0.1,0.09,0.15,0.22,0.15,0.39
					c0,0.15-0.05,0.32-0.17,0.51c-0.11,0.2-0.28,0.39-0.52,0.57c-0.23,0.18-0.52,0.33-0.87,0.45c-0.35,0.12-0.75,0.18-1.21,0.18
					c-1.04,0-1.85-0.3-2.43-0.89c-0.58-0.59-0.87-1.4-0.87-2.42c0-0.48,0.07-0.92,0.22-1.33c0.14-0.41,0.35-0.76,0.62-1.05
					c0.27-0.29,0.61-0.52,1.01-0.67c0.4-0.16,0.84-0.23,1.33-0.23c0.63,0,1.17,0.13,1.63,0.4c0.45,0.26,0.79,0.61,1.01,1.03
					c0.22,0.42,0.34,0.85,0.34,1.3c0,0.41-0.12,0.67-0.35,0.79C187.2,399.3,186.87,399.36,186.45,399.36 M183.27,398.44h2.94
					c-0.04-0.55-0.19-0.97-0.45-1.24c-0.26-0.28-0.6-0.41-1.03-0.41c-0.4,0-0.73,0.14-1,0.42
					C183.49,397.48,183.33,397.9,183.27,398.44"/>
				<path class="st52" d="M189.99,396.58v0.19c0.3-0.38,0.62-0.65,0.95-0.83c0.32-0.18,0.7-0.27,1.11-0.27
					c0.5,0,0.96,0.13,1.38,0.39c0.42,0.26,0.75,0.63,0.99,1.13c0.24,0.5,0.37,1.08,0.37,1.76c0,0.5-0.07,0.96-0.21,1.38
					c-0.14,0.42-0.34,0.77-0.58,1.05c-0.25,0.28-0.53,0.5-0.87,0.65c-0.34,0.15-0.69,0.23-1.08,0.23c-0.46,0-0.85-0.09-1.17-0.28
					c-0.31-0.18-0.61-0.46-0.9-0.82v2.43c0,0.71-0.26,1.07-0.78,1.07c-0.31,0-0.51-0.09-0.61-0.27c-0.1-0.19-0.15-0.45-0.15-0.81v-7
					c0-0.31,0.07-0.54,0.2-0.69c0.13-0.15,0.32-0.23,0.55-0.23c0.23,0,0.42,0.08,0.56,0.23
					C189.92,396.06,189.99,396.28,189.99,396.58 M193.17,398.94c0-0.43-0.07-0.8-0.2-1.1c-0.13-0.31-0.31-0.54-0.54-0.7
					c-0.23-0.16-0.49-0.25-0.77-0.25c-0.45,0-0.82,0.18-1.13,0.53c-0.31,0.35-0.46,0.87-0.46,1.56c0,0.64,0.15,1.15,0.46,1.5
					c0.3,0.36,0.68,0.54,1.13,0.54c0.27,0,0.52-0.08,0.75-0.23c0.23-0.16,0.42-0.39,0.55-0.7
					C193.1,399.76,193.17,399.38,193.17,398.94"/>
				<path class="st52" d="M196.43,394.92c-0.23,0-0.42-0.07-0.58-0.21c-0.16-0.14-0.24-0.33-0.24-0.58c0-0.23,0.08-0.42,0.25-0.57
					c0.16-0.15,0.35-0.22,0.57-0.22c0.21,0,0.4,0.07,0.56,0.2c0.16,0.14,0.24,0.33,0.24,0.59c0,0.25-0.08,0.44-0.24,0.58
					C196.84,394.84,196.65,394.92,196.43,394.92 M197.23,396.59v4.69c0,0.32-0.08,0.57-0.23,0.73c-0.16,0.17-0.35,0.25-0.59,0.25
					c-0.24,0-0.43-0.08-0.58-0.25c-0.15-0.17-0.22-0.42-0.22-0.73v-4.64c0-0.32,0.08-0.56,0.22-0.72c0.15-0.16,0.34-0.24,0.58-0.24
					c0.24,0,0.43,0.08,0.59,0.24C197.16,396.08,197.23,396.3,197.23,396.59"/>
				<path class="st52" d="M202.46,401.52l-1.43-2.35l-0.88,0.83v1.29c0,0.31-0.08,0.55-0.25,0.72c-0.16,0.17-0.35,0.25-0.57,0.25
					c-0.25,0-0.45-0.08-0.59-0.25c-0.14-0.16-0.21-0.41-0.21-0.73v-6.91c0-0.36,0.07-0.63,0.21-0.82c0.14-0.19,0.34-0.28,0.6-0.28
					c0.25,0,0.45,0.09,0.59,0.26c0.15,0.17,0.22,0.42,0.22,0.75v3.93l1.82-1.91c0.23-0.24,0.4-0.4,0.52-0.49
					c0.12-0.09,0.26-0.13,0.43-0.13c0.2,0,0.37,0.06,0.51,0.19c0.13,0.13,0.2,0.29,0.2,0.48c0,0.24-0.22,0.56-0.66,0.95l-0.86,0.79
					l1.66,2.61c0.12,0.2,0.21,0.34,0.26,0.44c0.05,0.1,0.08,0.2,0.08,0.29c0,0.26-0.07,0.46-0.21,0.61
					c-0.14,0.15-0.33,0.22-0.55,0.22c-0.2,0-0.35-0.05-0.46-0.16C202.79,401.99,202.64,401.8,202.46,401.52"/>
				<path class="st52" d="M205.98,402.26c-0.25,0-0.46-0.08-0.63-0.24c-0.18-0.16-0.27-0.38-0.27-0.67c0-0.24,0.09-0.45,0.26-0.62
					c0.17-0.17,0.38-0.26,0.63-0.26c0.25,0,0.46,0.09,0.64,0.26c0.17,0.17,0.26,0.38,0.26,0.63c0,0.28-0.09,0.51-0.26,0.66
					C206.43,402.18,206.22,402.26,205.98,402.26"/>
				<path class="st52" d="M214.04,400.25c0,0.2-0.06,0.42-0.18,0.65c-0.12,0.23-0.31,0.45-0.55,0.66c-0.25,0.21-0.56,0.38-0.93,0.5
					c-0.38,0.13-0.8,0.19-1.27,0.19c-1,0-1.79-0.29-2.35-0.88c-0.56-0.58-0.84-1.37-0.84-2.35c0-0.67,0.13-1.25,0.39-1.77
					c0.26-0.51,0.63-0.9,1.11-1.18c0.49-0.28,1.07-0.42,1.75-0.42c0.42,0,0.8,0.06,1.16,0.18c0.35,0.12,0.65,0.28,0.89,0.47
					c0.24,0.2,0.43,0.4,0.56,0.62c0.13,0.22,0.19,0.42,0.19,0.62c0,0.19-0.07,0.36-0.21,0.49c-0.15,0.13-0.32,0.2-0.52,0.2
					c-0.14,0-0.25-0.04-0.34-0.1c-0.09-0.07-0.19-0.18-0.3-0.34c-0.2-0.3-0.4-0.53-0.62-0.68c-0.21-0.15-0.49-0.23-0.82-0.23
					c-0.48,0-0.86,0.19-1.16,0.56c-0.29,0.37-0.44,0.89-0.44,1.53c0,0.31,0.04,0.59,0.11,0.84c0.07,0.25,0.18,0.47,0.32,0.65
					c0.14,0.18,0.31,0.32,0.52,0.41c0.2,0.1,0.43,0.14,0.67,0.14c0.33,0,0.6-0.08,0.84-0.23c0.24-0.15,0.44-0.38,0.62-0.69
					c0.1-0.18,0.21-0.32,0.32-0.43c0.11-0.1,0.26-0.16,0.42-0.16c0.2,0,0.36,0.08,0.49,0.23
					C213.98,399.92,214.04,400.08,214.04,400.25"/>
				<path class="st52" d="M221.04,398.97c0,0.48-0.08,0.93-0.22,1.34c-0.15,0.41-0.37,0.76-0.66,1.05
					c-0.28,0.29-0.63,0.52-1.02,0.67c-0.4,0.15-0.84,0.23-1.34,0.23c-0.49,0-0.93-0.08-1.33-0.24c-0.39-0.16-0.73-0.38-1.02-0.68
					c-0.29-0.3-0.51-0.65-0.66-1.05c-0.14-0.4-0.22-0.85-0.22-1.33c0-0.49,0.08-0.94,0.22-1.35c0.15-0.41,0.37-0.76,0.65-1.05
					c0.28-0.29,0.62-0.51,1.02-0.67c0.4-0.15,0.84-0.23,1.33-0.23c0.49,0,0.94,0.08,1.34,0.24c0.4,0.16,0.74,0.38,1.03,0.67
					c0.29,0.3,0.5,0.64,0.65,1.04C220.96,398.03,221.04,398.48,221.04,398.97 M219.41,398.97c0-0.66-0.15-1.18-0.44-1.54
					c-0.29-0.37-0.68-0.56-1.17-0.56c-0.32,0-0.6,0.08-0.84,0.25c-0.24,0.16-0.43,0.41-0.56,0.73c-0.13,0.32-0.2,0.7-0.2,1.12
					c0,0.42,0.06,0.79,0.19,1.11c0.13,0.32,0.31,0.56,0.55,0.73c0.24,0.17,0.52,0.25,0.84,0.25c0.49,0,0.88-0.19,1.17-0.56
					C219.26,400.13,219.41,399.62,219.41,398.97"/>
				<path class="st52" d="M227.22,399.08v2.15c0,0.34-0.08,0.59-0.23,0.77c-0.16,0.17-0.36,0.26-0.61,0.26
					c-0.25,0-0.45-0.08-0.59-0.26c-0.15-0.17-0.23-0.42-0.23-0.77v-2.58c0-0.41-0.01-0.73-0.04-0.95c-0.03-0.22-0.1-0.41-0.23-0.55
					c-0.12-0.15-0.32-0.22-0.58-0.22c-0.53,0-0.88,0.18-1.05,0.55c-0.17,0.36-0.25,0.88-0.25,1.57v2.19c0,0.34-0.08,0.59-0.23,0.76
					c-0.16,0.17-0.36,0.26-0.6,0.26s-0.45-0.09-0.6-0.26c-0.16-0.17-0.24-0.43-0.24-0.76v-4.64c0-0.31,0.07-0.54,0.21-0.69
					c0.14-0.16,0.33-0.24,0.56-0.24c0.22,0,0.41,0.08,0.56,0.22c0.15,0.15,0.22,0.35,0.22,0.62v0.15c0.28-0.33,0.58-0.58,0.9-0.74
					c0.32-0.16,0.68-0.24,1.07-0.24c0.41,0,0.76,0.08,1.05,0.24c0.29,0.16,0.53,0.41,0.73,0.73c0.27-0.33,0.57-0.58,0.88-0.74
					c0.31-0.16,0.66-0.24,1.04-0.24c0.44,0,0.83,0.09,1.15,0.26c0.32,0.17,0.56,0.42,0.72,0.75c0.14,0.3,0.21,0.76,0.21,1.39v3.16
					c0,0.34-0.08,0.59-0.23,0.77c-0.15,0.17-0.36,0.26-0.61,0.26c-0.25,0-0.45-0.09-0.6-0.26c-0.16-0.17-0.24-0.43-0.24-0.76v-2.73
					c0-0.35-0.01-0.63-0.04-0.84c-0.03-0.21-0.11-0.39-0.24-0.53c-0.13-0.14-0.33-0.21-0.6-0.21c-0.21,0-0.42,0.07-0.61,0.19
					c-0.19,0.12-0.34,0.3-0.45,0.51C227.28,397.91,227.22,398.39,227.22,399.08"/>
			</g>
			<g id="XMLID_506_">
				<path class="st52" d="M151.78,398.57c0,0,0-0.01,0-0.01C151.78,398.57,151.78,398.57,151.78,398.57z"/>
				<path class="st52" d="M151.86,399.09C151.86,399.09,151.86,399.09,151.86,399.09c-0.03-0.15-0.05-0.29-0.07-0.44
					C151.81,398.8,151.83,398.95,151.86,399.09z"/>
				<path class="st52" d="M152.4,400.6c0-0.01-0.01-0.01-0.01-0.02C152.39,400.58,152.39,400.59,152.4,400.6z"/>
				<path class="st52" d="M152.35,400.5c-0.01-0.03-0.03-0.06-0.04-0.08C152.32,400.44,152.33,400.47,152.35,400.5z"/>
				<path class="st52" d="M152.01,399.67c0.08,0.25,0.17,0.49,0.29,0.72C152.18,400.16,152.09,399.92,152.01,399.67
					C152.01,399.67,152.01,399.67,152.01,399.67z"/>
				<path class="st52" d="M158.05,392.36c0.31,0,0.54,0.02,0.81,0.07l0.08-0.48c0,0-0.73-0.22-1.69-0.15l-0.08-0.26
					c0.3-0.06,0.52-0.33,0.52-0.65c0-0.36-0.3-0.66-0.66-0.66c-0.36,0-0.66,0.29-0.66,0.66c0,0.32,0.22,0.58,0.52,0.65l0.08,0.29
					c-1.02,0.14-1.83,0.54-1.83,0.54l0.14,0.44c0.62-0.21,1.15-0.33,1.64-0.38C157.4,392.39,157.76,392.36,158.05,392.36z"/>
				<path class="st52" d="M152.39,394.77L152.39,394.77c0.03-0.04,0.05-0.06,0.07-0.09l-0.2-0.14l-0.3-0.22
					c-0.02,0.02-0.5,0.47-0.88,1.28c-0.02-0.03-0.03-0.05-0.06-0.07c-0.11-0.12-0.27-0.19-0.47-0.18c0,0-0.01,0-0.01,0
					c-0.12,0-0.21-0.04-0.27-0.09c0.06-0.07,0.09-0.16,0.09-0.26c0-0.23-0.19-0.42-0.42-0.42c-0.23,0-0.42,0.19-0.42,0.42
					c0,0.23,0.19,0.42,0.42,0.42c0.04,0,0.07-0.01,0.1-0.01c0.1,0.11,0.27,0.21,0.5,0.21c0.12,0,0.21,0.03,0.27,0.1
					c0.07,0.08,0.09,0.18,0.1,0.27c0,0,0,0,0,0c-0.27,0.74-0.19,1.67-0.19,1.67l0.66,0.03c0.01-0.34,0.06-0.93,0.23-1.39
					C151.96,395.37,152.37,394.8,152.39,394.77z"/>
				<path class="st52" d="M163.8,392.92c-0.23,0-0.42,0.19-0.42,0.42c0,0.04,0,0.07,0.01,0.1c-0.11,0.1-0.21,0.27-0.21,0.51
					c0,0.12-0.03,0.21-0.1,0.27c-0.05,0.05-0.12,0.07-0.18,0.09c-0.49-0.69-1.1-1.11-1.1-1.11l-0.47,0.51
					c0.36,0.33,0.73,0.73,1.08,1.24c0.25,0.35,0.5,0.81,0.71,1.26l0.64-0.3c0,0-0.29-0.72-0.7-1.37c0.07-0.03,0.14-0.06,0.21-0.12
					c0.13-0.11,0.19-0.27,0.18-0.47c0-0.13,0.04-0.22,0.09-0.28c0.07,0.05,0.16,0.09,0.26,0.09c0.23,0,0.42-0.19,0.42-0.42
					C164.22,393.1,164.03,392.92,163.8,392.92z"/>
				<path class="st52" d="M162.14,398.67c-0.88,0.43-2.33,1-4.24,1.26c-0.75,0.1-1.47,0.14-2.14,0.14c-0.87,0-1.64-0.06-2.23-0.14
					c-0.67-0.08-1.2-0.19-1.52-0.26c0.08,0.25,0.17,0.49,0.28,0.72c0,0.01,0,0.01,0.01,0.02c0.01,0.03,0.03,0.06,0.04,0.08
					c0.01,0.03,0.03,0.05,0.04,0.08c0,0.01,0.01,0.01,0.01,0.02c0.19,0.36,0.42,0.68,0.68,0.97c0.9,0.98,1.82,1.14,1.83,1.14l0.01,0
					l0.01,0c0.01,0,0.82,0.27,2.06,0.27c1.22,0,2.41-0.25,3.55-0.73c0.84-0.43,1.64-1.09,2.03-1.67c0.31-0.45,0.53-0.93,0.66-1.43
					c0.07-0.27,0.12-0.69,0.09-1.14C163.06,398.17,162.67,398.41,162.14,398.67z"/>
				<path class="st52" d="M152.67,394.98c-0.03,0.04-0.41,0.58-0.71,1.41c-0.23,0.62-0.22,1.53-0.22,1.54v0
					c0,0.21,0.01,0.42,0.04,0.63c0,0,0,0.01,0,0.01c0,0.03,0.01,0.05,0.01,0.08c0.02,0.15,0.04,0.29,0.07,0.44
					c0.44,0.11,3.05,0.72,5.97,0.31c1.83-0.26,3.22-0.8,4.06-1.2c0.7-0.34,1.15-0.65,1.32-0.77c-0.17-0.64-0.65-1.65-1.09-2.28
					c-1.25-1.79-2.61-2.25-3.3-2.36c-0.26-0.04-0.48-0.07-0.78-0.07c-0.28,0-0.63,0.02-1.09,0.07c-0.46,0.05-0.98,0.17-1.58,0.37
					c-0.84,0.28-1.6,0.72-2.2,1.28l-0.02,0.02C153.07,394.54,152.88,394.71,152.67,394.98z M160.34,394.57
					c0.6,0,1.09,0.49,1.09,1.09c0,0.6-0.49,1.09-1.09,1.09s-1.09-0.49-1.09-1.09C159.25,395.06,159.74,394.57,160.34,394.57z
					 M155.19,394.52c0.97,0,1.76,0.79,1.76,1.76c0,0.97-0.79,1.76-1.76,1.76c-0.97,0-1.76-0.79-1.76-1.76
					C153.43,395.31,154.21,394.52,155.19,394.52z"/>
			</g>
		</g>
	</g>
</g>
</svg>
