<svg xmlns="http://www.w3.org/2000/svg" width="445.914" height="418.889" viewBox="0 0 445.914 418.889"><g id="e-commerce-main-banner" transform="translate(0 .004)"><g id="freepik--background-simple--inject-2" opacity=".8"><path id="Pfad_28306" data-name="Pfad 28306" d="M399.81 112.055l-2.3-3.738c-19.368-31.524-54.368-50.534-91.329-48.223a97.7 97.7 0 00-14.136 1.942c-33.582 7.1-62.8 32.174-74.9 64.281-7.126 18.893-9.116 40.631-22.631 55.621-17.592 19.514-47.456 20.126-73.708 19.311s-56.136-.117-73.641 19.475c-10.968 12.262-14.455 29.709-13.6 46.131 2.369 43.466 33.058 82.349 72.087 101.718s84.99 21.058 127.7 12.553c59.844-11.912 116.757-44.66 150.96-95.145S427.2 166.637 399.81 112.055z" fill="#fff"/></g><g id="freepik--Floor--inject-2"><path id="Pfad_28307" data-name="Pfad 28307" d="M398.6 418.485c0 .129-89.247.239-199.265.239S0 418.614 0 418.485s89.229-.239 199.33-.239 199.27.101 199.27.239z" fill="#263238"/></g><g id="freepik--Browsers--inject-2"><rect id="Rechteck_707" data-name="Rechteck 707" width="104.89" height="104.89" rx="5.4" transform="rotate(-19.02 591.877 -859.942)" fill="#cb9024"/><path id="Pfad_28308" data-name="Pfad 28308" d="M349.29 133.285l-4.71 105.5-4.98-14.44.45-87.88z" opacity=".3" style="isolation:isolate"/><rect id="Rechteck_708" data-name="Rechteck 708" width="71.812" height="71.812" rx="5.399" transform="rotate(-73.559 373.228 -55.3)" fill="#f8b02f"/><g id="Gruppe_1288" data-name="Gruppe 1288"><rect id="Rechteck_709" data-name="Rechteck 709" width="71.812" height="71.812" rx="5.399" transform="rotate(-73.559 373.228 -55.3)" fill="#e6a837"/></g><rect id="Rechteck_710" data-name="Rechteck 710" width="76.534" height="76.534" rx="5.402" transform="rotate(-11.88 125.66 -472.243)" fill="#e6a837"/><rect id="Rechteck_711" data-name="Rechteck 711" width="120.02" height="120.02" rx="5.4" transform="translate(43.03 298.435)" fill="#e0a02d"/><g id="Gruppe_1289" data-name="Gruppe 1289" opacity=".3"><path id="Pfad_28309" data-name="Pfad 28309" d="M42.7 372.415c5.37-6.13 8.65-13.88 10.31-21.86 2-9.39 1.76-19.13 1.1-28.67a18.113 18.113 0 01.88-7.31c3.38-9.53 12.46-8.49 20.1-7.67a135.552 135.552 0 0063.6-8.51H48.23a5.22 5.22 0 00-5.22 5.21z"/></g><g id="Gruppe_2024" data-name="Gruppe 2024" transform="translate(-212.333 -74.345)" opacity=".4" fill="#263238"><path id="Pfad_3063" data-name="Pfad 3063" d="M598.833 469.689v8.394h-.933v-8.394z" transform="translate(0 -.144)"/><path id="Pfad_3064" data-name="Pfad 3064" d="M601.464 477.921a31.01 31.01 0 00.044-1.543v-7.219h.931v3.752h.022a1.891 1.891 0 011.768-1.1c1.286 0 2.2 1.234 2.186 3.047 0 2.135-1.168 3.2-2.325 3.2a1.813 1.813 0 01-1.735-1.123h-.032l-.043.987zm.975-2.395a2.346 2.346 0 00.043.395 1.509 1.509 0 001.414 1.271c.986 0 1.576-.926 1.576-2.3 0-1.2-.536-2.221-1.543-2.221a1.566 1.566 0 00-1.436 1.329 2.544 2.544 0 00-.053.444z" transform="translate(-.969)"/><path id="Pfad_3065" data-name="Pfad 3065" d="M609.68 476.708a2.978 2.978 0 001.672.546 1.372 1.372 0 001.511-1.427c0-.782-.387-1.228-1.361-1.661a2.527 2.527 0 01-1.907-2.37 2.207 2.207 0 012.335-2.269 2.926 2.926 0 011.6.41l-.258.881a2.575 2.575 0 00-1.371-.4 1.24 1.24 0 00-1.361 1.252c0 .782.44 1.166 1.436 1.613a2.522 2.522 0 011.843 2.455 2.314 2.314 0 01-2.529 2.406 3.347 3.347 0 01-1.843-.533z" transform="translate(-2.337 -.1)"/><path id="Pfad_3066" data-name="Pfad 3066" d="M619.73 469.892l-1.018 1.339v.022l1.617-.215v.729l-1.617-.193v.022l1.028 1.285-.675.387-.643-1.5h-.022l-.7 1.511-.611-.386 1.018-1.307v-.02l-1.586.2v-.729l1.576.2v-.02l-1.008-1.308.653-.374.665 1.49h.02l.654-1.5z" transform="translate(-3.332 -.1)"/></g></g><g id="freepik--Character--inject-2"><path id="Pfad_28310" data-name="Pfad 28310" d="M106.06 152.475c-2 4.75-7.94 7.27-9 12.3-.88 4.16 1.95 8.89-.26 12.53-2 3.36-7 3.42-9.87 6.15-1.8 1.74-2.48 4.32-2.76 6.8-.33 3-.13 6.18 1.64 8.59a9.8 9.8 0 007.19 3.65 20.566 20.566 0 008.15-1.33c7.3-2.46 14.09-6.84 18.66-13.05s6.72-14.36 5-21.87-7.68-14.1-15.19-15.85" fill="#263238"/><path id="Pfad_28311" data-name="Pfad 28311" d="M89.28 198.975a1.629 1.629 0 01-.1-.4 7.2 7.2 0 01-.15-1.17 14.516 14.516 0 01.3-4.32 16.851 16.851 0 012.5-5.93 16.006 16.006 0 012.51-2.89 21.25 21.25 0 013.31-2.4 12.953 12.953 0 003.08-2.49 4.895 4.895 0 001.28-3.32 15.948 15.948 0 00-.63-3.29 6.713 6.713 0 01-.12-3 6.241 6.241 0 012.3-3.66 5.437 5.437 0 011-.61 1.655 1.655 0 01.4-.13 14.172 14.172 0 00-1.29.9 6.232 6.232 0 00-2.06 3.57 6.493 6.493 0 00.18 2.87 16.269 16.269 0 01.69 3.39 5.377 5.377 0 01-1.37 3.61 13.3 13.3 0 01-3.19 2.6 17.357 17.357 0 00-5.7 5.12 16.824 16.824 0 00-2.54 5.74 16.243 16.243 0 00-.46 4.23 15.433 15.433 0 01.06 1.58z" fill="#455a64"/><path id="Pfad_28312" data-name="Pfad 28312" d="M107.61 137.765a6.74 6.74 0 013.89-12.26c3.15 0 5.86 2.17 8.91 2.93 2.4.6 4.91.32 7.38.38s5.11.57 6.81 2.36c2.12 2.23 2.19 5.8 4.15 8.18 1.39 1.7 3.55 2.54 5.31 3.86a11.67 11.67 0 011.16 17.67c-1.17 1.15-2.63 2.11-3.32 3.6-1 2.27 0 5.28-1.64 7.21s-5 1.76-6.16 3.93c-.48.87-.6 2.09-1.52 2.48a2.558 2.558 0 01-2.19-.51l-9.17-5.43" fill="#263238"/><path id="Pfad_28313" data-name="Pfad 28313" d="M119.28 181.865l-9.42 1.26a22.876 22.876 0 00-9.37 5.89l-26.07 27.16-6.61-40.26-13.51 1.73 4.06 48a15.27 15.27 0 0014.55 14.15h1.08a16 16 0 0010.66-4.93l17.09-14.9" fill="#f8b02f"/><path id="Pfad_28314" data-name="Pfad 28314" d="M56.9 181.225a5 5 0 01-.48-2 5.131 5.131 0 010-2.08 4.768 4.768 0 01.48 2 4.928 4.928 0 010 2.08z" fill="#263238"/><path id="Pfad_28315" data-name="Pfad 28315" d="M60.87 181.185a11.007 11.007 0 01-.4-4.36 5.611 5.611 0 01.42 2.16 5.246 5.246 0 01-.02 2.2z" fill="#263238"/><path id="Pfad_28316" data-name="Pfad 28316" d="M64.81 180.775a6.67 6.67 0 01-.46-2.41 7 7 0 010-2.45 6.542 6.542 0 01.46 2.41 7 7 0 010 2.45z" fill="#263238"/><path id="Pfad_28317" data-name="Pfad 28317" d="M75.1 144.935c.26.47 8.06 33.35 8.06 33.35l-15.15 1.33-7-28.26z" fill="#455a64"/><path id="Pfad_28318" data-name="Pfad 28318" d="M83.16 178.285l1.71-.81-7.91-32.4-2.07-.05z" fill="#263238"/><path id="Pfad_28319" data-name="Pfad 28319" d="M69.28 152.425a.8.8 0 01-.65.91.778.778 0 01-.9-.636v-.014a.79.79 0 01.648-.91.778.778 0 01.9.636z" fill="#263238"/><path id="Pfad_28320" data-name="Pfad 28320" d="M67.13 176.145l-.44-4.66 6.39-2.94-2.78-5.91a5.25 5.25 0 00-7.025-2.4c-.128.062-.253.13-.375.2l-2.54 1.52a7.416 7.416 0 00-3.5 5 97.954 97.954 0 00-1.08 10.66" fill="#b78876"/><path id="Pfad_28321" data-name="Pfad 28321" d="M116.01 181.425c-12.06 1.35-16 10.36-21.6 18.42l-8.13 15 15.5 5.14-1.11 27.07-7.12 22 55.56-3.28-4.5-20.85 3.16-23.8 3-19.85a14.768 14.768 0 00-8.95-16c-7.48-2.92-7.68-3.47-13.63-3.73-1.89-.08-10.65-.45-12.18-.07" fill="#f8b02f"/><path id="Pfad_28322" data-name="Pfad 28322" d="M100.69 246.425a12.192 12.192 0 00.15-1.63c0-1.15.13-2.65.22-4.47.16-3.77.34-9 .52-14.73s.3-11 .37-14.74c0-1.82 0-3.32.05-4.47a9.46 9.46 0 00-.05-1.64 9 9 0 00-.15 1.63c-.06 1.14-.13 2.65-.22 4.46-.16 3.77-.35 9-.52 14.74s-.31 11-.37 14.74c0 1.82 0 3.33-.05 4.47a8.4 8.4 0 00.05 1.64z" fill="#263238"/><path id="Pfad_28323" data-name="Pfad 28323" d="M14.32 380.985l-.2-9.9 19-6.74.79 13.78-1.07.51c-4.83 2.25-24.41 11.12-28.07 11.42-4.08.41 9.55-9.07 9.55-9.07z" fill="#f8b02f"/><g id="Gruppe_1290" data-name="Gruppe 1290" opacity=".4"><path id="Pfad_28324" data-name="Pfad 28324" d="M7.77 385.875s-4.65 3.66-3.64 4.26 21.18-7.61 29.76-12l-.19-.39-23.45 9.78s-1.44-2.03-2.48-1.65z" fill="#fff"/></g><path id="Pfad_28325" data-name="Pfad 28325" d="M34.01 377.615l-.29.15-.85.41-3.15 1.45c-2.68 1.2-6.39 2.81-10.53 4.5s-7.92 3.13-10.67 4.14l-3.27 1.18-.89.3a1.154 1.154 0 01-.32.09l.31-.13.87-.35 3.24-1.24c2.74-1.05 6.51-2.52 10.64-4.21s7.86-3.27 10.55-4.43l3.14-1.42.87-.37z" fill="#263238"/><path id="Pfad_28326" data-name="Pfad 28326" d="M10.37 387.785a7.923 7.923 0 00-1.22-1.29 7.619 7.619 0 00-1.6-.78 2.563 2.563 0 011.73.6 2.529 2.529 0 011.09 1.47z" fill="#263238"/><path id="Pfad_28327" data-name="Pfad 28327" d="M14.51 383.055a3.9 3.9 0 01-.84-.46c-.43-.31-.73-.58-.7-.63s.41.14.84.45.73.55.7.64z" fill="#263238"/><path id="Pfad_28328" data-name="Pfad 28328" d="M15.63 381.685c0 .06-.38 0-.79-.17s-.74-.31-.72-.37.38 0 .8.16.73.32.71.38z" fill="#263238"/><path id="Pfad_28329" data-name="Pfad 28329" d="M15.85 379.645a2.383 2.383 0 01-.87.49 2.143 2.143 0 01-1 .28 2.383 2.383 0 01.87-.49 2.309 2.309 0 011-.28z" fill="#263238"/><path id="Pfad_28330" data-name="Pfad 28330" d="M15.69 378.345a2 2 0 01-.91.72 1.939 1.939 0 01-1.12.29 6.35 6.35 0 011-.5 5.981 5.981 0 011.03-.51z" fill="#263238"/><path id="Pfad_28331" data-name="Pfad 28331" d="M13.28 381.725a3.66 3.66 0 01-1.14.45 7.007 7.007 0 01-1.31.23 3.655 3.655 0 01-.81 0 .7.7 0 01-.43-.24.51.51 0 010-.53 2.26 2.26 0 012.82-.44 2.219 2.219 0 01.68.61c.13.18.17.29.16.3a3.506 3.506 0 00-.92-.76 2.234 2.234 0 00-1.22-.24 2 2 0 00-1.32.65c-.12.2 0 .39.28.42a3.756 3.756 0 00.75 0 8.257 8.257 0 001.29-.18c.72-.13 1.16-.31 1.17-.27z" fill="#263238"/><path id="Pfad_28332" data-name="Pfad 28332" d="M13.01 381.895a1.169 1.169 0 01-.45-.73 1.906 1.906 0 010-1 1.23 1.23 0 01.71-1 .48.48 0 01.56.38 1.5 1.5 0 010 .59 4.2 4.2 0 01-.26.9 1.916 1.916 0 01-.46.73s.14-.3.31-.79a3.876 3.876 0 00.19-.87c.06-.3 0-.78-.31-.71s-.47.49-.55.78a2 2 0 000 .87 3.765 3.765 0 00.26.85z" fill="#263238"/><path id="Pfad_28333" data-name="Pfad 28333" d="M31.64 372.925a7.526 7.526 0 00-1.28.58 6.076 6.076 0 00-2.35 2.33 6.157 6.157 0 00-.76 3.24 7.506 7.506 0 00.18 1.4 1.438 1.438 0 01-.15-.36 5.3 5.3 0 01-.19-1 5.815 5.815 0 01.72-3.36 6 6 0 012.49-2.37 5.585 5.585 0 011-.37 1.178 1.178 0 01.34-.09z" fill="#263238"/><path id="Pfad_28334" data-name="Pfad 28334" d="M26.82 366.325a32.2 32.2 0 011.63 3.56 33.686 33.686 0 011.42 3.66 32.99 32.99 0 01-1.63-3.57 34.019 34.019 0 01-1.42-3.65z" fill="#263238"/><path id="Pfad_28335" data-name="Pfad 28335" d="M24.5 379.765a10.92 10.92 0 01-2.49 1.29 10.691 10.691 0 01-2.67.84c0-.06 1.16-.46 2.58-1.06a26.4 26.4 0 012.58-1.07z" fill="#263238"/><path id="Pfad_28336" data-name="Pfad 28336" d="M28.01 378.355c.06 0 0 .28 0 .59v.6a.912.912 0 01-.19-.61c.01-.37.08-.61.19-.58z" fill="#263238"/><path id="Pfad_28337" data-name="Pfad 28337" d="M28.6 376.2c.06 0 0 .26-.08.52s-.25.45-.31.42 0-.25.09-.51.24-.455.3-.43z" fill="#263238"/><path id="Pfad_28338" data-name="Pfad 28338" d="M30.17 374.7c0 .07-.23.16-.45.36s-.35.41-.41.39 0-.33.26-.57.59-.245.6-.18z" fill="#263238"/><path id="Pfad_28339" data-name="Pfad 28339" d="M31.35 373.8a.367.367 0 01-.14.3c-.14.12-.26.17-.3.12s0-.18.14-.29.26-.175.3-.13z" fill="#263238"/><path id="Pfad_28340" data-name="Pfad 28340" d="M90.5 269.885l-55.72 1A17.9 17.9 0 0017.35 286.6L6.3 376.395h30.26l9.25-77.57h43.94z" fill="#263238"/><path id="Pfad_28341" data-name="Pfad 28341" d="M6.68 370.725c0 .14 6.63.3 14.8.35s14.67-.15 14.81-.17c.94-.09-6.62-.3-14.8-.35s-14.81.03-14.81.17z" fill="#455a64"/><path id="Pfad_28342" data-name="Pfad 28342" d="M142.81 298.865c22.24-7.36 6.3-33.13 6.3-33.13l-84.83 4.95a14.061 14.061 0 00-14.16 13.96v.1l.31 2.26c0 7.77 6 11.81 13.76 11.81l78.62.05" fill="#263238"/><path id="Pfad_28343" data-name="Pfad 28343" d="M129.66 267.055h-1.09l-3.14.12-11.52.55-38 2c-1.86.08-3.69.23-5.49.26s-3.6.1-5.35.2-3.48.22-5.16.39a19.448 19.448 0 00-4.89 1 11.744 11.744 0 00-4.08 2.47 10.386 10.386 0 00-2.47 3.75 17.588 17.588 0 00-1 4.06 26.974 26.974 0 00-.27 3.83 15.529 15.529 0 001.3 6.37 10.539 10.539 0 003.05 4 8.375 8.375 0 002.77 1.49c.69.2.7.14 0-.1a8.675 8.675 0 01-2.68-1.54 10.483 10.483 0 01-2.91-3.89 15.419 15.419 0 01-1.2-6.35 28.14 28.14 0 01.3-3.78 18.142 18.142 0 011-4 9.843 9.843 0 012.39-3.58 11.413 11.413 0 013.92-2.36 19.08 19.08 0 014.87-.89c1.67-.17 3.39-.28 5.13-.38s3.53-.17 5.33-.19 3.65-.18 5.5-.26l38-2.12 11.51-.7 3.13-.22.82-.07a.711.711 0 00.23-.06z" fill="#455a64"/><path id="Pfad_28344" data-name="Pfad 28344" d="M131.43 137.165a3.25 3.25 0 012.91 3.3l-1.84 44c-.07 5.19-9.5 11.33-15.06 11.22-5.61-.12-4.43-6.1-4-11a73.757 73.757 0 00-.14-11.31s-7.09-1.18-8.56-10.43c-.73-4.61-.5-12.16-.11-18.33a9.772 9.772 0 0110.357-9.146q.211.014.423.036z" fill="#b78876"/><path id="Pfad_28345" data-name="Pfad 28345" d="M107.01 150.575a1.179 1.179 0 001.15 1.19 1.131 1.131 0 001.218-1.035v-.03a1.2 1.2 0 00-1.14-1.2 1.14 1.14 0 00-1.228 1.045z" fill="#263238"/><path id="Pfad_28346" data-name="Pfad 28346" d="M106.22 148.505c.15.16 1-.51 2.33-.51s2.21.65 2.35.49-.08-.35-.49-.65a3.335 3.335 0 00-1.88-.58 3.137 3.137 0 00-1.85.6c-.4.3-.53.58-.46.65z" fill="#263238"/><path id="Pfad_28347" data-name="Pfad 28347" d="M119.48 150.575a1.179 1.179 0 001.15 1.19 1.131 1.131 0 001.218-1.035v-.03a1.2 1.2 0 00-1.14-1.2 1.14 1.14 0 00-1.228 1.045z" fill="#263238"/><path id="Pfad_28348" data-name="Pfad 28348" d="M118.78 148.745c.15.15 1-.51 2.33-.51s2.21.64 2.35.49-.08-.35-.49-.65a3.335 3.335 0 00-1.88-.58 3.137 3.137 0 00-1.85.6c-.4.305-.53.58-.46.65z" fill="#263238"/><path id="Pfad_28349" data-name="Pfad 28349" d="M114.15 158.215a8.653 8.653 0 00-2.08-.37c-.33 0-.63-.1-.69-.32a1.629 1.629 0 01.22-1c.3-.79.63-1.62 1-2.48a43.489 43.489 0 002.17-6.5 42.864 42.864 0 00-2.69 6.31c-.32.87-.63 1.7-.92 2.5a1.894 1.894 0 00-.17 1.28.809.809 0 00.54.47 2.01 2.01 0 00.55.08 7.883 7.883 0 002.07.03z" fill="#263238"/><path id="Pfad_28350" data-name="Pfad 28350" d="M113.26 173.335a23.559 23.559 0 0012.4-3.31s-3 6.36-12.27 5.5z" fill="#aa6550"/><path id="Pfad_28351" data-name="Pfad 28351" d="M114.69 161.295a2.271 2.271 0 012.06-.85 2.079 2.079 0 011.45.78 1.319 1.319 0 01.1 1.52 1.53 1.53 0 01-1.67.42 4.823 4.823 0 01-1.64-1 1.625 1.625 0 01-.36-.38.422.422 0 010-.48" fill="#aa6550"/><path id="Pfad_28352" data-name="Pfad 28352" d="M117.9 159.1c-.2 0-.21 1.37-1.39 2.36s-2.67.83-2.68 1 .33.27 1 .29a3.48 3.48 0 002.23-.78 3 3 0 001.08-2c.01-.535-.13-.915-.24-.87z" fill="#263238"/><path id="Pfad_28353" data-name="Pfad 28353" d="M118.21 146.505c.12.35 1.4.18 2.9.37s2.71.58 2.91.27c.09-.15-.12-.47-.61-.81a5.012 5.012 0 00-2.16-.75 4.882 4.882 0 00-2.27.26c-.55.21-.83.5-.77.66z" fill="#263238"/><path id="Pfad_28354" data-name="Pfad 28354" d="M106.69 144.8c.23.29 1.11 0 2.17 0s2 .19 2.16-.11 0-.44-.45-.71a2.934 2.934 0 00-1.75-.48 3 3 0 00-1.73.58c-.37.285-.5.585-.4.72z" fill="#263238"/><path id="Pfad_28355" data-name="Pfad 28355" d="M104.59 144.575c1.33-4.46 2.4-5.82 7-7.34 2.27 10 11.23 6.66 16.28 7.48a3.354 3.354 0 011.49.48c.78.57.84 1.7.83 2.67a34.985 34.985 0 00.68 8.18 13.436 13.436 0 003.95 7.06c3.06-6.44 3.36-13.92 2-20.91-.55-2.86-1.5-5.85-3.77-7.66a12.875 12.875 0 00-5.78-2.2c-5.06-.93-12.93-7.58-17.87-6.14a8.49 8.49 0 00-6.24 5.87 15 15 0 00.67 10.67z" fill="#263238"/><path id="Pfad_28356" data-name="Pfad 28356" d="M142.55 279.115a2.119 2.119 0 01-.77.38 7.839 7.839 0 01-2.3.47 9 9 0 01-9.63-9.88 8.232 8.232 0 01.52-2.29 2.575 2.575 0 01.4-.76 18.4 18.4 0 00-.56 3.08 8.919 8.919 0 008.331 9.469 9.1 9.1 0 00.919.011 15.756 15.756 0 003.09-.48z" fill="#455a64"/><path id="Pfad_28357" data-name="Pfad 28357" d="M111.01 183.515V177.9a2.5 2.5 0 012.42-2.5l19.51-.62a2.49 2.49 0 012.57 2.407v.012l.28 9.11-11.4 10.46-11.08 1.15-1.89-6.14z" fill="#f8b02f"/><path id="Pfad_28358" data-name="Pfad 28358" d="M136.3 184.135a22.913 22.913 0 00-6.51 8.94l-13.31 32.06-9.47-30.74-12.21 2.43a5.119 5.119 0 00-4.027 6.016 4.8 4.8 0 00.117.473l11.91 40.34c3.45 6.91 13 9.54 20.26 6.83l1-.39a16 16 0 008.07-8.53l10.35-20.18 6.91-15.78c.14-.33.27-.66.4-1 3.27-9.11-3-18.9-12.62-20.34l-.81-.13" fill="#f8b02f"/><path id="Pfad_28359" data-name="Pfad 28359" d="M117.81 231.9a14.55 14.55 0 01-.8-3.5 14.979 14.979 0 01-.35-3.57" fill="#263238"/><path id="Pfad_28360" data-name="Pfad 28360" d="M94.26 196.955a5.8 5.8 0 00-1.09.42 4.2 4.2 0 00-2.07 2.48 5.745 5.745 0 00-.28 2.36 14.315 14.315 0 00.7 2.78c.6 2 1.28 4.27 2 6.77 1.5 5 3.28 11 5.26 17.64l3.11 10.42a17.35 17.35 0 006.71 9.07 15.468 15.468 0 0010.92 2.59 14.081 14.081 0 009-5.29 27.756 27.756 0 002.52-4.33c.75-1.46 1.49-2.87 2.2-4.24 1.43-2.73 2.76-5.27 4-7.6l5.77-10.97 1.6-3 .42-.77c.1-.17.16-.26.17-.25l-.12.27c-.1.21-.22.47-.38.79-.36.73-.87 1.74-1.51 3-1.34 2.65-3.26 6.42-5.63 11.06l-3.91 7.63-2.19 4.27a27.05 27.05 0 01-2.54 4.41 14.574 14.574 0 01-9.29 5.51 15.92 15.92 0 01-11.28-2.67 17.85 17.85 0 01-6.91-9.35q-1.6-5.43-3.08-10.43l-5.16-17.67c-.73-2.51-1.38-4.79-2-6.8a13.709 13.709 0 01-.67-2.84 5.857 5.857 0 01.34-2.44 4.21 4.21 0 012.22-2.51 3.686 3.686 0 011.17-.31z" fill="#263238"/><path id="Pfad_28361" data-name="Pfad 28361" d="M107.01 194.4a2.392 2.392 0 01.24.58c.16.44.35 1 .59 1.7.52 1.55 1.22 3.68 2.09 6.29l6.68 20.8c.11.33.22.67.31 1h-.48l8.15-19.53c1.05-2.43 1.9-4.42 2.52-5.86.28-.65.52-1.17.7-1.58a2.912 2.912 0 01.28-.54 3.474 3.474 0 01-.18.58l-.62 1.62-2.36 5.92c-2.07 5.05-4.88 11.93-8 19.59l-.27.66-.22-.68c-.1-.31-.21-.65-.31-1-2.55-8.11-4.85-15.45-6.55-20.85-.8-2.63-1.45-4.77-1.92-6.33-.21-.71-.37-1.28-.5-1.73a2.6 2.6 0 01-.15-.64z" fill="#263238"/><path id="Pfad_28362" data-name="Pfad 28362" d="M141.21 187.055c0 .09-.83 0-2.13.14a11.5 11.5 0 00-8.41 5.07 20.46 20.46 0 01-1.11 1.82 4.783 4.783 0 01.8-2 10.567 10.567 0 018.69-5.25 5.086 5.086 0 012.16.22z" fill="#263238"/><path id="Pfad_28363" data-name="Pfad 28363" d="M114.8 183.625a16.772 16.772 0 01-.08-4.14 17.133 17.133 0 01.45-4.13 16.612 16.612 0 01.07 4.15 16.9 16.9 0 01-.44 4.12z" fill="#263238"/><path id="Pfad_28364" data-name="Pfad 28364" d="M120.01 183.125a11.637 11.637 0 01-.45-3.91 12.011 12.011 0 01.34-3.92 19.52 19.52 0 01.18 3.91 21.481 21.481 0 01-.07 3.92z" fill="#263238"/><path id="Pfad_28365" data-name="Pfad 28365" d="M125.19 183.055a12.533 12.533 0 01-.35-4 12.378 12.378 0 01.41-4 19.039 19.039 0 01.11 4 19.746 19.746 0 01-.17 4z" fill="#263238"/><path id="Pfad_28366" data-name="Pfad 28366" d="M130.69 182.795a15.032 15.032 0 01-.27-3.92 15.261 15.261 0 01.24-3.91 14.916 14.916 0 01.28 3.91 15.431 15.431 0 01-.25 3.92z" fill="#263238"/><path id="Pfad_28367" data-name="Pfad 28367" d="M73.49 226.225a12.923 12.923 0 011-10.74 37.8 37.8 0 00-1.17 5.31 38.016 38.016 0 00.17 5.43z" fill="#263238"/><path id="Pfad_28368" data-name="Pfad 28368" d="M105.47 194.915s-.69-7.66-1.2-11.61-2.93-3.49-3.15-5.63-1.2-2-1.2-2c-1.17-.42-.9 2.76-.9 2.76s-9.43-2.28-10.14-2.57a1.19 1.19 0 00-1.43 1.58c.15.37 5.41 2.57 5.41 2.57s-4.32 4.16-4.41 5.92 5.69 5.85 5.69 5.85l.12 5.21z" fill="#b78876"/><path id="Pfad_28369" data-name="Pfad 28369" d="M97.11 182.285c-.07 0-.19-.21-.57-.38s-1-.38-1.62-.66c-1.27-.56-2.25-1.12-2.19-1.26a6.354 6.354 0 012.4.78 9.537 9.537 0 011.61.83c.42.305.45.69.37.69z" fill="#aa6550"/><path id="Pfad_28370" data-name="Pfad 28370" d="M94.9 184.435c-.1.11-.91-.53-2-1.19a9.7 9.7 0 01-1.89-1.29 4 4 0 012.19.85c1.12.7 1.81 1.53 1.7 1.63z" fill="#aa6550"/><path id="Pfad_28371" data-name="Pfad 28371" d="M93.46 186.1a5.413 5.413 0 01-2.18-.79c-1.14-.57-2-1.14-1.94-1.27a5.525 5.525 0 012.18.8c1.14.575 2.01 1.135 1.94 1.26z" fill="#aa6550"/><path id="Pfad_28372" data-name="Pfad 28372" d="M105.47 194.7a16.778 16.778 0 01-.42-2.82c-.21-1.74-.45-4.16-.91-6.79a16.79 16.79 0 00-1-3.58 2.741 2.741 0 00-.91-1.2 10.966 10.966 0 00-1.19-.75c-1.55-.78-2.6-1.12-2.56-1.21s.28 0 .75.16a14.492 14.492 0 012 .72 8.523 8.523 0 011.28.73 3.207 3.207 0 011.1 1.35 15.737 15.737 0 011 3.69 63.259 63.259 0 01.77 6.85 15.421 15.421 0 01.09 2.85z" fill="#aa6550"/><path id="Pfad_28373" data-name="Pfad 28373" d="M140.58 164.355a2.614 2.614 0 01.18-.65l.58-1.84a36.749 36.749 0 001.6-6.88 17.554 17.554 0 00-.07-4.84 13.191 13.191 0 00-2-5.12 9.352 9.352 0 00-4.62-3.77c-2-.71-4.24-.65-6.53-.77a10.553 10.553 0 01-6.41-2.08 5.9 5.9 0 01-1.74-2.76c-.33-1-.53-2-.89-2.9a5.48 5.48 0 00-4-3.32 8.883 8.883 0 00-4.74.14 6.1 6.1 0 00-3.21 2.16 4.463 4.463 0 00-.83 2.8 3.63 3.63 0 00.52 1.8c.23.37.4.53.38.55a1.9 1.9 0 01-.47-.49 3.654 3.654 0 01-.64-1.84 4.647 4.647 0 01.8-3 6.37 6.37 0 013.34-2.35 9.219 9.219 0 015-.21 6.922 6.922 0 012.55 1.17 5.513 5.513 0 011.79 2.39c.38 1 .59 2 .91 2.92a5.433 5.433 0 001.61 2.54 10.085 10.085 0 006.1 1.94c2.25.13 4.56.06 6.67.81a9.8 9.8 0 014.85 4 13.641 13.641 0 012 5.32 18.234 18.234 0 010 4.95 33.888 33.888 0 01-1.78 6.9c-.28.79-.51 1.4-.68 1.81a3 3 0 01-.27.62z" fill="#455a64"/><path id="Pfad_28374" data-name="Pfad 28374" d="M134.49 173.915a17.988 17.988 0 002.47-4 13.724 13.724 0 001.05-4.86 12.6 12.6 0 00-1.31-6c-.49-1-1.05-1.93-1.49-2.91a11.334 11.334 0 01-.87-3 16.664 16.664 0 00-1.1-4.94 4.791 4.791 0 00-2.31-2.34 5.72 5.72 0 00-1.21-.29 1.678 1.678 0 00.33-.05 2.762 2.762 0 011 .15 4.807 4.807 0 012.57 2.36 16.4 16.4 0 011.25 5 10.49 10.49 0 00.86 2.84c.43.94 1 1.87 1.49 2.89a12.729 12.729 0 011.32 6.21 13.645 13.645 0 01-1.19 5.05 11.575 11.575 0 01-1.94 3.03 6.051 6.051 0 01-.66.67c-.16.13-.25.2-.26.19z" fill="#455a64"/><path id="Pfad_28375" data-name="Pfad 28375" d="M126.78 198.775a13.252 13.252 0 01-2.53 1.11 28.737 28.737 0 01-6.46 1.73 14.375 14.375 0 01-6.67-.65 9.322 9.322 0 01-1.84-.89c-.4-.27-.6-.45-.58-.47a16.888 16.888 0 002.53 1 15.742 15.742 0 006.49.47 35.735 35.735 0 006.41-1.55 15.332 15.332 0 012.65-.75z" fill="#fafafa"/><path id="Pfad_28376" data-name="Pfad 28376" d="M148.66 205.795a11.14 11.14 0 00-8.47-8 27 27 0 00-8.67-.56 31.626 31.626 0 01-3.64.21 3.934 3.934 0 011-.21c.62-.11 1.53-.24 2.65-.36a24.284 24.284 0 018.84.42 12.29 12.29 0 017.17 5.06 7.843 7.843 0 011 2.49 2.8 2.8 0 01.12.95z" fill="#fafafa"/><path id="Pfad_28377" data-name="Pfad 28377" d="M137.45 228.715c-.1 0-.43-1.22-1.36-3.05a19.877 19.877 0 00-1.9-3.05 22.563 22.563 0 00-3-3.21 23.523 23.523 0 00-3.6-2.51 21.133 21.133 0 00-3.28-1.46c-1.95-.65-3.23-.81-3.21-.91a3.567 3.567 0 01.9 0 9.075 9.075 0 011.05.17 11.968 11.968 0 011.37.34 17.985 17.985 0 013.4 1.39 19.685 19.685 0 016.75 5.86 18.536 18.536 0 011.85 3.17 12.306 12.306 0 01.52 1.31 6.36 6.36 0 01.32 1 3.215 3.215 0 01.19.95z" fill="#fafafa"/><path id="Pfad_28378" data-name="Pfad 28378" d="M121.56 250.785c-.09 0 .34-1.53.66-4a32.875 32.875 0 00.27-4.39 35.937 35.937 0 00-.48-5.34 32.722 32.722 0 00-3.06-9.25c-1.14-2.24-2.05-3.51-2-3.57a5.072 5.072 0 01.7.86 21.055 21.055 0 011.59 2.54 28.419 28.419 0 011.85 4 33.7 33.7 0 011.41 5.28 33.267 33.267 0 01.44 5.45 29.094 29.094 0 01-.38 4.44 21.885 21.885 0 01-.66 2.93 3.922 3.922 0 01-.34 1.05z" fill="#fafafa"/><path id="Pfad_28379" data-name="Pfad 28379" d="M99.01 227.775c0-.09 1.07-.16 2.74-.58a19 19 0 0010.86-7.46c1-1.41 1.44-2.39 1.52-2.35s-.05.27-.24.72a11.9 11.9 0 01-1 1.84 17.355 17.355 0 01-11.07 7.61 11.533 11.533 0 01-2.07.25 2.55 2.55 0 01-.74-.03z" fill="#fafafa"/><path id="Pfad_28380" data-name="Pfad 28380" d="M110.26 205.235a3.444 3.444 0 01-.48.57 10.766 10.766 0 01-1.62 1.23 15.2 15.2 0 01-6.34 2.06 30.179 30.179 0 01-6.67-.13 12.981 12.981 0 01-2.71-.47 16.734 16.734 0 012.75.1 37.738 37.738 0 006.57 0 16.772 16.772 0 006.22-1.86c1.47-.82 2.22-1.57 2.28-1.5z" fill="#fafafa"/><path id="Pfad_28381" data-name="Pfad 28381" d="M134.57 185.055a4.087 4.087 0 01-1 .51c-.65.3-1.59.71-2.77 1.17a30.616 30.616 0 01-9.64 2.3 15.809 15.809 0 01-9.54-2.49 10.746 10.746 0 01-2.23-2 3.6 3.6 0 01-.62-.92 17.489 17.489 0 003.06 2.65 16.227 16.227 0 009.31 2.28 34.177 34.177 0 009.54-2.12l2.81-1a5.23 5.23 0 011.08-.38z" fill="#fafafa"/><path id="Pfad_28382" data-name="Pfad 28382" d="M92.2 228.4c-.09 0-.37-1.21-1.06-3.11a31.962 31.962 0 00-3.58-7 31.617 31.617 0 00-5.22-5.87c-1.52-1.33-2.56-2-2.51-2.11a2.814 2.814 0 01.78.42 18.423 18.423 0 012 1.41 27.422 27.422 0 018.91 13 20.907 20.907 0 01.6 2.35 3.352 3.352 0 01.08.91z" fill="#fafafa"/><path id="Pfad_28383" data-name="Pfad 28383" d="M76.41 239.845a28.874 28.874 0 01.13-3.48c.11-2.15.2-5.11.09-8.39s-.39-6.22-.64-8.36a34.308 34.308 0 01-.37-3.46 2.829 2.829 0 01.26.9c.14.59.3 1.45.48 2.51a69.545 69.545 0 01.79 8.4 66.48 66.48 0 01-.24 8.42c-.1 1.08-.21 1.95-.3 2.54a3.857 3.857 0 01-.2.92z" fill="#fafafa"/><path id="Pfad_28384" data-name="Pfad 28384" d="M73.7 212.4a9.263 9.263 0 01-1.82 1.9 23.427 23.427 0 01-5.32 3.47 24.03 24.03 0 01-6 1.93 9.048 9.048 0 01-2.62.21 39.255 39.255 0 008.44-2.61 39.421 39.421 0 007.32-4.9z" fill="#fafafa"/><path id="Pfad_28385" data-name="Pfad 28385" d="M71.48 199.925a7.015 7.015 0 01-2 1.24 17.776 17.776 0 01-11 1.41 6.633 6.633 0 01-2.22-.71 27.364 27.364 0 007.78.38 27.47 27.47 0 007.44-2.32z" fill="#fafafa"/><path id="Pfad_28386" data-name="Pfad 28386" d="M68.12 183.6a5.986 5.986 0 01-1.81 1 17.541 17.541 0 01-4.82 1.19 17.87 17.87 0 01-5-.2 6.567 6.567 0 01-2-.59 34.941 34.941 0 006.88.27 34.028 34.028 0 006.75-1.67z" fill="#fafafa"/><path id="Pfad_28387" data-name="Pfad 28387" d="M145.06 245.575s-.67 0-1.86.08a21.075 21.075 0 00-4.92 1 47.128 47.128 0 00-6.87 3 64.608 64.608 0 01-8.44 3.78 24.476 24.476 0 01-9.18 1.14 25.2 25.2 0 01-7.38-1.62 21.553 21.553 0 01-4.52-2.34c-.51-.32-.87-.63-1.12-.81a1.889 1.889 0 01-.36-.32 33.182 33.182 0 006.13 3.13 25.925 25.925 0 007.28 1.48 24.1 24.1 0 009-1.16 66.749 66.749 0 008.38-3.71 43.992 43.992 0 017-2.88 18.989 18.989 0 015-.84 9.081 9.081 0 011.38 0 1.421 1.421 0 01.48.07z" fill="#fafafa"/><path id="Pfad_28388" data-name="Pfad 28388" d="M145.78 231.435a17.657 17.657 0 01-5.16 1.62 17.367 17.367 0 01-5.38.46c0-.15 2.38-.4 5.28-1a49.6 49.6 0 015.26-1.08z" fill="#fafafa"/><path id="Pfad_28389" data-name="Pfad 28389" d="M147.5 257.265a2.189 2.189 0 01-.49.21l-1.42.5c-1.24.43-3.06 1-5.32 1.6a120.569 120.569 0 01-36.26 4.16c-2.34-.09-4.23-.22-5.54-.36l-1.5-.16a1.876 1.876 0 01-.52-.09 2.042 2.042 0 01.53 0l1.51.06c1.3.08 3.19.15 5.53.19a138.086 138.086 0 0018.23-.85 140.152 140.152 0 0017.94-3.29c2.26-.58 4.09-1.08 5.35-1.44l1.45-.41a3.427 3.427 0 01.51-.12z" fill="#fafafa"/><g id="Gruppe_1291" data-name="Gruppe 1291" opacity=".3"><path id="Pfad_28390" data-name="Pfad 28390" d="M119.3 251.745a23.55 23.55 0 008.55 1.77 12.5 12.5 0 008.11-2.84c2.68-2.37 3.88-6 4.84-9.4a101.371 101.371 0 002.89-23.32s-5.81 12-7.89 15.69c-1.85 3.25-3.75 6.57-6 11.3-1.8 3.83-6.11 6.45-10.51 6.8"/></g><g id="Gruppe_1292" data-name="Gruppe 1292" opacity=".3"><path id="Pfad_28391" data-name="Pfad 28391" d="M90.36 201.315a34.793 34.793 0 00.25 28.5l6.4-5.76z"/></g></g><path id="Pfad_28392" data-name="Pfad 28392" d="M157.879 23.121l-31.593 6.7a1.958 1.958 0 00-1.555 2.291v.009l4.01 18.9.019.091.34 1.588a2.021 2.021 0 002.368 1.54l11.554-2.452 1.231 5.8-3.541.752a.885.885 0 10.335 1.738l.033-.007 16.021-3.4a.885.885 0 00-.367-1.731l-4 .848-1.231-5.8 11.554-2.451a2.022 2.022 0 001.538-2.37l-.337-1.591-.02-.09-4.01-18.9a1.958 1.958 0 00-2.348-1.468z" fill="#fff" opacity=".75" style="isolation:isolate"/><g id="freepik--Device--inject-2"><path id="Pfad_28393" data-name="Pfad 28393" d="M313.65 418.885l-131.53-.08a28.66 28.66 0 01-28.64-28.66l.07-329.75a28.65 28.65 0 0128.65-28.65h.01l131.54.08a28.65 28.65 0 0128.63 28.66l-.06 329.75a28.661 28.661 0 01-28.67 28.65z" fill="#263238"/><path id="Pfad_28394" data-name="Pfad 28394" d="M313.61 43.485h-25.5a6.339 6.339 0 00-6.2 6.47v4.62a6.33 6.33 0 01-6.187 6.47l-49.713.01a6.34 6.34 0 01-6.19-6.47V49.9a6.34 6.34 0 00-6.19-6.48h-31.32a20.07 20.07 0 00-20.08 20.06v.01l-.06 321.86a20.06 20.06 0 0020.05 20.07l131.27.08a20.08 20.08 0 0020.08-20.06l.06-321.87a20.06 20.06 0 00-20.02-20.085z" fill="#fff"/><path id="Pfad_28395" data-name="Pfad 28395" d="M317.49 75.985c0 .09-3.32.19-7.41.22s-7.41 0-7.41-.1 3.32-.18 7.41-.21 7.41.005 7.41.09z" fill="#263238"/><path id="Pfad_28396" data-name="Pfad 28396" d="M317.52 79.775c0 .09-3.32.19-7.41.22s-7.41 0-7.41-.09 3.32-.19 7.41-.22 7.41.01 7.41.09z" fill="#263238"/><path id="Pfad_28397" data-name="Pfad 28397" d="M317.55 83.565c0 .09-3.32.19-7.41.22s-7.41 0-7.41-.09 3.32-.19 7.41-.22 7.41.01 7.41.09z" fill="#263238"/><path id="Pfad_28398" data-name="Pfad 28398" d="M182.74 87.895h1.16l3.16-.07-.08.08v-3.61a1.22 1.22 0 011.07-1h1.51a1.22 1.22 0 011 1.22v3.34l-.14-.14h4l-.16.15V81.6a1.3 1.3 0 00-.56-1l-1.75-1.72-1.68-1.66-.81-.8c-.29-.27-.51-.55-.83-.62a1.08 1.08 0 00-.92.18c-.24.2-.5.49-.74.73l-1.43 1.44c-.9.94-1.84 1.79-2.52 2.6a2.786 2.786 0 00-.2 1.49v5.64a2.747 2.747 0 010-.48v-5.93a1.657 1.657 0 01.22-.83c.74-.91 1.62-1.71 2.52-2.67l1.43-1.46c.25-.25.46-.5.77-.76a1.369 1.369 0 011.15-.23 2.15 2.15 0 011 .69l.82.8 1.69 1.65 1.75 1.72a3.337 3.337 0 01.44.48 1.358 1.358 0 01.21.68v6.43h-4.3v-3.49a1 1 0 00-.8-1h-1.45a1 1 0 00-.86.77v3.66h-4.4a1.166 1.166 0 01-.27-.015z" fill="#263238"/><rect id="Rechteck_712" data-name="Rechteck 712" width="139.93" height="25.45" rx="10.73" transform="translate(176.78 107.925)" fill="#f5f5f5"/><path id="Pfad_28399" data-name="Pfad 28399" d="M306.01 133.385l.8-.07a11.428 11.428 0 002.31-.45 10.853 10.853 0 003.36-1.77 10.55 10.55 0 003.2-4 10.176 10.176 0 00.84-3 29.3 29.3 0 00.1-3.43 23.6 23.6 0 00-.17-3.73 10.451 10.451 0 00-1.39-3.73 10.6 10.6 0 00-7.06-4.91 29.906 29.906 0 00-4.87-.18h-5.17l-110.41.07a10.509 10.509 0 00-10.44 9.61c-.08 1.26 0 2.6 0 3.9a12.2 12.2 0 00.4 3.78 10.5 10.5 0 004.33 5.93 10.091 10.091 0 003.39 1.45 15.5 15.5 0 003.68.27h71.4l33.47.09h9.09l-9.09.05-33.47.08-49.64.06h-21.83a15.7 15.7 0 01-3.79-.29 10.573 10.573 0 01-3.56-1.51 11.07 11.07 0 01-4.55-6.22 12.7 12.7 0 01-.42-3.92c0-1.31 0-2.59.05-3.95a11 11 0 0110.95-10.08l110.41.08h5.17a28.709 28.709 0 014.93.21 10.89 10.89 0 018.66 8.92 23.17 23.17 0 01.14 3.77 25.948 25.948 0 01-.12 3.46 10.3 10.3 0 01-.88 3 10.565 10.565 0 01-3.28 4.08 11 11 0 01-3.43 1.75 10.318 10.318 0 01-2.34.4z" fill="#263238"/><path id="Pfad_28400" data-name="Pfad 28400" d="M308.14 120.055c-.05 0-.05-.41-.25-1.1a4.5 4.5 0 00-1.69-2.41 4.38 4.38 0 100 7 4.524 4.524 0 001.69-2.42c.2-.69.2-1.1.25-1.1a.8.8 0 010 .3 3.154 3.154 0 01-.08.85 4.519 4.519 0 01-1.66 2.66 4.791 4.791 0 01-4.56.75 4.84 4.84 0 010-9.11 4.79 4.79 0 014.56.74 4.629 4.629 0 011.66 2.66 3.319 3.319 0 01.08.86.751.751 0 010 .32z" fill="#263238"/><path id="Pfad_28401" data-name="Pfad 28401" d="M310.67 128a9.153 9.153 0 01-2.25-2.05 9.388 9.388 0 01-1.88-2.42 9.352 9.352 0 012.26 2.06 9.208 9.208 0 011.87 2.41z" fill="#263238"/><path id="Pfad_28402" data-name="Pfad 28402" d="M195.67 118.105h-2.49v-.64h5.74v.64h-2.5v6.46h-.75z" fill="#e0e0e0"/><path id="Pfad_28403" data-name="Pfad 28403" d="M204.01 122.115h-4.46a2 2 0 002.1 1.86 2.079 2.079 0 001.63-.7l.41.47a2.82 2.82 0 01-4.86-1.85 2.572 2.572 0 012.426-2.707h.184a2.539 2.539 0 012.585 2.492v.216c.035.059-.015.159-.015.219zm-4.46-.54h3.78a1.89 1.89 0 10-3.78 0z" fill="#e0e0e0"/><path id="Pfad_28404" data-name="Pfad 28404" d="M208.78 124.565l-1.69-2.23-1.71 2.23h-.81l2.11-2.74-2-2.6h.81l1.61 2.09 1.6-2.09h.79l-2 2.6 2.13 2.74z" fill="#e0e0e0"/><path id="Pfad_28405" data-name="Pfad 28405" d="M213.61 124.235a1.676 1.676 0 01-1.13.38 1.41 1.41 0 01-1.559-1.243 1.432 1.432 0 010-.307v-3.23h-.911v-.61h.95v-1.17h.72v1.17h1.63v.61h-1.63v3.22a.861.861 0 00.7.992.9.9 0 00.226.008 1.218 1.218 0 00.79-.27z" fill="#e0e0e0"/><path id="Rechteck_713" data-name="Rechteck 713" transform="translate(182.68 154.325)" fill="#f8b02f" d="M0 0h30.63v30.63H0z"/><path id="Pfad_28406" data-name="Pfad 28406" d="M272.23 157.625c0 .14-10.24.26-22.87.26s-22.88-.12-22.88-.26 10.24-.26 22.88-.26 22.87.11 22.87.26z" fill="#f8b02f"/><path id="Pfad_28407" data-name="Pfad 28407" d="M308.71 167.055c0 .15-18.41.26-41.11.26s-41.12-.11-41.12-.26 18.41-.26 41.12-.26 41.11.07 41.11.26z" fill="#263238"/><path id="Pfad_28408" data-name="Pfad 28408" d="M307.74 173.715c0 .14-18.19.26-40.63.26s-40.63-.12-40.63-.26 18.19-.26 40.63-.26 40.63.12 40.63.26z" fill="#263238"/><path id="Pfad_28409" data-name="Pfad 28409" d="M274.46 180.115c0 .14-10.74.26-24 .26s-24-.12-24-.26 10.74-.26 24-.26 24 .11 24 .26z" fill="#263238"/><path id="Rechteck_714" data-name="Rechteck 714" transform="translate(182.68 205.355)" fill="#f8b02f" d="M0 0h30.63v30.63H0z"/><path id="Pfad_28410" data-name="Pfad 28410" d="M272.23 208.645c0 .15-10.24.26-22.87.26s-22.88-.11-22.88-.26 10.24-.26 22.88-.26 22.87.12 22.87.26z" fill="#f8b02f"/><path id="Pfad_28411" data-name="Pfad 28411" d="M308.71 218.055c0 .15-18.41.26-41.11.26s-41.12-.11-41.12-.26 18.41-.26 41.12-.26 41.11.105 41.11.26z" fill="#263238"/><path id="Pfad_28412" data-name="Pfad 28412" d="M307.74 224.745c0 .14-18.19.26-40.63.26s-40.63-.12-40.63-.26 18.19-.26 40.63-.26 40.63.115 40.63.26z" fill="#263238"/><path id="Pfad_28413" data-name="Pfad 28413" d="M274.46 231.135c0 .15-10.74.26-24 .26s-24-.11-24-.26 10.74-.26 24-.26 24 .12 24 .26z" fill="#263238"/><path id="Rechteck_715" data-name="Rechteck 715" transform="translate(182.68 256.385)" fill="#f8b02f" d="M0 0h30.63v30.63H0z"/><path id="Pfad_28414" data-name="Pfad 28414" d="M272.23 259.675c0 .15-10.24.26-22.87.26s-22.88-.11-22.88-.26 10.24-.26 22.88-.26 22.87.12 22.87.26z" fill="#f8b02f"/><path id="Pfad_28415" data-name="Pfad 28415" d="M308.71 269.055c0 .14-18.41.26-41.11.26s-41.12-.12-41.12-.26 18.41-.26 41.12-.26 41.11.13 41.11.26z" fill="#263238"/><path id="Pfad_28416" data-name="Pfad 28416" d="M307.74 275.775c0 .14-18.19.26-40.63.26s-40.63-.12-40.63-.26 18.19-.27 40.63-.27 40.63.12 40.63.27z" fill="#263238"/><path id="Pfad_28417" data-name="Pfad 28417" d="M274.46 282.165c0 .15-10.74.26-24 .26s-24-.11-24-.26 10.74-.26 24-.26 24 .15 24 .26z" fill="#263238"/><path id="Rechteck_716" data-name="Rechteck 716" transform="translate(182.68 307.405)" fill="#f8b02f" d="M0 0h30.63v30.63H0z"/><path id="Pfad_28418" data-name="Pfad 28418" d="M272.23 310.7c0 .14-10.24.26-22.87.26s-22.88-.12-22.88-.26 10.24-.26 22.88-.26 22.87.125 22.87.26z" fill="#455a64"/><path id="Pfad_28419" data-name="Pfad 28419" d="M308.71 320.055c0 .14-18.41.26-41.11.26s-41.12-.12-41.12-.26 18.41-.26 41.12-.26 41.11.15 41.11.26z" fill="#263238"/><path id="Pfad_28420" data-name="Pfad 28420" d="M307.74 326.8c0 .15-18.19.26-40.63.26s-40.63-.11-40.63-.26 18.19-.26 40.63-.26 40.63.115 40.63.26z" fill="#263238"/><path id="Pfad_28421" data-name="Pfad 28421" d="M274.46 333.2c0 .14-10.74.26-24 .26s-24-.12-24-.26 10.74-.26 24-.26 24 .115 24 .26z" fill="#263238"/><path id="Rechteck_717" data-name="Rechteck 717" transform="translate(182.68 358.435)" fill="#e0e0e0" d="M0 0h30.63v30.63H0z"/><path id="Pfad_28422" data-name="Pfad 28422" d="M272.23 361.735c0 .14-10.24.26-22.87.26s-22.88-.12-22.88-.26 10.24-.26 22.88-.26 22.87.11 22.87.26z" fill="#e0e0e0"/><path id="Pfad_28423" data-name="Pfad 28423" d="M308.71 371.125c0 .14-18.41.26-41.11.26s-41.12-.12-41.12-.26 18.41-.26 41.12-.26 41.11.11 41.11.26z" fill="#ebebeb"/><path id="Pfad_28424" data-name="Pfad 28424" d="M307.74 377.825c0 .14-18.19.26-40.63.26s-40.63-.12-40.63-.26 18.19-.26 40.63-.26 40.63.12 40.63.26z" fill="#ebebeb"/><path id="Pfad_28425" data-name="Pfad 28425" d="M274.46 384.225c0 .14-10.74.26-24 .26s-24-.12-24-.26 10.74-.26 24-.26 24 .09 24 .26z" fill="#ebebeb"/><g id="Gruppe_1293" data-name="Gruppe 1293" opacity=".3"><path id="Rechteck_718" data-name="Rechteck 718" transform="translate(182.68 307.405)" d="M0 0h30.63v30.63H0z"/></g><g id="Gruppe_1294" data-name="Gruppe 1294" opacity=".3"><path id="Rechteck_719" data-name="Rechteck 719" transform="translate(182.68 205.355)" d="M0 0h30.63v30.63H0z"/></g></g><g id="Gruppe_1295" data-name="Gruppe 1295"><path id="Pfad_28426" data-name="Pfad 28426" d="M130.962 344.9l-48.577-.008-2.036-7.01a3.159 3.159 0 00-2.2-2.155l-7.126-1.927a3.139 3.139 0 10-1.639 6.061l5.423 1.467 11.009 39.708a4.642 4.642 0 106.7 4.161v-.181h22.411v.181a4.643 4.643 0 105.207-4.606c-5.571-.9-28.3-2-28.3-2l-.747-2.922h28.365a3.275 3.275 0 003.136-2.37l6.13-21.594h2.252a3.4 3.4 0 100-6.806zm-36.128 23.54h-5.317a.377.377 0 01-.456-.312c-.124-.434-.3-1.031-.3-1.031l-4.167-14.679a.237.237 0 01.039-.209.243.243 0 01.191-.1h6.462a.239.239 0 01.233.187l3.524 15.781.013.049a.268.268 0 01.01.069.24.24 0 01-.232.245zM108.4 352.4l-2.872 15.85a.236.236 0 01-.232.186h-4.011a.237.237 0 01-.233-.186L98.18 352.4a.233.233 0 01.047-.2.237.237 0 01.186-.09h9.754a.239.239 0 01.239.237.248.248 0 01-.006.054zm13.586.013l-4.5 15.848a.241.241 0 01-.23.174h-5.5a.239.239 0 01-.239-.239.224.224 0 01.006-.052l3.539-15.848a.24.24 0 01.233-.187h6.462a.24.24 0 01.238.242.279.279 0 01-.008.058z" fill="#fff"/></g><g id="Gruppe_1296" data-name="Gruppe 1296" opacity=".75"><path id="Pfad_28427" data-name="Pfad 28427" d="M372.836 277.723l-13.658-4.09a2.466 2.466 0 00-3.069 1.656l-8.3 27.735a2.466 2.466 0 001.655 3.07l13.659 4.089a2.467 2.467 0 003.069-1.655l8.3-27.735a2.468 2.468 0 00-1.656-3.07zm-10.527-1.96l6.743 2.019a.314.314 0 11-.137.613.3.3 0 01-.043-.013l-6.743-2.019a.314.314 0 01.137-.613.3.3 0 01.043.013zm-5.625 31.058a1.2 1.2 0 111.49-.813v.013a1.2 1.2 0 01-1.486.8zm8.456-1.237l-14.84-4.444 7.487-25.008 14.843 4.444z" fill="#fff"/></g><g id="Gruppe_1297" data-name="Gruppe 1297"><path id="Pfad_28428" data-name="Pfad 28428" d="M382.779 204.692l-1.9-6.147a18.547 18.547 0 01-10.137.2l.2-4.528a16.967 16.967 0 009.571-.09c4.32-1.334 6.471-4.732 5.4-8.2-1.034-3.347-4.047-4.682-9.113-5.117-6.959-.517-11.658-2.132-13.293-7.427-1.56-5.05.847-9.992 6.163-12.634l-1.9-6.146 3.774-1.165 1.823 5.9a16.978 16.978 0 018.568-.314l-.28 4.486a15.413 15.413 0 00-8.308.3c-4.684 1.447-5.584 4.791-4.833 7.225.977 3.164 3.718 4.051 9.689 4.606 7.057.62 11.2 2.808 12.871 8.224 1.484 4.807-.471 10.343-6.42 13.314l1.954 6.328z" fill="#fff"/></g><g id="freepik--Plant--inject-2"><path id="Pfad_28429" data-name="Pfad 28429" d="M351.045 399.365c.68-2.69-1.1-5.37-3.08-7.31s-4.35-3.66-5.4-6.23c-1.68-4.16.52-9.58-2.33-13-1.69-2-4.68-2.71-6.18-4.88a11.3 11.3 0 01-1.35-3.91 39.643 39.643 0 00-10-18.41 34.474 34.474 0 004 17.78c1.16 2.18 2.58 4.31 3 6.75.64 4-1.55 8.05-.56 11.94 1.14 4.45 6.16 7.4 6.42 12 .23 3.87-3.13 7.29-2.86 11.17a10.512 10.512 0 001.75 4.58c3 5 7.45 8.37 14.12 8.22l8.17.24z" fill="#f8b02f"/><g id="Gruppe_1298" data-name="Gruppe 1298" opacity=".3"><path id="Pfad_28430" data-name="Pfad 28430" d="M351.045 399.365c.68-2.69-1.1-5.37-3.08-7.31s-4.35-3.66-5.4-6.23c-1.68-4.16.52-9.58-2.33-13-1.69-2-4.68-2.71-6.18-4.88a11.3 11.3 0 01-1.35-3.91 39.643 39.643 0 00-10-18.41 34.474 34.474 0 004 17.78c1.16 2.18 2.58 4.31 3 6.75.64 4-1.55 8.05-.56 11.94 1.14 4.45 6.16 7.4 6.42 12 .23 3.87-3.13 7.29-2.86 11.17a10.512 10.512 0 001.75 4.58c3 5 7.45 8.37 14.12 8.22l8.17.24z"/></g><path id="Pfad_28431" data-name="Pfad 28431" d="M358.375 418.445h.58a10.877 10.877 0 001.66-.17 13.9 13.9 0 002.61-.73 10.932 10.932 0 003.19-1.82 4.337 4.337 0 001.26-1.67 8.45 8.45 0 00.34-2.37 23.068 23.068 0 01.15-2.68 7.6 7.6 0 011-2.74c1-1.74 2.52-3.34 3-5.54a18.765 18.765 0 00-.31-7c-.41-2.44-.81-5.2.13-7.87s2.66-5 3.49-7.75.41-5.88.57-9a12.466 12.466 0 011.07-4.71c.67-1.49 1.58-2.87 2.26-4.35 1.38-3 1.62-6.42 2-9.85.18-1.73.36-3.47.55-5.23a26 26 0 01.89-5.32 45.414 45.414 0 011.94-5.12 17.587 17.587 0 00.9-2.55 26.532 26.532 0 00.24-2.73 33.446 33.446 0 00-.25-5.57c-.23-1.86-.58-3.73-.8-5.64v-.33l.38.2a12.143 12.143 0 00-4.2 3.59 19.3 19.3 0 00-2.6 4.86c-1.32 3.45-1.8 7.09-2.47 10.63a29.544 29.544 0 01-3.48 9.95c-.91 1.5-2 2.83-2.92 4.23a11.077 11.077 0 00-1.93 4.47c-.47 3.22 1.43 6.26 1.06 9.52a10.987 10.987 0 01-1.54 4.42c-.75 1.34-1.63 2.56-2.45 3.78a22.732 22.732 0 00-2.14 3.7 11.62 11.62 0 00-1 4c-.19 2.69.2 5.31 0 7.83a18.2 18.2 0 01-2 6.85c-1 2-2.1 3.84-3 5.59-.46.88-.89 1.74-1.23 2.58a12.764 12.764 0 00-.71 2.53 16.228 16.228 0 00-.08 4.59 11.929 11.929 0 002.25 5.9 10.736 10.736 0 001.59 1.55s-.16-.1-.46-.32a3.326 3.326 0 01-.54-.45 5.84 5.84 0 01-.67-.71 11.819 11.819 0 01-2.37-5.94 16.608 16.608 0 010-4.66 12.9 12.9 0 01.71-2.59 26.428 26.428 0 011.22-2.61c.91-1.77 2-3.59 3-5.61a17.989 17.989 0 002-6.73c.18-2.46-.22-5.08 0-7.83a11.89 11.89 0 011-4.1 24.824 24.824 0 012.18-3.79c.82-1.22 1.68-2.43 2.42-3.74a10.694 10.694 0 001.46-4.25c.38-3.07-1.54-6.09-1.08-9.55a11.7 11.7 0 012-4.67c.94-1.42 2-2.76 2.91-4.22a29.078 29.078 0 003.3-9.9c.67-3.51 1.14-7.2 2.48-10.71a19.805 19.805 0 012.68-5 12.5 12.5 0 014.37-3.73l.33-.17.05.37v.33c.21 1.88.56 3.75.79 5.64a32.334 32.334 0 01.25 5.65 27 27 0 01-.24 2.81 16.828 16.828 0 01-.94 2.65 45.548 45.548 0 00-1.92 5.07 24.988 24.988 0 00-.88 5.23c-.19 1.76-.37 3.5-.56 5.22-.38 3.42-.61 6.91-2 10-.71 1.53-1.62 2.89-2.27 4.34a12.011 12.011 0 00-1 4.55c-.17 3.09.26 6.21-.62 9.13s-2.65 5.2-3.52 7.76a15.746 15.746 0 00-.14 7.68c.4 2.45.81 4.9.26 7.16s-2.09 3.91-3.05 5.61a7.281 7.281 0 00-1 2.63 24.441 24.441 0 00-.18 2.65 8.113 8.113 0 01-.37 2.44 4.487 4.487 0 01-1.34 1.8 11.134 11.134 0 01-3.26 1.82 13.719 13.719 0 01-2.66.68 6.437 6.437 0 01-2.34.03z" fill="#263238"/><path id="Pfad_28432" data-name="Pfad 28432" d="M383.655 322.055a1.608 1.608 0 010 .26 5.469 5.469 0 01-.12.74c-.13.66-.28 1.62-.56 2.87s-1 2.64-1.59 4.33-1.25 3.62-1.83 5.8-1.1 4.59-1.64 7.19a30.685 30.685 0 01-2.56 8.12c-.67 1.34-1.4 2.69-2 4.12a19.053 19.053 0 00-1.11 4.58 90.878 90.878 0 01-1.7 9.94c-1.62 6.71-3.15 13.09-4.56 18.91s-2.78 11-3.89 15.39l-2.62 10.36-.75 2.81c-.08.3-.15.54-.21.73s-.08.25-.09.24a1.493 1.493 0 010-.25 6.023 6.023 0 01.16-.74l.66-2.84 2.5-10.4c1.08-4.41 2.37-9.63 3.79-15.43s2.91-12.2 4.51-18.9a95.345 95.345 0 001.71-9.9 18.953 18.953 0 011.15-4.69c.59-1.48 1.33-2.82 2-4.15a30.707 30.707 0 002.57-8c.56-2.59 1.1-5 1.71-7.2q.81-2.951 1.91-5.81c.62-1.69 1.35-3.06 1.67-4.27s.49-2.19.64-2.84l.18-.73a.781.781 0 01.07-.24z" fill="#263238"/><path id="Pfad_28433" data-name="Pfad 28433" d="M359.825 418.465c5.32-3.2 6.79-12.84 4.53-18.62s-6.18-11.06-6.82-17.23c-.49-4.75 1-9.64-.09-14.27-1.53-6.26-7.68-11.08-7.64-17.52 0-3.61 2.05-7 1.87-10.64-.23-4.42-3.64-7.92-5.77-11.81-3.26-5.95-3.51-13-4.65-19.7s-3.73-13.84-9.68-17.1c-.85 5.69-2.32 9.59-1.81 17.29.19 2.77 3.43 8 3.9 14.1.28 3.62.48 7.25.73 10.87s.48 7.12 1.76 10.41c1 2.53 2.56 4.81 3.29 7.42 1.38 4.91-.37 10.24.75 15.21.95 4.21 3.89 7.82 4.51 12.09.88 6-3 12.27-1 18 1 2.84 3.35 5.11 4 8 .53 2.27 0 4.69.46 7 .77 3.68 7.82 6.5 11.58 6.25" fill="#f8b02f"/><path id="Pfad_28434" data-name="Pfad 28434" d="M333.075 297.215a1.749 1.749 0 01.08.31 6.671 6.671 0 00.17.92c.16.81.34 2 .66 3.56s1.17 3.27 1.86 5.4 1.44 4.56 2.08 7.31 1.2 5.77 1.77 9a37.541 37.541 0 002.78 10.1c.75 1.69 1.62 3.4 2.28 5.25a24 24 0 011.19 5.88 120.519 120.519 0 001.64 12.38c1.67 8.41 3.26 16.42 4.7 23.71s2.84 13.83 4 19.34 2 9.94 2.63 13.05c.3 1.52.53 2.71.69 3.56.07.38.13.69.17.92a1.9 1.9 0 010 .32 1.331 1.331 0 01-.09-.31c-.06-.23-.13-.53-.22-.91-.19-.84-.45-2-.79-3.54-.66-3.1-1.62-7.54-2.79-13s-2.55-12-4.09-19.32-3.06-15.31-4.74-23.72a113.7 113.7 0 01-1.58-12.43 23.992 23.992 0 00-1.16-5.76c-.64-1.82-1.49-3.52-2.25-5.22a38.111 38.111 0 01-2.8-10.2c-.55-3.26-1.08-6.29-1.7-9s-1.31-5.18-2-7.3a57.291 57.291 0 01-1.78-5.45c-.31-1.57-.43-2.76-.56-3.58-.05-.39-.09-.69-.13-.93a1.543 1.543 0 01-.02-.34z" fill="#263238"/></g></g></svg>