<svg xmlns="http://www.w3.org/2000/svg" width="24" height="24" viewBox="0 0 24 24">
  <g fill="none" fill-rule="evenodd">
    <polygon fill="#FFFFFE" points=".004 24 24.004 24 24.004 0 .004 0"/>
    <path fill="#006FAC" d="M12.0488627,8.69427451 L10.2256471,8.69427451 L11.1372549,6.49701961 L12.0488627,8.69427451 Z M13.2481569,11.5440784 L15.3110588,11.5440784 L12.3463529,4.82752941 L9.98588235,4.82752941 L7.02094118,11.5440784 L9.03592157,11.5440784 L9.59247059,10.2007843 L12.6819608,10.2007843 L13.2481569,11.5440784 Z M22.1906667,11.5440784 L24.0042353,11.5440784 L24.0042353,4.82752941 L21.1832157,4.82752941 L19.6767059,9.01082353 L18.1799216,4.82752941 L15.3110588,4.82752941 L15.3110588,11.5440784 L17.1244706,11.5440784 L17.1244706,6.8425098 L18.8516078,11.5440784 L20.4635294,11.5440784 L22.1906667,6.83278431 L22.1906667,11.5440784 Z M11.4257255,17.6809412 L11.4257255,16.6349804 L15.2156078,16.6349804 L15.2156078,15.1189804 L11.4257255,15.1189804 L11.4257255,14.0731765 L15.3116078,14.0731765 L15.3116078,12.5187451 L9.59301961,12.5187451 L9.59301961,19.2352941 L15.3116078,19.2352941 L15.3116078,17.6809412 L11.4257255,17.6809412 Z M22.1597647,15.8607059 L24.0042353,17.8228235 L24.0042353,13.9148235 L22.1597647,15.8607059 Z M21.5964706,19.2352941 L24.0042353,19.2352941 L20.8192157,15.8578824 L24.0042353,12.5187451 L21.6348235,12.5187451 L19.668,14.6680784 L17.72,12.5187451 L15.3116863,12.5187451 L18.4780392,15.8770196 L15.3116863,19.2352941 L17.6529412,19.2352941 L19.6294902,17.0668235 L21.5964706,19.2352941 Z M24.0042353,24 L24.0042353,20.197098 L21.1088627,20.197098 L19.6181176,18.5487843 L18.1198431,20.197098 L8.5734902,20.197098 L8.5734902,12.5148235 L5.49231373,12.5148235 L9.31419608,3.86564706 L13,3.86564706 L14.3156863,6.82870588 L14.3156863,3.86564706 L18.8780392,3.86564706 L19.6702745,6.0985098 L20.4676078,3.86564706 L24.0042353,3.86564706 L24.0042353,0 L0.00423529412,0 L0.00423529412,24 L24.0042353,24 L24.0042353,24 Z"/>
  </g>
</svg>
