<svg width="223" height="41" viewBox="0 0 223 41" fill="none" xmlns="http://www.w3.org/2000/svg">
<path d="M178.751 23.2047V32.6408H175.753V9.30029H183.691C185.717 9.30029 187.438 9.96637 188.853 11.3263C190.296 12.6862 190.99 14.3236 190.99 16.2386C190.99 18.2091 190.268 19.8743 188.853 21.1787C187.465 22.5109 185.745 23.177 183.691 23.177H178.751V23.2047ZM178.751 12.1866V20.3461H183.774C184.968 20.3461 185.967 19.9576 186.744 19.1527C187.549 18.3479 187.937 17.4043 187.937 16.2941C187.937 15.2118 187.549 14.2681 186.744 13.4633C185.967 12.6307 184.968 12.2144 183.774 12.2144H178.751V12.1866Z" fill="#5F6368"/>
<path d="M198.845 16.1553C201.065 16.1553 202.813 16.7381 204.09 17.9315C205.367 19.1249 206.005 20.7346 206.005 22.8161V32.6685H203.146V30.4482H203.008C201.759 32.28 200.121 33.1958 198.067 33.1958C196.319 33.1958 194.848 32.6685 193.655 31.6416C192.461 30.587 191.878 29.2826 191.878 27.7284C191.878 26.091 192.489 24.7588 193.766 23.7874C195.015 22.8161 196.68 22.3165 198.761 22.3165C200.537 22.3165 202.008 22.6496 203.174 23.2879V22.594C203.174 21.5394 202.758 20.6791 201.925 19.9297C201.093 19.2081 200.121 18.8473 199.011 18.8473C197.346 18.8473 196.014 19.5412 195.042 20.9566L192.406 19.2914C193.849 17.2099 196.014 16.1553 198.845 16.1553ZM194.959 27.7562C194.959 28.5333 195.292 29.1993 195.958 29.6989C196.624 30.2262 197.401 30.476 198.289 30.476C199.538 30.476 200.676 30.0042 201.675 29.0883C202.674 28.1447 203.146 27.0623 203.146 25.7857C202.203 25.0363 200.898 24.6755 199.233 24.6755C198.012 24.6755 197.013 24.9808 196.18 25.5636C195.375 26.1742 194.959 26.8958 194.959 27.7562Z" fill="#5F6368"/>
<path d="M222.324 16.6826L212.333 39.6901H209.225L212.944 31.6417L206.366 16.6826H209.613L214.359 28.1447H214.415L219.049 16.6826H222.324Z" fill="#5F6368"/>
<path d="M74.7326 33.1684C67.4612 33.1684 61.3555 27.2569 61.3555 19.9856C61.3555 12.7142 67.4612 6.80273 74.7326 6.80273C78.7568 6.80273 81.6154 8.38467 83.7524 10.4384L81.1991 12.9917C79.6449 11.5486 77.5634 10.4107 74.7048 10.4107C69.4039 10.4107 65.2409 14.6847 65.2409 19.9856C65.2409 25.2864 69.3762 29.5605 74.7048 29.5605C78.1462 29.5605 80.1167 28.1728 81.3656 26.9239C82.3925 25.897 83.0586 24.4261 83.3361 22.4001H74.6216V18.7922H86.833C86.9718 19.4305 87.0273 20.2076 87.0273 21.0402C87.0273 23.7323 86.2779 27.0904 83.9189 29.4772C81.5876 31.8917 78.6458 33.1684 74.7326 33.1684Z" fill="#5F6368"/>
<path d="M105.318 24.6756C105.318 29.5602 101.488 33.1681 96.7976 33.1681C92.1073 33.1681 88.2773 29.5602 88.2773 24.6756C88.2773 19.7633 92.1073 16.1831 96.7976 16.1831C101.488 16.1831 105.318 19.7633 105.318 24.6756ZM101.599 24.6756C101.599 21.6228 99.3787 19.5413 96.8254 19.5413C94.2721 19.5413 92.0518 21.6228 92.0518 24.6756C92.0518 27.7007 94.2721 29.81 96.8254 29.81C99.3787 29.81 101.599 27.7007 101.599 24.6756Z" fill="#5F6368"/>
<path d="M123.856 24.6756C123.856 29.5602 120.026 33.1681 115.336 33.1681C110.645 33.1681 106.815 29.5602 106.815 24.6756C106.815 19.7633 110.645 16.1831 115.336 16.1831C120.026 16.1831 123.856 19.7633 123.856 24.6756ZM120.109 24.6756C120.109 21.6228 117.889 19.5413 115.336 19.5413C112.782 19.5413 110.562 21.6228 110.562 24.6756C110.562 27.7007 112.782 29.81 115.336 29.81C117.889 29.81 120.109 27.7007 120.109 24.6756Z" fill="#5F6368"/>
<path d="M141.561 16.7104V31.947C141.561 38.2192 137.87 40.8003 133.485 40.8003C129.377 40.8003 126.907 38.025 125.963 35.777L129.211 34.417C129.793 35.8047 131.209 37.4422 133.485 37.4422C136.288 37.4422 138.008 35.6937 138.008 32.4466V31.2254H137.87C137.037 32.2523 135.427 33.1681 133.401 33.1681C129.155 33.1681 125.27 29.4769 125.27 24.7034C125.27 19.9021 129.155 16.1831 133.401 16.1831C135.427 16.1831 137.037 17.0712 137.87 18.0703H138.008V16.6827H141.561V16.7104ZM138.286 24.7034C138.286 21.706 136.288 19.5135 133.762 19.5135C131.181 19.5135 129.044 21.706 129.044 24.7034C129.044 27.673 131.209 29.81 133.762 29.81C136.288 29.81 138.286 27.673 138.286 24.7034Z" fill="#5F6368"/>
<path d="M147.973 7.69092V32.6412H144.254V7.69092H147.973Z" fill="#5F6368"/>
<path d="M162.432 27.4788L165.318 29.4215C164.375 30.8092 162.127 33.196 158.241 33.196C153.412 33.196 149.832 29.477 149.832 24.7035C149.832 19.6523 153.468 16.2109 157.825 16.2109C162.238 16.2109 164.375 19.7079 165.096 21.6228L165.485 22.5942L154.134 27.2845C154.994 28.9775 156.354 29.8656 158.241 29.8656C160.129 29.8101 161.461 28.8942 162.432 27.4788ZM153.523 24.4259L161.1 21.262C160.684 20.2074 159.435 19.4581 157.936 19.4581C156.049 19.4581 153.412 21.151 153.523 24.4259Z" fill="#5F6368"/>
<path d="M41.673 8.09313C37.1825 5.50097 31.4404 7.04128 28.8454 11.5318L22.304 22.8634C20.4112 26.1356 22.8479 27.279 25.565 28.9081L31.8594 32.541C33.9909 33.7705 36.7135 33.0406 37.943 30.9119L44.6676 19.2666C46.9267 15.3534 45.5862 10.3523 41.673 8.09313Z" fill="#EA4335"/>
<path d="M34.2713 12.7833L27.9769 9.15043C24.5022 7.22158 22.5345 7.09391 21.1079 9.36136L11.8245 25.4389C9.2323 29.9266 10.7754 35.666 15.2631 38.2526C19.1763 40.5117 24.1775 39.1712 26.4366 35.258L35.8977 18.8696C37.1327 16.7382 36.4028 14.0128 34.2713 12.7833Z" fill="#FBBC04"/>
<path d="M35.4828 4.51847L31.0617 1.96517C26.1716 -0.857346 19.9188 0.816178 17.0963 5.70631L8.67869 20.2851C7.43534 22.436 8.17358 25.1891 10.3245 26.4297L15.2757 29.2883C17.7207 30.701 20.8457 29.8628 22.2584 27.4177L31.8749 10.763C33.8676 7.31323 38.2776 6.13094 41.7273 8.12363L35.4828 4.51847Z" fill="#34A853"/>
<path d="M18.2921 9.87751L13.513 7.12438C11.3815 5.89769 8.65894 6.62482 7.42947 8.75073L1.69564 18.6587C-1.12688 23.5349 0.546647 29.7739 5.43678 32.5881L9.07524 34.6834L13.488 37.2256L15.403 38.3274C12.0032 36.0517 10.9236 31.4918 13.0023 27.9005L14.4871 25.3361L19.924 15.9416C21.1507 13.8213 20.4208 11.1042 18.2921 9.87751Z" fill="#4285F4"/>
</svg>
