<svg xmlns="http://www.w3.org/2000/svg" width="70" height="18"><path fill="#253B80" d="M24.832 3.919h-3.971a.55.55 0 0 0-.545.465L18.71 14.567c-.032.2.124.382.327.382h1.896a.55.55 0 0 0 .545-.467l.433-2.746a.55.55 0 0 1 .544-.466h1.257c2.616 0 4.125-1.267 4.52-3.774.178-1.097.008-1.959-.506-2.563-.564-.663-1.565-1.014-2.894-1.014zm.459 3.719c-.217 1.425-1.306 1.425-2.359 1.425h-.599l.42-2.661a.33.33 0 0 1 .327-.279h.275c.717 0 1.394 0 1.743.409.208.243.272.605.193 1.106zm11.411-.046h-1.901a.332.332 0 0 0-.327.279l-.084.532-.133-.193c-.412-.598-1.33-.797-2.246-.797-2.102 0-3.896 1.592-4.246 3.824-.182 1.114.077 2.179.708 2.921.579.684 1.408.968 2.395.968 1.693 0 2.632-1.089 2.632-1.089l-.084.528a.332.332 0 0 0 .326.384h1.713a.551.551 0 0 0 .545-.467l1.027-6.508a.328.328 0 0 0-.325-.382zm-2.65 3.701c-.184 1.086-1.046 1.815-2.146 1.815-.552 0-.994-.177-1.277-.513-.281-.333-.388-.808-.298-1.336.171-1.077 1.048-1.83 2.131-1.83.54 0 .979.18 1.268.518.29.342.405.821.322 1.346zM46.83 7.592h-1.911a.554.554 0 0 0-.457.242l-2.636 3.883-1.117-3.731a.552.552 0 0 0-.529-.394h-1.878a.33.33 0 0 0-.313.438l2.104 6.177L38.113 17a.33.33 0 0 0 .271.522h1.909a.55.55 0 0 0 .453-.237l6.355-9.173a.33.33 0 0 0-.271-.52z"/><path fill="#179BD7" d="M53.156 3.919h-3.971a.551.551 0 0 0-.545.465l-1.606 10.183c-.032.2.124.382.327.382h2.037a.387.387 0 0 0 .381-.326l.456-2.887a.55.55 0 0 1 .545-.466h1.257c2.615 0 4.125-1.267 4.52-3.774.179-1.097.008-1.959-.507-2.563-.564-.663-1.564-1.014-2.894-1.014zm.459 3.719c-.217 1.425-1.306 1.425-2.359 1.425h-.598l.42-2.661a.33.33 0 0 1 .326-.279h.275c.717 0 1.394 0 1.742.409.21.243.273.605.194 1.106zm11.411-.046h-1.9a.331.331 0 0 0-.327.279l-.084.532-.133-.193c-.412-.598-1.33-.797-2.246-.797-2.102 0-3.895 1.592-4.244 3.824-.182 1.114.076 2.179.707 2.921.581.684 1.408.968 2.396.968 1.692 0 2.632-1.089 2.632-1.089l-.084.528a.33.33 0 0 0 .326.384h1.713a.552.552 0 0 0 .545-.467l1.028-6.508a.332.332 0 0 0-.329-.382zm-2.651 3.701c-.182 1.086-1.045 1.815-2.145 1.815-.551 0-.994-.177-1.277-.513-.281-.333-.387-.808-.299-1.336.173-1.077 1.049-1.83 2.131-1.83.541 0 .979.18 1.269.518.291.342.406.821.321 1.346zm4.893-7.095l-1.629 10.369a.33.33 0 0 0 .326.382h1.639a.551.551 0 0 0 .545-.467L69.756 4.3a.332.332 0 0 0-.326-.383h-1.836a.334.334 0 0 0-.326.281z"/><path fill="#253B80" d="M4.219 16.928l.304-1.929-.676-.016H.617L2.861.75a.19.19 0 0 1 .062-.111.187.187 0 0 1 .12-.044H8.49c1.808 0 3.056.376 3.708 1.119.305.349.5.712.594 1.113.099.42.101.922.004 1.535l-.007.045v.392l.306.173c.257.136.461.292.618.471.261.298.43.677.501 1.125.074.461.05 1.011-.071 1.633-.139.715-.365 1.338-.669 1.848-.28.47-.636.859-1.06 1.161a4.307 4.307 0 0 1-1.427.645 7.122 7.122 0 0 1-1.784.205h-.424a1.28 1.28 0 0 0-1.261 1.077l-.032.174-.537 3.4-.024.125c-.006.039-.018.059-.034.072a.091.091 0 0 1-.056.02H4.219z"/><path fill="#179BD7" d="M13.383 4.452c-.017.104-.035.21-.056.319-.718 3.688-3.176 4.961-6.314 4.961H5.415a.776.776 0 0 0-.767.658l-.818 5.188-.232 1.471a.41.41 0 0 0 .404.473h2.834a.68.68 0 0 0 .673-.574l.028-.145.534-3.386.035-.187a.68.68 0 0 1 .673-.575h.424c2.746 0 4.896-1.114 5.524-4.341.262-1.348.126-2.473-.568-3.265a2.72 2.72 0 0 0-.776-.597z"/><path fill="#222D65" d="M12.631 4.152a5.592 5.592 0 0 0-.699-.155 8.954 8.954 0 0 0-1.408-.103H6.255a.674.674 0 0 0-.672.576l-.908 5.752-.026.168a.776.776 0 0 1 .767-.658h1.598c3.138 0 5.596-1.274 6.314-4.961.021-.109.039-.215.056-.319a3.855 3.855 0 0 0-.591-.249c-.053-.017-.107-.035-.162-.051z"/><path fill="#253B80" d="M5.583 4.47a.676.676 0 0 1 .672-.575h4.269c.505 0 .978.033 1.408.103a6.219 6.219 0 0 1 .699.155l.162.05c.212.07.409.153.59.249.214-1.363-.002-2.291-.739-3.131C11.833.396 10.366 0 8.49 0H3.044a.78.78 0 0 0-.77.658L.006 15.037a.467.467 0 0 0 .461.541H3.83l.844-5.355.909-5.753z"/></svg>