<?xml version="1.0" encoding="utf-8"?>
<!-- Generator: Adobe Illustrator 25.2.1, SVG Export Plug-In . SVG Version: 6.00 Build 0)  -->
<svg version="1.1" id="Layer_1" xmlns="http://www.w3.org/2000/svg" xmlns:xlink="http://www.w3.org/1999/xlink" x="0px" y="0px"
	 viewBox="0 0 100 100" style="enable-background:new 0 0 100 100;" xml:space="preserve">
<style type="text/css">
	.st0{fill:#000;}
</style>
<g>
	<path class="st0" d="M0.1,69.4c0.5-1,1.4-1.2,2.7-1.2h16.1c0.6,0,1.1-0.3,1.5-0.7c2.2-3.3,5.6-5.5,9.5-6.3c5-0.9,10.2,0.8,13.6,4.6
		c0.4,0.4,0.9,0.7,1.5,1c4.1,1.5,8.3,2.9,12.7,4.4c2.9,0.8,5.4,2.8,6.6,5.6c2.9-0.7,5.9-1.7,8.5-2.4c2.5-0.8,5-1.4,7.6-2
		c3.1-0.5,6.1,1.1,7.5,3.9c1.5,2.8,1.2,6.2-1,8.5c-1.1,1.4-2.7,2.4-4.4,2.9c-9.5,3.4-19,6.7-28.2,10.2c-1.7,0.5-3.2,1-4.9,1.5h-3.9
		c-3.4-0.8-6.8-2.1-9.8-3.8c-2.4-1.2-5-2.7-7.6-4.1c-1.5-0.9-3.3-1.4-5-1.5c-0.5,2-0.7,2.4-2.9,2.4h-4.4v0.7c0,2.2-0.7,2.9-2.9,2.9
		H3c-1.1,0.2-2.1-0.3-2.7-1.2C0.1,86.3,0.1,78,0.1,69.4z M22.5,86.3c3.1,0.2,6.2,1.2,8.8,2.9c3.4,1.9,7.1,3.7,10.5,5.4
		c2.1,1.1,4.5,1.4,6.8,1c1.3-0.3,2.6-0.6,3.9-1.1c9.5-3.4,18.7-6.8,28.2-10c1.3-0.4,2.4-1.3,3.2-2.4c1.1-1.7,0.6-4-1.1-5.1
		c-0.5-0.3-1-0.5-1.5-0.5c-0.8,0-1.6,0-2.4,0.3c-4.6,1.2-9.3,2.7-14.1,3.9c-0.5,0.1-1,0.5-1.2,1c-1.1,3.6-4.8,5.8-8.5,4.9
		c-2.1-0.6-4.2-1.3-6.3-2.1c-3.9-1.2-7.6-2.4-11.4-3.7c-1-0.2-1.8-1.1-1.7-2.2c0.2-1.2,1.3-1.9,2.5-1.7c0.1,0,0.1,0,0.2,0
		c3.7,1.2,7.3,2.2,10.7,3.4c2.2,0.7,4.4,1.5,6.6,2c2,0.3,3.9-1,4.2-3c0.1-0.5,0.1-0.9,0-1.4c-0.5-1.8-1.9-3.1-3.7-3.7
		c-4.6-1.7-9.5-3.2-14.1-4.9c-0.7-0.3-1.2-0.7-1.7-1.2c-2.5-3.2-6.6-4.6-10.5-3.9c-3,0.6-5.7,2.4-7.3,5c-0.3,0.5-0.5,1.1-0.5,1.7v11
		C22.3,83.2,22.6,84.7,22.5,86.3L22.5,86.3z M4,72.1v20h7.3v-20L4,72.1z M18.6,88.7V72.1h-3.2v16.6L18.6,88.7z"/>
	<path class="st0" d="M76.3,13.4c0.5-2.3,0.8-2.5,3.3-2.5h4.4V9.6c-0.2-1.1,0.6-2.1,1.7-2.3c0.2,0,0.4,0,0.6,0h11.4
		c1.1-0.2,2.1,0.6,2.3,1.7c0,0.2,0,0.4,0,0.6v24.5c0.2,1.1-0.6,2.1-1.7,2.3c-0.2,0-0.4,0-0.6,0h-17c-0.7,0-1.3,0.3-1.7,0.8
		c-2.3,3.3-5.7,5.5-9.6,6.3c-0.9,0.2-1.8,0.3-2.8,0.2c-0.7,0-1.3,0.3-1.7,0.8L45.9,63.3c-1.5,1.5-2.5,1.5-4,0
		C29.5,51.1,17.4,38.8,5.1,26.6c-1.7-1.7-1.7-2.5,0-4c7.1-6.8,14-14,21-20.8c1.5-1.5,2.3-1.5,3.8,0l5.6,5.6C36,7.9,36.3,7.9,37,7.6
		c3.3-1.3,6.6-2.5,9.9-3.5c3.6-1.1,7.5-0.7,10.9,1c4.3,2,8.6,4.5,12.9,6.8C72.4,12.9,74.3,13.4,76.3,13.4z M39.3,10.9l7.3,7.3
		c0.2,0.2,0.5,0.3,0.8,0.3c2,0.8,4.3,1.3,6.3,2c2,0.8,4.8,1.5,7,2.3c1.3,0.5,1.7,1.5,1.3,2.5c-0.4,1-1.5,1.6-2.5,1.3
		c-0.3,0-0.5-0.2-0.8-0.2L42,21.1c-1.4-0.6-3.1-0.2-4,1c-1,1-1.3,2.5-0.8,3.8c0.6,1.5,1.9,2.6,3.5,3c4.8,1.7,9.9,3.3,14.7,5.1
		c0.7,0.3,1.3,0.7,1.7,1.3c2.7,3.4,7.1,5,11.4,4.1c3.1-0.9,5.7-2.9,7.3-5.6c0.2-0.2,0.3-0.5,0.2-0.8V18.3c0-0.5-0.2-1-0.8-1
		c-2.4-0.3-4.7-1-6.8-2c-4.3-2.3-8.4-4.6-12.7-6.6C53.4,7.5,50.6,7.2,48,8C45.5,8.6,42.4,9.9,39.3,10.9z M46.9,35.4
		c-0.2,0.2-0.2,0.5-0.2,1c-1.9,5.1-7.1,8.1-12.4,7.3c-4.9-0.8-8.7-4.7-9.4-9.6c-0.5-5.6,2-10.4,7-12.1c1.3-0.4,2.4-1.2,3.3-2.3
		c0.7-0.7,1.4-1.3,2.3-1.7c0.6-0.3,1.3-0.6,2-0.8l-4-4.1c-4.3,3-10.1,3-14.4,0c-1.7,1.3-3.3,2.7-4.8,4.3c3,4.4,3,10.3,0,14.7
		l20.3,20.3c4.4-3,10.3-3,14.7,0l4.6-4.6c-1.9-2.7-2.7-6.1-2-9.4c0-0.2-0.1-0.4-0.2-0.5C51.4,37,49.2,36.2,46.9,35.4L46.9,35.4z
		 M95.8,32.4v-21h-7.6v21H95.8z M33,25.8c-3.7,1.5-5.5,5.7-4,9.4c1.1,2.7,3.7,4.5,6.6,4.6c3.2,0.1,6.1-1.8,7.3-4.8
		c0.2-0.8,0-1-0.5-1c-0.8-0.3-1.3-0.5-2-0.8C36.6,32.5,33.7,29.6,33,25.8L33,25.8z M83.9,32.4V15.2h-3.3v17.2H83.9z M13.3,29.1
		c1.8-2.7,1.8-6.2,0-8.9c-1.5,1.5-2.8,3-4.3,4.6l3.8,3.8L13.3,29.1z M48.2,54.9c-2.7-1.5-5.9-1.5-8.6,0l4.3,4.3L48.2,54.9z
		 M28.2,5.6l-4.3,4.3c2.7,1.5,5.9,1.5,8.6,0C31,8.4,29.5,7.1,28.2,5.6z M57.3,41L57.3,41c0.2,1.3,0.6,2.6,1,3.8
		c0.7-0.7,1.5-1.4,2.3-2C59.5,42.1,58.4,41.5,57.3,41z"/>
	<path class="st0" d="M29.3,77c-0.1-1,0.6-1.9,1.6-2c0.1,0,0.2,0,0.3,0c1.1,0,1.9,0.8,2,1.9c0,0,0,0,0,0.1c-0.1,1-0.9,1.9-2,2
		C30.2,79,29.3,78.1,29.3,77C29.3,77,29.3,77,29.3,77z"/>
	<path class="st0" d="M68.8,27.3c0,1.1-0.8,2-1.9,2c-1.1,0-2-0.8-2-1.9s0.8-2,1.9-2c0,0,0,0,0.1,0C67.9,25.5,68.7,26.3,68.8,27.3z"
		/>
</g>
</svg>
