<?xml version="1.0" encoding="utf-8"?>
<!-- Generator: Adobe Illustrator 25.2.1, SVG Export Plug-In . SVG Version: 6.00 Build 0)  -->
<svg version="1.1" id="Layer_1" xmlns="http://www.w3.org/2000/svg" xmlns:xlink="http://www.w3.org/1999/xlink" x="0px" y="0px"
	 viewBox="0 0 100 100" style="enable-background:new 0 0 100 100;" xml:space="preserve">
<style type="text/css">
	.st0{fill:#000;}
</style>
<g>
	<path class="st0" d="M16.7,9.9V6.5c0-3.6,2.9-6.5,6.5-6.5c0.1,0,0.1,0,0.2,0C27,0,30,2.9,30.1,6.5v3.3h13.3V6.5
		C43.3,3,46.2,0,49.7,0c0.1,0,0.2,0,0.3,0c3.7,0,6.7,3,6.7,6.7V10h13.4V6.7c-0.1-3.5,2.7-6.4,6.2-6.5c0.2,0,0.3,0,0.5,0
		C80.1,0,83,2.5,83.3,5.8c0,0.2,0,0.5,0,0.7v3.3h8.4c4.6,0,8.4,3.7,8.4,8.4v43.1c0,1.3-0.5,2.1-1.6,2.1c-1,0-1.8-0.9-1.8-1.9
		c0-0.1,0-0.1,0-0.2V33.5H3.1v51c-0.3,2.9,1.8,5.4,4.7,5.7c0.4,0,0.8,0,1.1,0h46.3c0.8,0.1,1.5,0.7,1.6,1.6c0,0.9-0.7,1.6-1.6,1.8
		H8.9c-4.6,0.3-8.6-3.3-8.8-7.9c0-0.3,0-0.6,0-1V19c-0.3-4.6,3.3-8.6,7.9-8.8c0.3,0,0.6,0,1,0C11.5,9.9,14.1,9.8,16.7,9.9z
		 M29.9,13.2v3.3c0.5,3.7-2,7.1-5.7,7.6c-3.7,0.5-7.1-2-7.6-5.7c-0.1-0.6-0.1-1.3,0-1.9v-3.3h-8c-2.7-0.2-5,1.9-5.2,4.6
		c0,0.2,0,0.4,0,0.6V30h93.1V18.2c0.1-2.6-1.8-4.8-4.4-5c-2.9-0.3-6,0-8.8,0v3.1c0.7,3.6-1.7,7.1-5.3,7.8c-3.6,0.7-7.1-1.7-7.8-5.3
		c-0.1-0.8-0.2-1.5,0-2.3v-3H56.7v3.3c0,3.6-2.8,6.5-6.4,6.5c0,0-0.1,0-0.1,0c-3.6,0-6.6-2.9-6.7-6.5v-3.3
		C38.8,13.2,34.6,13.2,29.9,13.2z M20,11.7v4.7c0,1.8,1.5,3.3,3.3,3.3c1.8,0,3.3-1.5,3.3-3.3V7c0.2-1.8-1.2-3.5-3-3.6
		c-0.1,0-0.2,0-0.3,0C21.4,3.5,19.9,5.1,20,7c0,0,0,0,0,0V11.7z M53.3,11.7V7c0-1.8-1.5-3.3-3.3-3.3S46.6,5.2,46.6,7v9.4
		c-0.2,1.8,1.2,3.5,3.1,3.6c0.1,0,0.2,0,0.3,0c1.9-0.1,3.4-1.7,3.3-3.6V11.7z M73.4,11.7v4.7c0,1.8,1.5,3.3,3.3,3.3
		c1.8,0,3.3-1.5,3.3-3.3V7c0.2-1.8-1.2-3.5-3-3.6c-0.1,0-0.2,0-0.3,0c-1.9,0.1-3.4,1.7-3.3,3.6c0,0,0,0,0,0V11.7z"/>
	<path class="st0" d="M56.7,78.3c0-11.9,9.7-21.6,21.6-21.6c11.9,0,21.6,9.7,21.6,21.6c0,11.9-9.7,21.6-21.6,21.6
		C66.3,99.8,56.7,90.2,56.7,78.3C56.7,78.3,56.7,78.3,56.7,78.3z M78.3,96.7c10.1,0,18.3-8.1,18.6-18.2c0.1-10.2-8-18.5-18.2-18.6
		c-10.2-0.1-18.5,8-18.6,18.2S68.1,96.6,78.3,96.7c0,0,0.1,0,0.2,0L78.3,96.7z"/>
	<path class="st0" d="M20.1,41.7h3.3c1.8,0,3.2,1.4,3.3,3.1V50c0.1,1.7-1.2,3.1-2.9,3.1c-0.1,0-0.2,0-0.2,0h-6.9
		c-1.7,0-3.1-1.4-3.1-3.1v-5.2c0-1.8,1.5-3.3,3.3-3.3C18,41.7,19,41.7,20.1,41.7z M16.7,45v5h6.5v-5H16.7z"/>
	<path class="st0" d="M40.1,53.3H37c-1.7,0.1-3.2-1.2-3.3-2.9c0-0.2,0-0.3,0-0.5V45c0-1.8,1.5-3.3,3.3-3.3h6.5
		c1.7-0.1,3.2,1.2,3.3,2.9c0,0.1,0,0.3,0,0.4v5c0,1.8-1.5,3.3-3.3,3.3L40.1,53.3z M43.2,50V45h-6.5v5L43.2,50z"/>
	<path class="st0" d="M59.9,41.7h3.3c1.8,0,3.2,1.4,3.3,3.1V50c0.1,1.7-1.2,3.1-2.9,3.1c-0.1,0-0.1,0-0.2,0h-7
		c-1.7-0.1-3.1-1.5-3.1-3.2v-5.2c0-1.7,1.3-3,3-3c0.1,0,0.1,0,0.2,0H59.9z M56.7,45v5h6.5v-5H56.7z"/>
	<path class="st0" d="M79.9,53.3h-3.1c-1.7,0.1-3.2-1.2-3.3-2.9c0-0.1,0-0.3,0-0.4V45c0-1.8,1.5-3.3,3.3-3.3h6.5
		c1.7-0.1,3.2,1.2,3.3,2.9c0,0.1,0,0.3,0,0.4v5c0,1.8-1.5,3.3-3.3,3.3L79.9,53.3z M76.8,45v5h6.5v-5H76.8z"/>
	<path class="st0" d="M20.1,68.5h-3.3c-1.8,0-3.3-1.5-3.3-3.3v-5.3c0-1.7,1.3-3,3-3c0,0,0.1,0,0.1,0h6.7c1.7,0,3.1,1.4,3.1,3.1v5.2
		c-0.1,1.7-1.4,3-3.1,3C22.2,68.4,21.1,68.5,20.1,68.5z M23.4,60.1H17v5h6.5L23.4,60.1z"/>
	<path class="st0" d="M40.1,68.5h-3.3c-1.8,0-3.3-1.5-3.3-3.3v-5.3c0-1.7,1.3-3,3-3c0,0,0,0,0.1,0h6.7c1.7,0,3.1,1.4,3.1,3.1v5.2
		c-0.1,1.6-1.4,3-3,3C42.2,68.4,41.2,68.5,40.1,68.5z M43.3,60.1h-6.6v5h6.6V60.1z"/>
	<path class="st0" d="M20.1,71.5h3.3c1.8,0.1,3.3,1.5,3.3,3.3v5c0,1.8-1.5,3.3-3.3,3.3H17c-1.7,0.1-3.2-1.2-3.3-2.9
		c0-0.2,0-0.3,0-0.5v-5c0-1.8,1.5-3.3,3.3-3.3L20.1,71.5z M23.4,74.8H17v5h6.5L23.4,74.8z"/>
	<path class="st0" d="M40.1,71.5h3.3c1.8,0.1,3.3,1.5,3.3,3.3v5c0,1.8-1.5,3.3-3.3,3.3H37c-1.7,0.1-3.2-1.2-3.3-2.9
		c0-0.2,0-0.3,0-0.5v-5c0-1.8,1.5-3.3,3.3-3.3L40.1,71.5z M43.2,79.9v-5h-6.5v5H43.2z"/>
	<path class="st0" d="M56.7,60.1v5c0.3,0,0.5,0,0.5,0.3c0.8,0.2,1.3,0.9,1.2,1.7c-0.1,0.8-0.9,1.4-1.7,1.4c-1.7,0-3.1-1.4-3.1-3.1
		v-5.8c0.2-1.6,1.5-2.9,3.1-3.1h7c0.9,0,1.6,0.7,1.6,1.6s-0.7,1.6-1.6,1.6C61.4,60,59,60.2,56.7,60.1z"/>
	<path class="st0" d="M75.2,84.2c0.5-0.7,1-1.3,1.6-1.8l10.6-10.6c0.3-0.3,0.5-0.5,0.8-0.5c0.7-0.5,1.6-0.5,2.3,0
		c0.6,0.7,0.6,1.7,0,2.3c-0.5,0.7-1.2,1.3-1.8,1.8l-12,11.9c-1.3,1.3-2.1,1.3-3.1,0l-6.2-6.2c-1.1-1-1.1-1.8-0.3-2.6
		c0.6-0.7,1.7-0.7,2.4,0c0.1,0.1,0.2,0.2,0.2,0.3C71.4,80.7,73.3,82.6,75.2,84.2z"/>
</g>
</svg>
