<?xml version="1.0" encoding="utf-8"?>
<!-- Generator: Adobe Illustrator 25.2.1, SVG Export Plug-In . SVG Version: 6.00 Build 0)  -->
<svg version="1.1" id="Layer_1" xmlns="http://www.w3.org/2000/svg" xmlns:xlink="http://www.w3.org/1999/xlink" x="0px" y="0px"
	 viewBox="0 0 100 87.9" style="enable-background:new 0 0 100 87.9;" xml:space="preserve">
<style type="text/css">
	.st0{fill:#000;}
</style>
<g>
	<path class="st0" d="M86.8,17.9H4.3c0.2,0.4,0.2,0.7,0.2,1.1v31.5C4.5,54.8,7,57,11,57H42c0.9,0.3,1.6,1.2,1.5,2.2
		c0,1-0.8,1.9-1.8,2h-31C5.7,61.4,1.3,58,0.2,53C0,52.2,0,51.3,0,50.4V9.9c0.5-5,4.4-8.9,9.4-9.4h71.3c4.6-0.2,8.8,2.7,10,7.1
		c0.3,1.1,0.4,2.2,0.5,3.4v21.9c0.1,1.2-0.7,2.3-1.9,2.5c-1.2,0.3-2.4-0.5-2.6-1.7c-0.1-0.3-0.1-0.5,0-0.8V19.7
		C86.8,19.1,86.8,18.5,86.8,17.9z M86.8,13.5c0.1-1.3,0.1-2.5,0-3.8C86.4,6.8,83.9,5,80.6,5H10.1C7.5,4.8,5.2,6.6,4.7,9.1
		c-0.3,1.5-0.4,3-0.5,4.5L86.8,13.5z"/>
	<path class="st0" d="M76.1,39.6c13.2,0,23.9,10.7,23.9,23.9S89.3,87.4,76.1,87.4S52.2,76.7,52.2,63.5
		C52.3,50.3,62.9,39.6,76.1,39.6z M76.1,44c-10.9,0-19.7,8.7-19.8,19.6c0,10.9,8.7,19.7,19.6,19.8c10.9,0,19.7-8.7,19.8-19.6
		c0-0.1,0-0.1,0-0.2C95.7,52.8,86.9,44.1,76.1,44z"/>
	<path class="st0" d="M19.5,50.5h-8.3c-1.3,0.1-2.4-0.9-2.5-2.1c0,0,0-0.1,0-0.1c0-1.2,0.9-2.2,2.1-2.2c0.1,0,0.2,0,0.3,0h17
		c1.5,0,2.5,0.9,2.2,2.2c-0.2,1.3-0.9,2-2.5,2C25.2,50.5,22.3,50.5,19.5,50.5z"/>
	<path class="st0" d="M15.2,39.6h-4c-1.3,0.1-2.4-0.9-2.5-2.1c0,0,0-0.1,0-0.1c0-1.2,0.9-2.2,2.1-2.2c0.1,0,0.2,0,0.4,0h8.3
		c1.2-0.1,2.3,0.7,2.5,2c0.1,1.2-0.7,2.3-2,2.5c-0.2,0-0.3,0-0.5,0L15.2,39.6L15.2,39.6z"/>
	<path class="st0" d="M76.1,67l6.7-6.7c0.4-0.4,0.9-0.7,1.3-0.9c0.9-0.3,1.9,0.1,2.5,0.9c0.6,0.7,0.6,1.7,0,2.5l-0.7,0.7l-7.8,7.8
		c-1.5,1.3-2.5,1.3-4,0l-5.8-5.8c-0.6-0.5-0.9-1.4-0.7-2.2c0.2-0.9,0.9-1.5,1.8-1.5c0.8,0,1.6,0.3,2.2,0.9c1.3,1.1,2.7,2.7,4,4
		C75.5,66.4,75.7,66.6,76.1,67z"/>
</g>
</svg>
