<?xml version="1.0" encoding="utf-8"?>
<!-- Generator: Adobe Illustrator 25.2.1, SVG Export Plug-In . SVG Version: 6.00 Build 0)  -->
<svg version="1.1" id="Layer_1" xmlns="http://www.w3.org/2000/svg" xmlns:xlink="http://www.w3.org/1999/xlink" x="0px" y="0px"
	 viewBox="0 0 100 52.4" style="enable-background:new 0 0 100 52.4;" xml:space="preserve">
<style type="text/css">
	.st0{fill:#000;}
</style>
<g>
	<path class="st0" d="M93.1,23.1h-9.9V12.3c-0.1-0.8-0.8-1.4-1.6-1.4c-0.7,0.1-1.3,0.6-1.4,1.4v12.2c0,0.8,0.7,1.5,1.5,1.5h11.4
		c0.8,0.1,1.5-0.5,1.6-1.4c0.1-0.8-0.5-1.5-1.4-1.6C93.3,23.1,93.2,23.1,93.1,23.1L93.1,23.1z"/>
	<path class="st0" d="M30.3,26.7c0-0.8-0.6-1.5-1.4-1.5c0,0,0,0,0,0H1.6c-0.8-0.1-1.5,0.5-1.6,1.4s0.5,1.5,1.4,1.6
		c0.1,0,0.2,0,0.2,0h27.2C29.7,28.2,30.3,27.5,30.3,26.7z"/>
	<path class="st0" d="M10.7,18.8h27.2c0.8,0.1,1.5-0.5,1.6-1.4c0.1-0.8-0.5-1.5-1.4-1.6c-0.1,0-0.2,0-0.2,0H10.7
		c-0.8,0.1-1.4,0.8-1.4,1.6C9.4,18.2,9.9,18.8,10.7,18.8z"/>
	<path class="st0" d="M99.4,22.9L91.7,8.6c-0.8-1.5-2.4-2.4-4.1-2.4H72.2c-0.6,0-1.2,0.1-1.7,0.3V4.9c0-2.6-2.1-4.6-4.7-4.7H20.1
		c-2.6,0-4.6,2.1-4.6,4.7v6c-0.1,0.8,0.5,1.5,1.4,1.6c0.8,0.1,1.5-0.5,1.6-1.4c0-0.1,0-0.2,0-0.2v-6c0-0.9,0.8-1.7,1.7-1.7h45.8
		c0.9,0,1.7,0.8,1.7,1.7v34.3c0,0.9-0.8,1.7-1.7,1.7H46.4c-0.8-5.4-5.8-9.1-11.2-8.3c-4.3,0.6-7.7,4-8.3,8.3h-6.6
		c-0.9,0-1.7-0.7-1.7-1.7c0,0,0,0,0,0v-5.7c-0.1-0.8-0.8-1.4-1.6-1.4c-0.7,0.1-1.3,0.6-1.4,1.4v5.7c0,2.6,2.1,4.6,4.7,4.7h6.6
		c0.8,5.4,5.8,9.1,11.2,8.3c4.3-0.6,7.7-4,8.3-8.3h19.5c1.2,0,2.3-0.5,3.2-1.3c0.9,0.8,2,1.3,3.2,1.3H74c0.8,5.4,5.9,9.1,11.3,8.3
		c4.3-0.7,7.7-4,8.3-8.3h1.8c2.6,0,4.7-2.1,4.7-4.7V25.1C100,24.3,99.8,23.6,99.4,22.9z M43.6,42.4c-0.1,3.8-3.2,6.9-7.1,6.8
		c-3.8-0.1-6.9-3.2-6.8-7.1c0.1-3.8,3.2-6.9,7.1-6.8c3.7,0.1,6.8,3.1,6.8,6.8c0,0,0,0.1,0,0.1S43.6,42.4,43.6,42.4z M83.8,49.3
		c-3.8,0-6.9-3.1-6.9-7c0-3.8,3.1-6.9,7-6.9c3.8,0,6.9,3.1,6.9,7C90.8,46.2,87.7,49.3,83.8,49.3C83.8,49.3,83.8,49.3,83.8,49.3z
		 M97,39.2c0,0.9-0.8,1.7-1.7,1.7l0,0h-1.8c-0.8-5.4-5.9-9.1-11.3-8.3c-4.3,0.7-7.7,4-8.3,8.3h-1.8c-0.9,0-1.7-0.8-1.7-1.7v0V10.8
		c0-0.9,0.8-1.7,1.7-1.7l0,0h15.4c0.6,0,1.2,0.3,1.5,0.9l7.7,14.2C97,24.5,97,24.8,97,25L97,39.2z"/>
	<path class="st0" d="M40.4,21.2h4.8v1.3h-3.2v2h2.5v1.2h-2.5v3.3h-1.5V21.2z"/>
	<path class="st0" d="M49.2,21.2c1.9,0,2.8,1.1,2.8,2.4c0,1.1-0.7,2-1.8,2.2l1.9,3.1h-1.9l-1.7-3.1h-0.7v3.1h-1.5v-7.7H49.2z
		 M49.1,22.4h-1.3v2.3h1.3c0.9,0,1.3-0.4,1.3-1.2S50,22.4,49.1,22.4L49.1,22.4z"/>
	<path class="st0" d="M57.8,22.4h-2.9v1.9h2.6v1.2h-2.6v2h2.9v1.3h-4.5v-7.7h4.5V22.4z"/>
	<path class="st0" d="M63.7,22.4h-2.9v1.9h2.6v1.2h-2.6v2h2.9v1.3h-4.5v-7.7h4.5L63.7,22.4z"/>
</g>
</svg>
