<?xml version="1.0" encoding="utf-8"?>
<!-- Generator: Adobe Illustrator 25.2.1, SVG Export Plug-In . SVG Version: 6.00 Build 0)  -->
<svg version="1.1" id="Layer_1" xmlns="http://www.w3.org/2000/svg" xmlns:xlink="http://www.w3.org/1999/xlink" x="0px" y="0px"
	 viewBox="0 0 100 100" style="enable-background:new 0 0 100 100;" xml:space="preserve">
<style type="text/css">
	.st0{fill:#000;}
</style>
<g>
	<path class="st0" d="M50,99.8c-27.5,0-49.9-22.3-49.9-49.9v-1.3l0,0c1-27.5,24.1-49.1,51.6-48.1c26.7,0.9,47.9,22.7,48.1,49.4v1.3
		C99.1,78.2,77,99.7,50,99.8z M2.8,51.2C3.9,77.3,26,97.5,52,96.4c25-1.1,44.8-21.5,45.2-46.5v-1.3c-1-26.1-22.9-46.5-49-45.5
		C23.1,4,3,24.6,2.8,49.9L2.8,51.2z"/>
	<path class="st0" d="M75.6,62.3c-6.9,14.2-23.9,20.1-38.1,13.2c-5.4-2.6-9.8-6.8-12.6-12c-0.8-1.5-3.1-0.2-2.3,1.3
		c8.2,15.1,27,20.7,42.1,12.5c1.3-0.7,2.6-1.6,3.9-2.5c3.9-3,7.1-6.8,9.2-11.2C78.6,62.2,76.4,60.8,75.6,62.3L75.6,62.3z"/>
	<path class="st0" d="M22.4,38.8c-0.2,0-0.4,0-0.5-0.1c-0.6-0.3-0.9-1-0.7-1.7C26.3,25.7,37.6,18.6,50,18.8
		c12.3-0.2,23.6,6.8,28.8,17.9c0.3,0.6,0,1.4-0.7,1.7c-0.6,0.3-1.4,0-1.7-0.7c0,0,0,0,0,0C71.6,27.6,61.3,21.2,50,21.4
		c-11.3-0.3-21.7,6.2-26.4,16.5C23.4,38.4,22.9,38.8,22.4,38.8z"/>
	<path class="st0" d="M41.4,36.5c0-0.5,0-1.2,0-1.8l0,0c-0.1,0.6-0.3,1.2-0.5,1.7L40.4,38h-0.8l-0.5-1.7c-0.2-0.6-0.3-1.1-0.4-1.7
		l0,0c0,0.6,0,1.3,0,1.8v1.7h-0.9l0.3-4.4h1.3l0.4,1.5c0.1,0.5,0.3,1.1,0.4,1.7l0,0c0.1-0.5,0.3-1.1,0.4-1.7l0.5-1.5h1.3l0,4.4h-1
		L41.4,36.5z"/>
	<path class="st0" d="M44.2,37.1l-0.3,1.1h-1l1.3-4.4h1.3l1.4,4.4h-1.1L45.5,37L44.2,37.1z M45.4,36.3l-0.3-0.9
		c-0.1-0.3-0.2-0.6-0.2-0.9l0,0c0,0.3-0.1,0.6-0.2,0.9l-0.3,0.9H45.4z"/>
	<path class="st0" d="M47.5,33.9c0.4-0.1,0.9-0.1,1.4-0.1c0.6,0,1.3,0.1,1.8,0.5c0.5,0.4,0.8,1,0.7,1.7c0,0.7-0.2,1.3-0.7,1.8
		c-0.6,0.4-1.3,0.6-2,0.6c-0.4,0-0.8,0-1.1,0L47.5,33.9z M48.5,37.5h0.4c0.7,0.1,1.4-0.5,1.5-1.2c0-0.1,0-0.2,0-0.3
		c0.1-0.7-0.4-1.3-1.1-1.4c-0.1,0-0.2,0-0.3,0c-0.2,0-0.3,0-0.5,0L48.5,37.5z"/>
	<path class="st0" d="M54.7,36.3H53v1.1h1.8v0.8h-2.8v-4.4h2.7v0.8h-1.7v0.9h1.7L54.7,36.3z"/>
	<path class="st0" d="M57.9,33.8v4.4h-1v-4.4H57.9z"/>
	<path class="st0" d="M58.8,38.2v-4.4H60l0.9,1.7c0.3,0.5,0.5,1,0.7,1.5l0,0c-0.1-0.6-0.1-1.2-0.1-1.8v-1.3h0.9v4.3h-1.1l-0.9-1.7
		c-0.3-0.5-0.5-1-0.8-1.6l0,0c0,0.6,0,1.2,0,1.9v1.3H58.8z"/>
	<path class="st0" d="M16.9,69.4c0.4,0.4,0.7,0.9,1,1.4c0.4,0.5,0.6,1.1,0.6,1.7c-0.1,0.5-0.3,0.9-0.8,1.2c-0.4,0.3-0.9,0.4-1.4,0.3
		c-0.6-0.2-1.2-0.6-1.5-1.2c-0.1-0.1-0.2-0.2-0.2-0.4L13,73.4l-0.7-1L16.9,69.4z M15.5,71.8c0,0.1,0.1,0.3,0.2,0.4
		c0.4,0.6,0.9,0.7,1.4,0.4c0.4-0.3,0.5-0.8,0.2-1.2c0,0-0.1-0.1-0.1-0.1c-0.1-0.2-0.2-0.3-0.3-0.4L15.5,71.8z"/>
	<path class="st0" d="M19.9,73.8c0.4,0.4,0.8,0.8,1.2,1.2c0.5,0.4,0.8,1,0.9,1.7c0,0.5-0.2,0.9-0.5,1.2c-0.5,0.4-1.1,0.5-1.7,0.2
		l0,0c0.1,0.4,0,0.9-0.3,1.2c-0.3,0.4-0.6,0.9-0.9,1.4l-0.9-1c0.2-0.4,0.4-0.8,0.7-1.2c0.4-0.6,0.4-0.9,0-1.3l-0.3-0.3l-1.7,1.5
		l-0.8-0.9L19.9,73.8z M18.9,76.3l0.3,0.4c0.4,0.5,0.9,0.6,1.3,0.2c0.4-0.3,0.4-0.8,0-1.2c-0.1-0.1-0.3-0.3-0.4-0.4L18.9,76.3z"/>
	<path class="st0" d="M24.1,82.4L22.5,81l-0.9,1l1.7,1.5l-0.7,0.8L20,82l3.7-4.2l2.7,2.3l-0.7,0.8l-1.7-1.4l-0.8,0.9l1.5,1.3
		L24.1,82.4z"/>
	<path class="st0" d="M29.6,86.4c0.3-0.6,0.7-1.3,1.2-2l0,0c-0.5,0.5-1.1,1.1-1.7,1.5l-1.7,1.5l-0.8-0.5l0.6-2.2
		c0.2-0.7,0.4-1.4,0.7-2.1l0,0c-0.4,0.6-0.9,1.3-1.3,1.9l-1.2,1.7l-1-0.6l3.2-4.6l1.4,0.9l-0.5,1.9c-0.2,0.6-0.4,1.3-0.7,1.9l0,0
		c0.5-0.5,1-1,1.5-1.4L31,83l1.4,0.9l-2.7,4.9l-1.1-0.6L29.6,86.4z"/>
	<path class="st0" d="M35.2,85.2l-2.2,5.1l-1.2-0.5l2.2-5.1L35.2,85.2z"/>
	<path class="st0" d="M37.9,86.3L37,89.3c-0.3,0.9,0,1.5,0.6,1.7c0.6,0.2,1.1-0.2,1.4-1.1l1-3.2l1.2,0.4l-0.9,3
		c-0.2,1.2-1.3,2-2.5,1.8c-0.2,0-0.3-0.1-0.5-0.1c-1.3-0.4-1.9-1.4-1.4-3.1l0.9-3L37.9,86.3z"/>
	<path class="st0" d="M46.9,91.6c0-0.7,0.1-1.5,0.2-2.3l0,0c-0.3,0.7-0.6,1.5-0.9,2.1l-1,2.1l-1-0.1L44,91.2
		c-0.1-0.7-0.2-1.5-0.3-2.2l0,0c-0.1,0.8-0.2,1.7-0.4,2.3L43,93.3l-1.2-0.1l1-5.5l1.7,0.2l0.3,1.9c0.1,0.7,0.2,1.4,0.2,2l0,0
		c0.2-0.6,0.5-1.3,0.8-1.9l0.8-1.8l1.7,0.2L48,93.8l-1.2-0.1L46.9,91.6z"/>
	<path class="st0" d="M58,94.1c-0.8-0.1-1.5-0.3-2.3-0.5c-0.1,0-0.3,0-0.4,0c-1.4,0.1-2.7-1-2.8-2.4c0,0,0,0,0-0.1
		c-0.3-1.5,0.6-2.9,2.1-3.2c0.1,0,0.2,0,0.2,0c1.6-0.1,2.9,1.2,3,2.8c0,0.9-0.3,1.7-1,2.3l0,0c0.5,0,0.9,0.1,1.4,0.2L58,94.1z
		 M56.5,90.5c-0.1-1-0.7-1.8-1.6-1.7c-0.9,0.1-1.3,1-1.1,2s0.7,1.8,1.6,1.7C56.3,92.4,56.7,91.6,56.5,90.5z"/>
	<path class="st0" d="M60.1,86.9L61,90c0.3,0.9,0.8,1.3,1.4,1.1c0.6-0.2,0.9-0.8,0.6-1.7L62,86.3l1.2-0.4l0.9,3
		c0.5,1.1,0.1,2.4-1,2.9C63,92,62.8,92,62.6,92.1c-1.3,0.4-2.4-0.1-2.9-1.8l-0.9-3L60.1,86.9z"/>
	<path class="st0" d="M67.4,88.6l0.3,1.5l-1.2,0.6l-0.9-5.8l1.5-0.7l4,4.3L69.9,89l-1-1.1L67.4,88.6z M68.3,87.2l-0.8-0.9l-0.7-0.9
		l0,0c0,0.3,0.2,0.8,0.2,1.1l0.2,1.2L68.3,87.2z"/>
	<path class="st0" d="M69.8,82.7l1.1-0.7l2.5,3.8l1.8-1.2l0.6,0.9l-2.9,1.9L69.8,82.7z"/>
	<path class="st0" d="M74.7,79.1l3.6,4.3l-1,0.8l-3.5-4.3L74.7,79.1z"/>
	<path class="st0" d="M77.6,78l-1.1,1.1l-0.8-0.7l3-3.1l0.8,0.8l-1.1,1.1l3.2,3.2l-0.9,0.9L77.6,78z"/>
	<path class="st0" d="M84.8,76.6L83,75.2l-3.7-0.6l0.9-1.2l1.4,0.3l1.1,0.3l0,0l-0.6-1l-0.7-1.3l0.8-1.1l1.5,3.4l1.9,1.4L84.8,76.6z
		"/>
	<path class="st0" d="M13.7,33.6c0.2-0.6,0.4-1.1,0.6-1.7c0.2-0.6,0.6-1,1.1-1.4c0.5-0.2,1-0.2,1.4,0c0.5,0.2,0.8,0.6,1,1
		c0.2,0.6,0.1,1.3-0.2,1.9c0,0.2-0.2,0.3-0.2,0.4l1.8,0.9l-0.5,1.1L13.7,33.6z M16.5,33.6c0.1-0.1,0.2-0.2,0.2-0.4
		c0.3-0.4,0.2-1-0.2-1.3c0,0-0.1,0-0.1-0.1c-0.5-0.2-0.9,0-1.2,0.6c-0.1,0.2-0.1,0.3-0.2,0.5L16.5,33.6z"/>
	<path class="st0" d="M16.5,27.9c0.3-0.5,0.5-1,0.9-1.4c0.3-0.6,0.8-1,1.4-1.2c0.4-0.1,0.9,0,1.3,0.2c0.5,0.4,0.8,1.1,0.6,1.7l0,0
		c0.4-0.2,0.9-0.2,1.3,0c0.5,0.2,1,0.4,1.6,0.5l-0.7,1.1c-0.4-0.1-0.9-0.2-1.3-0.4c-0.7-0.3-1-0.2-1.2,0.2l-0.2,0.3l1.8,1.2l-0.7,1
		L16.5,27.9z M19.2,28.3l0.3-0.4c0.4-0.5,0.3-1-0.1-1.3s-0.8-0.2-1.2,0.3c-0.1,0.2-0.2,0.3-0.3,0.5L19.2,28.3z"/>
	<path class="st0" d="M24.9,22.6L23.4,24l1,0.9l1.6-1.7l0.8,0.7l-2.4,2.6l-4-3.8l2.4-2.5l0.8,0.7l-1.5,1.7l0.9,0.8l1.4-1.5
		L24.9,22.6z"/>
	<path class="st0" d="M30.4,18.5c-0.4-0.5-0.9-1.2-1.4-1.8l0,0c0.3,0.7,0.6,1.5,0.8,2.1l0.7,2.2l-0.8,0.6L28,20.1
		c-0.6-0.5-1.1-1-1.7-1.5l0,0l1.3,1.9l1.2,1.8L27.8,23l-3.1-4.7l1.4-1l1.5,1.2c0.5,0.4,1.1,0.9,1.6,1.3l0,0
		c-0.3-0.6-0.5-1.3-0.7-1.9L27.8,16l1.3-1l3.5,4.3l-1,0.7L30.4,18.5z"/>
	<path class="st0" d="M32.8,13.2l2.5,5l-1.1,0.6l-2.5-5L32.8,13.2z"/>
	<path class="st0" d="M36.2,11.7l1.1,3c0.3,0.9,0.8,1.2,1.4,1c0.6-0.2,0.8-0.8,0.5-1.7L38.1,11l1.2-0.4l1,3c0.6,1.1,0.2,2.4-0.9,3
		c-0.2,0.1-0.3,0.2-0.5,0.2c-1.3,0.5-2.4,0-2.9-1.7l-1-2.9L36.2,11.7z"/>
	<path class="st0" d="M47.2,12.7c-0.1-0.7-0.2-1.5-0.3-2.3l0,0c0,0.7-0.2,1.5-0.3,2.2l-0.4,2.2l-1,0.1l-0.9-2
		c-0.3-0.7-0.5-1.4-0.8-2.1l0,0c0,0.8,0.1,1.7,0.2,2.3l0.2,2.1l-1.2,0.2l-0.4-5.6L44,9.7l0.8,1.8c0.3,0.6,0.5,1.3,0.7,1.9l0,0
		c0-0.7,0.2-1.4,0.3-2.1l0.4-1.9l1.7-0.2l1,5.5l-1.2,0.2L47.2,12.7z"/>
	<path class="st0" d="M57.3,16.5c-0.7-0.3-1.4-0.7-2.1-1.1c-0.1-0.1-0.2-0.1-0.4-0.2c-1.4-0.3-2.3-1.7-2-3.1c0,0,0,0,0-0.1
		c0.1-1.5,1.4-2.6,2.9-2.5c0.1,0,0.2,0,0.2,0c1.6,0.4,2.5,1.9,2.1,3.5c-0.2,0.9-0.8,1.6-1.6,2l0,0c0.4,0.2,0.9,0.4,1.3,0.5
		L57.3,16.5z M56.9,12.6c0.2-1-0.2-1.9-1.1-2c-0.9-0.1-1.5,0.6-1.7,1.7s0.2,1.9,1.1,2.1C56,14.4,56.7,13.7,56.9,12.6z"/>
	<path class="st0" d="M62.2,11.1l-1.1,3c-0.3,0.9-0.2,1.5,0.5,1.7c0.6,0.2,1.1-0.1,1.4-1l1.1-3l1.2,0.4l-1,2.9
		c-0.2,1.2-1.3,2-2.5,1.8c-0.2,0-0.4-0.1-0.5-0.2c-1.3-0.5-1.8-1.5-1.3-3.2l1-2.9L62.2,11.1z"/>
	<path class="st0" d="M66.6,17.5l-1.1,1.1l-1.1-0.6l4.2-4l1.5,0.8l-1.2,5.7l-1.3-0.7l0.3-1.5L66.6,17.5z M68.2,17.4l0.3-1.2
		c0.1-0.3,0.2-0.7,0.3-1.1l0,0c-0.2,0.3-0.5,0.6-0.8,0.8l-0.9,0.9L68.2,17.4z"/>
	<path class="st0" d="M73.4,16.9l1,0.8l-2.8,3.5l1.7,1.4l-0.7,0.8l-2.7-2.2L73.4,16.9z"/>
	<path class="st0" d="M78.5,21.4l-4,3.9l-0.9-0.9l4-3.9L78.5,21.4z"/>
	<path class="st0" d="M79.9,24.8L79,23.6l0.8-0.6l2.6,3.4l-0.8,0.6l-0.9-1.2l-3.6,2.8l-0.8-1L79.9,24.8z"/>
	<path class="st0" d="M79.4,32l2-1.1l2.1-3.1l0.7,1.3l-0.9,1.1l-0.7,0.9l0,0l1.2-0.1l1.4-0.1l0.7,1.2h-3.7L80,33.1L79.4,32z"/>
	<path class="st0" d="M19,40.9v19.3h-4.4V40.9H19z"/>
	<path class="st0" d="M22.8,60.2V40.9h5l4,7.1c1.2,2.1,2.3,4.3,3.2,6.6H35c-0.3-2.7-0.4-5.4-0.3-8v-5.6h4v19.3h-4.6L30,52.8
		c-1.2-2.2-2.4-4.5-3.4-6.8h-0.1c0.1,2.5,0.2,5.3,0.2,8.4v5.8L22.8,60.2z"/>
	<path class="st0" d="M42.5,41.2c1.9-0.3,3.9-0.4,5.8-0.4c2.8-0.2,5.6,0.5,7.9,2.1c2.2,1.7,3.4,4.5,3.3,7.3c0.2,3-1,5.8-3.2,7.8
		c-2.6,1.8-5.7,2.7-8.9,2.5c-1.7,0-3.3-0.1-4.9-0.3L42.5,41.2z M46.9,56.9c0.5,0,1,0,1.5,0c3.9,0,6.5-2.1,6.5-6.7
		c0.3-3-1.8-5.8-4.9-6.1c-0.4,0-0.8,0-1.2,0c-0.7,0-1.3,0-2,0.2L46.9,56.9z"/>
	<path class="st0" d="M66.8,40.9v19.3h-4.4V40.9H66.8z"/>
	<path class="st0" d="M75,55.3l-1.4,5h-4.5L75,41h5.7l6,19.2H82l-1.5-5L75,55.3z M79.9,52l-1.2-4.1c-0.3-1.1-0.7-2.6-1-3.7l0,0
		c-0.3,1.2-0.6,2.6-0.9,3.7L75.7,52H79.9z"/>
	<path class="st0" d="M38.8,65.9c0,0,0.8-1.9,4.5-1.8c0.7,0,1.5-0.2,2.1-0.5c0.7-0.2,1.4-0.2,2.2-0.2c2.1,0.2,4.3,0,6.4-0.5
		c0.3-0.5,0.9-0.8,1.5-0.8c0.4,0,0.7-0.1,1.1-0.2c0.5-0.3,1.7-0.6,2.1,0.2c0,0,0.9,0.2,0.8,0.9c0,0,0,0.2,0.2,0.1
		c0.1-0.1,0.2-0.1,0.3-0.3c0,0.1,0,0.3-0.1,0.4c0,0,0.4,0.5,0.4,0.7c0,0.1,0,0.2,0.1,0.2l0.8,0.9c0,0,0.2,0.3,0,0.4s0,0.3-0.4,0.4
		s-1.1,0-1.2,0.1s-0.2,0.3,0,0.3s0.4-0.2,0.4,0c0.1,0.2,0.3,0.2,0.2,0.4c-0.1,0.2,0.1,0.9-0.2,0.8c-0.3-0.1-0.5,0-0.5-0.1
		s-0.3-0.3-0.3-0.3s0,0.5-0.3,0.7c-0.3,0.1-0.3,0.3-0.2,0.4c0.1,0.2-0.3,0-0.4-0.6c0,0-0.3,0.6-0.7,0.7v-0.4c0,0-0.2,0.8-0.6,1
		l0.1,1l0.5,0.9c0,0,1.2,0.2,0.7,0.9H57c-0.1,0-0.2,0-0.2-0.2c0-0.2-0.1-0.3-0.2-0.5c-0.2-0.1-0.3,0-0.5-0.5
		c-0.4-0.6-0.8-1.2-1.2-1.7c-0.3,0-0.6-0.1-0.9-0.2c-0.1-0.1-0.3-0.3-0.4-0.4c-0.3,0.3-0.5,0.7-0.7,1c-0.3,0.5-0.8,1.1-0.7,1.3
		c0.1,0.3,0.8,0.5,0.8,0.7c-0.2,0.3-0.5,0.4-0.8,0.4c-0.4,0-1.5,0-0.9-0.7c0,0,0,0-0.1-0.2c-0.1-0.2-0.1-0.5,0-0.7
		c0.2-0.3,0.2-1,0.4-1.4c0.1-0.2,0.2-0.4,0.2-0.7c-1,0.1-1.9,0-2.8-0.5c0,0-0.6,0-0.7,0.8c0,0.3-0.1,0.6-0.2,0.8
		c-0.2,0.3-0.4,0.5-0.2,0.7c0.2,0.3,0.5,0.6,0.8,0.8h0.6c0,0,0.9,0.3,0.2,0.8L48,71.7L46,70v-0.9c0,0,0-0.8-0.3-0.8
		c-0.3,0-0.3,0.2-0.5,0.2c-0.3,0-0.6,0.1-0.7,0.3c-0.2,0.4-0.9,0.6-1,0.6c-0.2,0.2-0.4,0.6-0.4,0.9c0,0.5,0,0.5,0,0.5
		s1.3-0.2,0.9,0.8h-0.2h-1.3c-0.1-0.3-0.2-0.7-0.4-1c0-0.2-0.2,0-0.2-0.4s0-1.5,0-1.5s-0.1-0.1,0.2-0.2h0.3c0-0.4,0.1-0.7,0.3-1.1
		c0.2-0.5,1-1.9,1.1-2.1c0.1-0.3,0.2-0.5,0.3-0.8h-2.8c0,0-1.7,0.3-1.9,1.5c-0.1,0.6,0.2,1.2,0.8,1.5c0.7,0,1.4,0.3,1.8,1
		c0,0-1.4,0.8-2.1-0.5C39,67.8,38.6,66.8,38.8,65.9z"/>
	<polygon class="st0" points="88.7,47.2 89.3,49 91.2,49 89.6,50.1 90.2,51.9 88.7,50.7 87.2,51.9 87.8,50.1 86.2,49 88.1,49 	"/>
	<polygon class="st0" points="9.8,47.2 10.4,49 12.2,49 10.7,50.1 11.3,51.9 9.8,50.7 8.2,51.9 8.8,50.1 7.3,49 9.2,49 	"/>
</g>
</svg>
